<?xml version="1.0" encoding="iso-8859-1"?>
<!-- Generator: Adobe Illustrator 19.0.0, SVG Export Plug-In . SVG Version: 6.00 Build 0)  -->
<svg version="1.1" id="Layer_1" xmlns="http://www.w3.org/2000/svg" xmlns:xlink="http://www.w3.org/1999/xlink" x="0px" y="0px"
	 viewBox="0 0 512.002 512.002" style="enable-background:new 0 0 512.002 512.002;" xml:space="preserve" fill="#fff">
<g>
	<g>
		<g>
			<path d="M192,64.001h-85.333c-11.782,0-21.333,9.551-21.333,21.333v85.333c0,11.782,9.551,21.333,21.333,21.333H192
				c11.782,0,21.333-9.551,21.333-21.333V85.334C213.333,73.552,203.782,64.001,192,64.001z M170.667,149.334H128v-42.667h42.667
				V149.334z"/>
			<path d="M492.766,63.615C468.845,24.117,425.98,0.328,362.779,0.001c-15.139-0.078-25.54,15.199-19.918,29.256l42.667,106.667
				c3.24,8.099,11.084,13.41,19.808,13.41h21.333v192c0,23.589-19.078,42.667-42.667,42.667s-42.667-19.078-42.667-42.667V192.001
				c0-39.786-27.183-73.185-64.002-82.649V21.334c0-11.782-9.551-21.333-21.333-21.333H42.667c-11.782,0-21.333,9.551-21.333,21.333
				v384C9.551,405.334,0,414.886,0,426.668v64c0,11.782,9.551,21.333,21.333,21.333h256c11.782,0,21.333-9.551,21.333-21.333v-64
				c0-11.782-9.551-21.333-21.333-21.333V155.044c12.757,7.371,21.335,21.146,21.335,36.957v149.333
				c0,47.153,38.181,85.333,85.333,85.333c47.153,0,85.333-38.181,85.333-85.333v-192h21.333c11.782,0,21.333-9.551,21.333-21.333
				C512.002,111.119,507.235,87.506,492.766,63.615z M256,469.334H42.667v-21.333H256V469.334z M64,405.334V42.668h170.667v362.667
				H64z M395.413,45.754c29.378,5.895,48.745,19.965,60.857,39.964c4.039,6.67,7.081,13.748,9.244,20.95h-45.736L395.413,45.754z"/>
			<path d="M170.669,234.668h-42.667c-11.782,0-21.333,9.551-21.333,21.333c0,11.782,9.551,21.333,21.333,21.333h42.667
				c11.782,0,21.333-9.551,21.333-21.333C192.002,244.219,182.451,234.668,170.669,234.668z"/>
		</g>
	</g>
</g>
<g>
</g>
<g>
</g>
<g>
</g>
<g>
</g>
<g>
</g>
<g>
</g>
<g>
</g>
<g>
</g>
<g>
</g>
<g>
</g>
<g>
</g>
<g>
</g>
<g>
</g>
<g>
</g>
<g>
</g>
</svg>
