<?xml version="1.0" encoding="iso-8859-1"?>
<!-- Generator: Adobe Illustrator 21.1.0, SVG Export Plug-In . SVG Version: 6.00 Build 0)  -->
<svg version="1.1" id="&#x421;&#x43B;&#x43E;&#x439;_1"
	 xmlns="http://www.w3.org/2000/svg" xmlns:xlink="http://www.w3.org/1999/xlink" x="0px" y="0px" viewBox="0 0 170.88 171"
	 style="enable-background:new 0 0 170.88 171;" xml:space="preserve" fill="#999795">
<g>
	<g>
		<defs>
			<rect id="SVGID_1_" width="170.88" height="171"/>
		</defs>
		<clipPath id="SVGID_2_">
			<use xlink:href="#SVGID_1_"  style="overflow:visible;"/>
		</clipPath>
		<path style="clip-path:url(#SVGID_2_);fill-rule:evenodd;clip-rule:evenodd;" d="M105.441,85.192l60.75-60.746
			c5.594-5.594,5.594-14.66,0-20.25c-5.589-5.594-14.656-5.594-20.25,0l-60.75,60.75l-60.75-60.75
			c-5.589-5.594-14.656-5.594-20.246,0c-5.593,5.59-5.593,14.656,0,20.25l60.746,60.746l-60.746,60.75
			c-5.593,5.594-5.593,14.66,0,20.25c5.59,5.594,14.657,5.594,20.246,0l60.75-60.75l60.75,60.75c5.594,5.594,14.661,5.594,20.25,0
			c5.594-5.594,5.594-14.656,0-20.25L105.441,85.192z M105.441,85.192"/>
	</g>
</g>
</svg>
