<?xml version="1.0" encoding="iso-8859-1"?>
<!-- Generator: Adobe Illustrator 19.0.0, SVG Export Plug-In . SVG Version: 6.00 Build 0)  -->
<svg version="1.1" id="Layer_1" xmlns="http://www.w3.org/2000/svg" xmlns:xlink="http://www.w3.org/1999/xlink" x="0px" y="0px"
	 viewBox="0 0 512 512" style="enable-background:new 0 0 512 512;" xml:space="preserve" fill="#fff">
<g>
	<g>
		<path d="M268.344,179.96H197.96c-12.617,0-22.846,10.229-22.846,22.846c0,12.617,10.229,22.846,22.846,22.846h70.385
			c12.617,0,22.846-10.229,22.846-22.846C291.19,190.189,280.963,179.96,268.344,179.96z"/>
	</g>
</g>
<g>
	<g>
		<path d="M489.154,187.542h-37.485c-16.795-37.341-46.991-67.535-84.327-84.331v-52.71c0-8.425-4.638-16.167-12.066-20.142
			c-7.428-3.975-16.441-3.54-23.452,1.133l-85.627,57.085H167.5C75.14,88.577,0,163.718,0,256.079
			c0,53.789,25.223,103.287,68.089,134.825v70.595c0,12.617,10.229,22.846,22.846,22.846h91.383
			c12.617,0,22.846-10.229,22.846-22.846v-37.919h45.691v37.919c0,12.617,10.229,22.846,22.846,22.846h91.383
			c12.617,0,22.846-10.229,22.846-22.846v-63.595c27.843-17.588,50.213-43.334,63.727-73.286h37.497
			c12.617,0,22.846-10.229,22.846-22.846v-91.384C512,197.771,501.771,187.542,489.154,187.542z M466.31,278.926h-0.002h-30.217
			c-9.837,0-18.572,6.298-21.678,15.634c-9.941,29.881-31.742,55.331-59.812,69.827c-7.594,3.92-12.364,11.752-12.364,20.299v53.968
			h-45.691v-37.919c0-12.617-10.229-22.846-22.846-22.846h-91.383c-12.617,0-22.846,10.229-22.846,22.846v37.919h-45.691v-59.833
			c0-7.877-4.057-15.198-10.737-19.373C67.131,337,45.691,298.357,45.691,256.079c0-67.166,54.642-121.81,121.809-121.81h85.615
			c4.51,0,8.919-1.334,12.672-3.837l55.865-37.243v25.601c0,9.837,6.299,18.572,15.634,21.678
			c36.236,12.055,65.071,40.891,77.129,77.133c3.106,9.335,11.839,15.634,21.678,15.634h30.217V278.926z"/>
	</g>
</g>
<g>
</g>
<g>
</g>
<g>
</g>
<g>
</g>
<g>
</g>
<g>
</g>
<g>
</g>
<g>
</g>
<g>
</g>
<g>
</g>
<g>
</g>
<g>
</g>
<g>
</g>
<g>
</g>
<g>
</g>
</svg>
