<?xml version="1.0" encoding="iso-8859-1"?>
<!-- Generator: Adobe Illustrator 19.0.0, SVG Export Plug-In . SVG Version: 6.00 Build 0)  -->
<svg version="1.1" id="Layer_1" xmlns="http://www.w3.org/2000/svg" xmlns:xlink="http://www.w3.org/1999/xlink" x="0px" y="0px"
	 viewBox="0 0 512 512" style="enable-background:new 0 0 512 512;" xml:space="preserve" fill="#ffffff">
<g>
	<g>
		<path d="M421.359,1.953c-2.876-1.323-5.942-1.96-8.986-1.95c-0.017,0-0.033-0.003-0.051-0.003H99.721
			c-0.026,0-0.05,0.003-0.075,0.004c-3.052-0.014-6.124,0.623-9.004,1.948c-7.569,3.48-12.419,11.049-12.419,19.381v128
			c0,8.892,5.517,16.853,13.842,19.975l97.877,36.705l-26.2,196.501c-0.789,5.916,0.936,11.891,4.757,16.476l71.111,85.333
			c4.053,4.864,10.057,7.676,16.388,7.676s12.336-2.813,16.388-7.676l71.111-85.333c3.821-4.585,5.545-10.56,4.757-16.476
			l-26.2-196.501l97.877-36.705c8.328-3.122,13.845-11.083,13.845-19.975v-128C433.778,13.002,428.928,5.433,421.359,1.953z
			 M120.889,134.549V67.716l58.453,50.102l6.872,41.227L120.889,134.549z M256,457.343l-48.728-58.473l24.74-185.536h47.977
			l24.74,185.537L256,457.343z M224.294,128h63.411l-7.111,42.667h-49.189L224.294,128z M304.997,85.333h-97.994l-49.778-42.667
			h197.549L304.997,85.333z M391.111,134.549l-65.326,24.496l6.872-41.227l58.453-50.102V134.549z"/>
	</g>
</g>
<g>
</g>
<g>
</g>
<g>
</g>
<g>
</g>
<g>
</g>
<g>
</g>
<g>
</g>
<g>
</g>
<g>
</g>
<g>
</g>
<g>
</g>
<g>
</g>
<g>
</g>
<g>
</g>
<g>
</g>
</svg>
