<?xml version="1.0" encoding="iso-8859-1"?>
<!-- Generator: Adobe Illustrator 21.1.0, SVG Export Plug-In . SVG Version: 6.00 Build 0)  -->
<svg version="1.1" id="Layer_1" xmlns="http://www.w3.org/2000/svg" xmlns:xlink="http://www.w3.org/1999/xlink" x="0px" y="0px"
	 viewBox="-49 141 512 512" style="enable-background:new -49 141 512 512;" xml:space="preserve" fill="#ff9e15">
<path d="M416.89,184.514h-63.591v-25.447c0-9.978-8.089-18.067-18.067-18.067s-18.067,8.089-18.067,18.067v25.447H96.834v-25.447
	c0-9.978-8.089-18.067-18.067-18.067s-18.067,8.089-18.067,18.067v25.447H-2.89c-9.978,0-18.067,8.089-18.067,18.067
	c0,11.51,0,421.192,0,432.353c0,9.978,8.089,18.067,18.067,18.067H416.89c9.978,0,18.067-8.089,18.067-18.067
	c0-11.162,0-420.843,0-432.353C434.957,192.603,426.868,184.514,416.89,184.514z M15.176,220.647h383.647v58.566H15.176V220.647z
	 M398.824,616.867H15.176v-301.52h383.647V616.867z"/>
<g>
	<path d="M104.488,408.04H81.112c-3.523,0-6.378-2.856-6.378-6.378v-23.376c0-3.523,2.856-6.378,6.378-6.378h23.376
		c3.523,0,6.378,2.856,6.378,6.378v23.376C110.867,405.184,108.011,408.04,104.488,408.04z"/>
	<path d="M180.622,408.04h-23.376c-3.523,0-6.378-2.856-6.378-6.378v-23.376c0-3.523,2.856-6.378,6.378-6.378h23.376
		c3.523,0,6.378,2.856,6.378,6.378v23.376C187,405.184,184.144,408.04,180.622,408.04z"/>
	<path d="M256.755,408.04h-23.376c-3.523,0-6.378-2.856-6.378-6.378v-23.376c0-3.523,2.856-6.378,6.378-6.378h23.376
		c3.523,0,6.378,2.856,6.378,6.378v23.376C263.133,405.184,260.278,408.04,256.755,408.04z"/>
	<path d="M332.888,408.04h-23.376c-3.523,0-6.378-2.856-6.378-6.378v-23.376c0-3.523,2.856-6.378,6.378-6.378h23.376
		c3.523,0,6.378,2.856,6.378,6.378v23.376C339.267,405.184,336.411,408.04,332.888,408.04z"/>
	<path d="M104.488,484.173H81.112c-3.523,0-6.378-2.856-6.378-6.378v-23.376c0-3.523,2.856-6.378,6.378-6.378h23.376
		c3.523,0,6.378,2.856,6.378,6.378v23.376C110.867,481.318,108.011,484.173,104.488,484.173z"/>
	<path d="M180.622,484.173h-23.376c-3.523,0-6.378-2.856-6.378-6.378v-23.376c0-3.523,2.856-6.378,6.378-6.378h23.376
		c3.523,0,6.378,2.856,6.378,6.378v23.376C187,481.318,184.144,484.173,180.622,484.173z"/>
	<path d="M256.755,484.173h-23.376c-3.523,0-6.378-2.856-6.378-6.378v-23.376c0-3.523,2.856-6.378,6.378-6.378h23.376
		c3.523,0,6.378,2.856,6.378,6.378v23.376C263.133,481.318,260.278,484.173,256.755,484.173z"/>
	<path d="M332.888,484.173h-23.376c-3.523,0-6.378-2.856-6.378-6.378v-23.376c0-3.523,2.856-6.378,6.378-6.378h23.376
		c3.523,0,6.378,2.856,6.378,6.378v23.376C339.267,481.318,336.411,484.173,332.888,484.173z"/>
	<path d="M104.488,560.307H81.112c-3.523,0-6.378-2.856-6.378-6.378v-23.376c0-3.523,2.856-6.378,6.378-6.378h23.376
		c3.523,0,6.378,2.856,6.378,6.378v23.376C110.867,557.451,108.011,560.307,104.488,560.307z"/>
	<path d="M180.622,560.307h-23.376c-3.523,0-6.378-2.856-6.378-6.378v-23.376c0-3.523,2.856-6.378,6.378-6.378h23.376
		c3.523,0,6.378,2.856,6.378,6.378v23.376C187,557.451,184.144,560.307,180.622,560.307z"/>
	<path d="M256.755,560.307h-23.376c-3.523,0-6.378-2.856-6.378-6.378v-23.376c0-3.523,2.856-6.378,6.378-6.378h23.376
		c3.523,0,6.378,2.856,6.378,6.378v23.376C263.133,557.451,260.278,560.307,256.755,560.307z"/>
	<path d="M332.888,560.307h-23.376c-3.523,0-6.378-2.856-6.378-6.378v-23.376c0-3.523,2.856-6.378,6.378-6.378h23.376
		c3.523,0,6.378,2.856,6.378,6.378v23.376C339.267,557.451,336.411,560.307,332.888,560.307z"/>
</g>
</svg>
