<?xml version="1.0" encoding="iso-8859-1"?>
<!-- Generator: Adobe Illustrator 19.0.1, SVG Export Plug-In . SVG Version: 6.00 Build 0)  -->
<svg version="1.1" id="&#x421;&#x43B;&#x43E;&#x439;_1"
	 xmlns="http://www.w3.org/2000/svg" xmlns:xlink="http://www.w3.org/1999/xlink" x="0px" y="0px" viewBox="-454 256 50 50"
	 style="enable-background:new -454 256 50 50;" xml:space="preserve" fill="#ff9e15">
<path style="display:none;fill:#FFFFFF;" d="M-415.001,304h-27.998c-1.104,0-1.999-0.895-1.999-1.999v-42.002
	c0-1.104,0.895-1.999,1.999-1.999h27.998c1.104,0,1.999,0.895,1.999,1.999v42.002C-413.002,303.105-413.897,304-415.001,304z"/>
<polygon points="-434.368,276.966 -443.934,286.531 -442.591,288.017 -432.808,278.234 "/>
<path d="M-407.999,262h-42.002c-2.205,0-3.999,1.794-3.999,3.999v30.002c0,2.205,1.794,3.999,3.999,3.999h42.002
	c2.205,0,3.999-1.794,3.999-3.999v-30.002C-404,263.794-405.794,262-407.999,262z M-407.999,264c0.327,0,0.631,0.086,0.904,0.226
	l-20.276,14.313c-0.869,0.613-2.39,0.613-3.257,0l-20.276-14.313c0.273-0.14,0.577-0.226,0.903-0.226H-407.999z M-406,296.001
	c0,1.103-0.896,1.999-1.999,1.999h-42.002c-1.102,0-1.999-0.896-1.999-1.999v-30.002c0-0.031,0.008-0.061,0.009-0.092l20.209,14.265
	c0.78,0.55,1.781,0.826,2.782,0.826s2.002-0.275,2.782-0.826l1.738-1.227l9.071,9.071l1.343-1.485l-8.756-8.756l16.813-11.868
	c0.001,0.031,0.009,0.06,0.009,0.091V296.001z"/>
</svg>
