<?xml version="1.0" encoding="utf-8"?>
<!-- Generator: Adobe Illustrator 21.1.0, SVG Export Plug-In . SVG Version: 6.00 Build 0)  -->
<svg version="1.1" id="Layer_1" xmlns="http://www.w3.org/2000/svg" xmlns:xlink="http://www.w3.org/1999/xlink" x="0px" y="0px"
	 viewBox="-49 205 512 384" style="enable-background:new -49 205 512 384;" xml:space="preserve" fill="#dad8d6">
<path d="M207,205C90.5,205-12.2,280.8-48.5,393.7c-0.7,2.1-0.7,4.4,0,6.5C-12.2,513.2,90.5,589,207,589s219.2-75.8,255.5-188.7
	c0.7-2.1,0.7-4.4,0-6.5C426.2,280.8,323.5,205,207,205z M207,567.7C100.9,567.7,7.3,499.2-27.1,397C7.3,294.8,100.9,226.3,207,226.3
	S406.8,294.8,441.1,397C406.8,499.2,313.1,567.7,207,567.7z"/>
<path d="M207,269c-70.6,0-128,57.4-128,128s57.4,128,128,128s128-57.4,128-128S277.6,269,207,269z M207,503.7
	c-58.8,0-106.7-47.9-106.7-106.7S148.2,290.3,207,290.3S313.7,338.2,313.7,397S265.8,503.7,207,503.7z"/>
</svg>
