<svg id="Layer_1" data-name="Layer 1" xmlns="http://www.w3.org/2000/svg" width="455.91" height="512" viewBox="0 0 455.91 512" fill="#ff9e15">
  <title>user-upload</title>
  <path d="M465.89,0H46.11C36.13,0,28,8.84,28,19.75V492.25C28,503.16,36.13,512,46.11,512H465.89c10,0,18.07-8.84,18.07-19.75V19.75C484,8.84,475.87,0,465.89,0ZM64.18,475.87V36.15H447.82V475.87Z" transform="translate(-28.04)"/>
  <g>
    <path d="M256,264.88c37.21,0,67.37-35.31,67.37-78.86,0-60.39-30.16-78.86-67.37-78.86S188.63,125.63,188.63,186C188.63,229.57,218.79,264.88,256,264.88Z" transform="translate(-28.04)"/>
    <path d="M404.77,380.94l-34-76.57a17.06,17.06,0,0,0-7.69-8.18l-52.75-27.46a3.4,3.4,0,0,0-3.62.3,83.22,83.22,0,0,1-101.46,0,3.4,3.4,0,0,0-3.62-.3L148.9,296.2a17.05,17.05,0,0,0-7.69,8.18l-34,76.57a17,17,0,0,0,15.53,23.89H389.24a17,17,0,0,0,15.53-23.89Z" transform="translate(-28.04)"/>
  </g>
</svg>
