<?xml version="1.0" encoding="iso-8859-1"?>
<!-- Generator: Adobe Illustrator 21.1.0, SVG Export Plug-In . SVG Version: 6.00 Build 0)  -->
<svg version="1.1" id="&#x421;&#x43B;&#x43E;&#x439;_1"
	 xmlns="http://www.w3.org/2000/svg" xmlns:xlink="http://www.w3.org/1999/xlink" x="0px" y="0px" viewBox="0 0 307.039 142.56"
	 style="enable-background:new 0 0 307.039 142.56;" xml:space="preserve" fill="#dad8d6">
<path d="M0,71.36c0,5.441,4.398,9.762,9.84,9.762h263.762l-44.723,44.718c-3.84,3.84-3.84,10,0,13.84c3.84,3.84,10,3.84,13.84,0
	l61.441-61.437c1.918-1.922,2.879-4.403,2.879-6.961c0-2.481-0.961-5.039-2.879-6.961L242.719,2.879c-3.84-3.839-10-3.839-13.84,0
	c-3.84,3.84-3.84,10,0,13.84l44.723,44.723H9.84C4.398,61.52,0,65.922,0,71.36L0,71.36z M0,71.36"/>
</svg>
