<?xml version="1.0" encoding="iso-8859-1"?>
<!-- Generator: Adobe Illustrator 21.1.0, SVG Export Plug-In . SVG Version: 6.00 Build 0)  -->
<svg version="1.1" id="&#x421;&#x43B;&#x43E;&#x439;_1"
	 xmlns="http://www.w3.org/2000/svg" xmlns:xlink="http://www.w3.org/1999/xlink" x="0px" y="0px" viewBox="0 0 307.039 142.56"
	 style="enable-background:new 0 0 307.039 142.56;" xml:space="preserve" fill="#dad8d6">
<path d="M307.039,71.36c0-5.438-4.398-9.84-9.84-9.918H33.437L78.16,16.719c3.84-3.84,3.84-10,0-13.84c-3.84-3.839-10-3.839-13.84,0
	L2.879,64.321C0.961,66.243,0,68.801,0,71.282c0,2.558,0.961,5.039,2.879,6.961L64.32,139.68c3.84,3.84,10,3.84,13.84,0
	s3.84-10,0-13.84L33.437,81.122h263.762C302.641,81.122,307.039,76.801,307.039,71.36L307.039,71.36z"/>
</svg>
