<?xml version="1.0" encoding="utf-8"?>
<!-- Generator: Adobe Illustrator 21.1.0, SVG Export Plug-In . SVG Version: 6.00 Build 0)  -->
<svg version="1.1" id="Слой_1" xmlns="http://www.w3.org/2000/svg" xmlns:xlink="http://www.w3.org/1999/xlink" x="0px" y="0px"
	 viewBox="0 0 41.6 41.6" style="enable-background:new 0 0 41.6 41.6;" xml:space="preserve" fill="#dad8d6">
<g>
	<path d="M20.8,0C9.3,0,0,9.3,0,20.8s9.3,20.8,20.8,20.8c11.5,0,20.8-9.3,20.8-20.8S32.3,0,20.8,0L20.8,0z M20.8,40
		C10.2,40,1.6,31.4,1.6,20.8c0-10.6,8.6-19.2,19.2-19.2C31.4,1.6,40,10.2,40,20.8C40,31.4,31.4,40,20.8,40L20.8,40z M20.8,40"/>
	<path d="M28.6,13c-0.3-0.3-0.8-0.3-1.1,0l-6.6,6.6L14.2,13c-0.3-0.3-0.8-0.3-1.1,0c-0.3,0.3-0.3,0.8,0,1.1l6.6,6.6L13,27.4
		c-0.3,0.3-0.3,0.8,0,1.1c0.2,0.2,0.4,0.2,0.6,0.2c0.2,0,0.4-0.1,0.6-0.2l6.6-6.6l6.6,6.6c0.2,0.2,0.4,0.2,0.6,0.2s0.4-0.1,0.6-0.2
		c0.3-0.3,0.3-0.8,0-1.1l-6.6-6.6l6.6-6.6C28.9,13.9,28.9,13.3,28.6,13L28.6,13z M28.6,13"/>
</g>
</svg>
