<svg id="Слой_1" data-name="Слой 1" xmlns="http://www.w3.org/2000/svg" width="16.63" height="8.32" viewBox="0 0 16.63 8.32">
  <defs>
    <style>
      .cls-1 {
        fill: #fff;
      }
    </style>
  </defs>
  <title>mt</title>
  <g>
    <path class="cls-1" d="M2,0q.26.46.59,1.12T3.29,2.5Q3.63,3.23,4,4l.61,1.39L5.17,4q.32-.75.66-1.48t.66-1.39Q6.81.46,7.07,0H8.44q.11.91.21,1.94T8.82,4Q8.9,5.11,9,6.2t.12,2.12H7.6q0-1.45-.12-3t-.2-3L7,3l-.38.83-.41.93-.41.93-.37.84-.29.67H4l-.29-.67-.37-.85-.41-.93L2.5,3.84,2.12,3l-.31-.65q-.13,1.44-.2,3t-.12,3H0q0-1,.12-2.14T.26,4Q.34,2.9.44,1.88T.65,0Z"/>
    <path class="cls-1" d="M16.63,0V1.31H14.08v7H12.55v-7H10V0Z"/>
  </g>
</svg>
