<svg id="Слой_1" data-name="Слой 1" xmlns="http://www.w3.org/2000/svg" width="14.26" height="8.32" viewBox="0 0 14.26 8.32">
  <defs>
    <style>
      .cls-1 {
        fill: #fff;
      }
    </style>
  </defs>
  <title>at</title>
  <g>
    <path class="cls-1" d="M6.47,8.32q-.17-.49-.35-1t-.35-1H2.26q-.17.5-.34,1l-.34,1H0Q.47,7,.89,5.86t.82-2.14q.4-1,.8-1.92T3.32,0H4.76q.42.89.82,1.8t.8,1.92q.4,1,.83,2.14T8.1,8.32ZM4,1.61q-.28.64-.63,1.55t-.74,2H5.38q-.38-1.07-.74-2T4,1.61Z"/>
    <path class="cls-1" d="M14.26,0V1.31H11.7v7H10.18v-7H7.62V0Z"/>
  </g>
</svg>
