<?xml version="1.0" encoding="utf-8"?>
<!-- Generator: Adobe Illustrator 19.0.1, SVG Export Plug-In . SVG Version: 6.00 Build 0)  -->
<svg version="1.1" id="Слой_1" xmlns="http://www.w3.org/2000/svg" xmlns:xlink="http://www.w3.org/1999/xlink" x="0px" y="0px"
	 viewBox="-454 256 50 50" style="enable-background:new -454 256 50 50;" xml:space="preserve" fill="#ff9e15">
<g>
	<path d="M-409,281v-0.1c0-4-1.2-7.9-3.6-11.3l-1.4,1.4c1.8,2.7,2.8,5.9,3,9h-3c-0.6,0-1,0.4-1,1s0.4,1,1,1h3c-0.2,4-1.7,7.9-4.5,11
		l-2.1-2.1c-0.4-0.4-1-0.4-1.4,0s-0.4,1,0,1.4l2.8,2.8c0.2,0.2,0.5,0.3,0.7,0.3c0.3,0,0.5-0.1,0.7-0.3c3.9-3.9,5.8-8.9,5.8-14
		C-409,281.1-409,281-409,281z"/>
	<path d="M-440.3,271.1c0.2,0.2,0.5,0.3,0.7,0.3c0.3,0,0.5-0.1,0.7-0.3c0.4-0.4,0.4-1,0-1.4l-2.1-2.1c3.1-2.8,7-4.3,11-4.5v2.9
		c0,0.6,0.4,1,1,1s1-0.4,1-1v-2.9c3.2,0.2,6.3,1.2,9,3l1.4-1.4c-3.4-2.5-7.3-3.6-11.3-3.7h-0.1h-0.1c-5.1,0-10.1,2-14,5.8
		c-3.9,3.9-5.9,9-5.9,14.1c0,0,0,0,0,0.1s0,0,0,0.1c0,5.1,2,10.2,5.8,14.1c0.4,0.4,1,0.4,1.4,0l2.8-2.8c0.4-0.4,0.4-1,0-1.4
		s-1-0.4-1.4,0l-2,2c-2.8-3.1-4.3-7-4.6-11h3c0.6,0,1-0.4,1-1s-0.4-1-1-1h-2.9c0.2-4,1.7-7.8,4.5-11L-440.3,271.1z"/>
	<path d="M-426.3,279.7l11.4-11.4c0.4-0.4,0.4-1,0-1.4s-1-0.4-1.4,0l-11.4,11.4l0,0c-0.4-0.2-0.8-0.3-1.3-0.3c-1.7,0-3,1.3-3,3
		s1.3,3,3,3s3-1.3,3-3C-426,280.5-426.1,280.1-426.3,279.7L-426.3,279.7z M-429,282c-0.6,0-1-0.4-1-1s0.4-1,1-1s1,0.4,1,1
		S-428.4,282-429,282z"/>
	<path d="M-429,256c-13.8,0-25,11.2-25,25s11.2,25,25,25s25-11.2,25-25S-415.2,256-429,256z M-429,304c-12.7,0-23-10.3-23-23
		s10.3-23,23-23s23,10.3,23,23S-416.3,304-429,304z"/>
</g>
</svg>
