<?xml version="1.0" encoding="iso-8859-1"?>
<!-- Generator: Adobe Illustrator 19.0.1, SVG Export Plug-In . SVG Version: 6.00 Build 0)  -->
<svg version="1.1" id="&#x421;&#x43B;&#x43E;&#x439;_1"
	 xmlns="http://www.w3.org/2000/svg" xmlns:xlink="http://www.w3.org/1999/xlink" x="0px" y="0px" viewBox="-454 256 50 50"
	 style="enable-background:new -454 256 50 50;" xml:space="preserve" fill="#ff9e15">
<path style="fill:none;stroke:#ff9e15;stroke-width:2;stroke-miterlimit:10;" d="M-414.001,305h-29.998
	c-1.656,0-2.999-1.343-2.999-2.999v-42.002c0-1.656,1.343-2.999,2.999-2.999H-421l9.998,12v33.001
	C-411.002,303.657-412.345,305-414.001,305z"/>
<path d="M-411,269h-8.396c-1.103,0-1.999-0.897-1.999-1.999V257h-2v10.001c0,2.205,1.794,3.999,3.999,3.999H-411V269z"/>
<path style="display:none;fill:#ff9e15;" d="M-415.001,304h-27.998c-1.104,0-1.999-0.895-1.999-1.999v-42.002
	c0-1.104,0.895-1.999,1.999-1.999h27.998c1.104,0,1.999,0.895,1.999,1.999v42.002C-413.002,303.105-413.897,304-415.001,304z"/>
<path d="M-429,284.032h-2.021c-0.559,0-1.011,0.452-1.011,1.011s0.452,1.011,1.011,1.011h1.011c0,0.559,0.452,1.011,1.011,1.011
	s1.011-0.452,1.011-1.011v-0.186c1.174-0.419,2.021-1.53,2.021-2.846c0-1.672-1.36-3.032-3.032-3.032
	c-0.557,0-1.011-0.453-1.011-1.011c0-0.558,0.454-1.011,1.011-1.011h2.021c0.559,0,1.011-0.452,1.011-1.011
	s-0.452-1.011-1.011-1.011h-1.011c0-0.559-0.452-1.011-1.011-1.011s-1.011,0.452-1.011,1.011v0.186
	c-1.174,0.419-2.021,1.53-2.021,2.846c0,1.672,1.36,3.032,3.032,3.032c0.557,0,1.011,0.453,1.011,1.011
	S-428.443,284.032-429,284.032z"/>
</svg>
