<svg id="Layer_1" data-name="Layer 1" xmlns="http://www.w3.org/2000/svg" width="455.91" height="512" viewBox="0 0 455.91 512" fill="#ff9e15">
  <title>resume</title>
  <path d="M465.89,0H46.11C36.13,0,28,8.84,28,19.75V492.25C28,503.16,36.13,512,46.11,512H465.89c10,0,18.07-8.84,18.07-19.75V19.75C484,8.84,475.87,0,465.89,0ZM64.18,475.87V36.15H447.82V475.87Z" transform="translate(-28.04)"/>
  <path d="M401.89,229.05H110.11a6.38,6.38,0,0,0-6.38,6.38v23.38a6.38,6.38,0,0,0,6.38,6.38H401.89a6.38,6.38,0,0,0,6.38-6.38V235.43A6.38,6.38,0,0,0,401.89,229.05Z" transform="translate(-28.04)"/>
  <path d="M401.89,306.39H110.11a6.38,6.38,0,0,0-6.38,6.38v23.38a6.38,6.38,0,0,0,6.38,6.38H401.89a6.38,6.38,0,0,0,6.38-6.38V312.76A6.38,6.38,0,0,0,401.89,306.39Z" transform="translate(-28.04)"/>
  <path d="M401.89,382.52H110.11a6.38,6.38,0,0,0-6.38,6.38v23.38a6.38,6.38,0,0,0,6.38,6.38H401.89a6.38,6.38,0,0,0,6.38-6.38V388.9A6.38,6.38,0,0,0,401.89,382.52Z" transform="translate(-28.04)"/>
  <rect x="75.5" y="76.15" width="112.7" height="112.7" rx="6.39" ry="6.39"/>
  <path d="M401.89,76.15H262.63a6.38,6.38,0,0,0-6.38,6.38V105.9a6.38,6.38,0,0,0,6.38,6.38H401.89a6.38,6.38,0,0,0,6.38-6.38V82.52A6.38,6.38,0,0,0,401.89,76.15Z" transform="translate(-28.04)"/>
  <path d="M401.89,152.28H262.63a6.38,6.38,0,0,0-6.38,6.38V182a6.38,6.38,0,0,0,6.38,6.38H401.89a6.38,6.38,0,0,0,6.38-6.38V158.66A6.38,6.38,0,0,0,401.89,152.28Z" transform="translate(-28.04)"/>
</svg>
