<?xml version="1.0" encoding="iso-8859-1"?>
<!-- Generator: Adobe Illustrator 21.1.0, SVG Export Plug-In . SVG Version: 6.00 Build 0)  -->
<svg version="1.1" id="&#x421;&#x43B;&#x43E;&#x439;_1"
	 xmlns="http://www.w3.org/2000/svg" xmlns:xlink="http://www.w3.org/1999/xlink" x="0px" y="0px" viewBox="0 0 276 261"
	 style="enable-background:new 0 0 276 261;" xml:space="preserve" fill="#ff9e15">
<g>
	<g>
		<defs>
			<rect id="SVGID_1_" width="276" height="261"/>
		</defs>
		<clipPath id="SVGID_2_">
			<use xlink:href="#SVGID_1_"  style="overflow:visible;"/>
		</clipPath>
		<path style="clip-path:url(#SVGID_2_);" d="M267.59,22.644c-5.402-1.156-10.719,2.285-11.875,7.684l-7.266,33.914
			C225.309,24.769,182.84,0,136.293,0c-71.68,0-130,58.316-130,130c0,5.523,4.477,10,10,10c5.523,0,10-4.477,10-10
			c0-60.656,49.348-110,110-110c39.543,0,75.613,21.121,95.141,54.754l-33.34-7.145c-5.399-1.156-10.715,2.285-11.871,7.684
			c-1.157,5.398,2.281,10.715,7.683,11.875l57.227,12.261c0.972,0.211,1.961,0.27,2.933,0.188c1.622-0.137,3.204-0.668,4.594-1.57
			c2.231-1.442,3.793-3.707,4.348-6.301l12.265-57.227C276.43,29.121,272.988,23.804,267.59,22.644L267.59,22.644z M267.59,22.644"
			/>
		<path style="clip-path:url(#SVGID_2_);" d="M257.527,116.894c-5.519,0.18-9.847,4.805-9.668,10.325
			c0.973,29.363-9.55,57.351-29.632,78.8c-20.079,21.45-47.309,33.801-76.676,34.77c-1.223,0.039-2.442,0.058-3.66,0.058
			c-38.317,0-73.614-19.902-93.547-52.144l34.758,9.32c5.332,1.43,10.816-1.734,12.246-7.066c1.433-5.336-1.735-10.82-7.067-12.25
			l-56.531-15.16c-2.562-0.684-5.293-0.325-7.59,1c-2.297,1.324-3.972,3.507-4.66,6.07L0.344,227.148
			c-1.43,5.336,1.734,10.817,7.07,12.25c0.867,0.231,1.738,0.344,2.594,0.344c4.414,0,8.457-2.945,9.652-7.414l8.52-31.774
			c23.699,37.321,64.953,60.293,109.707,60.293c1.437,0,2.883-0.023,4.324-0.07c34.707-1.148,66.887-15.738,90.617-41.09
			c23.731-25.351,36.168-58.425,35.024-93.133C267.668,121.039,263.043,116.695,257.527,116.894L257.527,116.894z M257.527,116.894"
			/>
	</g>
</g>
</svg>
