<svg version="1.1" id="Layer_1" xmlns="http://www.w3.org/2000/svg" xmlns:xlink="http://www.w3.org/1999/xlink" x="0px" y="0px"
	 width="594px" height="792px" viewBox="0 0 594 792" enable-background="new 0 0 594 792" xml:space="preserve" fill="#bcbcbc">
<path d="M445.5,396h-297v99h297V396z M583.172,162.422L431.733,10.828C424.772,3.867,415.336,0,405.436,0H396v198h198v-9.436
	C594,178.819,590.133,169.383,583.172,162.422z M346.5,210.375V0H37.125C16.552,0,0,16.552,0,37.125v717.75
	C0,775.448,16.552,792,37.125,792h519.75C577.448,792,594,775.448,594,754.875V247.5H383.625
	C363.205,247.5,346.5,230.794,346.5,210.375z M99,111.375C99,104.538,104.537,99,111.375,99h123.75
	c6.837,0,12.375,5.538,12.375,12.375v24.75c0,6.837-5.538,12.375-12.375,12.375h-123.75c-6.838,0-12.375-5.538-12.375-12.375
	V111.375z M99,210.375c0-6.837,5.537-12.375,12.375-12.375h123.75c6.837,0,12.375,5.538,12.375,12.375v24.75
	c0,6.837-5.538,12.375-12.375,12.375h-123.75c-6.838,0-12.375-5.538-12.375-12.375V210.375z M495,680.625
	c0,6.837-5.538,12.375-12.375,12.375h-123.75c-6.839,0-12.375-5.538-12.375-12.375v-24.75c0-6.837,5.536-12.375,12.375-12.375
	h123.75c6.837,0,12.375,5.538,12.375,12.375V680.625z M495,371.25v148.5c0,13.675-11.076,24.75-24.75,24.75h-346.5
	c-13.675,0-24.75-11.075-24.75-24.75v-148.5c0-13.674,11.075-24.75,24.75-24.75h346.5C483.924,346.5,495,357.576,495,371.25z"/>
</svg>