<svg version="1.1" id="Layer_1" focusable="false" xmlns="http://www.w3.org/2000/svg" xmlns:xlink="http://www.w3.org/1999/xlink"
	 x="0px" y="0px" width="602.438px" height="598.938px" viewBox="0 0 602.438 598.938" enable-background="new 0 0 602.438 598.938"
	 xml:space="preserve" fill="#bcbcbc">
<path d="M301.219,3.032C137.461,3.032,4.781,135.712,4.781,299.47s132.681,296.437,296.438,296.437s296.438-132.68,296.438-296.438
	S464.977,3.032,301.219,3.032z M369.471,421.51l-105.427-76.619c-3.705-2.749-5.856-7.053-5.856-11.595V132.125
	c0-7.889,6.454-14.344,14.344-14.344h57.375c7.889,0,14.344,6.455,14.344,14.344V296.72l75.902,55.224
	c6.454,4.661,7.77,13.626,3.107,20.081l-33.709,46.378C384.891,424.737,375.925,426.172,369.471,421.51L369.471,421.51z"/>
</svg>