<svg version="1.1" id="Layer_1" xmlns="http://www.w3.org/2000/svg" xmlns:xlink="http://www.w3.org/1999/xlink" x="0px" y="0px"
	 width="250.912px" height="242.023px" viewBox="0 0 250.912 242.023" enable-background="new 0 0 250.912 242.023"
	 xml:space="preserve">
<g id="Layer_x0020_1">
	<g id="_2169181941552">
		<path fill="#bcbcbc" d="M75.626,151c-2.949-1.954-5.584-3.26-8.789-5.188C59.212,141.249,4.249,109.077-0.344,108
			c0,11.962,0.17,19.757,1.701,29.31c6.351,39.486,32.088,73.615,67.604,91.361c15.705,7.852,32.032,12.245,48.274,13.352h16.497
			c26.59-1.814,52.328-12.359,74.154-30.699c35.52-29.877,51.08-79.059,39.686-126.313c-2.637-10.885-8.76-22.932-9.016-25.994
			c-4.107,0.34-36.057,19.843-40.646,22.337l-81.1,46.855C112.532,130.762,79.962,150.009,75.626,151z"/>
		<path fill="#bcbcbc" d="M76.617,118.998c-2.92,0-62.815-35.688-70.95-39.997c-1.787,3.741-3.006,9.411-3.006,15.022
			c4.79,1.105,9.836,5.188,14.344,7.654l42.435,24.52c2.495,1.502,4.508,2.494,7.002,3.996c6.917,4.195,9.101,7.229,14.515,4.225
			c2.635-1.444,4.875-3.063,7.482-4.62c9.666-5.783,18.766-10.629,28.488-16.469c8.701-5.244,109.645-64.403,113.641-65.312
			c-1.246-5.329-3.063-4.535-7.002-12.019c-7.029,1.644-78.66,44.786-91.305,51.675l-36.963,21.033
			C92.321,110.381,78.8,118.998,76.617,118.998z"/>
		<path fill="#bcbcbc" d="M76.617,88.015C71.599,85.35,20.263,55.078,15.644,54L9.322,66.841c3.97,1.021,12.954,6.832,16.498,8.986
			c5.526,3.345,10.8,6.293,16.524,9.495c4.225,2.354,31.381,18.681,33.279,18.681c1.956,0,30.473-16.781,34.045-18.937
			l102.896-59.045c-0.879-3.345-0.197-1.417-2.523-3.487c-1.699-1.502-2.098-1.757-3.713-3.315
			c-6.66-6.436-10.402-0.113-26.107,8.447c-22.195,12.132-46.316,27.41-68.909,40.024l-25.88,15.137
			C82.229,84.783,79.595,86.03,76.617,88.015z"/>
		<path fill="#bcbcbc" d="M32.651,32.003c-2.893,1.928-8.021,7.342-8.984,10.999l20.635,11.367
			c7.115,3.884,13.438,7.908,20.324,11.649c14.684,7.938,6.379,9.581,42.039-10.97l81.92-47.026
			c-1.559-2.126-10.715-8.021-14.002-8.021l-52.924,30.075c-5.867,3.374-11.424,6.86-17.688,10.29
			c-5.953,3.231-11.424,6.406-17.15,9.837c-1.077,0.651-8.361,4.961-8.872,5.131c-3.799,1.162-21.231-10.46-26.985-13.636
			c-3.459-1.927-5.67-3.117-9.015-4.988C38.831,34.95,35.826,32.739,32.651,32.003z"/>
	</g>
</g>
</svg>