<svg width="20" height="19" viewBox="0 0 20 19" fill="none" xmlns="http://www.w3.org/2000/svg">
<path fill-rule="evenodd" clip-rule="evenodd" d="M6.72718 18.139C7.63092 18.139 8.36355 17.4414 8.36355 16.5809C8.36355 15.7204 7.63092 15.0228 6.72718 15.0228C5.82345 15.0228 5.09082 15.7204 5.09082 16.5809C5.09082 17.4414 5.82345 18.139 6.72718 18.139Z" stroke="black" stroke-width="1.16857" stroke-linecap="round" stroke-linejoin="round"/>
<path fill-rule="evenodd" clip-rule="evenodd" d="M16.5453 18.139C17.449 18.139 18.1817 17.4414 18.1817 16.5809C18.1817 15.7204 17.449 15.0228 16.5453 15.0228C15.6416 15.0228 14.9089 15.7204 14.9089 16.5809C14.9089 17.4414 15.6416 18.139 16.5453 18.139Z" stroke="black" stroke-width="1.16857" stroke-linecap="round" stroke-linejoin="round"/>
<path d="M4.82091 4.89523H19L17.6255 11.4314C17.471 12.1717 16.7816 12.7001 15.9891 12.6857H7.34091C6.51412 12.6924 5.812 12.1107 5.70455 11.3301L4.46091 2.35554C4.35424 1.58085 3.66147 1.00118 2.84091 1H1" stroke="black" stroke-width="1.16857" stroke-linecap="round" stroke-linejoin="round"/>
</svg>
