<svg width="21" height="20" viewBox="0 0 21 20" fill="none" xmlns="http://www.w3.org/2000/svg">
<path d="M17.5 0H3.5C2.70435 0 1.94129 0.316071 1.37868 0.87868C0.816071 1.44129 0.5 2.20435 0.5 3V4.17C0.499857 4.58294 0.584966 4.99147 0.75 5.37V5.43C0.89128 5.75097 1.09139 6.04266 1.34 6.29L7.5 12.41V19C7.49966 19.1699 7.54264 19.3372 7.62487 19.4859C7.70711 19.6346 7.82589 19.7599 7.97 19.85C8.12914 19.9486 8.31277 20.0006 8.5 20C8.65654 19.9991 8.81068 19.9614 8.95 19.89L12.95 17.89C13.1149 17.8069 13.2536 17.6798 13.3507 17.5227C13.4478 17.3656 13.4994 17.1847 13.5 17V12.41L19.62 6.29C19.8686 6.04266 20.0687 5.75097 20.21 5.43V5.37C20.3888 4.99443 20.4876 4.58578 20.5 4.17V3C20.5 2.20435 20.1839 1.44129 19.6213 0.87868C19.0587 0.316071 18.2956 0 17.5 0ZM11.79 11.29C11.6973 11.3834 11.624 11.4943 11.5742 11.6161C11.5245 11.7379 11.4992 11.8684 11.5 12V16.38L9.5 17.38V12C9.50076 11.8684 9.47554 11.7379 9.42577 11.6161C9.37601 11.4943 9.30268 11.3834 9.21 11.29L3.91 6H17.09L11.79 11.29ZM18.5 4H2.5V3C2.5 2.73478 2.60536 2.48043 2.79289 2.29289C2.98043 2.10536 3.23478 2 3.5 2H17.5C17.7652 2 18.0196 2.10536 18.2071 2.29289C18.3946 2.48043 18.5 2.73478 18.5 3V4Z" fill="#838291"/>
</svg>
