<svg xmlns="http://www.w3.org/2000/svg" width="162.27" height="122.717"><path fill="#B3B3B3" d="M102.052 3.169H9.509A6.336 6.336 0 003.17 9.507v82.401a6.336 6.336 0 006.339 6.338h98.881V9.507a6.338 6.338 0 00-6.338-6.338z"/><path fill="#FFF" d="M55.781 22.185c14.002 0 25.354 11.353 25.354 25.354 0 14.002-11.353 25.354-25.354 25.354S30.426 61.541 30.426 47.539c0-14.002 11.353-25.354 25.355-25.354zM108.389 60.217V34.862h31.692l6.339 25.354-38.031.001z"/><path fill="#E00000" d="M136.914 22.185a6.336 6.336 0 016.338 6.338 6.341 6.341 0 01-6.338 6.339H108.39V22.185h28.524zM146.422 60.217H108.39v38.031h44.369a6.336 6.336 0 006.34-6.338V72.894c-.001-7.002-5.677-12.677-12.677-12.677z"/><path fill="#FFF" d="M152.76 101.418c0 8.75-7.096 15.846-15.846 15.846-8.751 0-15.847-7.096-15.847-15.846 0-8.699 7.053-15.848 15.847-15.848 8.799 0 15.846 7.15 15.846 15.848zM55.781 101.418c0 8.75-7.098 15.846-15.848 15.846s-15.847-7.096-15.847-15.846c0-8.699 7.053-15.848 15.847-15.848 8.8 0 15.848 7.15 15.848 15.848z"/><path d="M136.914 95.078a6.337 6.337 0 00-6.339 6.34 6.336 6.336 0 006.339 6.338 6.336 6.336 0 006.338-6.338 6.336 6.336 0 00-6.338-6.34zM133.744 69.724a3.17 3.17 0 00-3.169 3.17 3.17 3.17 0 006.339 0c0-1.75-1.42-3.17-3.17-3.17zM39.933 95.078a6.337 6.337 0 00-6.339 6.34c0 3.502 2.837 6.338 6.339 6.338s6.34-2.836 6.34-6.338a6.338 6.338 0 00-6.34-6.34z"/><path d="M148.948 57.25l-5.465-21.858a9.437 9.437 0 002.938-6.869c0-5.243-4.266-9.508-9.508-9.508h-25.354V9.507c0-5.243-4.266-9.507-9.508-9.507H9.509C4.265 0 .001 4.265.001 9.507v82.401c0 5.242 4.265 9.51 9.508 9.51h11.409c0 10.484 8.529 19.016 19.016 19.016 10.487 0 19.017-8.529 19.017-19.016H117.9c0 10.484 8.527 19.016 19.016 19.016 10.485 0 19.017-8.529 19.017-19.016 0-.182-.01-.361-.015-.541 3.695-1.305 6.353-4.832 6.353-8.969V72.894c-.005-7.879-5.781-14.43-13.323-15.644zm-11.339-19.219l4.754 19.016h-26.321l7.267-7.268a3.167 3.167 0 10-4.479-4.481l-7.269 7.267V38.031h26.048zm2.474-9.508a3.17 3.17 0 01-3.169 3.169H111.56v-6.338h25.354a3.172 3.172 0 013.169 3.169zm-100.15 85.571c-6.989 0-12.677-5.688-12.677-12.676 0-7.086 5.79-12.68 12.677-12.68 6.903 0 12.678 5.606 12.678 12.68 0 6.988-5.688 12.676-12.678 12.676zm17.929-19.016C55.216 87.599 48.05 82.4 39.933 82.4c-8.119 0-15.287 5.202-17.929 12.678H9.509a3.174 3.174 0 01-3.17-3.17v-82.4a3.173 3.173 0 013.17-3.169h92.543a3.171 3.171 0 013.168 3.169v85.57H57.862zm79.052 19.016c-6.99 0-12.678-5.688-12.678-12.676 0-7.086 5.79-12.68 12.678-12.68 6.902 0 12.678 5.606 12.678 12.68 0 6.988-5.688 12.676-12.678 12.676zm17.702-19.622c-2.813-7.151-9.807-12.069-17.701-12.069-8.12 0-15.286 5.2-17.93 12.676h-7.426V63.386h34.861c4.131 0 7.654 2.647 8.963 6.338h-8.963a3.17 3.17 0 100 6.338h9.508V91.91a3.164 3.164 0 01-1.312 2.562z"/><path d="M55.781 19.015c-15.729 0-28.523 12.796-28.523 28.524s12.796 28.522 28.523 28.522 28.522-12.795 28.522-28.522c0-15.728-12.795-28.524-28.522-28.524zm0 50.709c-12.233 0-22.187-9.953-22.187-22.187 0-12.232 9.952-22.185 22.187-22.185 12.231 0 22.185 9.952 22.185 22.185-.001 12.234-9.954 22.187-22.185 22.187z"/><path d="M68.457 44.369h-9.508v-9.507a3.17 3.17 0 00-6.339 0v12.677a3.17 3.17 0 003.17 3.169h12.677a3.169 3.169 0 100-6.339z"/></svg>