<svg xmlns="http://www.w3.org/2000/svg" width="92.383" height="92.75"><path fill="#FFF" d="M68.952 85.314H22.765L2.558 65.107V4.488h66.394v28.867z"/><path fill="#B3B3B3" d="M22.765 76.654h18.763V53.561H14.105v11.546h8.66z"/><path fill="#B3B3B3" d="M22.765 85.314V65.107H2.558z"/><path fill="#E00000" d="M92.383 47.788V69.49a17.32 17.32 0 01-8.727 15.039l-11.479 6.559-11.48-6.559A17.326 17.326 0 0151.97 69.49V47.788h4.023c6.502 0 12.574-3.25 16.184-8.66a19.445 19.445 0 0016.182 8.66h4.024zM14.686 15.588h42.238v7.238H14.686z"/><path stroke="#000" stroke-linecap="round" stroke-linejoin="round" stroke-miterlimit="22.926" d="M86.659 46.346a17.963 17.963 0 01-14.98-8.019l-1.199-1.801-1.201 1.801A17.969 17.969 0 0154.3 46.346h-5.471v23.146c0 5.594 2.52 10.854 6.729 14.381h-31.35V78.1H43.01V52.12H13.512v11.547H4.001V4.848h63.507l.016 35.686 2.953-4.008-.082-34.564H1.115v63.745L22.168 86.76h37.823l10.486 5.99 12.195-6.969a18.802 18.802 0 009.453-16.289V46.346h-5.466 0zM21.322 81.829L6.042 66.551h15.279l.001 15.278h0zm-4.923-26.824h23.725V75.21H24.208V63.665h-7.811l.002-8.66h0zM89.241 69.49a15.905 15.905 0 01-8 13.785l-10.764 6.15-10.766-6.15c-4.934-2.82-8-8.103-8-13.785V49.23h2.582a20.854 20.854 0 0016.184-7.676 20.84 20.84 0 0016.182 7.676h2.582v20.26z"/><path stroke="#000" stroke-width="1.2" stroke-linecap="round" stroke-linejoin="round" stroke-miterlimit="22.926" d="M58.559 12.592h-44.72v12.109h44.72V12.592h0zm-2.484 9.334h-39.75v-6.56h39.75v6.56z"/><path stroke="#000" stroke-linecap="round" stroke-linejoin="round" stroke-miterlimit="22.926" d="M80.467 56.529l-13.451 13.45-4.752-4.752-2.041 2.041 6.793 6.793L82.508 58.57z"/><path stroke="#000" stroke-width="1.2" stroke-linecap="round" stroke-linejoin="round" stroke-miterlimit="22.926" d="M13.839 31.054h44.763v2.775H13.839zM13.839 41.007h28.43v2.775h-28.43z"/></svg>