<svg xmlns="http://www.w3.org/2000/svg" width="157.965" height="156.266"><path fill="#E00000" d="M107.447 30.667c0-15.21-12.405-27.615-27.614-27.615-15.21 0-27.616 12.405-27.616 27.615s12.406 27.614 27.616 27.614c15.209 0 27.614-12.404 27.614-27.614z"/><path fill="#FFF" d="M37.957 127.322H21.601c-9.305 0-16.849 7.543-16.849 16.85v9.041h50.054v-9.041c0-9.307-7.544-16.85-16.849-16.85z"/><path fill="#FFF" d="M39.114 127.322l-9.336 9.336-9.336-9.336zM27.15 97.969h13.64v6.771a6.356 6.356 0 01-6.357 6.356H18.767v-4.744a8.383 8.383 0 018.383-8.383z"/><path fill="#FFF" d="M40.791 111.096v5.213c0 6.082-4.931 11.014-11.012 11.014-6.082 0-11.012-4.932-11.012-11.014v-5.213h22.024zM138.064 127.322H121.71c-9.307 0-16.85 7.543-16.85 16.85v9.041h50.055v-9.041c-.002-9.307-7.545-16.85-16.851-16.85z"/><path fill="#FFF" d="M139.222 127.322l-9.337 9.336-9.336-9.336zM127.258 97.969h13.64v6.771a6.356 6.356 0 01-6.356 6.356h-15.666v-4.744a8.38 8.38 0 018.382-8.383z"/><path fill="#FFF" d="M140.897 111.096v5.213c0 6.082-4.93 11.014-11.012 11.014-6.081 0-11.012-4.932-11.012-11.014v-5.213h22.024z"/><path fill="#B3B3B3" d="M90.947 118.025h-22.23c-12.647 0-22.899 10.252-22.899 22.897v12.289h68.029v-12.289c0-12.645-10.253-22.897-22.9-22.897z"/><path fill="#FFF" d="M92.521 118.025l-12.688 12.688-12.689-12.688zM76.26 78.133h18.539v9.201a8.64 8.64 0 01-8.641 8.641H64.866V89.53c0-6.296 5.101-11.397 11.394-11.397z"/><path fill="#FFF" d="M94.799 95.971v7.086c0 8.267-6.701 14.968-14.967 14.968-8.266 0-14.965-6.701-14.965-14.968v-7.086h29.932z"/><path d="M141.284 124.534a13.973 13.973 0 002.666-8.225v-18.34a3.053 3.053 0 00-3.053-3.053h-13.641c-6.305 0-11.437 5.129-11.437 11.436v9.957c0 3.066.989 5.904 2.662 8.22a19.732 19.732 0 00-5.966 1.983c-4.24-6.326-11.188-10.689-19.171-11.428a1.268 1.268 0 00-.097-.021 17.942 17.942 0 004.6-12.008V78.133a3.052 3.052 0 00-3.053-3.052H76.26c-7.966 0-14.446 6.479-14.446 14.446v13.53a17.95 17.95 0 004.598 12.008 1.616 1.616 0 01-.095.021c-7.984.735-14.932 5.1-19.172 11.43a19.663 19.663 0 00-5.966-1.985 13.983 13.983 0 002.664-8.222v-18.34a3.053 3.053 0 00-3.052-3.053h-13.64c-6.306 0-11.436 5.131-11.436 11.436v9.957c0 3.068.991 5.91 2.666 8.226-9.447 1.544-16.681 9.76-16.681 19.637v9.043a3.05 3.05 0 003.052 3.051h150.161a3.05 3.05 0 003.053-3.051v-9.043c-.001-9.877-7.235-18.094-16.682-19.638zm-3.438-8.225c0 4.391-3.57 7.959-7.961 7.959-4.389 0-7.959-3.568-7.959-7.959v-2.16h12.615a9.38 9.38 0 003.305-.602v2.762zm-5.992 14.066l-1.969 1.967-1.967-1.967h3.936zm-9.928-24.023a5.337 5.337 0 015.332-5.329h10.588v3.717a3.31 3.31 0 01-3.305 3.307h-12.615v-1.695zm-54.008-7.327h18.241c2.022 0 3.928-.519 5.588-1.427v5.459c0 6.57-5.345 11.914-11.914 11.914s-11.915-5.344-11.915-11.914v-4.032zm17.234 22.051l-5.319 5.319-5.32-5.319h10.639zM67.918 89.527c0-4.603 3.742-8.343 8.342-8.343h15.486v6.146a5.597 5.597 0 01-5.588 5.59h-18.24v-3.393zm-30.18 26.782c0 4.391-3.571 7.959-7.96 7.959-4.389 0-7.959-3.568-7.959-7.959v-2.16h12.614a9.368 9.368 0 003.305-.602v2.762zm-5.992 14.066l-1.968 1.967-1.967-1.967h3.935zm-9.927-24.023a5.337 5.337 0 015.332-5.329h10.588v3.717a3.312 3.312 0 01-3.305 3.307H21.819v-1.695zm-14.015 37.82c0-6.847 5.013-12.541 11.559-13.613l8.258 8.26c.572.57 1.349.894 2.158.894.81 0 1.586-.32 2.158-.894l8.26-8.262c1.459.236 2.862.707 4.169 1.396a25.834 25.834 0 00-1.601 8.974v9.235H7.804v-5.99zm97.055 5.988H48.87v-6.104h19.873a3.052 3.052 0 000-6.106h-19.65c1.308-8.674 8.251-15.521 16.969-16.693l11.612 11.612c.596.597 1.377.894 2.158.894s1.563-.297 2.158-.894l11.612-11.612c9.69 1.303 17.19 9.623 17.19 19.666v9.235l-5.933.002zm47.001 0h-34.962v-9.236c0-3.15-.565-6.176-1.601-8.973a13.622 13.622 0 014.168-1.396l8.262 8.263a3.06 3.06 0 002.158.895c.808 0 1.585-.322 2.158-.895l8.256-8.259c6.548 1.072 11.561 6.768 11.561 13.611v5.99zM64.791 28.443a3.052 3.052 0 000 4.316l8.632 8.632a3.049 3.049 0 004.316 0l17.135-17.135a3.052 3.052 0 000-4.315 3.05 3.05 0 00-4.314 0L75.581 34.918l-6.475-6.474a3.051 3.051 0 00-4.315-.001z"/><path d="M79.833 61.333c16.91 0 30.668-13.757 30.668-30.667 0-12.095-7.142-23.093-18.188-28.021a3.052 3.052 0 00-2.485 5.575 24.603 24.603 0 0114.568 22.445c0 13.543-11.02 24.563-24.563 24.563S55.27 44.209 55.27 30.665c0-9.638 5.678-18.43 14.465-22.398a3.052 3.052 0 10-2.513-5.562c-10.969 4.954-18.056 15.93-18.056 27.962 0 16.909 13.756 30.666 30.667 30.666z"/><path d="M79.833 6.103h.097A3.051 3.051 0 0079.943 0h-.11a3.052 3.052 0 000 6.103zM79.833 137.952c-.803 0-1.59.326-2.158.896a3.076 3.076 0 00-.894 2.156c0 .803.326 1.592.894 2.158.568.565 1.355.895 2.158.895s1.59-.325 2.158-.895a3.076 3.076 0 00.895-2.158 3.06 3.06 0 00-3.053-3.052z"/></svg>