<svg xmlns="http://www.w3.org/2000/svg" width="91.945" height="84.95"><path fill="#FFF" d="M11.362 2.24h12.164v16.725H11.362V2.24z"/><path fill="#B3B3B3" d="M2.239 49.975h30.408v33.451H2.239V49.975z"/><path fill="#E00000" d="M63.058 13.484h27.368v69.944H63.058V13.484z"/><path fill="#E00000" d="M63.058 13.484h27.368v21.288H63.058V13.484z"/><path fill="#B3B3B3" d="M2.239 49.975h30.408V59.1H2.239v-9.125z"/><path fill="#FFF" d="M2.239 28.088h30.408v-4.564l-6.082-6.082H8.321l-6.082 6.082v4.564zM8.321 65.182h18.246v12.164H8.321V65.182zM32.647 49.975h30.411v10.646H32.647V49.975z"/><path fill="#FFF" d="M32.647 59.1h15.206v24.326H32.647V59.1zM47.853 59.1h15.205v24.326H47.853V59.1z"/><path fill="#E00000" d="M37.21 37.21v-1.52a4.562 4.562 0 119.125 0v1.521H37.21zM47.853 25.047v-1.521a4.562 4.562 0 019.125 0v1.521h-9.125z"/><path d="M90.427 11.965H63.058a1.52 1.52 0 00-1.521 1.521v34.971h-33.45v-4.562a1.52 1.52 0 00-1.521-1.521h-4.562v3.04h3.041v3.041h-6.082v-6.081h-3.041v6.081H9.84v-3.041h3.041v-3.04H8.319c-.842 0-1.521.683-1.521 1.521v4.562H2.236c-.842 0-1.521.683-1.521 1.521v33.451c0 .84.681 1.521 1.521 1.521h88.188c.84 0 1.521-.682 1.521-1.521V13.485a1.517 1.517 0 00-1.518-1.52zm-25.848 3.041h24.327v18.246H64.579V15.006zM61.538 57.58h-27.37v-6.083h27.37v6.083zM3.759 51.497h27.369v6.083H3.759v-6.083zm0 9.124h27.369v21.286H3.759V60.621zm30.41 0h12.165v21.286H34.169V60.621zm15.205 0h12.164v21.286H49.374V60.621zm15.205 21.287V36.292h24.327v45.615H64.579z"/><path d="M67.62 21.088h3.04v6.082h-3.04v-6.082zM67.62 42.375h3.04v6.081h-3.04v-6.081zM9.841 54.539a1.522 1.522 0 11-3.043-.001 1.522 1.522 0 013.043.001zM15.923 54.539a1.522 1.522 0 11-3.043-.001 1.522 1.522 0 013.043.001zM22.005 54.539a1.521 1.521 0 11-3.043 0 1.521 1.521 0 013.043 0zM28.087 54.539a1.522 1.522 0 11-3.043-.001 1.522 1.522 0 013.043.001zM2.239 29.608h30.408a1.52 1.52 0 001.521-1.521v-4.562c0-.403-.161-.79-.445-1.075l-6.082-6.082a1.52 1.52 0 00-1.073-.445h-1.521V2.24c0-.84-.681-1.521-1.521-1.521H11.362A1.52 1.52 0 009.841 2.24v13.684H8.32c-.403 0-.79.16-1.075.445l-6.082 6.082a1.52 1.52 0 00-.445 1.075v4.563c0 .839.68 1.519 1.521 1.519zM12.882 3.76h9.123v12.164h-9.123V3.76zM3.759 24.156l5.191-5.191h16.985l5.191 5.191v2.411H3.759v-2.411zM26.565 63.662H8.321c-.842 0-1.521.683-1.521 1.521v12.164c0 .84.681 1.521 1.521 1.521h18.246c.84 0 1.521-.682 1.521-1.521V65.182a1.522 1.522 0 00-1.523-1.52zm-1.519 12.164H9.841v-9.123h15.205v9.123zM44.811 53.016h6.083v3.043h-6.083v-3.043zM40.251 68.223h3.041v6.082h-3.041v-6.082zM52.414 68.223h3.041v6.082h-3.041v-6.082zM37.21 38.731h9.124c.839 0 1.521-.682 1.521-1.521v-1.521a6.083 6.083 0 00-4.562-5.865V.719h-3.041v29.105a6.084 6.084 0 00-4.563 5.866v1.521a1.52 1.52 0 001.521 1.52zm4.56-6.082a3.04 3.04 0 013.041 3.041h-6.082a3.042 3.042 0 013.041-3.041z"/><path d="M47.853 26.567h9.122c.84 0 1.521-.682 1.521-1.521v-1.521a6.081 6.081 0 00-4.563-5.866V.719h-3.04v16.942a6.08 6.08 0 00-4.562 5.866v1.521a1.522 1.522 0 001.522 1.519zm4.561-6.083a3.041 3.041 0 013.041 3.041h-6.081a3.043 3.043 0 013.04-3.041z"/></svg>