<svg xmlns="http://www.w3.org/2000/svg" width="163.963" height="158.055"><path fill="#FFF" d="M159.558 98.967H2.702V15.132c0-5.972 4.844-10.815 10.818-10.815h135.217c5.977 0 10.818 4.844 10.818 10.817l.003 83.833z"/><path fill="#B3B3B3" d="M159.558 98.967H2.702v10.818c0 5.975 4.844 10.817 10.818 10.817l135.217-.002c5.977 0 10.818-4.844 10.818-10.815l.003-10.818z"/><path fill="#B3B3B3" d="M123.192 147.529a5.407 5.407 0 00-4.838-2.991h-12.883l-5.408-23.935-37.863-.002-5.408 23.935-12.883.002a5.405 5.405 0 00-4.838 2.991c-1.801 3.595.817 7.825 4.838 7.825l74.446.001c4.02.001 6.634-4.229 4.837-7.826z"/><path stroke="#000" stroke-width=".36" stroke-linecap="round" stroke-linejoin="round" stroke-miterlimit="22.926" d="M148.737 1.61H13.521C6.063 1.61 0 7.675 0 15.131v94.654c0 7.457 6.065 13.52 13.521 13.52h45.438l-4.424 18.525H43.91a8.072 8.072 0 00-7.258 4.481 8.076 8.076 0 00.354 7.896 8.061 8.061 0 006.901 3.848h74.441a8.06 8.06 0 006.902-3.848 8.068 8.068 0 00.354-7.896 8.049 8.049 0 00-7.252-4.482l-10.625.002-4.425-18.525h45.438c7.457 0 13.521-6.064 13.521-13.521V15.132c.002-7.457-6.065-13.522-13.524-13.522h0zM78.931 147.217H93.98c.09 0 .178-.002.264-.008.133.021.271.033.412.033H118.355c1.029 0 1.961.573 2.42 1.495.607 1.218.121 2.244-.115 2.63-.244.385-.945 1.282-2.305 1.282H43.908c-1.361 0-2.063-.897-2.302-1.286-.238-.386-.729-1.41-.117-2.629a2.684 2.684 0 012.419-1.492h34.518c.128 0 .255-.01.378-.027l.127.002h0zm15.59-5.38a5.092 5.092 0 00-.541-.026H78.931c-.174 0-.347.01-.514.024H60.031l4.425-18.525h33.35l4.426 18.525h-7.576l-.135.002h0zM5.407 15.132c0-4.472 3.642-8.111 8.114-8.111h135.216c4.477 0 8.112 3.64 8.112 8.111v81.132H5.407V15.132h0zm151.447 94.654c0 4.475-3.642 8.11-8.111 8.11H13.521c-4.475 0-8.114-3.641-8.114-8.11v-8.113h151.448v8.113h-.001z"/><path stroke="#000" stroke-width=".36" stroke-linecap="round" stroke-linejoin="round" stroke-miterlimit="22.926" d="M75.722 112.489h10.814a2.705 2.705 0 002.705-2.701 2.706 2.706 0 00-2.705-2.705l-10.814.002a2.702 2.702 0 100 5.404z"/><path d="M149.487 84.342l-5.313-5.313c-.079-.078-.079-.238 0-.315l3.442-3.441-17.537-5.262 5.26 17.54 3.34-3.338a.543.543 0 01.766 0l5.101 5.072 4.941-4.943z"/><path fill="none" stroke="#000" stroke-width="6" stroke-linecap="round" stroke-linejoin="round" stroke-miterlimit="22.926" d="M38.157 86.888l72.102-15.429"/><path fill="none" stroke="#000" stroke-width="4.8" stroke-linecap="round" stroke-linejoin="round" stroke-miterlimit="22.926" d="M74.716 43.87l35.689 27.375"/><path fill="#E00000" stroke="#000" stroke-width="6" stroke-miterlimit="22.926" d="M49.841 36.784c-7.346-6.026-18.136-6.026-25.483 0-6.915 5.673-9.886 16.25-7.308 24.758 3.11 10.262 12.045 17.769 20.049 24.302 7.776-6.333 16.374-13.299 19.717-23.127 2.968-8.723.227-20.025-6.975-25.933h0zm-3.708 16.389a9.033 9.033 0 11-18.067 0 9.033 9.033 0 0118.067 0z"/><path fill="#E00000" stroke="#000" stroke-width="4.8" stroke-miterlimit="22.926" d="M121.267 33.208c-5.646-4.633-13.943-4.633-19.593 0-5.315 4.361-7.603 12.494-5.618 19.035 2.393 7.89 9.262 13.66 15.414 18.685 5.979-4.869 12.589-10.226 15.159-17.781 2.28-6.707.175-15.396-5.362-19.939h0zm-2.854 12.6a6.943 6.943 0 11-13.886 0 6.944 6.944 0 1113.886 0z"/><path fill="#E00000" stroke="#000" stroke-width="4.08" stroke-miterlimit="22.926" d="M80.663 17.652c-3.947-3.239-9.747-3.239-13.696 0-3.717 3.049-5.313 8.733-3.928 13.307 1.672 5.517 6.475 9.55 10.776 13.063 4.18-3.405 8.799-7.149 10.596-12.432 1.598-4.688.123-10.762-3.748-13.938h0zm-1.992 8.809a4.855 4.855 0 11-9.71 0 4.855 4.855 0 019.71 0z"/></svg>