<svg xmlns="http://www.w3.org/2000/svg" width="160.533" height="144.333"><path fill="#B3B3B3" d="M91.011 31.455c3.435-3.567 9.116-3.853 12.896-.566a9.274 9.274 0 012.327 3.115l6.109-1.987-24.004-20.879-18.507 2.534 21.179 17.783zM104.767 44.477a9149.996 9149.996 0 0121.814 18.926l-.057-19.489-9.555-8.31-9.81 3.188c-.135 1.889-1.144 4.106-2.392 5.685z"/><path stroke="#000" stroke-width=".96" stroke-miterlimit="22.926" d="M130.896 41.7l-8.813-7.668a16.392 16.392 0 005.036-3.886l.521-.597c5.933-6.821 5.209-17.204-1.611-23.137-6.821-5.933-17.203-5.211-23.137 1.611l-.522.597a16.3 16.3 0 00-3.15 5.526l-8.814-7.668-26.6 3.642L1.722 81.493c-2.543 2.922-2.233 7.373.689 9.916l56.567 49.203c2.923 2.543 7.373 2.23 9.916-.69l62.083-71.373-.081-26.849h0zm-25.533 2.679c1.192-1.514 2.163-3.638 2.296-5.447l9.4-3.058 9.156 7.965.055 18.679a8767.006 8767.006 0 00-20.907-18.139h0zm-4.477 2.871l24.102 21.471-59.628 68.125a2.342 2.342 0 01-3.305.23L5.488 87.872a2.344 2.344 0 01-.229-3.305l59.967-68.942 24.138 20.628-.291.664a9.37 9.37 0 003.126 8.385 9.375 9.375 0 008.687 1.948h0zm-9.283-15.524L70.428 13.943l18.504-2.534 24.004 20.879-6.107 1.986a9.287 9.287 0 00-2.328-3.115c-3.777-3.286-9.462-3.001-12.898.567h0zm11.607-14.388a11.723 11.723 0 012.695-5.643l.521-.598c4.237-4.873 11.651-5.389 16.524-1.15 4.873 4.239 5.392 11.653 1.149 16.526l-.521.597a11.704 11.704 0 01-5.215 3.451l-.233.075-14.968-13.018.048-.24h0zm-1.324 23.967a4.688 4.688 0 01-6.609.46 4.692 4.692 0 01-.461-6.611 4.69 4.69 0 016.611-.459c1.897 1.652 2.116 4.705.459 6.61h0z"/><path stroke="#000" stroke-width=".96" stroke-miterlimit="22.926" d="M19.934 81.524l45.96 39.977-3.075 3.535-45.96-39.978 3.075-3.534zM116.744 96.767h5.438v5.438h-5.438v-5.438zM26.085 74.452l46.156 40.147-3.075 3.535L23.01 77.989l3.075-3.537z"/><path fill="#E00000" d="M155.347 94.644c0-15.099-12.313-27.413-27.412-27.413-15.101 0-27.414 12.314-27.414 27.413 0 15.101 12.313 27.414 27.414 27.414 15.097 0 27.412-12.313 27.412-27.414z"/><path d="M152.625 94.644a24.63 24.63 0 00-7.229-17.46 24.62 24.62 0 00-17.461-7.232 24.62 24.62 0 00-17.461 7.232 24.612 24.612 0 00-7.232 17.46 24.63 24.63 0 007.232 17.462 24.607 24.607 0 0017.461 7.231 24.63 24.63 0 0017.461-7.231 24.63 24.63 0 007.229-17.462zm-3.385-21.307a30.038 30.038 0 018.825 21.308c0 8.321-3.372 15.855-8.825 21.309a30.03 30.03 0 01-21.31 8.826c-8.32 0-15.854-3.373-21.309-8.826-5.453-5.453-8.826-12.985-8.826-21.309 0-8.32 3.373-15.854 8.827-21.308 5.453-5.453 12.985-8.826 21.308-8.826s15.857 3.373 21.31 8.826z"/><path d="M113.138 93.663a3.027 3.027 0 000 4.285l8.568 8.567a3.028 3.028 0 004.287 0l17.011-17.01a3.03 3.03 0 10-4.285-4.285l-14.867 14.868-6.428-6.43a3.034 3.034 0 00-4.286.005zM60.487 68.264l-4.062-3.533a1.568 1.568 0 01-.154-2.211l1.752-2.013a1.567 1.567 0 012.211-.154l4.062 3.533 12.818-14.737a1.567 1.567 0 012.211-.154c1.207 1.05 2.587 2.213 3.979 3.387a521.443 521.443 0 014.108 3.483c4.896 4.258 7.06 8.188 7.438 11.758.391 3.695-1.104 6.893-3.485 9.63-2.649 3.047-6.083 4.763-10.129 4.522-3.502-.205-7.402-1.904-11.56-5.521l-4.249-3.696-2.953 3.396 7.293 6.344c.652.566.722 1.559.153 2.21l-1.751 2.015a1.569 1.569 0 01-2.211.153l-7.292-6.345-5.122 5.889a1.566 1.566 0 01-2.21.154l-2.575-2.24a1.567 1.567 0 01-.154-2.211l5.122-5.889-4.062-3.534a1.566 1.566 0 01-.154-2.211l1.751-2.014a1.566 1.566 0 012.211-.152l4.062 3.533 2.952-3.392zm27.599-.736c-.336-2.016-1.81-4.22-4.612-6.66a237.761 237.761 0 00-4.535-3.841l-9.702 11.155 4.155 3.614c2.694 2.344 5.157 3.575 7.316 3.729 2.019.146 3.847-.701 5.415-2.504 1.562-1.796 2.274-3.62 1.963-5.493z"/></svg>