<svg xmlns="http://www.w3.org/2000/svg" width="140.066" height="161.545"><path fill="#B3B3B3" d="M114.158 86.069L96.68 95.776l-5.637-11.271 17.396-8.7a5.903 5.903 0 012.604-.611h.293a5.81 5.81 0 015.806 5.802 5.812 5.812 0 01-2.984 5.073zM81.672 101.282h14.291l20.673-11.487c.128-.068.238-.16.363-.234v25.311H81.672v-13.59z"/><path fill="#E00000" d="M133.477 35.592l-1.229-.271v-4.054c0-15.829-12.834-28.662-28.66-28.662-12.902 0-23.799 8.533-27.391 20.259l-2.896-.644c-3.177-.706-6.191 1.712-6.191 4.966a5.089 5.089 0 003.984 4.966l45.512 10.115 5.509 1.225 9.155 2.035c3.177.704 6.189-1.714 6.189-4.969a5.086 5.086 0 00-3.982-4.966zM28.661 2.605H2.605v156.333h26.056V2.605z"/><path d="M131.979 48.208c.138.008.275.044.411.044a7.655 7.655 0 004.797-1.693 7.64 7.64 0 002.879-6c0-3.346-2.109-6.204-5.211-7.257v-2.035C134.855 14.026 120.83 0 103.589 0 90.698 0 79.157 8.016 74.501 19.818l-.639-.141a7.638 7.638 0 00-6.479 1.509 7.643 7.643 0 00-2.878 6c0 3.346 2.109 6.204 5.211 7.257v9.852c0 12.171 7.001 22.715 17.18 27.872 3.01 1.525 7.362 2.681 9.896 2.755-3.426 2.468-5.627 5.015-17.567 5.851H61.026l-1.323-6.186a5.205 5.205 0 002.196-4.237H73.34l-1.287-3.833a13.407 13.407 0 00-10.792-9.039c-.885-1.636-2.59-2.762-4.573-2.762H46.266c-1.92 0-3.583 1.056-4.487 2.606h-5.936a5.216 5.216 0 00-5.211 5.211v5.211a5.216 5.216 0 005.211 5.211h5.936a5.253 5.253 0 002.332 2.126l2.282 9.133c-1.68 1.854-2.732 4.285-2.732 6.979 0 4.517 2.902 8.328 6.927 9.774l2.742 10.979a6.963 6.963 0 002.704 3.969 16.828 16.828 0 00-1.951 7.846v22.875l-2.929.978a7.141 7.141 0 00-4.888 6.783 7.154 7.154 0 007.146 7.146H85.35v-.104c.8-.078 1.598-.195 2.382-.375l30.323-6.998 2.699 4.051a7.68 7.68 0 006.403 3.428c4.244 0 7.696-3.451 7.696-7.694v-15.755c0-4.311-3.507-7.815-7.817-7.815h-7.883c1.653-2.185 2.674-4.873 2.674-7.815l-.002-41.689h-.039c-.143-3.96-2.418-7.348-5.715-9.111 8.549-4.733 14.637-13.353 15.908-23.458zM103.59 5.211c14.366 0 26.056 11.688 26.056 26.056v.805L79.671 20.967C83.738 11.55 93.128 5.211 103.59 5.211zM74.928 44.295v-8.622l20.845 4.633v9.2h5.211a2.606 2.606 0 010 5.21h-5.211v15.107c-11.88-2.42-20.845-12.946-20.845-25.528zM51.032 81.28l-1.431-5.719h4.981l1.114 5.211h-1.614c-1.068 0-2.077.209-3.05.508zm10.867-16.14V63c1.298.435 2.48 1.146 3.411 2.139h-3.411v.001zm-15.633-5.212h10.422l.005 10.422H46.266V59.928zm-10.422 2.605h5.212v5.211h-5.212v-5.211zm18.239 23.45h32.264l5.21 10.422H54.083a5.215 5.215 0 01-5.211-5.211 5.217 5.217 0 015.211-5.211zm13.283 46.792a18.76 18.76 0 00-2.859 9.965c0 1.082.11 2.139.289 3.172h-5.502v-22.146c0-2.39.723-4.685 2.069-6.64a6.998 6.998 0 005.203-4.176c3.549-1.441 7.749-1.027 10.964 1.104v2.45l-10.164 16.271zm-.623-25.333l-1.248-5.826h12.038v6.562c-3.402-1.381-7.237-1.623-10.79-.736zm-6.579-5.826l1.694 7.898a1.8 1.8 0 01.041.385v.356a1.786 1.786 0 01-3.516.429l-2.265-9.07 4.046.002zm22.579 0h13.703l19.82-11.014c.122-.068.229-.154.35-.228v24.271H82.743v-13.029zm-29.33 54.718a1.938 1.938 0 01-.61-3.777l4.307-1.437h9.396a18.715 18.715 0 003.87 5.211l-16.963.003zm76.231-18.24v15.756a2.488 2.488 0 01-2.486 2.484 2.473 2.473 0 01-2.066-1.107l-3.264-4.891v-14.849h5.211a2.609 2.609 0 012.605 2.607zm-31.266-2.605h18.238v13.56l-30.056 6.938c-1.003.23-2.028.35-3.252.35-7.496 0-13.593-6.098-13.593-13.594 0-2.551.714-5.045 2.065-7.203l9.799-15.682h35.033v2.605c0 4.311-3.507 7.815-7.814 7.815H87.953v5.211h10.425zm15.362-49.44l-16.853 9.36-5.438-10.87 16.774-8.39a5.681 5.681 0 012.511-.589h.283a5.6 5.6 0 012.723 10.489zm-12.756-15.698V59.928c4.309 0 7.815-3.507 7.815-7.817s-3.508-7.816-7.815-7.816v-2.83l15.057 3.346 1.133-5.089L71.66 29.607a2.489 2.489 0 01-1.941-2.42c0-.756.338-1.464.928-1.936a2.47 2.47 0 012.093-.485l60.176 13.372a2.492 2.492 0 011.942 2.421 2.479 2.479 0 01-3.022 2.421l-9.154-2.032-1.131 5.088 5.313 1.181c-1.458 12.992-12.503 23.134-25.88 23.134z"/><path d="M31.266 0H0v161.544h31.268C31.266 107.696 31.266 53.849 31.266 0zM5.211 156.334V5.211h20.846v151.123H5.211zM127.318 41.977l-1.13 5.087-15.263-3.39 1.13-5.087zM84.583 49.291a3.159 3.159 0 003.152-3.153 3.158 3.158 0 00-3.152-3.153 3.158 3.158 0 00-3.151 3.153 3.158 3.158 0 003.151 3.153z"/></svg>