<svg xmlns="http://www.w3.org/2000/svg" width="65.75" height="65.625"><path fill="#E00000" d="M47.541 1.658h14.484c1.135 0 2.07.936 2.07 2.098v8.249a2.082 2.082 0 01-2.07 2.069h-3.117l-8.248 5.187.877-5.187h-3.996a2.08 2.08 0 01-2.068-2.069V3.756c0-1.162.935-2.098 2.068-2.098z"/><path d="M29.826 55.234l-5.074-5.074a.274.274 0 00-.396 0l-4.422 4.053h-.055c-.113.145-.313.199-.511.199a.751.751 0 01-.539-.199l-1.871-1.871.539-2.465a4.84 4.84 0 011.39-2.041c.623-.539 1.39-.908 2.239-1.104l2.041-.369 5.046-.908h9.155v-.027l7.115 1.305c.879.17 1.672.566 2.324 1.133.65.539 1.133 1.275 1.416 2.098l1.445 5.273H29.826v-.003zm8.362-12.388v-.027a10.823 10.823 0 003.23-2.977c.822-1.162 1.672-2.893 1.672-9.129 1.021-.396 1.76-.764 2.355-1.502.623-.766.963-1.728.963-2.777l.057-2.014c0-3.798-1.529-7.2-4.023-9.693a13.692 13.692 0 00-9.525-4.025H32.635a13.797 13.797 0 00-9.524 4.025c-2.494 2.494-4.024 5.896-4.024 9.693v2.126c0 1.05.368 2.012.991 2.75.596.766 1.418 1.275 2.354 1.531 0 6.094.907 7.852 1.758 9.014a11.044 11.044 0 003.176 2.979v.057l-6.633 1.189a7.559 7.559 0 00-3.602 1.758 7.135 7.135 0 00-2.211 3.289l-.057.111v.027l-.029.143-.197.623-3.203-3.201-.027-.027a.78.78 0 01-.228-.539c0-.199.085-.369.255-.539l4.082-4.082c.085-.084.085-.254 0-.369L7.83 33.605a.277.277 0 00-.396 0l-4.592 4.623a6.795 6.795 0 00-1.616 2.408A7.124 7.124 0 00.632 43.5c0 1.02.198 1.984.595 2.891.34.908.907 1.701 1.616 2.439l13.946 13.975h.027c.709.68 1.53 1.246 2.438 1.615.879.369 1.87.566 2.862.566s1.957-.197 2.863-.566 1.7-.908 2.409-1.615l5.244-4.848-.028-.029h20.608l-.453-1.699-1.955-7.031-.027-.057a7.256 7.256 0 00-2.184-3.316 7.934 7.934 0 00-3.602-1.758h-.027l-6.776-1.221zm-5.245-29.537a11.148 11.148 0 017.682 3.26 11.077 11.077 0 013.262 7.853v2.041c-.908-.397-1.844-.454-2.834-.51-1.871-.085-4.055-.228-6.861-3.005v-.028l-1.219-1.19c-.027 0-.027-.027-.027-.027v-.028c-.057-.028-.113-.028-.17-.028-.029 0-.086 0-.143.028v.028l-.027.027-1.191 1.19-.027.028c-2.777 2.777-4.988 2.92-6.859 3.005-1.021.057-1.929.112-2.808.51v-2.041c0-3.062 1.22-5.839 3.231-7.853a11.098 11.098 0 017.683-3.26H32.943zm-.17 11.905c1.105 1.021 2.381 1.813 3.713 2.409 1.361.625 2.807.992 4.281 1.134v4.961a7.83 7.83 0 01-2.354 5.641c-1.502 1.502-3.486 2.324-5.611 2.354h-.029a8.017 8.017 0 01-5.611-2.354c-1.446-1.445-2.383-3.43-2.383-5.641v-4.961c1.531-.143 2.978-.51 4.31-1.134a13.57 13.57 0 003.684-2.409zM11.259 42.193l.735-.736-4.364-4.365-.708.736 4.337 4.365zm8.985 19.815c.568.227 1.22.369 1.871.369s1.275-.143 1.871-.369 1.135-.596 1.588-1.076l.396-.34-4.394-4.395c-.283.256-.566.453-.937.564v.029c-.396.141-.821.227-1.274.227s-.879-.086-1.305-.256c-.396-.141-.766-.395-1.076-.68v-.029l-7.428-7.426c-.652-.652-.964-1.502-.964-2.381 0-.795.283-1.559.821-2.211L5.05 39.671l-.369.367c-.48.48-.85.992-1.076 1.588a5.213 5.213 0 00-.369 1.871c0 .68.143 1.275.369 1.871.228.596.596 1.133 1.076 1.615L18.629 60.93c.48.453 1.021.822 1.587 1.076h.028v.002zm3.26-7.539l4.395 4.336.963-.85-4.365-4.365-.993.879zM62.027.639H47.543c-1.701 0-3.09 1.389-3.09 3.117v8.249a3.08 3.08 0 003.09 3.091h2.777l-1.078 6.235 9.98-6.235h2.805a3.08 3.08 0 003.09-3.091V3.756c0-1.729-1.388-3.117-3.09-3.117zm1.02 11.366c0 .567-.453 1.05-1.021 1.05h-3.4l-6.576 4.082.709-4.082h-5.217c-.566 0-1.02-.482-1.02-1.05V3.756c0-.566.453-1.049 1.02-1.049h14.484c.568 0 1.021.482 1.021 1.049v8.249z"/><path d="M10.89 26.32l-1.049-1.758-2.806 1.672C9.953 14.329 20.669 5.825 33.084 5.825c2.723 0 5.387.397 7.967 1.19l.596-1.984a29.019 29.019 0 00-8.563-1.275c-13.492 0-25.114 9.326-28.146 22.365l-1.984-3.288-1.759 1.077 3.629 6.066 6.066-3.656zM54.912 25.951L56.697 27l1.814-3.005c.965 2.778 1.445 5.698 1.445 8.704 0 6.121-2.154 12.131-5.98 16.893l1.588 1.307A28.97 28.97 0 0062.027 32.7c0-3.176-.51-6.266-1.502-9.213l3.033 1.813 1.049-1.786-6.039-3.628-3.656 6.065z"/><g fill="#E00000"><path d="M23.504 54.469l4.394 4.336.963-.85-4.365-4.365zM20.244 62.008c.568.227 1.22.369 1.871.369s1.275-.143 1.871-.369 1.135-.596 1.588-1.076l.396-.34-4.394-4.395c-.283.256-.566.453-.937.564v.029c-.396.141-.821.227-1.274.227s-.879-.086-1.305-.256c-.396-.141-.766-.395-1.076-.68v-.029l-7.428-7.426c-.652-.652-.964-1.502-.964-2.381 0-.795.283-1.559.821-2.211L5.05 39.671l-.369.367c-.48.48-.85.992-1.076 1.588a5.188 5.188 0 00-.341 1.871c0 .68.113 1.275.341 1.871.228.596.596 1.133 1.076 1.615L18.629 60.93c.48.453 1.021.822 1.587 1.076h.028v.002zM11.259 42.193l.737-.736-4.366-4.365-.708.736z"/></g><path fill="#B3B3B3" d="M32.943 13.309a11.148 11.148 0 017.682 3.26 11.077 11.077 0 013.262 7.853v2.041c-.908-.397-1.844-.454-2.834-.51-1.871-.085-4.055-.228-6.861-3.005v-.028l-1.219-1.19c-.027 0-.027-.027-.027-.027v-.028c-.057-.028-.113-.028-.17-.028-.029 0-.086 0-.143.028v.028l-.027.027-1.191 1.19-.027.028c-2.777 2.777-4.988 2.92-6.859 3.005-1.021.057-1.929.112-2.808.51v-2.041c0-3.062 1.22-5.839 3.231-7.853a11.098 11.098 0 017.683-3.26H32.943zM29.826 55.234l-5.074-5.074a.274.274 0 00-.396 0l-4.422 4.053h-.055c-.113.145-.313.199-.511.199a.751.751 0 01-.539-.199l-1.871-1.871.539-2.465a4.84 4.84 0 011.39-2.041c.623-.539 1.39-.908 2.239-1.104l2.041-.369 5.046-.908h9.155v-.027l7.115 1.305c.879.17 1.672.566 2.324 1.133.65.539 1.133 1.275 1.416 2.098l1.445 5.273H29.826v-.003z"/></svg>