<?xml version="1.0" encoding="iso-8859-1"?>
<!-- Generator: Adobe Illustrator 19.0.0, SVG Export Plug-In . SVG Version: 6.00 Build 0)  -->
<svg version="1.1" id="Capa_1" xmlns="http://www.w3.org/2000/svg" xmlns:xlink="http://www.w3.org/1999/xlink" x="0px" y="0px"
	 viewBox="0 0 496.485 496.485" style="enable-background:new 0 0 496.485 496.485;" xml:space="preserve">
<circle style="fill:#2EA2DB;" cx="248.242" cy="248.242" r="248.242"/>
<path style="fill:#FFFFFF;" d="M255.224,44.218H74.473c-18.618,0-33.358,14.739-33.358,33.358v342.109
	c0,18.618,14.739,33.358,33.358,33.358h262.206c18.618,0,33.358-14.739,33.358-33.358V319.612V203.248V159.03L255.224,44.218z"/>
<path style="fill:#193651;" d="M336.679,460.8H74.473c-22.497,0-41.115-18.618-41.115-41.115V77.576
	c0-22.497,18.618-41.115,41.115-41.115h180.752c2.327,0,3.879,0.776,5.43,2.327L375.467,153.6c1.552,1.552,2.327,3.103,2.327,5.43
	v44.218c0,4.655-3.103,7.758-7.758,7.758s-7.758-3.103-7.758-7.758v-40.339L252.121,51.976H74.473c-13.964,0-25.6,11.636-25.6,25.6
	v342.109c0,13.964,11.636,25.6,25.6,25.6h262.206c13.964,0,25.6-11.636,25.6-25.6V319.612c0-4.655,3.103-7.758,7.758-7.758
	s7.758,3.103,7.758,7.758v100.073C377.794,442.182,359.176,460.8,336.679,460.8z"/>
<g>
	<rect x="85.333" y="100.073" style="fill:#F16051;" width="139.636" height="13.964"/>
	<rect x="85.333" y="146.618" style="fill:#F16051;" width="139.636" height="13.964"/>
</g>
<g>
	<rect x="79.903" y="203.248" style="fill:#E1E6E9;" width="252.121" height="12.412"/>
	<rect x="79.903" y="259.103" style="fill:#E1E6E9;" width="252.121" height="12.412"/>
	<rect x="79.903" y="314.958" style="fill:#E1E6E9;" width="252.121" height="12.412"/>
</g>
<path style="fill:#FDBF5E;" d="M254.448,54.303v76.024c0,17.067,13.964,31.806,31.806,31.806h76.024L254.448,54.303z"/>
<g>
	<rect x="89.988" y="377.018" style="fill:#193651;" width="15.515" height="15.515"/>
	<rect x="131.879" y="377.018" style="fill:#193651;" width="15.515" height="15.515"/>
</g>
<rect x="173.77" y="377.018" style="fill:#193651;" width="15.515" height="15.515"/>
<polygon style="fill:#E1E6E9;" points="301.77,387.879 248.242,401.067 261.43,346.764 393.309,214.885 433.648,256 "/>
<path style="fill:#193651;" d="M248.242,408.824c-2.327,0-3.879-0.776-5.43-2.327c-1.552-1.552-2.327-4.655-2.327-6.982
	l13.188-53.527c0-1.552,0.776-2.327,2.327-3.879L387.879,210.23c1.552-1.552,3.103-2.327,5.43-2.327l0,0
	c2.327,0,3.879,0.776,5.43,2.327l40.339,40.339c3.103,3.103,3.103,7.758,0,10.861L307.2,393.309
	c-0.776,0.776-2.327,1.552-3.879,2.327l-53.527,13.188C249.794,408.824,249.018,408.824,248.242,408.824z M268.412,350.642
	l-10.085,39.564l39.564-10.085L422.788,256l-29.479-29.479L268.412,350.642z"/>
<path style="fill:#FFFFFF;" d="M458.473,214.885l-24.048-24.048c-4.655-4.655-11.636-4.655-16.291,0l-24.824,24.824L433.648,256
	l24.824-24.824C463.127,226.521,463.127,219.539,458.473,214.885z"/>
<g>
	<path style="fill:#193651;" d="M433.648,263.758c-2.327,0-3.879-0.776-5.43-2.327l-40.339-41.115
		c-3.103-3.103-3.103-7.758,0-10.861l24.824-24.824c6.982-6.982,20.17-6.982,27.152,0l24.048,24.048
		c3.879,3.879,5.43,8.533,5.43,13.964c0,5.43-2.327,10.085-5.43,13.964l-24.824,24.824
		C438.303,262.982,435.976,263.758,433.648,263.758z M404.17,214.885l29.479,29.479l19.394-19.394
		c0.776-0.776,0.776-2.327,0.776-2.327c0-0.776,0-1.552-0.776-2.327l-24.048-24.048c-0.776-0.776-2.327-0.776-2.327-0.776
		c-0.776,0-1.552,0-2.327,0.776L404.17,214.885z"/>
	<path style="fill:#193651;" d="M297.891,274.618c-3.103-3.103-3.103-7.758,0-10.861l65.939-65.939
		c6.206-6.206,17.067-6.206,22.497,0l12.412,12.412c3.103,3.103,3.103,7.758,0,10.861c-3.103,3.103-7.758,3.103-10.861,0
		l-12.412-12.412h-0.776l0,0l-65.939,65.939C305.648,277.721,300.994,277.721,297.891,274.618z"/>
</g>
<path style="fill:#193651;" d="M232.727,416.582c-3.103-3.103-3.103-7.758,0-10.861l10.085-10.085c3.103-3.103,7.758-3.103,10.861,0
	c3.103,3.103,3.103,7.758,0,10.861l-10.085,10.085C240.485,419.685,235.83,419.685,232.727,416.582z"/>
<rect x="303.244" y="330.051" transform="matrix(-0.707 0.7072 -0.7072 -0.707 769.7827 356.6981)" style="fill:#193651;" width="15.515" height="15.515"/>
<rect x="333.444" y="300.062" transform="matrix(-0.707 0.7072 -0.7072 -0.707 800.126 284.1504)" style="fill:#193651;" width="15.515" height="15.515"/>
<rect x="363.103" y="270.638" transform="matrix(-0.707 0.7072 -0.7072 -0.707 829.9453 212.948)" style="fill:#193651;" width="15.515" height="15.515"/>
<g>
</g>
<g>
</g>
<g>
</g>
<g>
</g>
<g>
</g>
<g>
</g>
<g>
</g>
<g>
</g>
<g>
</g>
<g>
</g>
<g>
</g>
<g>
</g>
<g>
</g>
<g>
</g>
<g>
</g>
</svg>
