<?xml version="1.0" encoding="iso-8859-1"?>
<!-- Generator: Adobe Illustrator 19.0.0, SVG Export Plug-In . SVG Version: 6.00 Build 0)  -->
<svg version="1.1" id="Capa_1" xmlns="http://www.w3.org/2000/svg" xmlns:xlink="http://www.w3.org/1999/xlink" x="0px" y="0px"
	 viewBox="0 0 496.485 496.485" style="enable-background:new 0 0 496.485 496.485;" xml:space="preserve">
<circle style="fill:#F16051;" cx="366.158" cy="239.709" r="130.327"/>
<rect x="6.982" y="55.079" style="fill:#E1E6E9;" width="298.667" height="356.073"/>
<path style="fill:#193651;" d="M305.648,418.133H6.982c-3.879,0-6.982-3.103-6.982-6.982V55.079c0-3.879,3.103-6.982,6.982-6.982
	h298.667c3.879,0,6.982,3.103,6.982,6.982v356.073C312.63,415.03,309.527,418.133,305.648,418.133z M13.964,403.394h284.703V62.061
	H13.964V403.394z"/>
<rect x="35.995" y="83.859" style="fill:#FFFFFF;" width="241.261" height="298.667"/>
<polygon style="fill:#CFD0D1;" points="200.145,26.376 112.485,26.376 86.109,83.782 227.297,83.782 "/>
<g>
	<path style="fill:#193651;" d="M227.297,90.764L227.297,90.764H86.109c-2.327,0-4.655-1.552-6.206-3.103
		c-1.552-2.327-1.552-4.655-0.776-6.982l27.152-57.406c1.552-2.327,3.879-3.879,6.206-3.879h87.661c3.103,0,5.43,1.552,6.206,3.879
		l26.376,55.855c0.776,1.552,1.552,2.327,1.552,3.879C234.279,87.661,231.176,90.764,227.297,90.764z M96.97,76.8h118.691
		l-20.17-42.667h-78.352L96.97,76.8z"/>
	<path style="fill:#193651;" d="M245.139,126.448H68.267c-3.879,0-6.982-3.103-6.982-6.982c0-3.879,3.103-6.982,6.982-6.982h176.873
		c3.879,0,6.982,3.103,6.982,6.982C252.121,123.345,249.018,126.448,245.139,126.448z"/>
	<path style="fill:#193651;" d="M245.139,169.115H68.267c-3.879,0-6.982-3.103-6.982-6.982c0-3.879,3.103-6.982,6.982-6.982h176.873
		c3.879,0,6.982,3.103,6.982,6.982C252.121,166.012,249.018,169.115,245.139,169.115z"/>
	<path style="fill:#193651;" d="M245.139,211.782H68.267c-3.879,0-6.982-3.103-6.982-6.982s3.103-6.982,6.982-6.982h176.873
		c3.879,0,6.982,3.103,6.982,6.982S249.018,211.782,245.139,211.782z"/>
</g>
<rect x="352.97" y="321.164" style="fill:#FFFFFF;" width="26.376" height="46.545"/>
<path style="fill:#193651;" d="M379.345,374.691H352.97c-3.879,0-6.982-3.103-6.982-6.982v-46.545c0-3.879,3.103-6.982,6.982-6.982
	h26.376c3.879,0,6.982,3.103,6.982,6.982v46.545C386.327,371.588,383.224,374.691,379.345,374.691z M359.952,360.727h12.412v-32.582
	h-12.412V360.727z"/>
<path style="fill:#FDBF5E;" d="M342.885,367.709v79.127c0,12.412,10.085,23.273,23.273,23.273l0,0
	c12.412,0,23.273-10.085,23.273-23.273v-79.127H342.885z"/>
<path style="fill:#193651;" d="M366.158,477.091c-16.291,0-30.255-13.188-30.255-30.255v-79.127c0-3.879,3.103-6.982,6.982-6.982
	h45.77c3.879,0,6.982,3.103,6.982,6.982v79.127C395.636,463.903,382.448,477.091,366.158,477.091z M349.867,374.691v72.145
	c0,8.533,6.982,15.515,15.515,15.515c8.533,0,15.515-6.982,15.515-15.515v-72.145H349.867z"/>
<path style="fill:#FFFFFF;" d="M273.842,239.709c0-50.424,41.115-91.539,91.539-91.539s91.539,41.115,91.539,91.539
	s-41.115,91.539-92.315,91.539C314.958,332.024,273.842,290.133,273.842,239.709z"/>
<path style="fill:#193651;" d="M366.158,339.006L366.158,339.006c-26.376,0-51.2-10.085-69.818-28.703s-28.703-43.442-28.703-69.818
	c0-54.303,44.218-99.297,99.297-99.297c54.303,0,99.297,44.218,99.297,99.297C464.679,294.788,420.461,339.006,366.158,339.006
	L366.158,339.006z M366.158,155.152c-46.545,0-84.558,38.012-84.558,84.558c0,22.497,8.533,44.218,24.824,59.733
	c16.291,16.291,37.236,24.824,59.733,24.824l0,0c46.545,0,84.558-38.012,84.558-84.558
	C450.715,193.164,412.703,155.152,366.158,155.152z"/>
<circle style="fill:#2EA2DB;" cx="366.158" cy="239.709" r="64.388"/>
<path style="fill:#FFFFFF;" d="M405.721,242.812c-3.879,0-6.982-3.103-6.982-6.982c0-15.515-12.412-27.927-27.927-27.927
	c-3.879,0-6.982-3.103-6.982-6.982s3.103-6.982,6.982-6.982c23.273,0,42.667,18.618,42.667,42.667
	C412.703,239.709,409.6,242.812,405.721,242.812z"/>
<path style="fill:#4FBF9F;" d="M105.503,428.218v27.152c0,7.758,6.206,13.964,13.964,13.964h49.648
	c7.758,0,13.964-6.206,13.964-13.964v-27.152H105.503z"/>
<path style="fill:#193651;" d="M169.115,477.091h-49.648c-11.636,0-21.721-9.309-21.721-21.721v-27.152
	c0-3.879,3.103-6.982,6.982-6.982h77.576c3.879,0,6.982,3.103,6.982,6.982v27.152C190.836,467.782,180.752,477.091,169.115,477.091z
	 M112.485,435.2v20.17c0,3.879,3.103,6.982,6.982,6.982h49.648c3.879,0,6.982-3.103,6.982-6.982V435.2H112.485z"/>
<rect x="105.503" y="345.212" style="fill:#FDBF5E;" width="77.576" height="83.782"/>
<path style="fill:#193651;" d="M183.079,435.2h-77.576c-3.879,0-6.982-3.103-6.982-6.982v-83.006c0-3.879,3.103-6.982,6.982-6.982
	h77.576c3.879,0,6.982,3.103,6.982,6.982v83.782C190.836,432.097,186.958,435.2,183.079,435.2z M112.485,421.236h63.612v-69.042
	h-63.612C112.485,352.194,112.485,421.236,112.485,421.236z"/>
<polygon style="fill:#FFFFFF;" points="105.503,345.212 144.291,281.6 183.079,345.212 "/>
<g>
	<path style="fill:#193651;" d="M183.855,352.194C183.855,352.194,183.079,352.194,183.855,352.194h-78.352
		c-2.327,0-4.655-1.552-6.206-3.879c-1.552-2.327-1.552-4.655,0-6.982l38.788-63.612c2.327-3.879,9.309-3.879,12.412,0
		l38.012,62.061c0.776,1.552,1.552,3.103,1.552,4.655C190.836,349.091,187.733,352.194,183.855,352.194z M117.915,337.455h52.752
		l-26.376-42.667L117.915,337.455z"/>
	<rect x="61.285" y="240.485" style="fill:#193651;" width="13.964" height="13.964"/>
	<rect x="99.297" y="240.485" style="fill:#193651;" width="13.964" height="13.964"/>
</g>
<rect x="138.085" y="240.485" style="fill:#193651;" width="13.964" height="13.964"/>
<g>
</g>
<g>
</g>
<g>
</g>
<g>
</g>
<g>
</g>
<g>
</g>
<g>
</g>
<g>
</g>
<g>
</g>
<g>
</g>
<g>
</g>
<g>
</g>
<g>
</g>
<g>
</g>
<g>
</g>
</svg>
