<?xml version="1.0" encoding="iso-8859-1"?>
<!-- Generator: Adobe Illustrator 19.0.0, SVG Export Plug-In . SVG Version: 6.00 Build 0)  -->
<svg version="1.1" id="Capa_1" xmlns="http://www.w3.org/2000/svg" xmlns:xlink="http://www.w3.org/1999/xlink" x="0px" y="0px"
	 viewBox="0 0 496.485 496.485" style="enable-background:new 0 0 496.485 496.485;" xml:space="preserve">
<path style="fill:#E1E6E9;" d="M297.115,111.709V7.758h-31.806v72.145H127.224l0,0c-3.879,0-6.982,0.776-10.085,3.879L51.2,140.412
	c-3.879,3.103-5.43,7.758-5.43,12.412c0,4.655,2.327,9.309,6.206,11.636l43.442,31.03l19.394-24.824l-27.927-19.394l41.891-35.685
	v219.539h31.03V203.248h88.436v55.079h31.03v-62.061c0-15.515-12.412-27.927-27.927-27.927h-43.442v-57.406L297.115,111.709z"/>
<path style="fill:#193651;" d="M159.03,343.661H128c-4.655,0-7.758-3.103-7.758-7.758V176.097l-19.394,24.048
	c-2.327,3.103-6.982,3.879-10.861,1.552l-43.442-31.03c-5.43-4.655-9.309-10.861-9.309-17.842s3.103-13.964,7.758-18.618
	l65.939-56.63c3.879-3.103,9.309-5.43,13.964-5.43h0.776H256V7.758c0-2.327,0.776-3.879,2.327-5.43S262.982,0,265.309,0l0,0h31.806
	c4.655,0,7.758,3.103,7.758,7.758v103.952c0,2.327-0.776,3.879-2.327,5.43c-1.552,1.552-3.103,2.327-5.43,2.327l0,0h-81.455v41.891
	h35.685c20.17,0,35.685,16.291,35.685,35.685v62.061c0,4.655-3.103,7.758-7.758,7.758h-31.03c-4.655,0-7.758-3.103-7.758-7.758
	v-47.321h-73.697v124.121C166.788,339.782,162.909,343.661,159.03,343.661z M134.982,328.145h15.515V204.024
	c0-4.655,3.103-7.758,7.758-7.758h89.988c4.655,0,7.758,3.103,7.758,7.758v47.321h15.515v-54.303c0-10.861-9.309-20.17-20.17-20.17
	h-43.442c-4.655,0-7.758-3.103-7.758-7.758v-57.406c0-2.327,0.776-3.879,2.327-5.43c1.552-1.552,3.103-2.327,5.43-2.327l0,0h81.455
	V15.515h-16.291v64.388c0,4.655-3.103,7.758-7.758,7.758H128.776H128l0,0c-1.552,0-3.103,0-5.43,1.552l-65.939,56.63
	c-1.552,1.552-3.103,3.879-2.327,6.206c0,2.327,0.776,4.655,3.103,6.206l37.236,26.376l9.309-12.412L82.23,157.479
	c-2.327-1.552-3.103-3.879-3.103-6.206s0.776-4.655,2.327-6.206l41.891-35.685c2.327-2.327,5.43-2.327,8.533-0.776
	c3.103,1.552,4.655,3.879,4.655,6.982v212.558H134.982z M98.521,151.273l20.17,13.964c0.776,0.776,0.776,0.776,1.552,1.552V133.43
	L98.521,151.273z"/>
<path style="fill:#4FBF9F;" d="M273.842,450.715c0-20.945,17.067-38.012,38.012-38.012H45.77c-20.945,0-38.012,17.067-38.012,38.012
	s17.067,38.012,38.012,38.012h266.085C290.909,488.727,273.842,471.661,273.842,450.715z"/>
<path style="fill:#193651;" d="M312.63,480.97c-17.067,0-30.255-13.964-30.255-30.255c0-17.067,13.964-30.255,30.255-30.255
	c4.655,0,7.758-3.103,7.758-7.758c0-4.655-3.103-7.758-7.758-7.758H45.77c-25.6,0-45.77,20.945-45.77,45.77
	s20.945,45.77,45.77,45.77h266.085c4.655,0,7.758-3.103,7.758-7.758C320.388,484.073,316.509,480.97,312.63,480.97z M277.721,480.97
	H45.77c-16.291,0-30.255-13.964-30.255-30.255c0-17.067,13.964-30.255,30.255-30.255h231.952
	c-6.982,7.758-11.636,18.618-11.636,30.255C266.085,462.352,270.739,473.212,277.721,480.97z"/>
<path style="fill:#FFFFFF;" d="M45.77,460.8c-6.206,0-10.861-4.655-10.861-10.861c0-6.206,4.655-10.861,10.861-10.861h201.697
	c-0.776,3.103-0.776,6.982-0.776,10.861c0,3.879,0,6.982,0.776,10.861H45.77z"/>
<path style="fill:#FDBF5E;" d="M365.382,373.915c0-20.945,17.067-38.012,38.012-38.012H137.309
	c-20.945,0-38.012,17.067-38.012,38.012s17.067,38.012,38.012,38.012h266.085C382.448,411.927,365.382,394.861,365.382,373.915z"/>
<path style="fill:#193651;" d="M403.394,404.17c-17.067,0-30.255-13.964-30.255-30.255c0-17.067,13.964-30.255,30.255-30.255
	c4.655,0,7.758-3.103,7.758-7.758c0-4.655-3.103-7.758-7.758-7.758H137.309c-25.6,0-45.77,20.945-45.77,45.77
	s20.945,45.77,45.77,45.77h266.085c4.655,0,7.758-3.103,7.758-7.758S408.048,404.17,403.394,404.17z M369.261,404.17H137.309
	c-17.067,0-30.255-13.964-30.255-30.255c0-17.067,13.964-30.255,30.255-30.255h231.952c-6.982,7.758-11.636,18.618-11.636,30.255
	C357.624,385.552,362.279,396.412,369.261,404.17z"/>
<path style="fill:#FFFFFF;" d="M137.309,384.776c-6.206,0-10.861-4.655-10.861-10.861c0-6.206,4.655-10.861,10.861-10.861h201.697
	c-0.776,3.103-0.776,6.982-0.776,10.861s0,6.982,0.776,10.861H137.309z"/>
<path style="fill:#E1E6E9;" d="M450.715,297.115c0-20.945,17.067-38.012,38.012-38.012H222.642
	c-20.945,0-38.012,17.067-38.012,38.012c0,20.945,17.067,38.012,38.012,38.012h266.085
	C467.782,335.903,450.715,318.836,450.715,297.115z"/>
<path style="fill:#193651;" d="M488.727,328.145c-17.067,0-30.255-13.964-30.255-30.255s13.964-30.255,30.255-30.255
	c4.655,0,7.758-3.103,7.758-7.758c0-4.655-3.103-7.758-7.758-7.758H222.642c-25.6,0-45.77,20.945-45.77,45.77
	c0,25.6,20.945,45.77,45.77,45.77h266.085c4.655,0,7.758-3.103,7.758-7.758C496.485,331.249,493.382,328.145,488.727,328.145z
	 M454.594,328.145H222.642c-17.067,0-30.255-13.964-30.255-30.255s13.964-30.255,30.255-30.255h231.951
	c-6.982,7.758-11.636,18.618-11.636,30.255S446.836,319.612,454.594,328.145z"/>
<g>
	<path style="fill:#FFFFFF;" d="M222.642,307.976c-6.206,0-10.861-4.655-10.861-10.861c0-6.206,4.655-10.861,10.861-10.861h201.697
		c-0.776,3.103-0.776,6.982-0.776,10.861c0,3.879,0,6.982,0.776,10.861H222.642z"/>
	<circle style="fill:#FFFFFF;" cx="183.079" cy="44.218" r="36.461"/>
</g>
<g>
	<path style="fill:#193651;" d="M183.079,87.661c-24.048,0-44.218-19.394-44.218-44.218S159.03,0,183.079,0
		s44.218,19.394,44.218,44.218S207.127,87.661,183.079,87.661z M183.079,15.515c-15.515,0-28.703,12.412-28.703,28.703
		s12.412,28.703,28.703,28.703c15.515,0,28.703-12.412,28.703-28.703S198.594,15.515,183.079,15.515z"/>
	<path style="fill:#193651;" d="M390.982,266.861c-4.655,0-7.758-3.103-7.758-7.758V7.758c0-4.655,3.103-7.758,7.758-7.758
		s7.758,3.103,7.758,7.758v251.345C398.739,263.758,395.636,266.861,390.982,266.861z"/>
</g>
<polygon style="fill:#F16051;" points="390.982,7.758 390.982,96.194 488.727,51.976 "/>
<g>
	<path style="fill:#193651;" d="M390.982,103.952c-1.552,0-3.103-0.776-3.879-1.552c-2.327-1.552-3.879-3.879-3.879-6.206V7.758
		c0-2.327,1.552-5.43,3.879-6.206C389.43,0,391.758,0,394.861,0.776l97.745,44.218c2.327,1.552,3.879,3.879,3.879,6.982
		s-1.551,5.43-4.655,6.982l-97.745,44.218C393.309,103.952,392.533,103.952,390.982,103.952z M398.739,20.17v64.388l71.37-32.582
		L398.739,20.17z"/>
	<rect x="346.764" y="104.727" style="fill:#193651;" width="15.515" height="15.515"/>
	<rect x="346.764" y="146.618" style="fill:#193651;" width="15.515" height="15.515"/>
	<rect x="346.764" y="188.509" style="fill:#193651;" width="15.515" height="15.515"/>
	<rect x="45.77" y="237.382" style="fill:#193651;" width="15.515" height="15.515"/>
	<rect x="45.77" y="279.273" style="fill:#193651;" width="15.515" height="15.515"/>
</g>
<rect x="45.77" y="321.164" style="fill:#193651;" width="15.515" height="15.515"/>
<g>
</g>
<g>
</g>
<g>
</g>
<g>
</g>
<g>
</g>
<g>
</g>
<g>
</g>
<g>
</g>
<g>
</g>
<g>
</g>
<g>
</g>
<g>
</g>
<g>
</g>
<g>
</g>
<g>
</g>
</svg>
