<svg width="20" height="16" viewBox="0 0 20 16" fill="none" xmlns="http://www.w3.org/2000/svg">
<path fill-rule="evenodd" clip-rule="evenodd" d="M14.3416 5.90822H18.3333C18.7916 5.90822 19.1666 6.28322 19.1666 6.74155L19.1416 6.96655L17.0249 14.6916C16.8249 15.3916 16.1833 15.9082 15.4166 15.9082H4.58325C3.81659 15.9082 3.17492 15.3916 2.98325 14.6916L0.866585 6.96655C0.841585 6.89155 0.833252 6.81655 0.833252 6.74155C0.833252 6.28322 1.20825 5.90822 1.66659 5.90822H5.65825L9.30825 0.449886C9.46658 0.208219 9.73325 0.0915527 9.99992 0.0915527C10.2666 0.0915527 10.5333 0.208219 10.6916 0.441553L14.3416 5.90822ZM12.3333 5.90822L9.99993 2.40822L7.6666 5.90822H12.3333ZM15.4166 14.2416L4.59158 14.2499L2.75825 7.57489H17.2499L15.4166 14.2416ZM8.33325 10.9082C8.33325 9.99155 9.08325 9.24155 9.99992 9.24155C10.9166 9.24155 11.6666 9.99155 11.6666 10.9082C11.6666 11.8249 10.9166 12.5749 9.99992 12.5749C9.08325 12.5749 8.33325 11.8249 8.33325 10.9082Z" fill="white"/>
</svg>
