<svg width="20" height="18" viewBox="0 0 20 18" fill="none" xmlns="http://www.w3.org/2000/svg">
<path d="M5.81079 10.4207C6.37284 10.4207 6.91612 10.3844 7.43021 10.3168V4.68196C6.91617 4.61443 6.37284 4.57812 5.81079 4.57812C2.60159 4.57812 0 5.75805 0 7.21362V7.78518C0 9.24071 2.60159 10.4207 5.81079 10.4207Z" fill="white"/>
<path d="M5.81079 13.3631C6.37284 13.3631 6.91612 13.3268 7.43021 13.2593V11.6076C6.91602 11.6751 6.37299 11.7119 5.81079 11.7119C3.0095 11.7119 0.671413 10.8128 0.122211 9.61621C0.042231 9.79051 0 9.97099 0 10.156V10.7276C0 12.1832 2.60159 13.3631 5.81079 13.3631Z" fill="white"/>
<path d="M7.43021 14.6784V14.55C6.91602 14.6175 6.37299 14.6543 5.81079 14.6543C3.0095 14.6543 0.671413 13.7552 0.122211 12.5586C0.042231 12.7328 0 12.9133 0 13.0983V13.6699C0 15.1255 2.60159 16.3055 5.81079 16.3055C6.45257 16.3055 7.06985 16.2581 7.64709 16.171C7.50401 15.8783 7.43021 15.5697 7.43021 15.2499V14.6784Z" fill="white"/>
<path d="M14.1892 0.114502C10.98 0.114502 8.37842 1.29443 8.37842 2.75001V3.32157C8.37842 4.77715 10.98 5.95708 14.1892 5.95708C17.3984 5.95708 20 4.77715 20 3.32157V2.75001C20 1.29443 17.3984 0.114502 14.1892 0.114502Z" fill="white"/>
<path d="M14.1892 7.2483C11.3879 7.2483 9.04983 6.34925 8.50063 5.15259C8.42065 5.32684 8.37842 5.50732 8.37842 5.69238V6.26394C8.37842 7.71952 10.98 8.89944 14.1892 8.89944C17.3984 8.89944 20 7.71952 20 6.26394V5.69238C20 5.50732 19.9578 5.32684 19.8778 5.15259C19.3286 6.34925 16.9905 7.2483 14.1892 7.2483Z" fill="white"/>
<path d="M14.1892 10.1907C11.3879 10.1907 9.04983 9.29159 8.50063 8.09497C8.42065 8.26922 8.37842 8.4497 8.37842 8.63476V9.20633C8.37842 10.662 10.98 11.8419 14.1892 11.8419C17.3984 11.8419 20 10.662 20 9.20633V8.63476C20 8.4497 19.9578 8.26922 19.8778 8.09497C19.3286 9.29164 16.9905 10.1907 14.1892 10.1907Z" fill="white"/>
<path d="M14.1892 13.292C11.3879 13.292 9.04983 12.3929 8.50063 11.1963C8.42065 11.3706 8.37842 11.551 8.37842 11.736V12.3076C8.37842 13.7632 10.98 14.9431 14.1892 14.9431C17.3984 14.9431 20 13.7632 20 12.3076V11.736C20 11.551 19.9578 11.3705 19.8778 11.1963C19.3286 12.3928 16.9905 13.292 14.1892 13.292Z" fill="white"/>
<path d="M14.1892 16.2344C11.3879 16.2344 9.04983 15.3353 8.50063 14.1387C8.42065 14.313 8.37842 14.4936 8.37842 14.6785V15.25C8.37842 16.7056 10.98 17.8855 14.1892 17.8855C17.3984 17.8855 20 16.7056 20 15.25V14.6784C20 14.4934 19.9578 14.3129 19.8778 14.1387C19.3286 15.3353 16.9905 16.2344 14.1892 16.2344Z" fill="white"/>
</svg>
