<svg width="22" height="22" viewBox="0 0 22 22" fill="none" xmlns="http://www.w3.org/2000/svg">
<path d="M9.91129 21.33C9.82433 21.2977 9.73463 21.2713 9.65086 21.2326C9.15687 21.0031 8.87048 20.6239 8.85682 20.0716C8.84407 19.5813 8.85046 19.09 8.8541 18.5992C8.85501 18.494 8.8336 18.4326 8.7216 18.3907C8.23262 18.2077 7.7473 18.0128 7.23055 17.8102C6.91094 18.1307 6.56034 18.4826 6.20932 18.8341C5.61198 19.431 4.82617 19.4315 4.22838 18.8355C3.87143 18.4795 3.51402 18.1239 3.15799 17.7665C2.5561 17.1605 2.552 16.4097 3.15071 15.8065C3.50538 15.4495 3.86551 15.0971 4.18922 14.7761C3.98616 14.2539 3.79219 13.7686 3.61053 13.2787C3.56909 13.1672 3.50947 13.1439 3.40339 13.1448C2.93262 13.1494 2.4623 13.1485 1.99153 13.1462C1.22392 13.1426 0.675299 12.5921 0.671656 11.8204C0.668925 11.2695 0.668469 10.7182 0.671656 10.1668C0.676665 9.43106 1.19067 8.88425 1.92323 8.85693C2.41995 8.83781 2.91805 8.84783 3.41523 8.85101C3.51539 8.85147 3.56958 8.82642 3.60827 8.7249C3.79221 8.23637 3.98616 7.75103 4.19423 7.21971C3.88099 6.91148 3.53086 6.57001 3.18347 6.22445C2.5447 5.58887 2.54606 4.84767 3.18483 4.20662C3.54542 3.84467 3.90328 3.47951 4.26978 3.12393C4.83252 2.57668 5.62018 2.58214 6.17928 3.13623C6.54169 3.49545 6.89637 3.86242 7.22099 4.19204C7.75322 3.98443 8.24811 3.79639 8.73664 3.5947C8.79218 3.57194 8.84498 3.46905 8.84635 3.40213C8.85591 2.94502 8.84953 2.48789 8.85227 2.03079C8.85727 1.20444 9.39089 0.674942 10.2209 0.671755C10.7517 0.669934 11.2831 0.668571 11.8139 0.672214C12.6016 0.677677 13.1397 1.21446 13.1484 2.00484C13.1534 2.47516 13.152 2.94592 13.147 3.41669C13.1461 3.51822 13.1743 3.57058 13.2745 3.60837C13.763 3.79231 14.2488 3.98534 14.7861 4.19523C15.1193 3.85422 15.4822 3.46814 15.8619 3.0989C16.2621 2.71008 16.7438 2.62449 17.2583 2.81708C17.4345 2.88309 17.6002 3.00602 17.7386 3.13669C18.1288 3.50638 18.5062 3.89064 18.8827 4.27445C19.4341 4.83673 19.4327 5.60526 18.8787 6.16254C18.514 6.5295 18.142 6.88872 17.8069 7.21835C18.0163 7.75149 18.2057 8.24547 18.4079 8.73445C18.4297 8.78727 18.5203 8.84191 18.5809 8.84373C18.957 8.85375 19.3335 8.84873 19.71 8.84873C20.6807 8.84873 20.9698 9.0386 21.3299 9.91139C21.3299 10.6376 21.3299 11.3637 21.3299 12.0904C21.319 12.1068 21.303 12.1213 21.298 12.1396C21.0922 12.8207 20.6584 13.1458 19.9513 13.1467C19.501 13.1471 19.0503 13.143 18.6 13.1508C18.5354 13.1517 18.4343 13.1926 18.4142 13.2414C18.2075 13.7413 18.0145 14.2462 17.8083 14.7729C18.1456 15.1076 18.5062 15.4595 18.8609 15.8178C19.4405 16.4043 19.4391 17.1623 18.8577 17.7496C18.4989 18.1125 18.1352 18.4713 17.7737 18.8328C17.1759 19.4306 16.39 19.4328 15.7941 18.8364C15.443 18.4849 15.0952 18.1303 14.776 17.8084C14.2475 18.0155 13.7535 18.2045 13.2649 18.4075C13.2094 18.4307 13.1566 18.5332 13.1547 18.6001C13.1447 19.1041 13.1579 19.6086 13.1429 20.1121C13.1302 20.5528 12.9166 20.8948 12.5447 21.1261C12.4049 21.213 12.2428 21.2636 12.0908 21.3305C11.3641 21.33 10.6379 21.33 9.91129 21.33ZM12.2924 19.0859C12.2924 18.79 12.2915 18.4945 12.2924 18.1981C12.2934 17.8753 12.3899 17.7428 12.699 17.6654C13.3419 17.5042 13.9447 17.2479 14.5161 16.9137C14.7942 16.7507 14.9454 16.773 15.1781 17.0048C15.5833 17.4082 15.9858 17.8134 16.391 18.2168C16.6746 18.499 16.8886 18.5013 17.1677 18.2236C17.5251 17.868 17.8816 17.5111 18.2376 17.1532C18.5017 16.8878 18.5017 16.6765 18.2349 16.4079C17.8274 15.9972 17.4181 15.5893 17.0101 15.1795C16.7716 14.94 16.7511 14.7953 16.9223 14.5011C17.2524 13.9352 17.5041 13.3379 17.6658 12.7018C17.7445 12.3913 17.8775 12.2916 18.1948 12.2912C18.7798 12.2903 19.3649 12.2916 19.9495 12.2907C20.3046 12.2903 20.4708 12.1295 20.4726 11.7772C20.4758 11.259 20.4758 10.7414 20.4726 10.2237C20.4703 9.87087 20.3055 9.7106 19.9495 9.70924C19.3644 9.70742 18.7794 9.70923 18.1944 9.70832C17.8775 9.70832 17.7436 9.60679 17.6653 9.29765C17.5041 8.66161 17.2542 8.06336 16.9218 7.49835C16.752 7.20924 16.7716 7.05581 17.0083 6.81815C17.4162 6.40839 17.8278 6.00181 18.2362 5.59251C18.5003 5.32798 18.5012 5.11082 18.2376 4.84538C17.8775 4.48297 17.516 4.12193 17.1526 3.76225C16.8909 3.50319 16.6696 3.50548 16.4046 3.76909C15.9898 4.18158 15.5778 4.5968 15.1626 5.00929C14.9491 5.22146 14.7856 5.24832 14.532 5.09762C13.9506 4.75206 13.3337 4.49573 12.6781 4.33C12.3972 4.25943 12.2929 4.11464 12.2924 3.82098C12.2906 3.22911 12.2929 2.63724 12.2915 2.04582C12.2906 1.70299 12.1299 1.5318 11.7907 1.5277C11.2662 1.52224 10.7417 1.52269 10.2172 1.5277C9.87441 1.53089 9.71097 1.69889 9.7096 2.03808C9.70823 2.62313 9.70958 3.20817 9.70913 3.79276C9.70867 4.12558 9.60942 4.2576 9.29163 4.33864C8.66242 4.49845 8.06964 4.74476 7.51055 5.07257C7.2005 5.25423 7.05843 5.23238 6.79983 4.97378C6.39598 4.56948 5.99353 4.16428 5.58832 3.76089C5.33518 3.50912 5.10479 3.50729 4.85393 3.75633C4.49106 4.11647 4.13049 4.47842 3.77081 4.84083C3.49673 5.11627 3.49853 5.32434 3.7749 5.6007C4.18875 6.01411 4.60444 6.42569 5.01694 6.84091C5.225 7.0508 5.24548 7.21927 5.09433 7.47423C4.75286 8.04971 4.497 8.65979 4.334 9.30948C4.26025 9.60406 4.12 9.70878 3.81541 9.70924C3.22354 9.7106 2.63167 9.70877 2.04025 9.71014C1.6965 9.71105 1.53214 9.87177 1.52941 10.2146C1.52622 10.7391 1.52533 11.2636 1.52988 11.7881C1.53261 12.1295 1.6997 12.2894 2.04344 12.2903C2.62803 12.2916 3.21308 12.2898 3.79813 12.2912C4.12275 12.2916 4.25796 12.3891 4.33445 12.6946C4.49607 13.3374 4.75194 13.9402 5.08521 14.5121C5.24821 14.7916 5.22637 14.9441 4.9969 15.1745C4.57985 15.5938 4.15962 16.0109 3.74394 16.4316C3.50673 16.6715 3.50765 16.8946 3.74486 17.1336C4.10909 17.5015 4.47514 17.8676 4.84256 18.2322C5.11255 18.5 5.3288 18.4977 5.60425 18.2236C6.01401 17.8156 6.42148 17.405 6.8317 16.9975C7.05479 16.7758 7.21143 16.7539 7.47823 16.9096C8.05599 17.2465 8.66425 17.5056 9.31395 17.6686C9.60852 17.7428 9.70822 17.8803 9.70913 18.1904C9.71004 18.7886 9.70731 19.3873 9.71004 19.9856C9.71141 20.292 9.87484 20.4668 10.179 20.47C10.7303 20.4768 11.2822 20.4777 11.8335 20.4695C12.1258 20.465 12.287 20.2883 12.2906 19.9933C12.2952 19.6914 12.292 19.3887 12.2924 19.0859Z" fill="white"/>
<path d="M15.3037 10.8699C15.3688 13.2201 13.5353 15.2406 11.1 15.3016C8.75979 15.3604 6.78794 13.5251 6.69597 11.1289C6.60628 8.79237 8.47251 6.79913 10.861 6.69532C13.2062 6.59425 15.1953 8.4632 15.3037 10.8699ZM14.44 10.9937C14.4359 9.08239 12.9038 7.56127 10.9843 7.56309C9.08761 7.56491 7.55874 9.10334 7.56192 11.006C7.56511 12.9218 9.10489 14.4421 11.0371 14.437C12.9143 14.433 14.4436 12.8854 14.44 10.9937Z" fill="white"/>
</svg>
