<svg width="24" height="25" viewBox="0 0 24 25" fill="none" xmlns="http://www.w3.org/2000/svg">
<path d="M23.4514 4.86895C23.23 4.25942 22.8658 3.72958 22.4572 3.2333C21.9757 2.64939 21.4311 2.12921 20.8176 1.68359C20.2052 1.23911 19.5433 0.9039 18.7949 0.755929C18.7277 0.742839 18.6634 0.717226 18.5974 0.697876C18.4085 0.697876 18.2189 0.697876 18.03 0.697876C17.5525 1.18106 17.0767 1.66538 16.597 2.14628C15.7968 2.94817 14.9943 3.74779 14.193 4.54911C13.2625 5.47905 12.3331 6.41013 11.4037 7.34064C10.5273 8.21765 9.65086 9.09523 8.77385 9.97168C7.98618 10.7593 7.1968 11.5459 6.40913 12.3335C5.53724 13.206 4.66588 14.079 3.79341 14.9515C3.13893 15.606 2.48616 16.261 1.82768 16.9115C1.6763 17.0612 1.57445 17.2183 1.53006 17.4362C1.21022 18.9968 0.875584 20.5545 0.545494 22.1127C0.410043 22.7535 0.27397 23.3938 0.135674 24.0341C0.11917 24.1126 0.0873522 24.1877 0.0623109 24.264C0.0435299 24.359 0.0810774 24.3966 0.175551 24.3778C0.307018 24.3402 0.437316 24.2941 0.57106 24.2657C2.06785 23.9481 3.56581 23.6334 5.06317 23.317C5.75351 23.1713 6.44268 23.0204 7.13359 22.8793C7.40848 22.823 7.5394 22.5913 7.71355 22.42C8.60195 21.5464 9.47956 20.6614 10.3594 19.7793C11.1551 18.9825 11.9501 18.1835 12.7463 17.3873C13.5391 16.5951 14.333 15.8051 15.1258 15.0135C15.9186 14.2213 16.7091 13.4279 17.5013 12.6357C18.2975 11.839 19.0948 11.0433 19.8916 10.2466C20.6212 9.51638 21.3497 8.78506 22.0804 8.05659C22.6331 7.50568 23.1879 6.95819 23.7422 6.40956C23.7422 6.22004 23.7422 6.0311 23.7422 5.84215C23.6466 5.51718 23.567 5.18652 23.4514 4.86895ZM6.14507 14.2657L16.8582 3.77283C17.083 3.55258 17.4433 3.55656 17.6635 3.78137C17.8838 4.00617 17.8798 4.36642 17.655 4.58667L6.94185 15.0795C6.71705 15.2992 6.35677 15.2958 6.13652 15.071C5.91627 14.8462 5.92083 14.4859 6.14507 14.2657ZM7.46769 21.3734C7.32712 21.5259 7.17292 21.6659 7.03064 21.8168C6.91909 21.9351 6.79046 22.0006 6.62769 22.033C5.9493 22.1707 5.27262 22.3193 4.59707 22.4712C4.45479 22.5031 4.37282 22.4781 4.29542 22.3404C3.76842 21.4121 3.03877 20.6802 2.11224 20.1504C1.97224 20.0701 1.93468 19.9916 1.96996 19.8368C2.12078 19.1738 2.26877 18.5102 2.3991 17.8432C2.4395 17.6371 2.5357 17.4869 2.6831 17.3526C2.78497 17.2592 2.89596 17.1705 2.97621 17.0595C3.10824 16.8757 3.27268 16.8603 3.47301 16.9047C4.3136 17.0897 5.02158 17.5182 5.66355 18.0737C6.29414 18.6194 6.82857 19.2443 7.18882 19.9979C7.36354 20.3632 7.47227 20.7593 7.60886 21.1355C7.54682 21.2425 7.51891 21.3188 7.46769 21.3734ZM7.83645 16.5826C7.6162 16.3578 7.62019 15.9975 7.845 15.7773L18.5582 5.28498C18.783 5.06473 19.1432 5.06872 19.3634 5.29295C19.5837 5.51775 19.5797 5.87857 19.3549 6.09825L8.64178 16.5911C8.41698 16.8114 8.0567 16.8074 7.83645 16.5826ZM20.809 7.88073L10.0959 18.3736C9.87111 18.5938 9.51083 18.5898 9.29058 18.3656C9.07033 18.1408 9.07433 17.78 9.29913 17.5597L20.0122 7.06689C20.237 6.84664 20.5973 6.85062 20.8176 7.07543C21.0373 7.30023 21.0333 7.66049 20.809 7.88073Z" fill="white"/>
</svg>
