<svg width="22" height="24" viewBox="0 0 22 24" fill="none" xmlns="http://www.w3.org/2000/svg">
<path d="M21.9227 7.1832C21.8482 5.7308 21.2239 5.07803 20.9029 4.83558C20.7862 4.73542 20.6564 4.6489 20.5085 4.58687L11.7355 0.920041C11.1134 0.659384 10.3997 0.659384 9.77767 0.920041L0.984254 4.59484C0.451558 4.81737 0.104385 5.31364 0.0776367 5.89016V17.5474L10.5056 22.9421C10.5341 22.962 10.5563 22.9888 10.5858 23.007C10.8715 23.1845 11.1931 23.2739 11.5158 23.2739C11.7833 23.2739 12.0508 23.2124 12.3012 23.0889L20.9461 18.8057C21.5385 18.5121 21.9221 17.8764 21.9221 17.1854V7.1832H21.9227ZM10.4293 2.48112C10.6365 2.39405 10.8738 2.39405 11.0827 2.48112L19.422 5.96642C19.2103 6.05691 18.9923 6.17016 18.7692 6.3113L10.7076 10.4602C10.7071 10.4602 10.7071 10.4607 10.7065 10.4607L10.6018 10.5142L2.05302 5.98064L10.4293 2.48112ZM20.2302 17.1854C20.2302 17.2327 20.204 17.2794 20.1897 17.293L11.5494 21.5733C11.5374 21.5796 11.513 21.5921 11.4771 21.5705C11.4418 21.5483 11.4418 21.521 11.4418 21.5073V12.0304C11.4418 12.0025 11.4566 11.9769 11.4816 11.9643L11.9711 11.7122L19.578 7.79726L19.5808 7.79556L20.1926 7.48083C20.2034 7.47685 20.2187 7.46888 20.229 7.46546V17.1854H20.2302Z" fill="white"/>
</svg>