<?xml version="1.0" standalone="no"?>
<!DOCTYPE svg PUBLIC "-//W3C//DTD SVG 1.1//EN" "http://www.w3.org/Graphics/SVG/1.1/DTD/svg11.dtd" >
<svg xmlns="http://www.w3.org/2000/svg" xmlns:xlink="http://www.w3.org/1999/xlink" version="1.1">
<metadata>
Created by FontForge 20170731 at Wed Jan 13 18:29:22 2010
 By ,,,
Copyright (c) 2010 Linotype Corp., www.linotype.com. All rights reserved. This font software may not be reproduced, modified, disclosed or transferred without the express written approval of Linotype Corp. Frutiger is a trademark of Linotype Corp. registered in the U.S. Patent and Trademark Office and may be registered in certain other jurisdictions in the name of Linotype Corp. or its licensee Linotype GmbH. This typeface is original artwork of Adrian Frutiger and Linotype Design Studio. The design may be protected in certain jurisdictions.
</metadata>
<defs>
<font id="FrutigerNeueLTW1G-Book" horiz-adv-x="606" >
  <font-face 
    font-family="Frutiger Neue LT W1G Book"
    font-weight="350"
    font-stretch="normal"
    units-per-em="1000"
    panose-1="2 11 5 3 4 3 4 2 2 3"
    ascent="760"
    descent="-240"
    x-height="509"
    cap-height="698"
    bbox="-157 -240 1232 955"
    underline-thickness="50"
    underline-position="-200"
    unicode-range="U+000D-2215"
  />
<missing-glyph horiz-adv-x="512" 
d="M278 117h-56v67h56v-67zM271 234h-46l-2 17q0 56 13 81q15 28 46 59q31 29 40.5 46t9.5 37q0 36 -22.5 60.5t-53.5 24.5q-71 0 -82 -95l-50 8q7 69 43 103t92 34q54 0 89 -36t35 -95q0 -34 -13 -60t-50 -60q-37 -33 -43 -52q-6 -20 -6 -72zM50 50h412v617h-412v-617z
M0 718h512v-718h-512v718z" />
    <glyph glyph-name="IJ" unicode="IJ" horiz-adv-x="652" 
d="M183 698v-698h-86v698h86zM303 2v75q36 -13 66 -13q60 0 83.5 33t23.5 111v490h86v-512q0 -89 -43 -142.5t-134 -53.5q-47 0 -82 12z" />
    <glyph glyph-name="ij" unicode="ij" horiz-adv-x="523" 
d="M175 707v-94h-92v94h92zM170 509v-509h-82v509h82zM440 707v-94h-92v94h92zM435 509v-547q0 -184 -147 -184q-20 0 -42 5v68q14 -3 30 -3q43 0 60 29t17 94v538h82z" />
    <glyph glyph-name="napostrophe" unicode="&#x22;n" 
d="M166 421h2q60 99 173 99q100 0 142 -60t42 -168v-292h-82v260q0 97 -25 144.5t-96 47.5q-69 0 -110.5 -50.5t-41.5 -152.5v-249h-82v357q0 98 -5 152h79q4 -48 4 -88zM67 756l-41 -177h-49l16 177h74z" />
    <glyph glyph-name="f_f" unicode="ff" horiz-adv-x="682" 
d="M671 752l-6 -66q-25 6 -49 6q-46 0 -65.5 -29t-19.5 -91v-66h132v-65h-132v-441h-80v441h-236v-441h-80v441h-117v65h117v64q0 190 155 190q34 0 65 -8l-6 -66q-25 6 -49 6q-46 0 -65.5 -29t-19.5 -91v-66h236v64q0 190 155 190q34 0 65 -8z" />
    <glyph glyph-name="fi" unicode="fi" horiz-adv-x="617" 
d="M355 752l-6 -66q-25 6 -49 6q-46 0 -65.5 -29t-19.5 -91v-66h132v-65h-132v-441h-80v441h-117v65h117v64q0 190 155 190q34 0 65 -8zM534 707v-94h-92v94h92zM529 509v-509h-82v509h82z" />
    <glyph glyph-name="fl" unicode="fl" horiz-adv-x="618" 
d="M355 752l-6 -66q-25 6 -49 6q-46 0 -65.5 -29t-19.5 -91v-66h132v-65h-132v-441h-80v441h-117v65h117v64q0 190 155 190q34 0 65 -8zM530 756v-756h-82v756h82z" />
    <glyph glyph-name="f_f_i" unicode="ffi" horiz-adv-x="933" 
d="M671 752l-6 -66q-25 6 -49 6q-46 0 -65.5 -29t-19.5 -91v-66h132v-65h-132v-441h-80v441h-236v-441h-80v441h-117v65h117v64q0 190 155 190q34 0 65 -8l-6 -66q-25 6 -49 6q-46 0 -65.5 -29t-19.5 -91v-66h236v64q0 190 155 190q34 0 65 -8zM850 707v-94h-92v94h92z
M845 509v-509h-82v509h82z" />
    <glyph glyph-name="f_f_l" unicode="ffl" horiz-adv-x="933" 
d="M671 752l-6 -66q-25 6 -49 6q-46 0 -65.5 -29t-19.5 -91v-66h132v-65h-132v-441h-80v441h-236v-441h-80v441h-117v65h117v64q0 190 155 190q34 0 65 -8l-6 -66q-25 6 -49 6q-46 0 -65.5 -29t-19.5 -91v-66h236v64q0 190 155 190q34 0 65 -8zM845 756v-756h-82v756h82z
" />
    <glyph glyph-name=".notdef" horiz-adv-x="512" 
d="M278 117h-56v67h56v-67zM271 234h-46l-2 17q0 56 13 81q15 28 46 59q31 29 40.5 46t9.5 37q0 36 -22.5 60.5t-53.5 24.5q-71 0 -82 -95l-50 8q7 69 43 103t92 34q54 0 89 -36t35 -95q0 -34 -13 -60t-50 -60q-37 -33 -43 -52q-6 -20 -6 -72zM50 50h412v617h-412v-617z
M0 718h512v-718h-512v718z" />
    <glyph glyph-name=".null" horiz-adv-x="500" 
 />
    <glyph glyph-name="nonmarkingreturn" horiz-adv-x="333" 
 />
    <glyph glyph-name="CR" unicode="&#xd;" horiz-adv-x="0" 
 />
    <glyph glyph-name="space" unicode=" " horiz-adv-x="236" 
 />
    <glyph glyph-name="exclam" unicode="!" horiz-adv-x="312" 
d="M205 698l-12 -514h-72l-13 514h97zM205 94v-94h-95v94h95z" />
    <glyph glyph-name="quotedbl" unicode="&#x22;" horiz-adv-x="421" 
d="M159 414h-51l-14 284h79zM313 414h-51l-14 284h79z" />
    <glyph glyph-name="numbersign" unicode="#" horiz-adv-x="577" 
d="M163 0h-72l37 204h-100v63h112l28 158h-99v63h111l38 206h73l-38 -206h122l38 206h73l-38 -206h100v-63h-111l-29 -158h100v-63h-111l-38 -204h-74l38 204h-122zM335 267l29 158h-122l-30 -158h123z" />
    <glyph glyph-name="dollar" unicode="$" horiz-adv-x="577" 
d="M468 674l-10 -79q-72 38 -157 40v-239q112 -40 157 -87.5t45 -119.5q0 -79 -56 -131.5t-149 -62.5v-87h-48v86q-102 2 -181 32l9 79q83 -41 172 -43v269q-96 35 -140.5 77.5t-44.5 112.5q0 77 51 124t137 55v90h48v-88q81 0 167 -28zM253 411v223q-49 -6 -76 -34t-27 -72
q0 -40 24 -68t79 -49zM298 315v-250q54 4 86 36t32 81q0 47 -27 77.5t-91 55.5z" />
    <glyph glyph-name="percent" unicode="%" horiz-adv-x="915" 
d="M234 709q75 0 117.5 -48t42.5 -133t-44 -134.5t-120 -49.5t-120 48.5t-44 133.5q0 86 44.5 134.5t123.5 48.5zM230 657q-45 0 -70 -35.5t-25 -97.5q0 -59 25 -93t70 -34q44 0 69.5 34.5t25.5 96.5t-24.5 95.5t-70.5 33.5zM705 735l-430 -756h-59l430 756h59zM690 355
q75 0 117 -48t42 -133t-44 -135t-119 -50t-119 48.5t-44 133.5q0 86 44 135t123 49zM686 302q-44 0 -69 -35t-25 -97q0 -60 24.5 -94t68.5 -34q45 0 70 34t25 96q0 63 -24 96.5t-70 33.5z" />
    <glyph glyph-name="ampersand" unicode="&#x26;" horiz-adv-x="701" 
d="M548 380h78q-5 -148 -77 -246l120 -134h-107l-66 75q-86 -85 -204 -85q-103 0 -164 53t-61 143q0 135 162 202q-83 85 -83 164q0 69 51.5 113t130.5 44q77 0 126.5 -41.5t49.5 -107.5q0 -59 -41.5 -104.5t-123.5 -85.5l160 -185q46 75 49 195zM300 415q124 57 124 142
q0 41 -27.5 64t-69.5 23t-70 -25.5t-28 -64.5q0 -33 16 -63.5t55 -75.5zM452 126l-183 211q-117 -49 -117 -148q0 -58 42 -95t105 -37q91 0 153 69z" />
    <glyph glyph-name="quotesingle" unicode="'" horiz-adv-x="267" 
d="M159 414h-51l-14 284h79z" />
    <glyph glyph-name="parenleft" unicode="(" horiz-adv-x="328" 
d="M153 308q0 -213 146 -448h-72q-157 226 -157 450t157 450h72q-146 -235 -146 -452z" />
    <glyph glyph-name="parenright" unicode=")" horiz-adv-x="328" 
d="M179 311q0 214 -146 449h72q157 -229 157 -451q0 -220 -157 -449h-72q146 235 146 451z" />
    <glyph glyph-name="asterisk" unicode="*" horiz-adv-x="491" 
d="M283 752l-10 -161l147 61l23 -72l-156 -38l107 -121l-61 -46l-86 137l-86 -138l-62 44l106 124l-157 39l23 71l151 -61l-15 161h76z" />
    <glyph glyph-name="plus" unicode="+" horiz-adv-x="577" 
d="M255 0v224h-221v68h221v223h72v-223h217v-68h-217v-224h-72z" />
    <glyph glyph-name="comma" unicode="," horiz-adv-x="237" 
d="M189 105l-83 -239h-68l62 239h89z" />
    <glyph glyph-name="hyphen" unicode="-" horiz-adv-x="332" 
d="M294 298v-67h-255v67h255z" />
    <glyph glyph-name="period" unicode="." horiz-adv-x="237" 
d="M167 99v-99h-98v99h98z" />
    <glyph glyph-name="slash" unicode="/" horiz-adv-x="460" 
d="M393 698l-255 -698h-71l256 698h70z" />
    <glyph glyph-name="zero" unicode="0" horiz-adv-x="577" 
d="M293 709q112 0 170.5 -94.5t58.5 -271.5q0 -104 -23 -181.5t-77 -125.5t-134 -48q-119 0 -176 98t-57 265q0 173 60.5 265.5t177.5 92.5zM288 638q-70 0 -108 -74t-38 -213q0 -144 38 -218t110 -74q70 0 107.5 74t37.5 216q0 141 -38.5 215t-108.5 74z" />
    <glyph glyph-name="one" unicode="1" horiz-adv-x="577" 
d="M368 698v-698h-85v417q0 116 4 188h-2q-32 -32 -77 -70l-38 -33l-47 57l168 139h77z" />
    <glyph glyph-name="two" unicode="2" horiz-adv-x="577" 
d="M102 593l-12 75q85 41 183 41q97 0 158 -50t61 -140q0 -71 -44.5 -145.5t-145.5 -174.5q-76 -75 -153 -129v-2q91 3 208 3h149v-71h-437v84q182 156 258 252t76 178q0 62 -40 94t-103 32q-76 0 -158 -47z" />
    <glyph glyph-name="three" unicode="3" horiz-adv-x="577" 
d="M193 329q-22 0 -33 -1v69q10 -1 32 -1q102 0 158 32t56 95q0 57 -43 88t-109 31q-76 0 -158 -37l-6 74q79 30 170 30q106 0 167.5 -47.5t61.5 -133.5q0 -70 -49.5 -112.5t-128.5 -49.5v-3q81 -5 133 -51t52 -122q0 -92 -70 -146.5t-187 -54.5q-90 0 -174 28l6 77
q87 -38 166 -38q75 0 124 35.5t49 104.5q0 133 -217 133z" />
    <glyph glyph-name="four" unicode="4" horiz-adv-x="577" 
d="M448 698v-469h96v-71h-96v-158h-80v158h-335v73l299 467h116zM368 229v206q0 112 4 211h-2q-32 -67 -87 -152l-166 -265h251z" />
    <glyph glyph-name="five" unicode="5" horiz-adv-x="577" 
d="M483 698v-70h-299l-6 -207q40 12 92 12q106 0 171.5 -57.5t65.5 -155.5q0 -106 -72 -168.5t-192 -62.5q-71 0 -148 22l3 78q72 -33 144 -33q79 0 129 42.5t50 115.5q0 75 -46.5 114t-130.5 39q-67 0 -142 -30l5 361h376z" />
    <glyph glyph-name="six" unicode="6" horiz-adv-x="577" 
d="M483 690l-8 -72q-58 24 -116 24q-100 0 -157.5 -79t-60.5 -213h3q23 43 71 67t102 24q92 0 149 -61t57 -155q0 -101 -62 -168.5t-163 -67.5q-116 0 -177 84.5t-61 246.5q0 181 77.5 285t218.5 104q69 0 127 -19zM298 376q-60 0 -102 -44t-42 -107q0 -72 40.5 -122
t101.5 -50q64 0 103 46.5t39 116.5q0 72 -35.5 116t-104.5 44z" />
    <glyph glyph-name="seven" unicode="7" horiz-adv-x="577" 
d="M497 698v-73l-263 -625h-92l269 625h-347v73h433z" />
    <glyph glyph-name="eight" unicode="8" horiz-adv-x="577" 
d="M361 369q84 -29 126 -73t42 -112q0 -90 -68.5 -142.5t-175.5 -52.5q-108 0 -172.5 51.5t-64.5 139.5q0 65 40.5 110t122.5 77q-76 29 -110.5 69t-34.5 98q0 79 61.5 127t162.5 48q97 0 156 -46t59 -124q0 -107 -144 -170zM299 397q117 49 117 137q0 52 -36.5 81.5
t-93.5 29.5t-95 -29.5t-38 -79.5q0 -92 146 -139zM275 333q-139 -47 -139 -150q0 -59 41.5 -93.5t108.5 -34.5t111 34t44 92q0 53 -41 89t-125 63z" />
    <glyph glyph-name="nine" unicode="9" horiz-adv-x="577" 
d="M87 11l8 72q58 -27 124 -27q100 0 157 80.5t59 215.5h-3q-23 -43 -70 -66t-101 -23q-94 0 -149.5 59t-55.5 153q0 101 61 167.5t163 66.5q116 0 176.5 -82.5t60.5 -244.5q0 -182 -77 -287.5t-218 -105.5q-77 0 -135 22zM280 328q63 0 103 42t40 106q0 72 -39.5 120.5
t-100.5 48.5q-65 0 -103.5 -45.5t-38.5 -115.5q0 -72 35 -114t104 -42z" />
    <glyph glyph-name="colon" unicode=":" horiz-adv-x="271" 
d="M185 99v-99h-98v99h98zM185 509v-99h-98v99h98z" />
    <glyph glyph-name="semicolon" unicode=";" horiz-adv-x="271" 
d="M189 105l-83 -239h-68l62 239h89zM185 509v-99h-98v99h98z" />
    <glyph glyph-name="less" unicode="&#x3c;" horiz-adv-x="577" 
d="M542 37l-506 185v79l506 186v-79l-269 -93q-90 -30 -166 -52v-2q67 -18 166 -53l269 -93v-78z" />
    <glyph glyph-name="equal" unicode="=" horiz-adv-x="577" 
d="M544 124h-510v67h510v-67zM544 327h-510v67h510v-67z" />
    <glyph glyph-name="greater" unicode="&#x3e;" horiz-adv-x="577" 
d="M36 486l506 -185v-79l-506 -185v78l269 93q113 38 166 53v2q-78 20 -166 52l-269 93v78z" />
    <glyph glyph-name="question" unicode="?" horiz-adv-x="482" 
d="M74 602l-7 78q77 28 157 28q96 0 155 -43t59 -126q0 -51 -23 -93t-81 -104q-39 -41 -54 -71.5t-15 -69.5v-16h-78v12q0 57 14.5 90.5t68.5 94.5q45 51 63.5 83t18.5 66q0 50 -35.5 76.5t-94.5 26.5q-72 0 -148 -32zM274 96v-96h-95v96h95z" />
    <glyph glyph-name="at" unicode="@" horiz-adv-x="1000" 
d="M753 0l19 -58q-108 -51 -253 -51q-192 0 -305.5 105.5t-113.5 281.5t125 297t309 121q164 0 266 -90t102 -236q0 -116 -60.5 -199t-157.5 -83q-41 0 -65 19.5t-24 52.5q0 19 2 31h-2q-52 -103 -155 -103q-66 0 -102.5 44.5t-36.5 118.5q0 105 65 187t153 82q94 0 120 -89
h2q6 32 20 71h71q-27 -86 -68 -229q-15 -49 -15 -82q0 -47 51 -47q59 0 98 67.5t39 157.5q0 123 -82 196.5t-215 73.5q-156 0 -260.5 -104t-104.5 -259q0 -151 92.5 -239.5t255.5 -88.5q131 0 230 52zM524 461q-56 0 -101 -66.5t-45 -146.5q0 -47 22.5 -74t60.5 -27
q60 0 104 75.5t44 153.5q0 40 -22.5 62.5t-62.5 22.5z" />
    <glyph glyph-name="A" unicode="A" horiz-adv-x="709" 
d="M397 698l298 -698h-95l-75 182h-346l-74 -182h-92l295 698h89zM496 252l-96 240q-37 92 -49 133h-2q-16 -49 -49 -133l-94 -240h290z" />
    <glyph glyph-name="B" unicode="B" horiz-adv-x="598" 
d="M97 0v698h170q119 0 184.5 -44t65.5 -134q0 -61 -39 -103t-110 -56v-2q75 -9 120 -53t45 -113q0 -100 -73 -146.5t-188 -46.5h-175zM180 628v-234h68q85 0 134 25.5t49 92.5q0 116 -174 116h-77zM180 326v-257h78q189 0 189 128q0 67 -49 98t-152 31h-66z" />
    <glyph glyph-name="C" unicode="C" horiz-adv-x="613" 
d="M577 680l-9 -80q-60 31 -145 31q-123 0 -200.5 -78.5t-77.5 -201.5q0 -127 80 -204.5t207 -77.5q77 0 141 27l6 -81q-59 -22 -148 -22q-169 0 -272.5 95.5t-103.5 262.5q0 155 104.5 254.5t265.5 99.5q91 0 152 -25z" />
    <glyph glyph-name="D" unicode="D" horiz-adv-x="715" 
d="M97 698h147q91 0 164 -19.5t130 -60.5t88 -110t31 -161q0 -90 -32.5 -158.5t-90 -108.5t-130.5 -60t-160 -20h-147v698zM183 625v-552h52q333 0 333 275q0 78 -24.5 133t-70.5 86t-104 44.5t-134 13.5h-52z" />
    <glyph glyph-name="E" unicode="E" horiz-adv-x="545" 
d="M478 73v-73h-381v698h373v-73h-287v-228h268v-72h-268v-252h295z" />
    <glyph glyph-name="F" unicode="F" horiz-adv-x="502" 
d="M183 0h-86v698h357v-73h-271v-237h261v-72h-261v-316z" />
    <glyph glyph-name="G" unicode="G" horiz-adv-x="719" 
d="M624 671l-7 -83q-82 44 -178 44q-129 0 -210.5 -77.5t-81.5 -203.5q0 -127 79 -205t205 -78q65 0 117 15v222h-158v70h244v-349q-108 -33 -203 -33q-170 0 -273 99t-103 261q0 156 107 254t275 98q106 0 187 -34z" />
    <glyph glyph-name="H" unicode="H" horiz-adv-x="716" 
d="M619 698v-698h-86v325h-350v-325h-86v698h86v-299h350v299h86z" />
    <glyph glyph-name="I" unicode="I" horiz-adv-x="280" 
d="M183 698v-698h-86v698h86z" />
    <glyph glyph-name="J" unicode="J" horiz-adv-x="372" 
d="M23 2v75q36 -13 66 -13q60 0 83.5 33t23.5 111v490h86v-512q0 -89 -43 -142.5t-134 -53.5q-47 0 -82 12z" />
    <glyph glyph-name="K" unicode="K" horiz-adv-x="642" 
d="M181 353v-353h-84v698h84v-317h2q83 92 136 145l168 172h115l-334 -328l363 -370h-124l-214 228q-50 55 -110 125h-2z" />
    <glyph glyph-name="L" unicode="L" horiz-adv-x="493" 
d="M183 698v-625h292v-73h-378v698h86z" />
    <glyph glyph-name="M" unicode="M" horiz-adv-x="935" 
d="M240 698l181 -464q28 -74 49 -146h2q22 72 50 145l177 465h140v-698h-86v471q0 112 2 165h-2q-18 -52 -51 -137l-196 -499h-80l-194 489q-33 84 -51 147h-2q2 -53 2 -165v-471h-84v698h143z" />
    <glyph glyph-name="N" unicode="N" horiz-adv-x="730" 
d="M549 318v380h84v-698h-114l-251 449q-59 104 -90 174h-2q5 -72 5 -196v-427h-84v698h129l244 -440q42 -76 83 -168h2q-6 98 -6 228z" />
    <glyph glyph-name="O" unicode="O" horiz-adv-x="773" 
d="M395 709q145 0 232.5 -98.5t87.5 -260.5q0 -166 -89 -263.5t-238 -97.5q-150 0 -240 97.5t-90 259.5q0 167 91.5 265t245.5 98zM386 640q-106 0 -171.5 -80t-65.5 -210q0 -132 65.5 -211.5t173.5 -79.5q105 0 170 79.5t65 209.5q0 135 -64 213.5t-173 78.5z" />
    <glyph glyph-name="P" unicode="P" horiz-adv-x="557" 
d="M97 698h157q269 0 269 -205q0 -55 -21.5 -96t-60 -64.5t-85.5 -34.5t-105 -11h-68v-287h-86v698zM183 625v-264h63q96 0 143 29.5t47 101.5q0 71 -47.5 102t-144.5 31h-61z" />
    <glyph glyph-name="Q" unicode="Q" horiz-adv-x="773" 
d="M395 709q145 0 232.5 -98.5t87.5 -260.5q0 -120 -49.5 -206t-136.5 -125l166 -153h-116l-134 127q-24 -4 -57 -4q-150 0 -240 97.5t-90 259.5q0 167 91.5 265t245.5 98zM386 640q-106 0 -171.5 -80t-65.5 -210q0 -132 65.5 -211.5t173.5 -79.5q105 0 170 79.5t65 209.5
q0 135 -64 213.5t-173 78.5z" />
    <glyph glyph-name="R" unicode="R" 
d="M97 0v698h169q257 0 257 -180q0 -67 -41 -108.5t-114 -57.5v-2q33 -11 54.5 -33.5t38.5 -59.5l119 -257h-96l-101 228q-24 53 -53.5 71.5t-94.5 18.5h-52v-318h-86zM183 625v-236h63q189 0 189 122q0 63 -46.5 88.5t-142.5 25.5h-63z" />
    <glyph glyph-name="S" unicode="S" horiz-adv-x="507" 
d="M420 684l-11 -76q-67 30 -131 30q-59 0 -97.5 -29.5t-38.5 -76.5q0 -42 29.5 -72t110.5 -67q91 -41 131.5 -88t40.5 -114q0 -90 -64.5 -146t-168.5 -56q-91 0 -162 29l9 81q75 -37 148 -37q68 0 109 32.5t41 87.5q0 47 -30 78.5t-111 68.5q-94 43 -132 86.5t-38 109.5
q0 82 60.5 133t158.5 51q81 0 146 -25z" />
    <glyph glyph-name="T" unicode="T" horiz-adv-x="540" 
d="M315 0h-86v624l-215 -2v76h512v-76l-211 2v-624z" />
    <glyph glyph-name="U" unicode="U" horiz-adv-x="704" 
d="M617 698v-404q0 -143 -66.5 -224t-202.5 -81q-260 0 -260 305v404h86v-392q0 -119 39.5 -183t138.5 -64q100 0 139.5 64t39.5 184v391h86z" />
    <glyph glyph-name="V" unicode="V" horiz-adv-x="651" 
d="M103 698l179 -501q30 -84 44 -129h3q23 74 44 129l180 501h89l-266 -698h-101l-266 698h94z" />
    <glyph glyph-name="W" unicode="W" horiz-adv-x="1015" 
d="M677 0l-143 517q-19 71 -29 117h-2q-12 -63 -27 -117l-140 -517h-109l-211 698h93l139 -492q20 -72 33 -137h2q16 80 33 137l131 492h121l134 -492q11 -39 34 -137h2q10 47 33 137l139 492h90l-215 -698h-108z" />
    <glyph glyph-name="X" unicode="X" horiz-adv-x="654" 
d="M329 415q57 89 75 115l114 168h99l-237 -334l262 -364h-108l-130 188q-41 61 -80 123q-37 -59 -81 -123l-128 -188h-103l261 364l-241 334h103l117 -168q43 -60 77 -115z" />
    <glyph glyph-name="Y" unicode="Y" horiz-adv-x="643" 
d="M8 698h105l99 -153q35 -53 111 -178h2q37 63 111 178l98 153h102l-270 -402v-296h-86v294z" />
    <glyph glyph-name="Z" unicode="Z" horiz-adv-x="547" 
d="M499 618q-314 -470 -371 -545h381v-73h-475v72q339 509 374 553h-364v73h455v-80z" />
    <glyph glyph-name="bracketleft" unicode="[" horiz-adv-x="328" 
d="M278 760v-58h-105v-784h105v-58h-183v900h183z" />
    <glyph glyph-name="backslash" unicode="\" horiz-adv-x="460" 
d="M67 698h70l256 -698h-71z" />
    <glyph glyph-name="bracketright" unicode="]" horiz-adv-x="328" 
d="M55 701v59h183v-900h-183v58h105v783h-105z" />
    <glyph glyph-name="asciicircum" unicode="^" horiz-adv-x="577" 
d="M91 265l159 432h77l161 -432h-74l-74 209q-29 80 -49 155h-2q-5 -18 -51 -155l-73 -209h-74z" />
    <glyph glyph-name="underscore" unicode="_" horiz-adv-x="500" 
d="M0 -78h500v-50h-500v50z" />
    <glyph glyph-name="grave" unicode="`" horiz-adv-x="500" 
d="M242 579l-124 177h88l94 -177h-58z" />
    <glyph glyph-name="a" unicode="a" horiz-adv-x="549" 
d="M107 404l-5 73q71 43 167 43q102 0 149 -53.5t47 -146.5q0 -38 -1 -99.5t-1 -68.5q0 -98 6 -152h-74q-2 16 -2 42q0 19 2 47h-2q-50 -96 -170 -96q-80 0 -127.5 41t-47.5 110q0 80 69.5 122.5t199.5 42.5q38 0 71 -3v9q0 138 -132 138q-79 0 -149 -49zM389 248
q-26 2 -56 2q-199 0 -199 -106q0 -40 28.5 -64t76.5 -24q150 0 150 192z" />
    <glyph glyph-name="b" unicode="b" horiz-adv-x="611" 
d="M165 93h-2q0 -53 -4 -93h-76q5 54 5 154v602h82v-203q0 -91 -3 -135h2q27 47 73 74.5t102 27.5q99 0 158 -74t59 -186q0 -119 -60.5 -195t-163.5 -76q-56 0 -101 28t-71 76zM325 56q68 0 109 55.5t41 143.5q0 87 -39.5 142.5t-109.5 55.5q-66 0 -112 -57t-46 -142
q0 -84 44.5 -141t112.5 -57z" />
    <glyph glyph-name="c" unicode="c" horiz-adv-x="455" 
d="M421 498l-6 -73q-46 20 -101 20q-79 0 -128 -52t-49 -136q0 -86 48.5 -139.5t129.5 -53.5q55 0 107 26l6 -74q-51 -22 -118 -22q-119 0 -189.5 71t-70.5 189q0 115 71.5 188.5t187.5 73.5q65 0 112 -18z" />
    <glyph glyph-name="d" unicode="d" horiz-adv-x="611" 
d="M523 756v-602q0 -100 5 -154h-76q-3 42 -3 93h-2q-60 -104 -175 -104q-103 0 -162.5 72t-59.5 189q0 120 60.5 195t162.5 75q56 0 101 -25t68 -69h2q-3 43 -3 127v203h82zM286 453q-67 0 -108.5 -56t-41.5 -145q0 -84 41 -140t109 -56q66 0 111 56t45 140q0 87 -43.5 144
t-112.5 57z" />
    <glyph glyph-name="e" unicode="e" horiz-adv-x="548" 
d="M497 237h-364q1 -84 50.5 -132t131.5 -48q75 0 144 37l3 -75q-68 -30 -151 -30q-124 0 -192.5 71.5t-68.5 197.5q0 119 65.5 190.5t171.5 71.5q100 0 156 -62.5t56 -185.5q0 -13 -2 -35zM135 300h284q0 78 -35.5 117.5t-98.5 39.5q-62 0 -103 -41.5t-47 -115.5z" />
    <glyph glyph-name="f" unicode="f" horiz-adv-x="366" 
d="M355 752l-6 -66q-25 6 -49 6q-46 0 -65.5 -29t-19.5 -91v-66h132v-65h-132v-441h-80v441h-117v65h117v64q0 190 155 190q34 0 65 -8z" />
    <glyph glyph-name="g" unicode="g" horiz-adv-x="608" 
d="M286 453q-66 0 -108 -56t-42 -142q0 -85 40.5 -137t108.5 -52t112 54t44 137q0 84 -43.5 140t-111.5 56zM445 509h75v-485q0 -111 -60 -178.5t-184 -67.5q-100 0 -186 34l8 81q85 -46 175 -46q169 0 169 188q0 44 2 64h-2q-55 -99 -170 -99q-100 0 -161 69.5t-61 183.5
q0 119 63 193t165 74q114 0 167 -94h2q-2 32 -2 83z" />
    <glyph glyph-name="h" unicode="h" 
d="M170 756v-196q0 -99 -3 -140h2q60 100 173 100q99 0 141 -60t42 -168v-292h-82v260q0 95 -24 143.5t-96 48.5q-69 0 -111 -50.5t-42 -152.5v-249h-82v756h82z" />
    <glyph glyph-name="i" unicode="i" horiz-adv-x="258" 
d="M175 707v-94h-92v94h92zM170 509v-509h-82v509h82z" />
    <glyph glyph-name="j" unicode="j" horiz-adv-x="258" 
d="M175 707v-94h-92v94h92zM170 509v-547q0 -184 -147 -184q-20 0 -42 5v68q14 -3 30 -3q43 0 60 29t17 94v538h82z" />
    <glyph glyph-name="k" unicode="k" horiz-adv-x="528" 
d="M415 0l-153 163q-47 50 -90 105h-2v-268h-82v756h82v-462h2q40 46 94 96l125 119h109l-250 -223l275 -286h-110z" />
    <glyph glyph-name="l" unicode="l" horiz-adv-x="258" 
d="M170 756v-756h-82v756h82z" />
    <glyph glyph-name="m" unicode="m" horiz-adv-x="892" 
d="M164 421h2q23 45 66 72t97 27q111 0 144 -111q54 111 171 111q166 0 166 -215v-305h-82v268q0 95 -20.5 139.5t-82.5 44.5q-135 0 -135 -211v-241h-82v292q0 86 -22.5 123t-74.5 37q-64 0 -102.5 -54t-38.5 -153v-245h-82v357q0 98 -5 152h78q3 -36 3 -88z" />
    <glyph glyph-name="n" unicode="n" 
d="M166 421h2q60 99 173 99q100 0 142 -60t42 -168v-292h-82v260q0 97 -25 144.5t-96 47.5q-69 0 -110.5 -50.5t-41.5 -152.5v-249h-82v357q0 98 -5 152h79q4 -48 4 -88z" />
    <glyph glyph-name="o" unicode="o" 
d="M307 520q109 0 179 -75t70 -193q0 -117 -70.5 -190t-182.5 -73q-111 0 -182 73.5t-71 189.5q0 119 71.5 193.5t185.5 74.5zM301 453q-74 0 -119.5 -55.5t-45.5 -145.5q0 -89 46 -142.5t121 -53.5t121 54t46 143q0 90 -46.5 145t-122.5 55z" />
    <glyph glyph-name="p" unicode="p" horiz-adv-x="609" 
d="M88 -210v567q0 98 -5 152h78q4 -44 4 -89h2q57 100 177 100q97 0 156 -71.5t59 -188.5q0 -122 -60 -196.5t-158 -74.5q-58 0 -103 28t-69 75h-2q3 -30 3 -126v-176h-82zM323 453q-67 0 -112 -57.5t-45 -143.5q0 -82 45.5 -139t112.5 -57t108 55.5t41 140.5
q0 91 -40.5 146t-109.5 55z" />
    <glyph glyph-name="q" unicode="q" horiz-adv-x="609" 
d="M441 -210v176q0 80 4 126h-2q-64 -103 -171 -103q-100 0 -161 75t-61 197q0 117 60.5 188t160.5 71q118 0 173 -98h2q0 33 6 87h74q-3 -33 -3 -79v-640h-82zM283 453q-65 0 -105 -55t-40 -140q0 -89 41 -145.5t108 -56.5t111.5 56.5t44.5 139.5q0 89 -44.5 145t-115.5 56
z" />
    <glyph glyph-name="r" unicode="r" horiz-adv-x="373" 
d="M167 417h2q19 46 57 74.5t85 28.5q27 0 46 -6v-75q-20 6 -47 6q-65 0 -102.5 -53.5t-37.5 -145.5v-246h-82v357q0 98 -5 152h80q4 -36 4 -92z" />
    <glyph glyph-name="s" unicode="s" horiz-adv-x="403" 
d="M42 14l7 74q60 -33 126 -33q44 0 73.5 21t29.5 58q0 33 -23 53t-87 49t-92 59.5t-28 80.5q0 67 48 105.5t124 38.5q65 0 117 -21l-7 -69q-51 25 -109 25q-40 0 -66.5 -19t-26.5 -54q0 -31 22.5 -50t78.5 -42q70 -28 100.5 -63t30.5 -86q0 -73 -50.5 -112.5t-129.5 -39.5
q-75 0 -138 25z" />
    <glyph glyph-name="t" unicode="t" horiz-adv-x="374" 
d="M203 651v-145h136v-65h-136v-252q0 -65 19 -97.5t69 -32.5q27 0 54 12l3 -65q-38 -12 -74 -12q-85 0 -118 45t-33 131v271h-113v65h113v118z" />
    <glyph glyph-name="u" unicode="u" 
d="M440 88h-2q-60 -99 -173 -99q-100 0 -142 60t-42 168v292h82v-260q0 -97 25 -144.5t96 -47.5q69 0 110.5 50.5t41.5 152.5v249h82v-357q0 -98 5 -152h-79q-4 48 -4 88z" />
    <glyph glyph-name="v" unicode="v" horiz-adv-x="486" 
d="M100 509l109 -323q16 -47 36 -122h2q20 68 38 122l109 323h82l-186 -509h-95l-183 509h88z" />
    <glyph glyph-name="w" unicode="w" horiz-adv-x="825" 
d="M275 0h-98l-164 509h88l94 -323q9 -30 31 -122h2q14 58 34 121l103 324h99l103 -324q18 -59 33 -121h2q16 70 32 120l97 325h81l-167 -509h-95l-109 346q-17 55 -27 103h-2q-8 -37 -28 -103z" />
    <glyph glyph-name="x" unicode="x" horiz-adv-x="493" 
d="M250 307q38 70 54 94l67 108h90l-164 -242l180 -267h-97l-74 119q-53 87 -61 102q-38 -66 -61 -102l-74 -119h-96l183 267l-169 242h99l68 -108q46 -77 55 -94z" />
    <glyph glyph-name="y" unicode="y" horiz-adv-x="486" 
d="M100 509l109 -322q15 -41 36 -122h2q20 68 38 122l109 322h82l-188 -525q-42 -116 -82 -161t-113 -45q-31 0 -56 8l6 65q24 -7 46 -7q41 0 64.5 28t49.5 109l-191 528h88z" />
    <glyph glyph-name="z" unicode="z" horiz-adv-x="487" 
d="M434 438q-264 -327 -306 -372h314v-66h-404v70q271 336 309 375h-295v64h382v-71z" />
    <glyph glyph-name="braceleft" unicode="{" horiz-adv-x="328" 
d="M11 282v56q65 8 83.5 38.5t18.5 102.5v63q0 60 6.5 96t26 64t55 41t93.5 17v-55q-56 -5 -79 -38.5t-23 -103.5v-51q0 -70 -5.5 -106t-28 -62t-68.5 -33v-2q35 -7 55.5 -21.5t30.5 -42t13 -57t3 -80.5v-52q0 -70 23.5 -103t78.5 -38v-55q-110 8 -145.5 54t-35.5 163v64
q0 72 -18.5 103t-83.5 38z" />
    <glyph glyph-name="bar" unicode="|" horiz-adv-x="280" 
d="M103 -214v1000h74v-1000h-74z" />
    <glyph glyph-name="braceright" unicode="}" horiz-adv-x="328" 
d="M317 338v-56q-65 -8 -83.5 -38.5t-18.5 -102.5v-63q0 -60 -6.5 -96t-26 -64t-55 -41t-93.5 -17v55q56 5 79 38.5t23 103.5v51q0 70 5.5 106t28 62t68.5 33v2q-35 7 -55.5 21.5t-30.5 42t-13 57t-3 80.5v52q0 70 -23.5 103t-78.5 38v55q110 -8 145.5 -54t35.5 -163v-64
q0 -72 18.5 -103t83.5 -38z" />
    <glyph glyph-name="asciitilde" unicode="~" horiz-adv-x="577" 
d="M540 325v-82q-23 -29 -59.5 -47t-73.5 -18t-70.5 14t-55 30t-52.5 30t-63 14q-37 0 -72.5 -23.5t-57.5 -57.5v82q23 30 60 48.5t74 18.5q47 0 87 -22t77 -44t77 -22q38 0 73 22.5t56 56.5z" />
    <glyph glyph-name="uni00A0" unicode="&#xa0;" horiz-adv-x="236" 
 />
    <glyph glyph-name="exclamdown" unicode="&#xa1;" horiz-adv-x="312" 
d="M107 -189l12 514h72l13 -514h-97zM107 415v94h95v-94h-95z" />
    <glyph glyph-name="cent" unicode="&#xa2;" horiz-adv-x="577" 
d="M413 638h52l-40 -130q19 -4 39 -12l-6 -73q-23 11 -54 18l-114 -366q31 -11 66 -11q60 0 109 26l6 -74q-51 -22 -124 -22q-39 0 -79 10l-42 -134h-50l46 151q-61 31 -95 91.5t-34 141.5q0 115 71.5 188.5t187.5 73.5q15 0 23 -1zM179 257q0 -103 68 -157l106 345
q-78 -1 -126 -53t-48 -135z" />
    <glyph glyph-name="sterling" unicode="&#xa3;" horiz-adv-x="577" 
d="M518 689l-8 -76q-44 22 -101 22q-88 0 -124 -56.5t-36 -156.5v-28h167v-53h-167v-271h260v-70h-438v70h95v271h-85v53h84v41q0 129 61.5 199.5t175.5 70.5q62 0 116 -16z" />
    <glyph glyph-name="currency" unicode="&#xa4;" horiz-adv-x="577" 
d="M296 462q-46 0 -76 -32t-30 -80q0 -49 30 -81t76 -32q47 0 77.5 32t30.5 81q0 48 -31 80t-77 32zM298 525q52 0 98 -33l101 101l45 -45l-101 -102q30 -46 30 -96t-30 -98l101 -102l-45 -45l-101 102q-46 -33 -100 -33t-100 33l-101 -102l-45 45l102 103q-30 46 -30 97
q0 50 30 96l-102 102l45 45l101 -102q47 34 102 34z" />
    <glyph glyph-name="yen" unicode="&#xa5;" horiz-adv-x="577" 
d="M124 698l79 -154q46 -89 86 -173h2q26 54 85 173l79 154h94l-198 -361h129v-50h-150v-63h150v-50h-150v-174h-82v174h-149v50h149v63h-149v50h126l-198 361h97z" />
    <glyph glyph-name="brokenbar" unicode="&#xa6;" horiz-adv-x="280" 
d="M103 403v383h74v-383h-74zM103 -214v383h74v-383h-74z" />
    <glyph glyph-name="section" unicode="&#xa7;" horiz-adv-x="577" 
d="M456 688l-8 -77q-68 28 -131 28q-54 0 -87.5 -23.5t-33.5 -61.5q0 -30 20.5 -49.5t75.5 -41.5l53 -21q77 -30 111.5 -64.5t34.5 -88.5q0 -86 -83 -129q67 -41 67 -114q0 -78 -59 -123t-154 -45q-89 0 -160 28l8 79q79 -35 157 -35q56 0 89.5 23.5t33.5 66.5
q0 32 -20.5 50.5t-79.5 43.5q-118 49 -149 73q-50 37 -50 102q0 43 24 76.5t62 51.5q-64 42 -64 111q0 72 58 116.5t146 44.5q79 0 139 -21zM299 382l-74 30q-58 -30 -58 -90q0 -35 25.5 -56.5t93.5 -48.5l76 -30q55 29 55 86q0 36 -27 59.5t-91 49.5z" />
    <glyph glyph-name="dieresis" unicode="&#xa8;" horiz-adv-x="500" 
d="M199 700v-85h-82v85h82zM383 700v-85h-82v85h82z" />
    <glyph glyph-name="copyright" unicode="&#xa9;" horiz-adv-x="900" 
d="M569 545l-5 -55q-35 19 -86 19q-67 0 -109.5 -43t-42.5 -109q0 -70 44 -113t112 -43q47 0 85 17l4 -54q-34 -14 -89 -14q-97 0 -157 55t-60 152q0 89 60.5 145.5t152.5 56.5q55 0 91 -14zM450 661q-130 0 -220 -91.5t-90 -219.5q0 -130 90 -221.5t220 -91.5
q131 0 220.5 92t89.5 223q0 127 -90 218t-220 91zM450 701q147 0 249.5 -102t102.5 -249t-103 -250t-249 -103t-249 103.5t-103 251.5q0 146 102.5 247.5t249.5 101.5z" />
    <glyph glyph-name="ordfeminine" unicode="&#xaa;" horiz-adv-x="416" 
d="M288 487q-17 4 -44 4q-136 0 -136 -78q0 -28 20 -44t53 -16q50 0 78.5 33.5t28.5 100.5zM293 370q-41 -72 -129 -72q-60 0 -95.5 31t-35.5 85q0 62 52 94t147 32q25 0 55 -3q0 102 -96 102q-62 0 -113 -37l-4 65q60 30 125 30q158 0 158 -156q0 -21 -1.5 -64.5
t-1.5 -50.5v-25q0 -50 5 -97h-65q-2 7 -2 31q0 20 1 35z" />
    <glyph glyph-name="guillemotleft" unicode="&#xab;" horiz-adv-x="496" 
d="M446 448l-129 -198l131 -201h-75l-141 201l139 198h75zM256 448l-129 -198l131 -201h-75l-141 201l138 198h76z" />
    <glyph glyph-name="logicalnot" unicode="&#xac;" horiz-adv-x="577" 
d="M459 339h-427v64h494v-291h-67v227z" />
    <glyph glyph-name="uni00AD" unicode="&#xad;" horiz-adv-x="332" 
d="M294 298v-67h-255v67h255z" />
    <glyph glyph-name="registered" unicode="&#xae;" horiz-adv-x="500" 
d="M187 422v198h51q80 0 80 -52q0 -38 -46 -46v-2q18 -5 31 -31l32 -67h-40l-27 60q-6 14 -15 20t-27 6h-5v-86h-34zM221 591v-54h10q50 0 50 27q0 16 -12 21.5t-38 5.5h-10zM254 692q70 0 121 -52t51 -123q0 -74 -51 -125.5t-124 -51.5q-74 0 -125.5 52t-51.5 126
q0 73 52 123.5t128 50.5zM248 664q-59 0 -102 -44t-43 -103q0 -62 43 -105.5t104 -43.5t104 44t43 106q0 60 -44 103t-105 43z" />
    <glyph glyph-name="macron" unicode="&#xaf;" horiz-adv-x="500" 
d="M385 675v-53h-270v53h270z" />
    <glyph glyph-name="degree" unicode="&#xb0;" horiz-adv-x="400" 
d="M203 726q60 0 103.5 -44.5t43.5 -105.5q0 -62 -44 -106t-106 -44t-106 44t-44 107q0 62 44.5 105.5t108.5 43.5zM199 674q-40 0 -68 -28.5t-28 -69.5t28 -69.5t69 -28.5t69 28.5t28 70.5q0 41 -28.5 69t-69.5 28z" />
    <glyph glyph-name="plusminus" unicode="&#xb1;" horiz-adv-x="577" 
d="M544 3h-510v67h510v-67zM255 138v164h-221v68h221v163h71v-163h218v-68h-218v-164h-71z" />
    <glyph glyph-name="twosuperior" unicode="&#xb2;" horiz-adv-x="380" 
d="M66 775l-8 53q53 25 119 25q60 0 100 -29.5t40 -86.5q0 -82 -112 -187q-44 -40 -88 -71v-2q38 2 127 2h82v-51h-281v54q109 88 155.5 144t46.5 105q0 35 -23 53t-59 18q-49 0 -99 -27z" />
    <glyph glyph-name="threesuperior" unicode="&#xb3;" horiz-adv-x="380" 
d="M129 621q-2 0 -10.5 -0.5t-12.5 -0.5v49q6 -1 23 -1q123 0 123 69q0 32 -25.5 49.5t-65.5 17.5q-51 0 -99 -21l-5 52q50 18 113 18q68 0 107.5 -28t39.5 -79q0 -43 -29 -68t-77 -30v-2q50 -4 80 -30.5t30 -72.5q0 -56 -47.5 -89t-123.5 -33q-54 0 -108 16l5 55
q50 -21 101 -21q47 0 77 19.5t30 58.5q0 72 -126 72z" />
    <glyph glyph-name="acute" unicode="&#xb4;" horiz-adv-x="500" 
d="M382 756l-124 -177h-58l94 177h88z" />
    <glyph glyph-name="mu" unicode="&#xb5;" horiz-adv-x="629" 
d="M520 509v-369q0 -48 7 -62.5t29 -14.5q5 0 17 3l4 -67q-15 -5 -38 -5q-48 0 -68.5 25.5t-23.5 85.5h-2q-23 -53 -70.5 -84t-107.5 -31q-64 0 -95 39q-2 0 -3 -1q5 -67 5 -144v-92h-81v717h80v-270q0 -34 2 -57.5t8.5 -49t18.5 -41t33.5 -25.5t51.5 -10q65 0 106.5 52.5
t45.5 122.5q1 19 1 58v220h80z" />
    <glyph glyph-name="paragraph" unicode="&#xb6;" horiz-adv-x="614" 
d="M557 637h-55v-837h-71v837h-115v-837h-73v452q-92 7 -146.5 64t-54.5 151q0 107 67.5 169t183.5 62h264v-61z" />
    <glyph glyph-name="periodcentered" unicode="&#xb7;" horiz-adv-x="237" 
d="M167 315v-99h-98v99h98z" />
    <glyph glyph-name="cedilla" unicode="&#xb8;" horiz-adv-x="500" 
d="M234 10l-14 -76q8 2 26 2q38 0 63 -19.5t25 -54.5q0 -44 -32.5 -68t-81.5 -24q-30 0 -56 6l5 37q20 -4 42 -4q64 0 64 48q0 43 -58 43q-18 0 -40 -6l14 116h43z" />
    <glyph glyph-name="onesuperior" unicode="&#xb9;" horiz-adv-x="380" 
d="M246 847v-419h-66v189q0 125 3 164h-2q-15 -15 -53 -45l-23 -18l-33 43l115 86h59z" />
    <glyph glyph-name="ordmasculine" unicode="&#xba;" horiz-adv-x="458" 
d="M228 638q-52 0 -83.5 -39.5t-31.5 -105.5q0 -63 32 -100.5t85 -37.5q51 0 82.5 39t31.5 102q0 64 -32 103t-84 39zM231 697q84 0 137 -56.5t53 -146.5q0 -88 -53.5 -142.5t-139.5 -54.5q-84 0 -138.5 55t-54.5 141q0 91 54 147.5t142 56.5z" />
    <glyph glyph-name="guillemotright" unicode="&#xbb;" horiz-adv-x="496" 
d="M50 448h76l138 -198l-141 -201h-75l131 201zM240 448h76l138 -198l-140 -201h-75l131 201z" />
    <glyph glyph-name="onequarter" unicode="&#xbc;" horiz-adv-x="900" 
d="M246 700v-419h-66v189q0 125 3 164h-2q-15 -15 -53 -45l-23 -18l-33 43l115 86h59zM686 742l-404 -764h-59l404 764h59zM813 419v-277h59v-49h-59v-93h-63v93h-205v53l186 273h82zM750 142v95q0 65 3 136h-1q-21 -40 -62 -102l-87 -129h147z" />
    <glyph glyph-name="onehalf" unicode="&#xbd;" horiz-adv-x="900" 
d="M246 700v-419h-66v189q0 125 3 164h-2q-15 -15 -53 -45l-23 -18l-33 43l115 86h59zM686 742l-404 -764h-59l404 764h59zM586 347l-8 53q53 25 119 25q60 0 100 -29.5t40 -86.5q0 -82 -112 -187q-44 -40 -88 -71v-2q38 2 127 2h82v-51h-281v54q109 88 155.5 144t46.5 105
q0 35 -23 53t-59 18q-49 0 -99 -27z" />
    <glyph glyph-name="threequarters" unicode="&#xbe;" horiz-adv-x="900" 
d="M129 474q-2 0 -10.5 -0.5t-12.5 -0.5v49q6 -1 23 -1q123 0 123 69q0 32 -25.5 49.5t-65.5 17.5q-51 0 -99 -21l-5 52q50 18 113 18q68 0 107.5 -28t39.5 -79q0 -43 -29 -68t-77 -30v-2q50 -4 80 -30.5t30 -72.5q0 -56 -47.5 -89t-123.5 -33q-54 0 -108 16l5 55
q50 -21 101 -21q47 0 77 19.5t30 58.5q0 72 -126 72zM686 742l-404 -764h-59l404 764h59zM813 419v-277h59v-49h-59v-93h-63v93h-205v53l186 273h82zM750 142v95q0 65 3 136h-1q-21 -40 -62 -102l-87 -129h147z" />
    <glyph glyph-name="questiondown" unicode="&#xbf;" horiz-adv-x="482" 
d="M408 -93l7 -78q-77 -28 -157 -28q-96 0 -155 43t-59 126q0 51 23 93t81 104q39 41 54 71.5t15 69.5v16h78v-12q0 -57 -14.5 -90.5t-68.5 -94.5q-45 -51 -63.5 -83t-18.5 -66q0 -50 35.5 -76.5t94.5 -26.5q72 0 148 32zM208 413v96h95v-96h-95z" />
    <glyph glyph-name="Agrave" unicode="&#xc0;" horiz-adv-x="709" 
d="M397 698l298 -698h-95l-75 182h-346l-74 -182h-92l295 698h89zM496 252l-96 240q-37 92 -49 133h-2q-16 -49 -49 -133l-94 -240h290zM207 892h93l85 -142h-60z" />
    <glyph glyph-name="Aacute" unicode="&#xc1;" horiz-adv-x="709" 
d="M397 698l298 -698h-95l-75 182h-346l-74 -182h-92l295 698h89zM496 252l-96 240q-37 92 -49 133h-2q-16 -49 -49 -133l-94 -240h290zM497 893l-119 -143h-59l85 143h93z" />
    <glyph glyph-name="Acircumflex" unicode="&#xc2;" horiz-adv-x="709" 
d="M397 698l298 -698h-95l-75 182h-346l-74 -182h-92l295 698h89zM496 252l-96 240q-37 92 -49 133h-2q-16 -49 -49 -133l-94 -240h290zM504 750h-71l-77 100l-82 -100h-68l110 145h82z" />
    <glyph glyph-name="Atilde" unicode="&#xc3;" horiz-adv-x="709" 
d="M397 698l298 -698h-95l-75 182h-346l-74 -182h-92l295 698h89zM496 252l-96 240q-37 92 -49 133h-2q-16 -49 -49 -133l-94 -240h290zM469 875h47q-5 -50 -28 -77t-60 -27q-30 0 -79 21q-50 22 -69 22q-34 0 -43 -46h-47q5 49 29.5 76t65.5 27q27 0 81 -23q43 -19 61 -19
q36 0 42 46z" />
    <glyph glyph-name="Adieresis" unicode="&#xc4;" horiz-adv-x="709" 
d="M397 698l298 -698h-95l-75 182h-346l-74 -182h-92l295 698h89zM496 252l-96 240q-37 92 -49 133h-2q-16 -49 -49 -133l-94 -240h290zM303 871v-91h-82v91h82zM487 871v-91h-82v91h82z" />
    <glyph glyph-name="Aring" unicode="&#xc5;" horiz-adv-x="709" 
d="M397 698l298 -698h-95l-75 182h-346l-74 -182h-92l295 698h89zM496 252l-96 240q-37 92 -49 133h-2q-16 -49 -49 -133l-94 -240h290zM355 937q41 0 70.5 -29.5t29.5 -70.5q0 -42 -29.5 -71.5t-70.5 -29.5q-43 0 -73 29.5t-30 71.5t30 71t73 29zM354 898q-25 0 -43.5 -18
t-18.5 -43q0 -26 18 -44.5t45 -18.5q25 0 42.5 18.5t17.5 45.5q0 25 -18 42.5t-43 17.5z" />
    <glyph glyph-name="AE" unicode="&#xc6;" horiz-adv-x="930" 
d="M863 74v-74h-335l-13 183h-294l-109 -183h-94l423 698h410v-73h-283l13 -228h254v-71h-246l16 -252h258zM511 253l-14 207q-9 129 -10 183h-2q-34 -66 -103 -183l-122 -207h251z" />
    <glyph glyph-name="Ccedilla" unicode="&#xc7;" horiz-adv-x="613" 
d="M577 680l-9 -80q-60 31 -145 31q-123 0 -200.5 -78.5t-77.5 -201.5q0 -127 80 -204.5t207 -77.5q77 0 141 27l6 -81q-59 -22 -148 -22q-14 0 -38 2l-11 -61q8 2 26 2q38 0 63 -19.5t25 -54.5q0 -44 -32.5 -68t-81.5 -24q-30 0 -56 6l5 37q20 -4 42 -4q64 0 64 48
q0 43 -58 43q-18 0 -40 -6l12 105q-136 21 -216 113.5t-80 238.5q0 155 104.5 254.5t265.5 99.5q91 0 152 -25z" />
    <glyph glyph-name="Egrave" unicode="&#xc8;" horiz-adv-x="545" 
d="M478 73v-73h-381v698h373v-73h-287v-228h268v-72h-268v-252h295zM156 892h93l85 -142h-60z" />
    <glyph glyph-name="Eacute" unicode="&#xc9;" horiz-adv-x="545" 
d="M478 73v-73h-381v698h373v-73h-287v-228h268v-72h-268v-252h295zM424 893l-119 -143h-59l85 143h93z" />
    <glyph glyph-name="Ecircumflex" unicode="&#xca;" horiz-adv-x="545" 
d="M478 73v-73h-381v698h373v-73h-287v-228h268v-72h-268v-252h295zM441 750h-71l-77 100l-82 -100h-68l110 145h82z" />
    <glyph glyph-name="Edieresis" unicode="&#xcb;" horiz-adv-x="545" 
d="M478 73v-73h-381v698h373v-73h-287v-228h268v-72h-268v-252h295zM241 871v-91h-82v91h82zM425 871v-91h-82v91h82z" />
    <glyph glyph-name="Igrave" unicode="&#xcc;" horiz-adv-x="280" 
d="M183 698v-698h-86v698h86zM0 892h93l85 -142h-60z" />
    <glyph glyph-name="Iacute" unicode="&#xcd;" horiz-adv-x="280" 
d="M183 698v-698h-86v698h86zM280 893l-119 -143h-59l85 143h93z" />
    <glyph glyph-name="Icircumflex" unicode="&#xce;" horiz-adv-x="280" 
d="M183 698v-698h-86v698h86zM289 750h-71l-77 100l-82 -100h-68l110 145h82z" />
    <glyph glyph-name="Idieresis" unicode="&#xcf;" horiz-adv-x="280" 
d="M183 698v-698h-86v698h86zM90 871v-91h-82v91h82zM274 871v-91h-82v91h82z" />
    <glyph glyph-name="Eth" unicode="&#xd0;" horiz-adv-x="715" 
d="M96 698h148q91 0 164 -19.5t130 -60.5t88 -110t31 -161q0 -90 -32.5 -158.5t-90 -108.5t-130.5 -60t-160 -20h-148v330h-67v44h67v324zM325 374v-44h-142v-257h52q333 0 333 275q0 78 -24.5 133t-70.5 86t-104 44.5t-134 13.5h-52v-251h142z" />
    <glyph glyph-name="Ntilde" unicode="&#xd1;" horiz-adv-x="730" 
d="M549 318v380h84v-698h-114l-251 449q-59 104 -90 174h-2q5 -72 5 -196v-427h-84v698h129l244 -440q42 -76 83 -168h2q-6 98 -6 228zM488 875h47q-5 -50 -28 -77t-60 -27q-29 0 -79 21q-50 22 -69 22q-34 0 -43 -46h-47q5 49 29.5 76t65.5 27q27 0 81 -23q43 -19 61 -19
q36 0 42 46z" />
    <glyph glyph-name="Ograve" unicode="&#xd2;" horiz-adv-x="773" 
d="M395 709q145 0 232.5 -98.5t87.5 -260.5q0 -166 -89 -263.5t-238 -97.5q-150 0 -240 97.5t-90 259.5q0 167 91.5 265t245.5 98zM386 640q-106 0 -171.5 -80t-65.5 -210q0 -132 65.5 -211.5t173.5 -79.5q105 0 170 79.5t65 209.5q0 135 -64 213.5t-173 78.5zM246 892h93
l85 -142h-60z" />
    <glyph glyph-name="Oacute" unicode="&#xd3;" horiz-adv-x="773" 
d="M395 709q145 0 232.5 -98.5t87.5 -260.5q0 -166 -89 -263.5t-238 -97.5q-150 0 -240 97.5t-90 259.5q0 167 91.5 265t245.5 98zM386 640q-106 0 -171.5 -80t-65.5 -210q0 -132 65.5 -211.5t173.5 -79.5q105 0 170 79.5t65 209.5q0 135 -64 213.5t-173 78.5zM531 893
l-119 -143h-59l85 143h93z" />
    <glyph glyph-name="Ocircumflex" unicode="&#xd4;" horiz-adv-x="773" 
d="M395 709q145 0 232.5 -98.5t87.5 -260.5q0 -166 -89 -263.5t-238 -97.5q-150 0 -240 97.5t-90 259.5q0 167 91.5 265t245.5 98zM386 640q-106 0 -171.5 -80t-65.5 -210q0 -132 65.5 -211.5t173.5 -79.5q105 0 170 79.5t65 209.5q0 135 -64 213.5t-173 78.5zM539 750h-71
l-77 100l-82 -100h-68l110 145h82z" />
    <glyph glyph-name="Otilde" unicode="&#xd5;" horiz-adv-x="773" 
d="M395 709q145 0 232.5 -98.5t87.5 -260.5q0 -166 -89 -263.5t-238 -97.5q-150 0 -240 97.5t-90 259.5q0 167 91.5 265t245.5 98zM386 640q-106 0 -171.5 -80t-65.5 -210q0 -132 65.5 -211.5t173.5 -79.5q105 0 170 79.5t65 209.5q0 135 -64 213.5t-173 78.5zM501 875h47
q-5 -50 -28 -77t-60 -27q-29 0 -79 21q-50 22 -69 22q-34 0 -43 -46h-47q5 49 29.5 76t65.5 27q27 0 81 -23q43 -19 61 -19q36 0 42 46z" />
    <glyph glyph-name="Odieresis" unicode="&#xd6;" horiz-adv-x="773" 
d="M395 709q145 0 232.5 -98.5t87.5 -260.5q0 -166 -89 -263.5t-238 -97.5q-150 0 -240 97.5t-90 259.5q0 167 91.5 265t245.5 98zM386 640q-106 0 -171.5 -80t-65.5 -210q0 -132 65.5 -211.5t173.5 -79.5q105 0 170 79.5t65 209.5q0 135 -64 213.5t-173 78.5zM339 871v-91
h-82v91h82zM523 871v-91h-82v91h82z" />
    <glyph glyph-name="multiply" unicode="&#xd7;" horiz-adv-x="577" 
d="M538 450l-199 -199l199 -199l-49 -49l-199 199l-199 -199l-50 49l199 199l-199 199l50 50l199 -199l199 199z" />
    <glyph glyph-name="Oslash" unicode="&#xd8;" horiz-adv-x="773" 
d="M680 697l-60 -79q95 -100 95 -268q0 -166 -89 -263.5t-238 -97.5q-119 0 -201 62l-55 -72l-39 29l58 75q-93 98 -93 263q0 167 91.5 265t245.5 98q110 0 189 -59l57 74zM624 348q0 124 -56 202l-332 -434q62 -57 153 -57q105 0 170 79.5t65 209.5zM387 640
q-106 0 -171.5 -80t-65.5 -210q0 -120 54 -197l332 433q-60 54 -149 54z" />
    <glyph glyph-name="Ugrave" unicode="&#xd9;" horiz-adv-x="704" 
d="M617 698v-404q0 -143 -66.5 -224t-202.5 -81q-260 0 -260 305v404h86v-392q0 -119 39.5 -183t138.5 -64q100 0 139.5 64t39.5 184v391h86zM215 892h93l85 -142h-60z" />
    <glyph glyph-name="Uacute" unicode="&#xda;" horiz-adv-x="704" 
d="M617 698v-404q0 -143 -66.5 -224t-202.5 -81q-260 0 -260 305v404h86v-392q0 -119 39.5 -183t138.5 -64q100 0 139.5 64t39.5 184v391h86zM486 893l-119 -143h-59l85 143h93z" />
    <glyph glyph-name="Ucircumflex" unicode="&#xdb;" horiz-adv-x="704" 
d="M617 698v-404q0 -143 -66.5 -224t-202.5 -81q-260 0 -260 305v404h86v-392q0 -119 39.5 -183t138.5 -64q100 0 139.5 64t39.5 184v391h86zM498 750h-71l-77 100l-82 -100h-68l110 145h82z" />
    <glyph glyph-name="Udieresis" unicode="&#xdc;" horiz-adv-x="704" 
d="M617 698v-404q0 -143 -66.5 -224t-202.5 -81q-260 0 -260 305v404h86v-392q0 -119 39.5 -183t138.5 -64q100 0 139.5 64t39.5 184v391h86zM300 871v-91h-82v91h82zM484 871v-91h-82v91h82z" />
    <glyph glyph-name="Yacute" unicode="&#xdd;" horiz-adv-x="643" 
d="M8 698h105l99 -153q35 -53 111 -178h2q37 63 111 178l98 153h102l-270 -402v-296h-86v294zM467 893l-119 -143h-59l85 143h93z" />
    <glyph glyph-name="Thorn" unicode="&#xde;" horiz-adv-x="568" 
d="M96 698h87v-106h68q63 0 110.5 -9t87 -31t60 -62.5t20.5 -99.5q0 -204 -278 -204h-68v-186h-87v698zM183 518v-260h59q102 0 151.5 29t49.5 102q0 71 -49.5 100t-152.5 29h-58z" />
    <glyph glyph-name="germandbls" unicode="&#xdf;" horiz-adv-x="603" 
d="M89 0v478q0 282 232 282q92 0 147 -51t55 -139q0 -60 -35.5 -108.5t-96.5 -61.5v-2q74 -6 121 -58.5t47 -134.5q0 -95 -63.5 -154.5t-166.5 -59.5q-45 0 -89 10l4 71q42 -13 84 -13q65 0 105.5 39.5t40.5 107.5q0 75 -47 114.5t-137 39.5h-20v68h16q73 0 113 37.5
t40 101.5q0 60 -32.5 95t-87.5 35q-83 0 -116 -60t-33 -171v-466h-81z" />
    <glyph glyph-name="agrave" unicode="&#xe0;" horiz-adv-x="549" 
d="M107 404l-5 73q71 43 167 43q102 0 149 -53.5t47 -146.5q0 -38 -1 -99.5t-1 -68.5q0 -98 6 -152h-74q-2 16 -2 42q0 19 2 47h-2q-50 -96 -170 -96q-80 0 -127.5 41t-47.5 110q0 80 69.5 122.5t199.5 42.5q38 0 71 -3v9q0 138 -132 138q-79 0 -149 -49zM389 248
q-26 2 -56 2q-199 0 -199 -106q0 -40 28.5 -64t76.5 -24q150 0 150 192zM259 579l-124 177h88l94 -177h-58z" />
    <glyph glyph-name="aacute" unicode="&#xe1;" horiz-adv-x="549" 
d="M107 404l-5 73q71 43 167 43q102 0 149 -53.5t47 -146.5q0 -38 -1 -99.5t-1 -68.5q0 -98 6 -152h-74q-2 16 -2 42q0 19 2 47h-2q-50 -96 -170 -96q-80 0 -127.5 41t-47.5 110q0 80 69.5 122.5t199.5 42.5q38 0 71 -3v9q0 138 -132 138q-79 0 -149 -49zM389 248
q-26 2 -56 2q-199 0 -199 -106q0 -40 28.5 -64t76.5 -24q150 0 150 192zM410 756l-124 -177h-58l94 177h88z" />
    <glyph glyph-name="acircumflex" unicode="&#xe2;" horiz-adv-x="549" 
d="M107 404l-5 73q71 43 167 43q102 0 149 -53.5t47 -146.5q0 -38 -1 -99.5t-1 -68.5q0 -98 6 -152h-74q-2 16 -2 42q0 19 2 47h-2q-50 -96 -170 -96q-80 0 -127.5 41t-47.5 110q0 80 69.5 122.5t199.5 42.5q38 0 71 -3v9q0 138 -132 138q-79 0 -149 -49zM389 248
q-26 2 -56 2q-199 0 -199 -106q0 -40 28.5 -64t76.5 -24q150 0 150 192zM430 579h-72l-77 132l-83 -132h-68l111 177h82z" />
    <glyph glyph-name="atilde" unicode="&#xe3;" horiz-adv-x="549" 
d="M107 404l-5 73q71 43 167 43q102 0 149 -53.5t47 -146.5q0 -38 -1 -99.5t-1 -68.5q0 -98 6 -152h-74q-2 16 -2 42q0 19 2 47h-2q-50 -96 -170 -96q-80 0 -127.5 41t-47.5 110q0 80 69.5 122.5t199.5 42.5q38 0 71 -3v9q0 138 -132 138q-79 0 -149 -49zM389 248
q-26 2 -56 2q-199 0 -199 -106q0 -40 28.5 -64t76.5 -24q150 0 150 192zM386 706h46q-6 -50 -28.5 -76.5t-57.5 -26.5q-31 0 -74 20q-46 21 -64 21q-35 0 -43 -46h-45q11 101 92 101q28 0 77 -21q42 -19 58 -19q33 0 39 47z" />
    <glyph glyph-name="adieresis" unicode="&#xe4;" horiz-adv-x="549" 
d="M107 404l-5 73q71 43 167 43q102 0 149 -53.5t47 -146.5q0 -38 -1 -99.5t-1 -68.5q0 -98 6 -152h-74q-2 16 -2 42q0 19 2 47h-2q-50 -96 -170 -96q-80 0 -127.5 41t-47.5 110q0 80 69.5 122.5t199.5 42.5q38 0 71 -3v9q0 138 -132 138q-79 0 -149 -49zM389 248
q-26 2 -56 2q-199 0 -199 -106q0 -40 28.5 -64t76.5 -24q150 0 150 192zM224 700v-85h-82v85h82zM408 700v-85h-82v85h82z" />
    <glyph glyph-name="aring" unicode="&#xe5;" horiz-adv-x="549" 
d="M107 404l-5 73q71 43 167 43q102 0 149 -53.5t47 -146.5q0 -38 -1 -99.5t-1 -68.5q0 -98 6 -152h-74q-2 16 -2 42q0 19 2 47h-2q-50 -96 -170 -96q-80 0 -127.5 41t-47.5 110q0 80 69.5 122.5t199.5 42.5q38 0 71 -3v9q0 138 -132 138q-79 0 -149 -49zM389 248
q-26 2 -56 2q-199 0 -199 -106q0 -40 28.5 -64t76.5 -24q150 0 150 192zM278 772q41 0 70.5 -29.5t29.5 -69.5q0 -43 -29.5 -72.5t-70.5 -29.5q-43 0 -73 29.5t-30 72.5q0 41 30 70t73 29zM277 733q-25 0 -43.5 -18t-18.5 -43q0 -26 18 -44t45 -18q25 0 42.5 18t17.5 45
q0 25 -18 42.5t-43 17.5z" />
    <glyph glyph-name="ae" unicode="&#xe6;" horiz-adv-x="877" 
d="M462 237q2 -84 51 -132t129 -48t148 37l3 -75q-64 -30 -156 -30q-164 0 -214 130h-2q-19 -57 -67 -93.5t-130 -36.5q-79 0 -127.5 40t-48.5 111q0 80 69 121.5t201 41.5q35 0 68 -3q0 68 -33 110.5t-99 42.5q-80 0 -147 -49l-5 73q70 43 165 43q126 0 169 -104
q57 104 181 104q100 0 155.5 -63t55.5 -186q0 -12 -2 -34h-364zM386 242q-26 2 -55 2q-198 0 -198 -104q0 -38 29 -62.5t75 -24.5q149 0 149 189zM464 299h284q0 77 -36 117.5t-98 40.5t-102.5 -42t-47.5 -116z" />
    <glyph glyph-name="ccedilla" unicode="&#xe7;" horiz-adv-x="455" 
d="M421 498l-6 -73q-46 20 -101 20q-79 0 -128 -52t-49 -136q0 -86 48.5 -139.5t129.5 -53.5q55 0 107 26l6 -74q-51 -22 -118 -22h-5l-11 -60q8 2 26 2q38 0 63 -19.5t25 -54.5q0 -44 -32.5 -68t-81.5 -24q-30 0 -56 6l5 37q20 -4 42 -4q64 0 64 48q0 43 -58 43
q-18 0 -40 -6l12 103q-99 13 -156 82.5t-57 174.5q0 115 71.5 188.5t187.5 73.5q65 0 112 -18z" />
    <glyph glyph-name="egrave" unicode="&#xe8;" horiz-adv-x="548" 
d="M497 237h-364q1 -84 50.5 -132t131.5 -48q75 0 144 37l3 -75q-68 -30 -151 -30q-124 0 -192.5 71.5t-68.5 197.5q0 119 65.5 190.5t171.5 71.5q100 0 156 -62.5t56 -185.5q0 -13 -2 -35zM135 300h284q0 78 -35.5 117.5t-98.5 39.5q-62 0 -103 -41.5t-47 -115.5zM272 579
l-124 177h88l94 -177h-58z" />
    <glyph glyph-name="eacute" unicode="&#xe9;" horiz-adv-x="548" 
d="M497 237h-364q1 -84 50.5 -132t131.5 -48q75 0 144 37l3 -75q-68 -30 -151 -30q-124 0 -192.5 71.5t-68.5 197.5q0 119 65.5 190.5t171.5 71.5q100 0 156 -62.5t56 -185.5q0 -13 -2 -35zM135 300h284q0 78 -35.5 117.5t-98.5 39.5q-62 0 -103 -41.5t-47 -115.5zM428 756
l-124 -177h-58l94 177h88z" />
    <glyph glyph-name="ecircumflex" unicode="&#xea;" horiz-adv-x="548" 
d="M497 237h-364q1 -84 50.5 -132t131.5 -48q75 0 144 37l3 -75q-68 -30 -151 -30q-124 0 -192.5 71.5t-68.5 197.5q0 119 65.5 190.5t171.5 71.5q100 0 156 -62.5t56 -185.5q0 -13 -2 -35zM135 300h284q0 78 -35.5 117.5t-98.5 39.5q-62 0 -103 -41.5t-47 -115.5zM438 579
h-72l-77 132l-83 -132h-68l111 177h82z" />
    <glyph glyph-name="edieresis" unicode="&#xeb;" horiz-adv-x="548" 
d="M497 237h-364q1 -84 50.5 -132t131.5 -48q75 0 144 37l3 -75q-68 -30 -151 -30q-124 0 -192.5 71.5t-68.5 197.5q0 119 65.5 190.5t171.5 71.5q100 0 156 -62.5t56 -185.5q0 -13 -2 -35zM135 300h284q0 78 -35.5 117.5t-98.5 39.5q-62 0 -103 -41.5t-47 -115.5zM239 700
v-85h-82v85h82zM423 700v-85h-82v85h82z" />
    <glyph glyph-name="igrave" unicode="&#xec;" horiz-adv-x="258" 
d="M170 509v-509h-82v509h82zM108 579l-124 177h88l94 -177h-58z" />
    <glyph glyph-name="iacute" unicode="&#xed;" horiz-adv-x="258" 
d="M170 509v-509h-82v509h82zM278 756l-124 -177h-58l94 177h88z" />
    <glyph glyph-name="icircumflex" unicode="&#xee;" horiz-adv-x="258" 
d="M170 509v-509h-82v509h82zM279 579h-72l-77 132l-83 -132h-68l111 177h82z" />
    <glyph glyph-name="idieresis" unicode="&#xef;" horiz-adv-x="258" 
d="M170 509v-509h-82v509h82zM80 700v-85h-82v85h82zM264 700v-85h-82v85h82z" />
    <glyph glyph-name="eth" unicode="&#xf0;" horiz-adv-x="605" 
d="M300 443q-73 0 -119 -55.5t-46 -139.5q0 -86 46 -139t123 -53t121.5 54t44.5 139q0 87 -46.5 140.5t-123.5 53.5zM556 269q0 -118 -67 -199t-186 -81q-112 0 -182.5 73t-70.5 186t69 186t177 73q91 0 149 -60h3q-13 45 -54.5 99t-93.5 89l-122 -71l-33 45l107 62
q-48 29 -113 46l52 54q66 -22 128 -62l91 57l42 -42l-84 -51q188 -150 188 -404z" />
    <glyph glyph-name="ntilde" unicode="&#xf1;" 
d="M166 421h2q60 99 173 99q100 0 142 -60t42 -168v-292h-82v260q0 97 -25 144.5t-96 47.5q-69 0 -110.5 -50.5t-41.5 -152.5v-249h-82v357q0 98 -5 152h79q4 -48 4 -88zM421 706h46q-6 -50 -28.5 -76.5t-57.5 -26.5q-31 0 -74 20q-46 21 -64 21q-35 0 -43 -46h-45
q11 101 92 101q27 0 77 -21q42 -19 58 -19q33 0 39 47z" />
    <glyph glyph-name="ograve" unicode="&#xf2;" 
d="M307 520q109 0 179 -75t70 -193q0 -117 -70.5 -190t-182.5 -73q-111 0 -182 73.5t-71 189.5q0 119 71.5 193.5t185.5 74.5zM301 453q-74 0 -119.5 -55.5t-45.5 -145.5q0 -89 46 -142.5t121 -53.5t121 54t46 143q0 90 -46.5 145t-122.5 55zM293 579l-124 177h88l94 -177
h-58z" />
    <glyph glyph-name="oacute" unicode="&#xf3;" 
d="M307 520q109 0 179 -75t70 -193q0 -117 -70.5 -190t-182.5 -73q-111 0 -182 73.5t-71 189.5q0 119 71.5 193.5t185.5 74.5zM301 453q-74 0 -119.5 -55.5t-45.5 -145.5q0 -89 46 -142.5t121 -53.5t121 54t46 143q0 90 -46.5 145t-122.5 55zM450 756l-124 -177h-58l94 177
h88z" />
    <glyph glyph-name="ocircumflex" unicode="&#xf4;" 
d="M307 520q109 0 179 -75t70 -193q0 -117 -70.5 -190t-182.5 -73q-111 0 -182 73.5t-71 189.5q0 119 71.5 193.5t185.5 74.5zM301 453q-74 0 -119.5 -55.5t-45.5 -145.5q0 -89 46 -142.5t121 -53.5t121 54t46 143q0 90 -46.5 145t-122.5 55zM456 579h-72l-77 132l-83 -132
h-68l111 177h82z" />
    <glyph glyph-name="otilde" unicode="&#xf5;" 
d="M307 520q109 0 179 -75t70 -193q0 -117 -70.5 -190t-182.5 -73q-111 0 -182 73.5t-71 189.5q0 119 71.5 193.5t185.5 74.5zM301 453q-74 0 -119.5 -55.5t-45.5 -145.5q0 -89 46 -142.5t121 -53.5t121 54t46 143q0 90 -46.5 145t-122.5 55zM413 706h46q-6 -50 -28.5 -76.5
t-57.5 -26.5q-31 0 -74 20q-46 21 -64 21q-35 0 -43 -46h-45q11 101 92 101q27 0 77 -21q42 -19 58 -19q33 0 39 47z" />
    <glyph glyph-name="odieresis" unicode="&#xf6;" 
d="M307 520q109 0 179 -75t70 -193q0 -117 -70.5 -190t-182.5 -73q-111 0 -182 73.5t-71 189.5q0 119 71.5 193.5t185.5 74.5zM301 453q-74 0 -119.5 -55.5t-45.5 -145.5q0 -89 46 -142.5t121 -53.5t121 54t46 143q0 90 -46.5 145t-122.5 55zM256 700v-85h-82v85h82z
M440 700v-85h-82v85h82z" />
    <glyph glyph-name="divide" unicode="&#xf7;" horiz-adv-x="577" 
d="M544 225h-510v67h510v-67zM339 111v-93h-91v93h91zM339 497v-93h-91v93h91z" />
    <glyph glyph-name="oslash" unicode="&#xf8;" 
d="M524 511l-44 -59q76 -78 76 -200q0 -117 -70.5 -190t-182.5 -73q-79 0 -140 39l-42 -57l-36 27l43 57q-78 75 -78 197q0 119 71.5 194t185.5 75q77 0 139 -41l42 56zM302 453q-74 0 -120 -55.5t-46 -145.5q0 -81 39 -134l226 302q-42 33 -99 33zM472 253q0 83 -40 135
l-225 -302q39 -30 97 -30q75 0 121.5 54t46.5 143z" />
    <glyph glyph-name="ugrave" unicode="&#xf9;" 
d="M440 88h-2q-60 -99 -173 -99q-100 0 -142 60t-42 168v292h82v-260q0 -97 25 -144.5t96 -47.5q69 0 110.5 50.5t41.5 152.5v249h82v-357q0 -98 5 -152h-79q-4 48 -4 88zM286 579l-124 177h88l94 -177h-58z" />
    <glyph glyph-name="uacute" unicode="&#xfa;" 
d="M440 88h-2q-60 -99 -173 -99q-100 0 -142 60t-42 168v292h82v-260q0 -97 25 -144.5t96 -47.5q69 0 110.5 50.5t41.5 152.5v249h82v-357q0 -98 5 -152h-79q-4 48 -4 88zM446 756l-124 -177h-58l94 177h88z" />
    <glyph glyph-name="ucircumflex" unicode="&#xfb;" 
d="M440 88h-2q-60 -99 -173 -99q-100 0 -142 60t-42 168v292h82v-260q0 -97 25 -144.5t96 -47.5q69 0 110.5 50.5t41.5 152.5v249h82v-357q0 -98 5 -152h-79q-4 48 -4 88zM456 579h-72l-77 132l-83 -132h-68l111 177h82z" />
    <glyph glyph-name="udieresis" unicode="&#xfc;" 
d="M440 88h-2q-60 -99 -173 -99q-100 0 -142 60t-42 168v292h82v-260q0 -97 25 -144.5t96 -47.5q69 0 110.5 50.5t41.5 152.5v249h82v-357q0 -98 5 -152h-79q-4 48 -4 88zM253 700v-85h-82v85h82zM437 700v-85h-82v85h82z" />
    <glyph glyph-name="yacute" unicode="&#xfd;" horiz-adv-x="486" 
d="M100 509l109 -322q15 -41 36 -122h2q20 68 38 122l109 322h82l-188 -525q-42 -116 -82 -161t-113 -45q-31 0 -56 8l6 65q24 -7 46 -7q41 0 64.5 28t49.5 109l-191 528h88zM395 756l-124 -177h-58l94 177h88z" />
    <glyph glyph-name="thorn" unicode="&#xfe;" horiz-adv-x="611" 
d="M168 91h-2q4 -40 4 -125v-176h-82v966h82v-203q0 -91 -3 -135h2q27 47 73 74.5t102 27.5q99 0 158 -74t59 -186q0 -119 -60.5 -195t-163.5 -76q-113 0 -169 102zM325 56q68 0 109 55.5t41 143.5q0 87 -39.5 142.5t-109.5 55.5q-66 0 -112 -57t-46 -142q0 -84 44.5 -141
t112.5 -57z" />
    <glyph glyph-name="ydieresis" unicode="&#xff;" horiz-adv-x="486" 
d="M100 509l109 -322q15 -41 36 -122h2q20 68 38 122l109 322h82l-188 -525q-42 -116 -82 -161t-113 -45q-31 0 -56 8l6 65q24 -7 46 -7q41 0 64.5 28t49.5 109l-191 528h88zM196 700v-85h-82v85h82zM380 700v-85h-82v85h82z" />
    <glyph glyph-name="Amacron" unicode="&#x100;" horiz-adv-x="709" 
d="M397 698l298 -698h-95l-75 182h-346l-74 -182h-92l295 698h89zM496 252l-96 240q-37 92 -49 133h-2q-16 -49 -49 -133l-94 -240h290zM485 846v-53h-270v53h270z" />
    <glyph glyph-name="amacron" unicode="&#x101;" horiz-adv-x="549" 
d="M107 404l-5 73q71 43 167 43q102 0 149 -53.5t47 -146.5q0 -38 -1 -99.5t-1 -68.5q0 -98 6 -152h-74q-2 16 -2 42q0 19 2 47h-2q-50 -96 -170 -96q-80 0 -127.5 41t-47.5 110q0 80 69.5 122.5t199.5 42.5q38 0 71 -3v9q0 138 -132 138q-79 0 -149 -49zM389 248
q-26 2 -56 2q-199 0 -199 -106q0 -40 28.5 -64t76.5 -24q150 0 150 192zM410 675v-53h-270v53h270z" />
    <glyph glyph-name="Abreve" unicode="&#x102;" horiz-adv-x="709" 
d="M397 698l298 -698h-95l-75 182h-346l-74 -182h-92l295 698h89zM496 252l-96 240q-37 92 -49 133h-2q-16 -49 -49 -133l-94 -240h290zM460 906h49q-4 -65 -46 -103.5t-109 -38.5q-70 0 -110.5 38t-45.5 104h50q16 -84 106 -84q86 0 106 84z" />
    <glyph glyph-name="abreve" unicode="&#x103;" horiz-adv-x="549" 
d="M107 404l-5 73q71 43 167 43q102 0 149 -53.5t47 -146.5q0 -38 -1 -99.5t-1 -68.5q0 -98 6 -152h-74q-2 16 -2 42q0 19 2 47h-2q-50 -96 -170 -96q-80 0 -127.5 41t-47.5 110q0 80 69.5 122.5t199.5 42.5q38 0 71 -3v9q0 138 -132 138q-79 0 -149 -49zM389 248
q-26 2 -56 2q-199 0 -199 -106q0 -40 28.5 -64t76.5 -24q150 0 150 192zM383 730h48q-5 -70 -47 -114t-108 -44q-69 0 -110 42t-46 116h49q9 -54 34.5 -77.5t72.5 -23.5q91 0 107 101z" />
    <glyph glyph-name="Aogonek" unicode="&#x104;" horiz-adv-x="709" 
d="M397 698l298 -698h-45q-42 -45 -58 -70t-16 -50q0 -50 52 -50q26 0 55 13l7 -39q-36 -16 -76 -16q-43 0 -71.5 20t-28.5 60q0 33 20.5 62t69.5 70h-4l-75 182h-346l-74 -182h-92l295 698h89zM496 252l-96 240q-37 92 -49 133h-2q-16 -49 -49 -133l-94 -240h290z" />
    <glyph glyph-name="aogonek" unicode="&#x105;" horiz-adv-x="549" 
d="M107 404l-5 73q71 43 167 43q102 0 149 -53.5t47 -146.5q0 -38 -1 -99.5t-1 -68.5q0 -98 6 -152h-29q-42 -45 -58 -70t-16 -50q0 -50 52 -50q26 0 55 13l7 -39q-36 -16 -76 -16q-43 0 -71.5 20t-28.5 60q0 33 21 62.5t70 70.5q-2 16 -2 41q0 19 2 47h-2q-50 -96 -170 -96
q-80 0 -127.5 41t-47.5 110q0 80 69.5 122.5t199.5 42.5q38 0 71 -3v9q0 138 -132 138q-79 0 -149 -49zM389 248q-26 2 -56 2q-199 0 -199 -106q0 -40 28.5 -64t76.5 -24q150 0 150 192z" />
    <glyph glyph-name="Cacute" unicode="&#x106;" horiz-adv-x="613" 
d="M577 680l-9 -80q-60 31 -145 31q-123 0 -200.5 -78.5t-77.5 -201.5q0 -127 80 -204.5t207 -77.5q77 0 141 27l6 -81q-59 -22 -148 -22q-169 0 -272.5 95.5t-103.5 262.5q0 155 104.5 254.5t265.5 99.5q91 0 152 -25zM548 893l-119 -143h-59l85 143h93z" />
    <glyph glyph-name="cacute" unicode="&#x107;" horiz-adv-x="455" 
d="M421 498l-6 -73q-46 20 -101 20q-79 0 -128 -52t-49 -136q0 -86 48.5 -139.5t129.5 -53.5q55 0 107 26l6 -74q-51 -22 -118 -22q-119 0 -189.5 71t-70.5 189q0 115 71.5 188.5t187.5 73.5q65 0 112 -18zM444 756l-124 -177h-58l94 177h88z" />
    <glyph glyph-name="Ccircumflex" unicode="&#x108;" horiz-adv-x="613" 
d="M577 680l-9 -80q-60 31 -145 31q-123 0 -200.5 -78.5t-77.5 -201.5q0 -127 80 -204.5t207 -77.5q77 0 141 27l6 -81q-59 -22 -148 -22q-169 0 -272.5 95.5t-103.5 262.5q0 155 104.5 254.5t265.5 99.5q91 0 152 -25zM545 750h-71l-77 100l-82 -100h-68l110 145h82z" />
    <glyph glyph-name="ccircumflex" unicode="&#x109;" horiz-adv-x="455" 
d="M421 498l-6 -73q-46 20 -101 20q-79 0 -128 -52t-49 -136q0 -86 48.5 -139.5t129.5 -53.5q55 0 107 26l6 -74q-51 -22 -118 -22q-119 0 -189.5 71t-70.5 189q0 115 71.5 188.5t187.5 73.5q65 0 112 -18zM429 579h-72l-77 132l-83 -132h-68l111 177h82z" />
    <glyph glyph-name="Cdotaccent" unicode="&#x10a;" horiz-adv-x="613" 
d="M577 680l-9 -80q-60 31 -145 31q-123 0 -200.5 -78.5t-77.5 -201.5q0 -127 80 -204.5t207 -77.5q77 0 141 27l6 -81q-59 -22 -148 -22q-169 0 -272.5 95.5t-103.5 262.5q0 155 104.5 254.5t265.5 99.5q91 0 152 -25zM462 872v-96h-93v96h93z" />
    <glyph glyph-name="cdotaccent" unicode="&#x10b;" horiz-adv-x="455" 
d="M421 498l-6 -73q-46 20 -101 20q-79 0 -128 -52t-49 -136q0 -86 48.5 -139.5t129.5 -53.5q55 0 107 26l6 -74q-51 -22 -118 -22q-119 0 -189.5 71t-70.5 189q0 115 71.5 188.5t187.5 73.5q65 0 112 -18zM347 693v-95h-93v95h93z" />
    <glyph glyph-name="Ccaron" unicode="&#x10c;" horiz-adv-x="613" 
d="M577 680l-9 -80q-60 31 -145 31q-123 0 -200.5 -78.5t-77.5 -201.5q0 -127 80 -204.5t207 -77.5q77 0 141 27l6 -81q-59 -22 -148 -22q-169 0 -272.5 95.5t-103.5 262.5q0 155 104.5 254.5t265.5 99.5q91 0 152 -25zM258 894h71l78 -101l81 101h68l-110 -145h-82z" />
    <glyph glyph-name="ccaron" unicode="&#x10d;" horiz-adv-x="455" 
d="M421 498l-6 -73q-46 20 -101 20q-79 0 -128 -52t-49 -136q0 -86 48.5 -139.5t129.5 -53.5q55 0 107 26l6 -74q-51 -22 -118 -22q-119 0 -189.5 71t-70.5 189q0 115 71.5 188.5t187.5 73.5q65 0 112 -18zM141 755h71l78 -133l82 133h68l-110 -177h-83z" />
    <glyph glyph-name="Dcaron" unicode="&#x10e;" horiz-adv-x="715" 
d="M97 698h147q91 0 164 -19.5t130 -60.5t88 -110t31 -161q0 -90 -32.5 -158.5t-90 -108.5t-130.5 -60t-160 -20h-147v698zM183 625v-552h52q333 0 333 275q0 78 -24.5 133t-70.5 86t-104 44.5t-134 13.5h-52zM170 955h71l78 -133l82 133h68l-110 -177h-83z" />
    <glyph glyph-name="dcaron" unicode="&#x10f;" horiz-adv-x="611" 
d="M523 756v-602q0 -100 5 -154h-76q-3 42 -3 93h-2q-60 -104 -175 -104q-103 0 -162.5 72t-59.5 189q0 120 60.5 195t162.5 75q56 0 101 -25t68 -69h2q-3 43 -3 127v203h82zM286 453q-67 0 -108.5 -56t-41.5 -145q0 -84 41 -140t109 -56q66 0 111 56t45 140q0 87 -43.5 144
t-112.5 57zM671 756l-41 -177h-49l16 177h74z" />
    <glyph glyph-name="Dcroat" unicode="&#x110;" horiz-adv-x="715" 
d="M96 698h148q91 0 164 -19.5t130 -60.5t88 -110t31 -161q0 -90 -32.5 -158.5t-90 -108.5t-130.5 -60t-160 -20h-148v330h-67v44h67v324zM325 374v-44h-142v-257h52q333 0 333 275q0 78 -24.5 133t-70.5 86t-104 44.5t-134 13.5h-52v-251h142z" />
    <glyph glyph-name="dcroat" unicode="&#x111;" horiz-adv-x="611" 
d="M523 756v-90h62v-46h-62v-466q0 -100 5 -154h-76q-3 42 -3 93h-2q-60 -104 -175 -104q-103 0 -162.5 72t-59.5 189q0 120 60.5 195t162.5 75q56 0 101 -25t68 -69h2q-3 43 -3 127v67h-132v46h132v90h82zM286 453q-67 0 -108.5 -56t-41.5 -145q0 -84 41 -140t109 -56
q66 0 111 56t45 140q0 87 -43.5 144t-112.5 57z" />
    <glyph glyph-name="Emacron" unicode="&#x112;" horiz-adv-x="545" 
d="M478 73v-73h-381v698h373v-73h-287v-228h268v-72h-268v-252h295zM416 846v-53h-270v53h270z" />
    <glyph glyph-name="emacron" unicode="&#x113;" horiz-adv-x="548" 
d="M497 237h-364q1 -84 50.5 -132t131.5 -48q75 0 144 37l3 -75q-68 -30 -151 -30q-124 0 -192.5 71.5t-68.5 197.5q0 119 65.5 190.5t171.5 71.5q100 0 156 -62.5t56 -185.5q0 -13 -2 -35zM135 300h284q0 78 -35.5 117.5t-98.5 39.5q-62 0 -103 -41.5t-47 -115.5zM420 675
v-53h-270v53h270z" />
    <glyph glyph-name="Ebreve" unicode="&#x114;" horiz-adv-x="545" 
d="M478 73v-73h-381v698h373v-73h-287v-228h268v-72h-268v-252h295zM389 906h49q-4 -65 -46 -103.5t-109 -38.5q-70 0 -110.5 38t-45.5 104h50q17 -84 106 -84q87 0 106 84z" />
    <glyph glyph-name="ebreve" unicode="&#x115;" horiz-adv-x="548" 
d="M497 237h-364q1 -84 50.5 -132t131.5 -48q75 0 144 37l3 -75q-68 -30 -151 -30q-124 0 -192.5 71.5t-68.5 197.5q0 119 65.5 190.5t171.5 71.5q100 0 156 -62.5t56 -185.5q0 -13 -2 -35zM135 300h284q0 78 -35.5 117.5t-98.5 39.5q-62 0 -103 -41.5t-47 -115.5zM394 730
h48q-5 -70 -47 -114t-108 -44q-69 0 -110 42t-46 116h49q9 -54 34.5 -77.5t72.5 -23.5q91 0 107 101z" />
    <glyph glyph-name="Edotaccent" unicode="&#x116;" horiz-adv-x="545" 
d="M478 73v-73h-381v698h373v-73h-287v-228h268v-72h-268v-252h295zM343 872v-96h-93v96h93z" />
    <glyph glyph-name="edotaccent" unicode="&#x117;" horiz-adv-x="548" 
d="M497 237h-364q1 -84 50.5 -132t131.5 -48q75 0 144 37l3 -75q-68 -30 -151 -30q-124 0 -192.5 71.5t-68.5 197.5q0 119 65.5 190.5t171.5 71.5q100 0 156 -62.5t56 -185.5q0 -13 -2 -35zM135 300h284q0 78 -35.5 117.5t-98.5 39.5q-62 0 -103 -41.5t-47 -115.5zM340 693
v-95h-93v95h93z" />
    <glyph glyph-name="Eogonek" unicode="&#x118;" horiz-adv-x="545" 
d="M478 73v-73h-46q-42 -45 -58 -70t-16 -50q0 -50 52 -50q26 0 55 13l7 -39q-36 -16 -76 -16q-43 0 -71.5 20t-28.5 60q0 33 20.5 62t69.5 70h-289v698h373v-73h-287v-228h268v-72h-268v-252h295z" />
    <glyph glyph-name="eogonek" unicode="&#x119;" horiz-adv-x="548" 
d="M497 237h-364q1 -84 50.5 -132t131.5 -48q75 0 144 37l3 -71q-65 -30 -93 -69t-28 -74q0 -50 52 -50q26 0 55 13l7 -39q-36 -16 -76 -16q-43 0 -71.5 20t-28.5 60q0 61 82 125v2q-24 -6 -50 -6q-124 0 -192.5 71.5t-68.5 197.5q0 119 65.5 190.5t171.5 71.5
q100 0 156 -62.5t56 -185.5q0 -13 -2 -35zM135 300h284q0 78 -35.5 117.5t-98.5 39.5q-62 0 -103 -41.5t-47 -115.5z" />
    <glyph glyph-name="Ecaron" unicode="&#x11a;" horiz-adv-x="545" 
d="M478 73v-73h-381v698h373v-73h-287v-228h268v-72h-268v-252h295zM132 894h71l78 -101l81 101h68l-110 -145h-82z" />
    <glyph glyph-name="ecaron" unicode="&#x11b;" horiz-adv-x="548" 
d="M497 237h-364q1 -84 50.5 -132t131.5 -48q75 0 144 37l3 -75q-68 -30 -151 -30q-124 0 -192.5 71.5t-68.5 197.5q0 119 65.5 190.5t171.5 71.5q100 0 156 -62.5t56 -185.5q0 -13 -2 -35zM135 300h284q0 78 -35.5 117.5t-98.5 39.5q-62 0 -103 -41.5t-47 -115.5zM143 755
h71l78 -133l82 133h68l-110 -177h-83z" />
    <glyph glyph-name="Gcircumflex" unicode="&#x11c;" horiz-adv-x="719" 
d="M624 671l-7 -83q-82 44 -178 44q-129 0 -210.5 -77.5t-81.5 -203.5q0 -127 79 -205t205 -78q65 0 117 15v222h-158v70h244v-349q-108 -33 -203 -33q-170 0 -273 99t-103 261q0 156 107 254t275 98q106 0 187 -34zM566 750h-71l-77 100l-82 -100h-68l110 145h82z" />
    <glyph glyph-name="gcircumflex" unicode="&#x11d;" horiz-adv-x="608" 
d="M286 453q-66 0 -108 -56t-42 -142q0 -85 40.5 -137t108.5 -52t112 54t44 137q0 84 -43.5 140t-111.5 56zM445 509h75v-485q0 -111 -60 -178.5t-184 -67.5q-100 0 -186 34l8 81q85 -46 175 -46q169 0 169 188q0 44 2 64h-2q-55 -99 -170 -99q-100 0 -161 69.5t-61 183.5
q0 119 63 193t165 74q114 0 167 -94h2q-2 32 -2 83zM439 579h-72l-77 132l-83 -132h-68l111 177h82z" />
    <glyph glyph-name="Gbreve" unicode="&#x11e;" horiz-adv-x="719" 
d="M624 671l-7 -83q-82 44 -178 44q-129 0 -210.5 -77.5t-81.5 -203.5q0 -127 79 -205t205 -78q65 0 117 15v222h-158v70h244v-349q-108 -33 -203 -33q-170 0 -273 99t-103 261q0 156 107 254t275 98q106 0 187 -34zM521 906h49q-4 -65 -46 -103.5t-109 -38.5
q-70 0 -110.5 38t-45.5 104h50q17 -84 106 -84q87 0 106 84z" />
    <glyph glyph-name="gbreve" unicode="&#x11f;" horiz-adv-x="608" 
d="M286 453q-66 0 -108 -56t-42 -142q0 -85 40.5 -137t108.5 -52t112 54t44 137q0 84 -43.5 140t-111.5 56zM445 509h75v-485q0 -111 -60 -178.5t-184 -67.5q-100 0 -186 34l8 81q85 -46 175 -46q169 0 169 188q0 44 2 64h-2q-55 -99 -170 -99q-100 0 -161 69.5t-61 183.5
q0 119 63 193t165 74q114 0 167 -94h2q-2 32 -2 83zM399 730h48q-5 -70 -47 -114t-108 -44q-69 0 -110 42t-46 116h49q9 -54 34.5 -77.5t72.5 -23.5q91 0 107 101z" />
    <glyph glyph-name="Gdotaccent" unicode="&#x120;" horiz-adv-x="719" 
d="M624 671l-7 -83q-82 44 -178 44q-129 0 -210.5 -77.5t-81.5 -203.5q0 -127 79 -205t205 -78q65 0 117 15v222h-158v70h244v-349q-108 -33 -203 -33q-170 0 -273 99t-103 261q0 156 107 254t275 98q106 0 187 -34zM472 872v-96h-93v96h93z" />
    <glyph glyph-name="gdotaccent" unicode="&#x121;" horiz-adv-x="608" 
d="M286 453q-66 0 -108 -56t-42 -142q0 -85 40.5 -137t108.5 -52t112 54t44 137q0 84 -43.5 140t-111.5 56zM445 509h75v-485q0 -111 -60 -178.5t-184 -67.5q-100 0 -186 34l8 81q85 -46 175 -46q169 0 169 188q0 44 2 64h-2q-55 -99 -170 -99q-100 0 -161 69.5t-61 183.5
q0 119 63 193t165 74q114 0 167 -94h2q-2 32 -2 83zM340 693v-95h-93v95h93z" />
    <glyph glyph-name="Gcommaaccent" unicode="&#x122;" horiz-adv-x="719" 
d="M624 671l-7 -83q-82 44 -178 44q-129 0 -210.5 -77.5t-81.5 -203.5q0 -127 79 -205t205 -78q65 0 117 15v222h-158v70h244v-349q-108 -33 -203 -33q-170 0 -273 99t-103 261q0 156 107 254t275 98q106 0 187 -34zM477 -62l-80 -168h-58l51 168h87z" />
    <glyph glyph-name="gcommaaccent" unicode="&#x123;" horiz-adv-x="608" 
d="M286 453q-66 0 -108 -56t-42 -142q0 -85 40.5 -137t108.5 -52t112 54t44 137q0 84 -43.5 140t-111.5 56zM445 509h75v-485q0 -111 -60 -178.5t-184 -67.5q-100 0 -186 34l8 81q85 -46 175 -46q169 0 169 188q0 44 2 64h-2q-55 -99 -170 -99q-100 0 -161 69.5t-61 183.5
q0 119 63 193t165 74q114 0 167 -94h2q-2 32 -2 83zM244 579l79 177h62l-57 -177h-84z" />
    <glyph glyph-name="Hcircumflex" unicode="&#x124;" horiz-adv-x="716" 
d="M619 698v-698h-86v325h-350v-325h-86v698h86v-299h350v299h86zM506 750h-71l-77 100l-82 -100h-68l110 145h82z" />
    <glyph glyph-name="hcircumflex" unicode="&#x125;" horiz-adv-x="607" 
d="M170 756v-196q0 -99 -3 -140h2q60 100 173 100q99 0 141 -60t42 -168v-292h-82v260q0 95 -24 143.5t-96 48.5q-69 0 -111 -50.5t-42 -152.5v-249h-82v756h82zM448 790h-71l-77 100l-82 -100h-68l110 145h82z" />
    <glyph glyph-name="Hbar" unicode="&#x126;" horiz-adv-x="716" 
d="M669 571v-46h-50v-525h-86v325h-350v-325h-86v525h-51v46h51v127h86v-127h350v127h86v-127h50zM183 399h350v126h-350v-126z" />
    <glyph glyph-name="hbar" unicode="&#x127;" horiz-adv-x="607" 
d="M170 756v-90h138v-46h-138v-60q0 -99 -3 -140h2q60 100 173 100q99 0 141 -60t42 -168v-292h-82v260q0 95 -24 143.5t-96 48.5q-69 0 -111 -50.5t-42 -152.5v-249h-82v620h-56v46h56v90h82z" />
    <glyph glyph-name="Itilde" unicode="&#x128;" horiz-adv-x="280" 
d="M183 698v-698h-86v698h86zM257 875h47q-5 -50 -28 -77t-60 -27q-30 0 -79 21q-50 22 -69 22q-34 0 -43 -46h-47q5 49 29.5 76t65.5 27q27 0 81 -23q43 -19 61 -19q36 0 42 46z" />
    <glyph glyph-name="itilde" unicode="&#x129;" horiz-adv-x="258" 
d="M170 509v-509h-82v509h82zM240 706h46q-6 -50 -28.5 -76.5t-57.5 -26.5q-31 0 -74 20q-46 21 -64 21q-35 0 -43 -46h-45q11 101 92 101q28 0 77 -21q42 -19 58 -19q33 0 39 47z" />
    <glyph glyph-name="Imacron" unicode="&#x12a;" horiz-adv-x="280" 
d="M183 698v-698h-86v698h86zM275 846v-53h-270v53h270z" />
    <glyph glyph-name="imacron" unicode="&#x12b;" horiz-adv-x="258" 
d="M170 509v-509h-82v509h82zM265 675v-53h-270v53h270z" />
    <glyph glyph-name="Ibreve" unicode="&#x12c;" horiz-adv-x="280" 
d="M183 698v-698h-86v698h86zM248 906h49q-4 -65 -46 -103.5t-109 -38.5q-70 0 -110.5 38t-45.5 104h50q16 -84 106 -84q86 0 106 84z" />
    <glyph glyph-name="ibreve" unicode="&#x12d;" horiz-adv-x="258" 
d="M170 509v-509h-82v509h82zM238 730h48q-5 -70 -47 -114t-108 -44q-69 0 -110 42t-46 116h49q9 -54 34.5 -77.5t72.5 -23.5q91 0 107 101z" />
    <glyph glyph-name="Iogonek" unicode="&#x12e;" horiz-adv-x="280" 
d="M183 698v-698h-23q-42 -45 -58 -70t-16 -50q0 -50 52 -50q26 0 55 13l7 -39q-36 -16 -76 -16q-43 0 -71.5 20t-28.5 60q0 33 20.5 62t69.5 70h-17v698h86z" />
    <glyph glyph-name="iogonek" unicode="&#x12f;" horiz-adv-x="258" 
d="M170 509v-509h-12q-42 -45 -58 -70t-16 -50q0 -50 52 -50q26 0 55 13l7 -39q-36 -16 -76 -16q-43 0 -71.5 20t-28.5 60q0 33 20.5 62t69.5 70h-24v509h82zM175 707v-94h-92v94h92z" />
    <glyph glyph-name="Idotaccent" unicode="&#x130;" horiz-adv-x="280" 
d="M183 698v-698h-86v698h86zM188 872v-96h-93v96h93z" />
    <glyph glyph-name="dotlessi" unicode="&#x131;" horiz-adv-x="258" 
d="M170 509v-509h-82v509h82z" />
    <glyph glyph-name="Jcircumflex" unicode="&#x134;" horiz-adv-x="372" 
d="M23 2v75q36 -13 66 -13q60 0 83.5 33t23.5 111v490h86v-512q0 -89 -43 -142.5t-134 -53.5q-47 0 -82 12zM384 750h-71l-77 100l-82 -100h-68l110 145h82z" />
    <glyph glyph-name="jcircumflex" unicode="&#x135;" horiz-adv-x="258" 
d="M170 509v-547q0 -184 -147 -184q-20 0 -42 5v68q14 -3 30 -3q43 0 60 29t17 94v538h82zM278 579h-72l-77 132l-83 -132h-68l111 177h82z" />
    <glyph glyph-name="Kcommaaccent" unicode="&#x136;" horiz-adv-x="642" 
d="M181 353v-353h-84v698h84v-317h2q83 92 136 145l168 172h115l-334 -328l363 -370h-124l-214 228q-50 55 -110 125h-2zM381 -72l-80 -168h-58l51 168h87z" />
    <glyph glyph-name="kcommaaccent" unicode="&#x137;" horiz-adv-x="528" 
d="M415 0l-153 163q-47 50 -90 105h-2v-268h-82v756h82v-462h2q40 46 94 96l125 119h109l-250 -223l275 -286h-110zM320 -62l-80 -168h-58l51 168h87z" />
    <glyph glyph-name="kgreenlandic" unicode="&#x138;" horiz-adv-x="528" 
d="M415 0l-153 163q-47 50 -90 105h-2v-268h-82v509h82v-215h2q45 51 93 96l126 119h109l-250 -223l275 -286h-110z" />
    <glyph glyph-name="Lacute" unicode="&#x139;" horiz-adv-x="493" 
d="M183 698v-625h292v-73h-378v698h86zM286 893l-119 -143h-59l85 143h93z" />
    <glyph glyph-name="lacute" unicode="&#x13a;" horiz-adv-x="258" 
d="M170 756v-756h-82v756h82zM275 933l-119 -143h-59l85 143h93z" />
    <glyph glyph-name="Lcommaaccent" unicode="&#x13b;" horiz-adv-x="493" 
d="M183 698v-625h292v-73h-378v698h86zM329 -62l-80 -168h-58l51 168h87z" />
    <glyph glyph-name="lcommaaccent" unicode="&#x13c;" horiz-adv-x="258" 
d="M170 756v-756h-82v756h82zM179 -62l-80 -168h-58l51 168h87z" />
    <glyph glyph-name="Lcaron" unicode="&#x13d;" horiz-adv-x="493" 
d="M183 698v-625h292v-73h-378v698h86zM349 756l-41 -177h-49l16 177h74z" />
    <glyph glyph-name="lcaron" unicode="&#x13e;" horiz-adv-x="258" 
d="M170 756v-756h-82v756h82zM321 756l-41 -177h-49l16 177h74z" />
    <glyph glyph-name="Ldot" unicode="&#x13f;" horiz-adv-x="514" 
d="M183 698v-625h292v-73h-378v698h86zM452 433v-95h-93v95h93z" />
    <glyph glyph-name="ldot" unicode="&#x140;" horiz-adv-x="351" 
d="M170 756v-756h-82v756h82zM353 433v-95h-93v95h93z" />
    <glyph glyph-name="Lslash" unicode="&#x141;" horiz-adv-x="493" 
d="M308 534v-53l-125 -83v-325h292v-73h-379v349l-70 -47v53l70 46v297h87v-247z" />
    <glyph glyph-name="lslash" unicode="&#x142;" horiz-adv-x="268" 
d="M252 569v-54l-77 -61v-454h-82v400l-77 -61v54l77 60v303h82v-248z" />
    <glyph glyph-name="Nacute" unicode="&#x143;" horiz-adv-x="730" 
d="M549 318v380h84v-698h-114l-251 449q-59 104 -90 174h-2q5 -72 5 -196v-427h-84v698h129l244 -440q42 -76 83 -168h2q-6 98 -6 228zM501 893l-119 -143h-59l85 143h93z" />
    <glyph glyph-name="nacute" unicode="&#x144;" 
d="M166 421h2q60 99 173 99q100 0 142 -60t42 -168v-292h-82v260q0 97 -25 144.5t-96 47.5q-69 0 -110.5 -50.5t-41.5 -152.5v-249h-82v357q0 98 -5 152h79q4 -48 4 -88zM456 756l-124 -177h-58l94 177h88z" />
    <glyph glyph-name="Ncommaaccent" unicode="&#x145;" horiz-adv-x="730" 
d="M549 318v380h84v-698h-114l-251 449q-59 104 -90 174h-2q5 -72 5 -196v-427h-84v698h129l244 -440q42 -76 83 -168h2q-6 98 -6 228zM413 -62l-80 -168h-58l51 168h87z" />
    <glyph glyph-name="ncommaaccent" unicode="&#x146;" 
d="M166 421h2q60 99 173 99q100 0 142 -60t42 -168v-292h-82v260q0 97 -25 144.5t-96 47.5q-69 0 -110.5 -50.5t-41.5 -152.5v-249h-82v357q0 98 -5 152h79q4 -48 4 -88zM357 -62l-80 -168h-58l51 168h87z" />
    <glyph glyph-name="Ncaron" unicode="&#x147;" horiz-adv-x="730" 
d="M549 318v380h84v-698h-114l-251 449q-59 104 -90 174h-2q5 -72 5 -196v-427h-84v698h129l244 -440q42 -76 83 -168h2q-6 98 -6 228zM221 894h71l78 -101l81 101h68l-110 -145h-82z" />
    <glyph glyph-name="ncaron" unicode="&#x148;" 
d="M166 421h2q60 99 173 99q100 0 142 -60t42 -168v-292h-82v260q0 97 -25 144.5t-96 47.5q-69 0 -110.5 -50.5t-41.5 -152.5v-249h-82v357q0 98 -5 152h79q4 -48 4 -88zM161 755h71l78 -133l82 133h68l-110 -177h-83z" />
    <glyph glyph-name="Eng" unicode="&#x14a;" horiz-adv-x="730" 
d="M552 315v383h81v-736q0 -184 -146 -184q-20 0 -42 5v68q14 -3 30 -3q43 0 60 29t17 94v29h-31l-253 452q-64 112 -91 174h-2q5 -72 5 -196v-430h-83v698h126l245 -441q64 -116 88 -170h2q-6 98 -6 228z" />
    <glyph glyph-name="eng" unicode="&#x14b;" 
d="M165 421h2q60 99 173 99q100 0 142 -60t42 -168v-330q0 -184 -146 -184q-20 0 -42 5v68q14 -3 30 -3q43 0 60 29t17 94v289q0 97 -25.5 144.5t-96.5 47.5q-69 0 -111 -51t-42 -152v-249h-81v357q0 98 -5 152h79q4 -48 4 -88z" />
    <glyph glyph-name="Omacron" unicode="&#x14c;" horiz-adv-x="773" 
d="M395 709q145 0 232.5 -98.5t87.5 -260.5q0 -166 -89 -263.5t-238 -97.5q-150 0 -240 97.5t-90 259.5q0 167 91.5 265t245.5 98zM386 640q-106 0 -171.5 -80t-65.5 -210q0 -132 65.5 -211.5t173.5 -79.5q105 0 170 79.5t65 209.5q0 135 -64 213.5t-173 78.5zM518 846v-53
h-270v53h270z" />
    <glyph glyph-name="omacron" unicode="&#x14d;" 
d="M307 520q109 0 179 -75t70 -193q0 -117 -70.5 -190t-182.5 -73q-111 0 -182 73.5t-71 189.5q0 119 71.5 193.5t185.5 74.5zM301 453q-74 0 -119.5 -55.5t-45.5 -145.5q0 -89 46 -142.5t121 -53.5t121 54t46 143q0 90 -46.5 145t-122.5 55zM438 675v-53h-270v53h270z" />
    <glyph glyph-name="Obreve" unicode="&#x14e;" horiz-adv-x="773" 
d="M395 709q145 0 232.5 -98.5t87.5 -260.5q0 -166 -89 -263.5t-238 -97.5q-150 0 -240 97.5t-90 259.5q0 167 91.5 265t245.5 98zM386 640q-106 0 -171.5 -80t-65.5 -210q0 -132 65.5 -211.5t173.5 -79.5q105 0 170 79.5t65 209.5q0 135 -64 213.5t-173 78.5zM490 906h49
q-4 -65 -46 -103.5t-109 -38.5q-70 0 -110.5 38t-45.5 104h50q16 -84 106 -84q86 0 106 84z" />
    <glyph glyph-name="obreve" unicode="&#x14f;" 
d="M307 520q109 0 179 -75t70 -193q0 -117 -70.5 -190t-182.5 -73q-111 0 -182 73.5t-71 189.5q0 119 71.5 193.5t185.5 74.5zM301 453q-74 0 -119.5 -55.5t-45.5 -145.5q0 -89 46 -142.5t121 -53.5t121 54t46 143q0 90 -46.5 145t-122.5 55zM410 730h48q-5 -70 -47 -114
t-108 -44q-69 0 -110 42t-46 116h49q9 -54 34.5 -77.5t72.5 -23.5q91 0 107 101z" />
    <glyph glyph-name="Ohungarumlaut" unicode="&#x150;" horiz-adv-x="773" 
d="M395 709q145 0 232.5 -98.5t87.5 -260.5q0 -166 -89 -263.5t-238 -97.5q-150 0 -240 97.5t-90 259.5q0 167 91.5 265t245.5 98zM386 640q-106 0 -171.5 -80t-65.5 -210q0 -132 65.5 -211.5t173.5 -79.5q105 0 170 79.5t65 209.5q0 135 -64 213.5t-173 78.5zM453 895
l-102 -145h-57l71 145h88zM598 895l-113 -145h-58l80 145h91z" />
    <glyph glyph-name="ohungarumlaut" unicode="&#x151;" 
d="M307 520q109 0 179 -75t70 -193q0 -117 -70.5 -190t-182.5 -73q-111 0 -182 73.5t-71 189.5q0 119 71.5 193.5t185.5 74.5zM301 453q-74 0 -119.5 -55.5t-45.5 -145.5q0 -89 46 -142.5t121 -53.5t121 54t46 143q0 90 -46.5 145t-122.5 55zM373 756l-112 -177h-55l84 177
h83zM521 756l-123 -177h-57l93 177h87z" />
    <glyph glyph-name="OE" unicode="&#x152;" horiz-adv-x="938" 
d="M871 73v-73h-268q-27 0 -78 -2t-80 -2q-181 0 -285 92t-104 263q0 160 106 255t286 95q20 0 67.5 -1.5t66.5 -1.5h280v-75h-279v-226h261v-72h-261v-252h288zM499 622q-32 3 -63 3q-136 0 -213 -73t-77 -201q0 -132 80.5 -206t223.5 -74q27 0 49 4v547z" />
    <glyph glyph-name="oe" unicode="&#x153;" horiz-adv-x="956" 
d="M298 453q-73 0 -118 -55.5t-45 -145.5q0 -89 45 -142.5t121 -53.5q74 0 119 54t45 143q0 90 -45.5 145t-121.5 55zM543 299h284q0 78 -36 118t-98 40q-63 0 -103.5 -41.5t-46.5 -116.5zM715 -11q-152 0 -212 115q-64 -115 -204 -115q-110 0 -179.5 73.5t-69.5 189.5
q0 119 70 193.5t183 74.5q136 0 198 -113q60 113 194 113q100 0 156 -63t56 -186q0 -13 -2 -35h-364q4 -83 51 -131t125 -48q82 0 152 41l3 -75q-67 -34 -157 -34z" />
    <glyph glyph-name="Racute" unicode="&#x154;" 
d="M97 0v698h169q257 0 257 -180q0 -67 -41 -108.5t-114 -57.5v-2q33 -11 54.5 -33.5t38.5 -59.5l119 -257h-96l-101 228q-24 53 -53.5 71.5t-94.5 18.5h-52v-318h-86zM183 625v-236h63q189 0 189 122q0 63 -46.5 88.5t-142.5 25.5h-63zM430 893l-119 -143h-59l85 143h93z
" />
    <glyph glyph-name="racute" unicode="&#x155;" horiz-adv-x="373" 
d="M167 417h2q19 46 57 74.5t85 28.5q27 0 46 -6v-75q-20 6 -47 6q-65 0 -102.5 -53.5t-37.5 -145.5v-246h-82v357q0 98 -5 152h80q4 -36 4 -92zM350 756l-124 -177h-58l94 177h88z" />
    <glyph glyph-name="Rcommaaccent" unicode="&#x156;" 
d="M97 0v698h169q257 0 257 -180q0 -67 -41 -108.5t-114 -57.5v-2q33 -11 54.5 -33.5t38.5 -59.5l119 -257h-96l-101 228q-24 53 -53.5 71.5t-94.5 18.5h-52v-318h-86zM183 625v-236h63q189 0 189 122q0 63 -46.5 88.5t-142.5 25.5h-63zM361 -62l-80 -168h-58l51 168h87z
" />
    <glyph glyph-name="rcommaaccent" unicode="&#x157;" horiz-adv-x="373" 
d="M167 417h2q19 46 57 74.5t85 28.5q27 0 46 -6v-75q-20 6 -47 6q-65 0 -102.5 -53.5t-37.5 -145.5v-246h-82v357q0 98 -5 152h80q4 -36 4 -92zM177 -62l-80 -168h-58l51 168h87z" />
    <glyph glyph-name="Rcaron" unicode="&#x158;" 
d="M97 0v698h169q257 0 257 -180q0 -67 -41 -108.5t-114 -57.5v-2q33 -11 54.5 -33.5t38.5 -59.5l119 -257h-96l-101 228q-24 53 -53.5 71.5t-94.5 18.5h-52v-318h-86zM183 625v-236h63q189 0 189 122q0 63 -46.5 88.5t-142.5 25.5h-63zM144 894h71l78 -101l81 101h68
l-110 -145h-82z" />
    <glyph glyph-name="rcaron" unicode="&#x159;" horiz-adv-x="373" 
d="M167 417h2q19 46 57 74.5t85 28.5q27 0 46 -6v-75q-20 6 -47 6q-65 0 -102.5 -53.5t-37.5 -145.5v-246h-82v357q0 98 -5 152h80q4 -36 4 -92zM50 755h71l78 -133l82 133h68l-110 -177h-83z" />
    <glyph glyph-name="Sacute" unicode="&#x15a;" horiz-adv-x="507" 
d="M420 684l-11 -76q-67 30 -131 30q-59 0 -97.5 -29.5t-38.5 -76.5q0 -42 29.5 -72t110.5 -67q91 -41 131.5 -88t40.5 -114q0 -90 -64.5 -146t-168.5 -56q-91 0 -162 29l9 81q75 -37 148 -37q68 0 109 32.5t41 87.5q0 47 -30 78.5t-111 68.5q-94 43 -132 86.5t-38 109.5
q0 82 60.5 133t158.5 51q81 0 146 -25zM399 893l-119 -143h-59l85 143h93z" />
    <glyph glyph-name="sacute" unicode="&#x15b;" horiz-adv-x="403" 
d="M42 14l7 74q60 -33 126 -33q44 0 73.5 21t29.5 58q0 33 -23 53t-87 49t-92 59.5t-28 80.5q0 67 48 105.5t124 38.5q65 0 117 -21l-7 -69q-51 25 -109 25q-40 0 -66.5 -19t-26.5 -54q0 -31 22.5 -50t78.5 -42q70 -28 100.5 -63t30.5 -86q0 -73 -50.5 -112.5t-129.5 -39.5
q-75 0 -138 25zM363 756l-124 -177h-58l94 177h88z" />
    <glyph glyph-name="Scircumflex" unicode="&#x15c;" horiz-adv-x="507" 
d="M420 684l-11 -76q-67 30 -131 30q-59 0 -97.5 -29.5t-38.5 -76.5q0 -42 29.5 -72t110.5 -67q91 -41 131.5 -88t40.5 -114q0 -90 -64.5 -146t-168.5 -56q-91 0 -162 29l9 81q75 -37 148 -37q68 0 109 32.5t41 87.5q0 47 -30 78.5t-111 68.5q-94 43 -132 86.5t-38 109.5
q0 82 60.5 133t158.5 51q81 0 146 -25zM417 750h-71l-77 100l-82 -100h-68l110 145h82z" />
    <glyph glyph-name="scircumflex" unicode="&#x15d;" horiz-adv-x="403" 
d="M42 14l7 74q60 -33 126 -33q44 0 73.5 21t29.5 58q0 33 -23 53t-87 49t-92 59.5t-28 80.5q0 67 48 105.5t124 38.5q65 0 117 -21l-7 -69q-51 25 -109 25q-40 0 -66.5 -19t-26.5 -54q0 -31 22.5 -50t78.5 -42q70 -28 100.5 -63t30.5 -86q0 -73 -50.5 -112.5t-129.5 -39.5
q-75 0 -138 25zM367 579h-72l-77 132l-83 -132h-68l111 177h82z" />
    <glyph glyph-name="Scedilla" unicode="&#x15e;" horiz-adv-x="507" 
d="M420 684l-11 -76q-67 30 -131 30q-59 0 -97.5 -29.5t-38.5 -76.5q0 -42 29.5 -72t110.5 -67q91 -41 131.5 -88t40.5 -114q0 -82 -55 -136.5t-145 -63.5l-10 -57q8 2 26 2q38 0 63 -19.5t25 -54.5q0 -44 -32.5 -68t-81.5 -24q-30 0 -56 6l5 37q20 -4 42 -4q64 0 64 48
q0 43 -58 43q-18 0 -40 -6l11 95q-87 2 -153 29l9 81q75 -37 148 -37q68 0 109 32.5t41 87.5q0 47 -30 78.5t-111 68.5q-94 43 -132 86.5t-38 109.5q0 82 60.5 133t158.5 51q81 0 146 -25z" />
    <glyph glyph-name="scedilla" unicode="&#x15f;" horiz-adv-x="403" 
d="M42 14l7 74q60 -33 126 -33q44 0 73.5 21t29.5 58q0 33 -23 53t-87 49t-92 59.5t-28 80.5q0 67 48 105.5t124 38.5q65 0 117 -21l-7 -69q-51 25 -109 25q-40 0 -66.5 -19t-26.5 -54q0 -31 22.5 -50t78.5 -42q70 -28 100.5 -63t30.5 -86q0 -68 -44 -106.5t-116 -44.5
l-10 -56q8 2 26 2q38 0 63 -19.5t25 -54.5q0 -44 -32.5 -68t-81.5 -24q-30 0 -56 6l5 37q20 -4 42 -4q64 0 64 48q0 43 -58 43q-18 0 -40 -6l11 96q-60 3 -116 24z" />
    <glyph glyph-name="Scaron" unicode="&#x160;" horiz-adv-x="507" 
d="M420 684l-11 -76q-67 30 -131 30q-59 0 -97.5 -29.5t-38.5 -76.5q0 -42 29.5 -72t110.5 -67q91 -41 131.5 -88t40.5 -114q0 -90 -64.5 -146t-168.5 -56q-91 0 -162 29l9 81q75 -37 148 -37q68 0 109 32.5t41 87.5q0 47 -30 78.5t-111 68.5q-94 43 -132 86.5t-38 109.5
q0 82 60.5 133t158.5 51q81 0 146 -25zM122 894h71l78 -101l81 101h68l-110 -145h-82z" />
    <glyph glyph-name="scaron" unicode="&#x161;" horiz-adv-x="403" 
d="M42 14l7 74q60 -33 126 -33q44 0 73.5 21t29.5 58q0 33 -23 53t-87 49t-92 59.5t-28 80.5q0 67 48 105.5t124 38.5q65 0 117 -21l-7 -69q-51 25 -109 25q-40 0 -66.5 -19t-26.5 -54q0 -31 22.5 -50t78.5 -42q70 -28 100.5 -63t30.5 -86q0 -73 -50.5 -112.5t-129.5 -39.5
q-75 0 -138 25zM69 755h71l78 -133l82 133h68l-110 -177h-83z" />
    <glyph glyph-name="uni0162" unicode="&#x162;" horiz-adv-x="540" 
d="M315 0h-86v624l-215 -2v76h512v-76l-211 2v-624zM319 -62l-80 -168h-58l51 168h87z" />
    <glyph glyph-name="uni0163" unicode="&#x163;" horiz-adv-x="374" 
d="M203 651v-145h136v-65h-136v-252q0 -65 19 -97.5t69 -32.5q27 0 54 12l3 -65q-38 -12 -74 -12q-85 0 -118 45t-33 131v271h-113v65h113v118zM264 -62l-80 -168h-58l51 168h87z" />
    <glyph glyph-name="Tcaron" unicode="&#x164;" horiz-adv-x="540" 
d="M315 0h-86v624l-215 -2v76h512v-76l-211 2v-624zM123 894h71l78 -101l81 101h68l-110 -145h-82z" />
    <glyph glyph-name="tcaron" unicode="&#x165;" horiz-adv-x="374" 
d="M203 651v-145h136v-65h-136v-252q0 -65 19 -97.5t69 -32.5q27 0 54 12l3 -65q-38 -12 -74 -12q-85 0 -118 45t-33 131v271h-113v65h113v118zM378 756l-41 -177h-49l16 177h74z" />
    <glyph glyph-name="Tbar" unicode="&#x166;" horiz-adv-x="540" 
d="M315 0h-86v400h-107v46h107v178l-215 -2v76h512v-76l-211 2v-178h103v-46h-103v-400z" />
    <glyph glyph-name="tbar" unicode="&#x167;" horiz-adv-x="374" 
d="M310 308v-46h-107v-73q0 -65 19 -97.5t69 -32.5q27 0 54 12l3 -65q-38 -12 -74 -12q-85 0 -118 45t-33 131v92h-89v46h89v133h-113v65h113v118l80 27v-145h136v-65h-136v-133h107z" />
    <glyph glyph-name="Utilde" unicode="&#x168;" horiz-adv-x="704" 
d="M617 698v-404q0 -143 -66.5 -224t-202.5 -81q-260 0 -260 305v404h86v-392q0 -119 39.5 -183t138.5 -64q100 0 139.5 64t39.5 184v391h86zM466 875h47q-5 -50 -28 -77t-60 -27q-29 0 -79 21q-50 22 -69 22q-34 0 -43 -46h-47q5 49 29.5 76t65.5 27q27 0 81 -23
q43 -19 61 -19q36 0 42 46z" />
    <glyph glyph-name="utilde" unicode="&#x169;" 
d="M440 88h-2q-60 -99 -173 -99q-100 0 -142 60t-42 168v292h82v-260q0 -97 25 -144.5t96 -47.5q69 0 110.5 50.5t41.5 152.5v249h82v-357q0 -98 5 -152h-79q-4 48 -4 88zM415 706h46q-6 -50 -28.5 -76.5t-57.5 -26.5q-31 0 -74 20q-46 21 -64 21q-35 0 -43 -46h-45
q11 101 92 101q27 0 77 -21q42 -19 58 -19q33 0 39 47z" />
    <glyph glyph-name="Umacron" unicode="&#x16a;" horiz-adv-x="704" 
d="M617 698v-404q0 -143 -66.5 -224t-202.5 -81q-260 0 -260 305v404h86v-392q0 -119 39.5 -183t138.5 -64q100 0 139.5 64t39.5 184v391h86zM485 846v-53h-270v53h270z" />
    <glyph glyph-name="umacron" unicode="&#x16b;" 
d="M440 88h-2q-60 -99 -173 -99q-100 0 -142 60t-42 168v292h82v-260q0 -97 25 -144.5t96 -47.5q69 0 110.5 50.5t41.5 152.5v249h82v-357q0 -98 5 -152h-79q-4 48 -4 88zM437 675v-53h-270v53h270z" />
    <glyph glyph-name="Ubreve" unicode="&#x16c;" horiz-adv-x="704" 
d="M617 698v-404q0 -143 -66.5 -224t-202.5 -81q-260 0 -260 305v404h86v-392q0 -119 39.5 -183t138.5 -64q100 0 139.5 64t39.5 184v391h86zM457 906h49q-4 -65 -46 -103.5t-109 -38.5q-70 0 -110.5 38t-45.5 104h50q16 -84 106 -84q87 0 106 84z" />
    <glyph glyph-name="ubreve" unicode="&#x16d;" 
d="M440 88h-2q-60 -99 -173 -99q-100 0 -142 60t-42 168v292h82v-260q0 -97 25 -144.5t96 -47.5q69 0 110.5 50.5t41.5 152.5v249h82v-357q0 -98 5 -152h-79q-4 48 -4 88zM415 730h48q-5 -70 -47 -114t-108 -44q-69 0 -110 42t-46 116h49q9 -54 34.5 -77.5t72.5 -23.5
q91 0 107 101z" />
    <glyph glyph-name="Uring" unicode="&#x16e;" horiz-adv-x="704" 
d="M617 698v-404q0 -143 -66.5 -224t-202.5 -81q-260 0 -260 305v404h86v-392q0 -119 39.5 -183t138.5 -64q100 0 139.5 64t39.5 184v391h86zM357 937q41 0 70.5 -29.5t29.5 -70.5q0 -42 -29.5 -71.5t-70.5 -29.5q-43 0 -73 29.5t-30 71.5t30 71t73 29zM356 898
q-25 0 -43.5 -18t-18.5 -43q0 -26 18 -44.5t45 -18.5q25 0 42.5 18.5t17.5 45.5q0 25 -18 42.5t-43 17.5z" />
    <glyph glyph-name="uring" unicode="&#x16f;" 
d="M440 88h-2q-60 -99 -173 -99q-100 0 -142 60t-42 168v292h82v-260q0 -97 25 -144.5t96 -47.5q69 0 110.5 50.5t41.5 152.5v249h82v-357q0 -98 5 -152h-79q-4 48 -4 88zM303 772q41 0 70.5 -29.5t29.5 -69.5q0 -43 -29.5 -72.5t-70.5 -29.5q-43 0 -73 29.5t-30 72.5
q0 41 30 70t73 29zM302 733q-25 0 -43.5 -18t-18.5 -43q0 -26 18 -44t45 -18q25 0 42.5 18t17.5 45q0 25 -18 42.5t-43 17.5z" />
    <glyph glyph-name="Uhungarumlaut" unicode="&#x170;" horiz-adv-x="704" 
d="M617 698v-404q0 -143 -66.5 -224t-202.5 -81q-260 0 -260 305v404h86v-392q0 -119 39.5 -183t138.5 -64q100 0 139.5 64t39.5 184v391h86zM402 895l-102 -145h-57l71 145h88zM547 895l-113 -145h-58l80 145h91z" />
    <glyph glyph-name="uhungarumlaut" unicode="&#x171;" 
d="M440 88h-2q-60 -99 -173 -99q-100 0 -142 60t-42 168v292h82v-260q0 -97 25 -144.5t96 -47.5q69 0 110.5 50.5t41.5 152.5v249h82v-357q0 -98 5 -152h-79q-4 48 -4 88zM360 756l-112 -177h-55l84 177h83zM508 756l-123 -177h-57l93 177h87z" />
    <glyph glyph-name="Uogonek" unicode="&#x172;" horiz-adv-x="704" 
d="M617 698v-404q0 -124 -50.5 -202t-152.5 -97q-39 -43 -54 -67t-15 -48q0 -50 52 -50q26 0 55 13l7 -39q-36 -16 -76 -16q-43 0 -71.5 20t-28.5 60q0 30 18 58t59 63h-12q-260 0 -260 305v404h86v-392q0 -119 39.5 -183t138.5 -64q100 0 139.5 64t39.5 184v391h86z" />
    <glyph glyph-name="uogonek" unicode="&#x173;" 
d="M440 88h-2q-60 -99 -173 -99q-100 0 -142 60t-42 168v292h82v-260q0 -97 25 -144.5t96 -47.5q69 0 110.5 50.5t41.5 152.5v249h82v-357q0 -98 5 -152h-32q-42 -45 -58 -70t-16 -50q0 -50 52 -50q26 0 55 13l7 -39q-36 -16 -76 -16q-43 0 -71.5 20t-28.5 60q0 33 20 62
t69 70q-4 48 -4 88z" />
    <glyph glyph-name="Wcircumflex" unicode="&#x174;" horiz-adv-x="1015" 
d="M677 0l-143 517q-19 71 -29 117h-2q-12 -63 -27 -117l-140 -517h-109l-211 698h93l139 -492q20 -72 33 -137h2q16 80 33 137l131 492h121l134 -492q11 -39 34 -137h2q10 47 33 137l139 492h90l-215 -698h-108zM655 750h-71l-77 100l-82 -100h-68l110 145h82z" />
    <glyph glyph-name="wcircumflex" unicode="&#x175;" horiz-adv-x="825" 
d="M275 0h-98l-164 509h88l94 -323q9 -30 31 -122h2q14 58 34 121l103 324h99l103 -324q18 -59 33 -121h2q16 70 32 120l97 325h81l-167 -509h-95l-109 346q-17 55 -27 103h-2q-8 -37 -28 -103zM565 579h-72l-77 132l-83 -132h-68l111 177h82z" />
    <glyph glyph-name="Ycircumflex" unicode="&#x176;" horiz-adv-x="643" 
d="M8 698h105l99 -153q35 -53 111 -178h2q37 63 111 178l98 153h102l-270 -402v-296h-86v294zM469 750h-71l-77 100l-82 -100h-68l110 145h82z" />
    <glyph glyph-name="ycircumflex" unicode="&#x177;" horiz-adv-x="486" 
d="M100 509l109 -322q15 -41 36 -122h2q20 68 38 122l109 322h82l-188 -525q-42 -116 -82 -161t-113 -45q-31 0 -56 8l6 65q24 -7 46 -7q41 0 64.5 28t49.5 109l-191 528h88zM397 579h-72l-77 132l-83 -132h-68l111 177h82z" />
    <glyph glyph-name="Ydieresis" unicode="&#x178;" horiz-adv-x="643" 
d="M8 698h105l99 -153q35 -53 111 -178h2q37 63 111 178l98 153h102l-270 -402v-296h-86v294zM271 871v-91h-82v91h82zM455 871v-91h-82v91h82z" />
    <glyph glyph-name="Zacute" unicode="&#x179;" horiz-adv-x="547" 
d="M499 618q-314 -470 -371 -545h381v-73h-475v72q339 509 374 553h-364v73h455v-80zM410 893l-119 -143h-59l85 143h93z" />
    <glyph glyph-name="zacute" unicode="&#x17a;" horiz-adv-x="487" 
d="M434 438q-264 -327 -306 -372h314v-66h-404v70q271 336 309 375h-295v64h382v-71zM391 756l-124 -177h-58l94 177h88z" />
    <glyph glyph-name="Zdotaccent" unicode="&#x17b;" horiz-adv-x="547" 
d="M499 618q-314 -470 -371 -545h381v-73h-475v72q339 509 374 553h-364v73h455v-80zM334 872v-96h-93v96h93z" />
    <glyph glyph-name="zdotaccent" unicode="&#x17c;" horiz-adv-x="487" 
d="M434 438q-264 -327 -306 -372h314v-66h-404v70q271 336 309 375h-295v64h382v-71zM290 693v-95h-93v95h93z" />
    <glyph glyph-name="Zcaron" unicode="&#x17d;" horiz-adv-x="547" 
d="M499 618q-314 -470 -371 -545h381v-73h-475v72q339 509 374 553h-364v73h455v-80zM131 894h71l78 -101l81 101h68l-110 -145h-82z" />
    <glyph glyph-name="zcaron" unicode="&#x17e;" horiz-adv-x="487" 
d="M434 438q-264 -327 -306 -372h314v-66h-404v70q271 336 309 375h-295v64h382v-71zM102 755h71l78 -133l82 133h68l-110 -177h-83z" />
    <glyph glyph-name="florin" unicode="&#x192;" horiz-adv-x="577" 
d="M324 344l-63 -333q-20 -108 -64.5 -156.5t-125.5 -48.5q-35 0 -70 10l13 67q22 -11 54 -11q47 0 71.5 33.5t39.5 113.5l62 325h-118v50h127l21 108q21 108 65.5 157t125.5 49q41 0 71 -10l-13 -67q-22 11 -55 11q-25 0 -42.5 -10t-30 -25.5t-23 -50t-18 -68t-18.5 -94.5
h123v-50h-132z" />
    <glyph glyph-name="Scommaaccent" unicode="&#x218;" horiz-adv-x="507" 
d="M420 684l-11 -76q-67 30 -131 30q-59 0 -97.5 -29.5t-38.5 -76.5q0 -42 29.5 -72t110.5 -67q91 -41 131.5 -88t40.5 -114q0 -90 -64.5 -146t-168.5 -56q-91 0 -162 29l9 81q75 -37 148 -37q68 0 109 32.5t41 87.5q0 47 -30 78.5t-111 68.5q-94 43 -132 86.5t-38 109.5
q0 82 60.5 133t158.5 51q81 0 146 -25zM290 -62l-80 -168h-58l51 168h87z" />
    <glyph glyph-name="scommaaccent" unicode="&#x219;" horiz-adv-x="403" 
d="M42 14l7 74q60 -33 126 -33q44 0 73.5 21t29.5 58q0 33 -23 53t-87 49t-92 59.5t-28 80.5q0 67 48 105.5t124 38.5q65 0 117 -21l-7 -69q-51 25 -109 25q-40 0 -66.5 -19t-26.5 -54q0 -31 22.5 -50t78.5 -42q70 -28 100.5 -63t30.5 -86q0 -73 -50.5 -112.5t-129.5 -39.5
q-75 0 -138 25zM259 -62l-80 -168h-58l51 168h87z" />
    <glyph glyph-name="uni021A" unicode="&#x21a;" horiz-adv-x="540" 
d="M315 0h-86v624l-215 -2v76h512v-76l-211 2v-624zM319 -62l-80 -168h-58l51 168h87z" />
    <glyph glyph-name="uni021B" unicode="&#x21b;" horiz-adv-x="374" 
d="M203 651v-145h136v-65h-136v-252q0 -65 19 -97.5t69 -32.5q27 0 54 12l3 -65q-38 -12 -74 -12q-85 0 -118 45t-33 131v271h-113v65h113v118zM264 -62l-80 -168h-58l51 168h87z" />
    <glyph glyph-name="dotlessj" unicode="&#x237;" horiz-adv-x="258" 
d="M170 509v-547q0 -184 -147 -184q-20 0 -42 5v68q14 -3 30 -3q43 0 60 29t17 94v538h82z" />
    <glyph glyph-name="circumflex" unicode="&#x2c6;" horiz-adv-x="500" 
d="M400 579h-72l-77 132l-83 -132h-68l111 177h82z" />
    <glyph glyph-name="ring" unicode="&#x2da;" horiz-adv-x="500" 
d="M249 772q41 0 70.5 -29.5t29.5 -69.5q0 -43 -29.5 -72.5t-70.5 -29.5q-43 0 -73 29.5t-30 72.5q0 41 30 70t73 29zM248 733q-25 0 -43.5 -18t-18.5 -43q0 -26 18 -44t45 -18q25 0 42.5 18t17.5 45q0 25 -18 42.5t-43 17.5z" />
    <glyph glyph-name="tilde" unicode="&#x2dc;" horiz-adv-x="500" 
d="M357 706h46q-6 -50 -28.5 -76.5t-57.5 -26.5q-31 0 -74 20q-46 21 -64 21q-35 0 -43 -46h-45q11 101 92 101q28 0 77 -21q42 -19 58 -19q33 0 39 47z" />
    <glyph glyph-name="uni0400" unicode="&#x400;" horiz-adv-x="545" 
d="M478 73v-73h-381v698h373v-73h-287v-228h268v-72h-268v-252h295zM158 892h93l85 -142h-60z" />
    <glyph glyph-name="uni0401" unicode="&#x401;" horiz-adv-x="545" 
d="M478 73v-73h-381v698h373v-73h-287v-228h268v-72h-268v-252h295zM234 871v-91h-82v91h82zM418 871v-91h-82v91h82z" />
    <glyph glyph-name="uni0402" unicode="&#x402;" horiz-adv-x="779" 
d="M504 -11q-69 0 -127 19l6 76q46 -22 103 -22q75 0 117 41t42 121q0 71 -43 109.5t-113 38.5q-73 0 -124 -49t-51 -123v-200h-86v625h-214v73h512v-73h-212v-282q27 44 79.5 70.5t111.5 26.5q101 0 166.5 -58.5t65.5 -152.5q0 -113 -63.5 -176.5t-169.5 -63.5z" />
    <glyph glyph-name="uni0403" unicode="&#x403;" horiz-adv-x="481" 
d="M401 893l-119 -143h-59l85 143h93zM97 0v698h370v-73h-284v-625h-86z" />
    <glyph glyph-name="uni0404" unicode="&#x404;" horiz-adv-x="618" 
d="M426 -8q-171 0 -271 96t-100 264q0 155 97.5 254t251.5 99q103 0 174 -27l-7 -78q-64 34 -166 34q-101 0 -172 -65.5t-85 -169.5h327v-73h-329q9 -116 85 -188t195 -72q84 0 152 30l6 -78q-63 -26 -158 -26z" />
    <glyph glyph-name="uni0405" unicode="&#x405;" horiz-adv-x="507" 
d="M420 684l-11 -76q-67 30 -131 30q-59 0 -97.5 -29.5t-38.5 -76.5q0 -42 29.5 -72t110.5 -67q91 -41 131.5 -88t40.5 -114q0 -90 -64.5 -146t-168.5 -56q-91 0 -162 29l9 81q75 -37 148 -37q68 0 109 32.5t41 87.5q0 47 -30 78.5t-111 68.5q-94 43 -132 86.5t-38 109.5
q0 82 60.5 133t158.5 51q81 0 146 -25z" />
    <glyph glyph-name="uni0406" unicode="&#x406;" horiz-adv-x="280" 
d="M183 698v-698h-86v698h86z" />
    <glyph glyph-name="uni0407" unicode="&#x407;" horiz-adv-x="280" 
d="M183 698v-698h-86v698h86zM90 871v-91h-82v91h82zM274 871v-91h-82v91h82z" />
    <glyph glyph-name="uni0408" unicode="&#x408;" horiz-adv-x="372" 
d="M23 2v75q36 -13 66 -13q60 0 83.5 33t23.5 111v490h86v-512q0 -89 -43 -142.5t-134 -53.5q-47 0 -82 12z" />
    <glyph glyph-name="uni0409" unicode="&#x409;" horiz-adv-x="1008" 
d="M92 -7q-54 0 -86 13l5 73q23 -11 63 -11q78 0 102.5 135t24.5 495h426v-284h103q117 0 181 -53t64 -151q0 -210 -257 -210h-177v625h-255q0 -100 -2 -167.5t-7 -139.5t-13.5 -118t-22.5 -89t-34.5 -66.5t-49 -37.5t-65.5 -14zM627 73h104q156 0 156 141q0 127 -160 127
h-100v-268z" />
    <glyph glyph-name="uni040A" unicode="&#x40a;" horiz-adv-x="1000" 
d="M97 0v698h86v-288h349v288h86v-288h104q117 0 181 -52t64 -150q0 -208 -257 -208h-178v337h-349v-337h-86zM618 74h108q153 0 153 135q0 128 -157 128h-104v-263z" />
    <glyph glyph-name="uni040B" unicode="&#x40b;" horiz-adv-x="786" 
d="M228 0v625h-214v73h512v-73h-212v-223q82 23 160 23q40 0 69 -3.5t61.5 -17t52.5 -36.5t33.5 -64t13.5 -98v-206h-86v202q0 83 -36.5 116.5t-122.5 33.5q-36 0 -81 -7.5t-64 -14.5v-330h-86z" />
    <glyph glyph-name="uni040C" unicode="&#x40c;" horiz-adv-x="642" 
d="M455 893l-119 -143h-59l85 143h93zM181 352v-352h-84v698h84v-317h2q74 82 136 144l167 173h114l-334 -328l363 -370h-122l-214 228q-25 26 -110 124h-2z" />
    <glyph glyph-name="uni040D" unicode="&#x40d;" horiz-adv-x="732" 
d="M97 0v698h85v-394q0 -134 -5 -191h2l358 585h99v-698h-86v394q0 114 5 191h-2l-359 -585h-97zM228 892h93l85 -142h-60z" />
    <glyph glyph-name="uni040E" unicode="&#x40e;" horiz-adv-x="643" 
d="M327 762q-108 0 -149 117l45 20q31 -73 104 -73q74 0 104 73l46 -20q-41 -117 -150 -117zM167 -6q-45 0 -78 8l7 70q26 -8 63 -8q34 0 61.5 29.5t62.5 98.5l-275 506h98l222 -419l214 419h93l-278 -536q-46 -88 -87.5 -128t-102.5 -40z" />
    <glyph glyph-name="uni040F" unicode="&#x40f;" horiz-adv-x="707" 
d="M312 -168v168h-215v698h86v-625h341v625h86v-698h-216v-168h-82z" />
    <glyph glyph-name="uni0410" unicode="&#x410;" horiz-adv-x="709" 
d="M397 698l298 -698h-95l-75 182h-346l-74 -182h-92l295 698h89zM496 252l-96 240q-37 92 -49 133h-2q-16 -49 -49 -133l-94 -240h290z" />
    <glyph glyph-name="uni0411" unicode="&#x411;" horiz-adv-x="598" 
d="M97 0v698h384v-73h-298v-213h104q116 0 180.5 -52t64.5 -150q0 -210 -257 -210h-178zM183 73h104q77 0 117 32.5t40 106.5q0 127 -160 127h-101v-266z" />
    <glyph glyph-name="uni0412" unicode="&#x412;" horiz-adv-x="598" 
d="M97 0v698h170q119 0 184.5 -44t65.5 -134q0 -61 -39 -103t-110 -56v-2q75 -9 120 -53t45 -113q0 -100 -73 -146.5t-188 -46.5h-175zM180 628v-234h68q85 0 134 25.5t49 92.5q0 116 -174 116h-77zM180 326v-257h78q189 0 189 128q0 67 -49 98t-152 31h-66z" />
    <glyph glyph-name="uni0413" unicode="&#x413;" horiz-adv-x="481" 
d="M97 0v698h370v-73h-284v-625h-86z" />
    <glyph glyph-name="uni0414" unicode="&#x414;" horiz-adv-x="721" 
d="M9 -168v241h55q110 149 110 417v208h435v-625h90v-241h-81v168h-529v-168h-80zM160 73h362v552h-266v-168q0 -239 -96 -384z" />
    <glyph glyph-name="uni0415" unicode="&#x415;" horiz-adv-x="545" 
d="M478 73v-73h-381v698h373v-73h-287v-228h268v-72h-268v-252h295z" />
    <glyph glyph-name="uni0416" unicode="&#x416;" horiz-adv-x="940" 
d="M430 0v358h-2q-70 -88 -109 -133l-195 -225h-113l333 369l-300 329h106l152 -175q80 -91 126 -147h2v322h81v-322h2q44 55 125 147l152 175h106l-300 -329l333 -369h-113l-194 225q-40 45 -109 133h-2v-358h-81z" />
    <glyph glyph-name="uni0417" unicode="&#x417;" horiz-adv-x="529" 
d="M205 -11q-105 0 -170 27l6 81q61 -35 160 -35q72 0 123 33t51 105q0 127 -184 127q-10 0 -25.5 -0.5t-18.5 -0.5v72q7 -1 35 -1q33 0 62 6t57.5 19.5t45.5 41t17 65.5q0 55 -42.5 81.5t-106.5 26.5q-85 0 -151 -34l-10 74q90 31 174 31q98 0 160 -43.5t62 -133.5
q0 -62 -37.5 -103.5t-102.5 -58.5v-2q68 -7 110.5 -56.5t42.5 -120.5q0 -95 -70.5 -148t-187.5 -53z" />
    <glyph glyph-name="uni0418" unicode="&#x418;" horiz-adv-x="732" 
d="M97 0v698h85v-394q0 -134 -5 -191h2l358 585h99v-698h-86v394q0 114 5 191h-2l-359 -585h-97z" />
    <glyph glyph-name="uni0419" unicode="&#x419;" horiz-adv-x="733" 
d="M362 762q-108 0 -149 117l45 20q31 -73 104 -73q74 0 104 73l46 -20q-41 -117 -150 -117zM97 0v698h85v-394q0 -134 -5 -191h2l358 585h99v-698h-86v394q0 114 5 191h-2l-359 -585h-97z" />
    <glyph glyph-name="uni041A" unicode="&#x41a;" horiz-adv-x="644" 
d="M181 352v-352h-84v698h84v-317h2q74 82 136 144l167 173h114l-334 -328l363 -370h-122l-214 228q-25 26 -110 124h-2z" />
    <glyph glyph-name="uni041B" unicode="&#x41b;" horiz-adv-x="724" 
d="M93 -7q-55 0 -87 13l5 73q24 -10 64 -10q78 0 102 133.5t25 495.5h426v-698h-86v625h-256q0 -99 -1.5 -167.5t-6.5 -140t-13.5 -117.5t-22.5 -89t-34.5 -66.5t-49 -37.5t-65.5 -14z" />
    <glyph glyph-name="uni041C" unicode="&#x41c;" horiz-adv-x="935" 
d="M240 698l181 -464q28 -74 49 -146h2q22 72 50 145l177 465h140v-698h-86v471q0 112 2 165h-2q-18 -52 -51 -137l-196 -499h-80l-194 489q-33 84 -51 147h-2q2 -53 2 -165v-471h-84v698h143z" />
    <glyph glyph-name="uni041D" unicode="&#x41d;" horiz-adv-x="716" 
d="M619 698v-698h-86v325h-350v-325h-86v698h86v-299h350v299h86z" />
    <glyph glyph-name="uni041E" unicode="&#x41e;" horiz-adv-x="773" 
d="M388 -11q-150 0 -240 97.5t-90 259.5q0 167 91.5 265t245.5 98q145 0 232.5 -98.5t87.5 -260.5q0 -166 -88.5 -263.5t-238.5 -97.5zM389 60q105 0 169.5 79t64.5 209q0 135 -63.5 213t-172.5 78q-106 0 -171.5 -79.5t-65.5 -209.5q0 -132 65.5 -211t173.5 -79z" />
    <glyph glyph-name="uni041F" unicode="&#x41f;" horiz-adv-x="707" 
d="M97 0v698h513v-698h-86v625h-341v-625h-86z" />
    <glyph glyph-name="uni0420" unicode="&#x420;" horiz-adv-x="557" 
d="M97 698h157q269 0 269 -205q0 -55 -21.5 -96t-60 -64.5t-85.5 -34.5t-105 -11h-68v-287h-86v698zM183 625v-264h63q96 0 143 29.5t47 101.5q0 71 -47.5 102t-144.5 31h-61z" />
    <glyph glyph-name="uni0421" unicode="&#x421;" horiz-adv-x="613" 
d="M577 680l-9 -80q-60 31 -145 31q-123 0 -200.5 -78.5t-77.5 -201.5q0 -127 80 -204.5t207 -77.5q77 0 141 27l6 -81q-59 -22 -148 -22q-169 0 -272.5 95.5t-103.5 262.5q0 155 104.5 254.5t265.5 99.5q91 0 152 -25z" />
    <glyph glyph-name="uni0422" unicode="&#x422;" horiz-adv-x="540" 
d="M228 0v625h-214v73h512v-73h-212v-625h-86z" />
    <glyph glyph-name="uni0423" unicode="&#x423;" horiz-adv-x="643" 
d="M167 -6q-45 0 -78 8l7 70q26 -8 63 -8q34 0 61.5 29.5t62.5 98.5l-275 506h98l222 -419l214 419h93l-278 -536q-46 -88 -87.5 -128t-102.5 -40z" />
    <glyph glyph-name="uni0424" unicode="&#x424;" horiz-adv-x="817" 
d="M366 -11v81q-154 0 -239 82q-84 79 -84 209q0 129 85 208q84 78 238 78v62h86v-62q154 0 238 -78q84 -79 84 -208q0 -130 -83 -210q-84 -81 -239 -81v-81h-86zM366 139v439q-108 0 -169.5 -57.5t-61.5 -159.5q0 -105 62 -163.5t169 -58.5zM452 139q107 0 169 58.5
t62 163.5q0 102 -61.5 159.5t-169.5 57.5v-439z" />
    <glyph glyph-name="uni0425" unicode="&#x425;" horiz-adv-x="654" 
d="M329 415q57 89 75 115l114 168h99l-237 -334l262 -364h-108l-130 188q-41 61 -80 123q-37 -59 -81 -123l-128 -188h-103l261 364l-241 334h103l117 -168q43 -60 77 -115z" />
    <glyph glyph-name="uni0426" unicode="&#x426;" horiz-adv-x="720" 
d="M619 -168v168h-522v698h86v-624h340v624h86v-624h92v-242h-82z" />
    <glyph glyph-name="uni0427" unicode="&#x427;" horiz-adv-x="650" 
d="M467 0v296q-82 -23 -161 -23q-51 0 -86 7t-70.5 28t-54 67t-18.5 117v206h86v-200q0 -83 36 -116.5t122 -33.5q37 0 82.5 7.5t63.5 13.5v329h86v-698h-86z" />
    <glyph glyph-name="uni0428" unicode="&#x428;" horiz-adv-x="1042" 
d="M97 0v698h86v-624h295v624h86v-624h295v624h86v-698h-848z" />
    <glyph glyph-name="uni0429" unicode="&#x429;" horiz-adv-x="1055" 
d="M956 -168v168h-859v698h86v-624h295v624h86v-624h295v624h86v-624h91v-242h-80z" />
    <glyph glyph-name="uni042A" unicode="&#x42a;" horiz-adv-x="655" 
d="M187 0v625h-175v73h261v-284h103q117 0 181.5 -53t64.5 -151q0 -210 -257 -210h-178zM273 73h104q157 0 157 140q0 128 -161 128h-100v-268z" />
    <glyph glyph-name="uni042B" unicode="&#x42b;" horiz-adv-x="825" 
d="M97 0v698h86v-284h104q116 0 180.5 -53t64.5 -151q0 -210 -257 -210h-178zM183 73h104q77 0 117 33t40 107q0 128 -160 128h-101v-268zM642 0v698h86v-698h-86z" />
    <glyph glyph-name="uni042C" unicode="&#x42c;" horiz-adv-x="565" 
d="M97 0v698h86v-284h104q116 0 180.5 -53t64.5 -151q0 -210 -257 -210h-178zM183 73h104q77 0 117 32.5t40 106.5q0 129 -160 129h-101v-268z" />
    <glyph glyph-name="uni042D" unicode="&#x42d;" horiz-adv-x="616" 
d="M192 -8q-100 0 -159 26l6 77q68 -30 153 -30q119 0 195 72.5t84 189.5h-329v70h327q-12 107 -81.5 172.5t-180.5 65.5q-92 0 -161 -34l-7 78q76 27 169 27q163 0 258.5 -98.5t95.5 -256.5q0 -168 -99.5 -263.5t-270.5 -95.5z" />
    <glyph glyph-name="uni042E" unicode="&#x42e;" horiz-adv-x="993" 
d="M624 -10q-137 0 -219 90t-87 245h-135v-325h-86v698h86v-299h137q14 141 97 225t210 84q141 0 224 -96.5t83 -263.5q0 -166 -83.5 -262t-226.5 -96zM625 61q100 0 158.5 75.5t58.5 208.5q0 129 -54 211t-159 82q-100 0 -159.5 -78.5t-59.5 -213.5q0 -124 57 -204.5
t158 -80.5z" />
    <glyph glyph-name="uni042F" unicode="&#x42f;" horiz-adv-x="607" 
d="M21 0l224 305q-174 33 -174 193q0 96 65.5 148t196.5 52h177v-698h-86v297h-88l-205 -297h-110zM317 369h107v258h-96q-170 0 -170 -127q0 -69 45 -100t114 -31z" />
    <glyph glyph-name="uni0430" unicode="&#x430;" horiz-adv-x="549" 
d="M107 404l-5 73q71 43 167 43q102 0 149 -53.5t47 -146.5q0 -38 -1 -99.5t-1 -68.5q0 -98 6 -152h-74q-2 16 -2 42q0 19 2 47h-2q-50 -96 -170 -96q-80 0 -127.5 41t-47.5 110q0 80 69.5 122.5t199.5 42.5q38 0 71 -3v9q0 138 -132 138q-79 0 -149 -49zM389 248
q-26 2 -56 2q-199 0 -199 -106q0 -40 28.5 -64t76.5 -24q150 0 150 192z" />
    <glyph glyph-name="uni0431" unicode="&#x431;" horiz-adv-x="602" 
d="M308 -11q-126 0 -188.5 82t-62.5 216q0 138 20 229.5t80 145.5q39 35 88 49t123 20q123 9 160 20l-5 -77q-24 -6 -154 -18q-136 -11 -186.5 -63t-60.5 -198h2q18 43 67.5 79.5t123.5 36.5q108 0 173 -72.5t65 -187.5q0 -118 -67.5 -190t-177.5 -72zM309 56q72 0 115.5 53
t43.5 142q0 93 -41.5 144.5t-115.5 51.5q-77 0 -122 -53.5t-45 -144.5q0 -89 46.5 -141t118.5 -52z" />
    <glyph glyph-name="uni0432" unicode="&#x432;" horiz-adv-x="549" 
d="M87 0v509h231q73 0 121.5 -29.5t48.5 -94.5q0 -46 -26 -75.5t-71 -40.5v-2q47 -7 77.5 -38t30.5 -81q0 -148 -193 -148h-219zM168 63h132q56 0 85.5 24t29.5 67q0 81 -119 81h-128v-172zM168 298h131q107 0 107 76q0 73 -104 73h-134v-149z" />
    <glyph glyph-name="uni0433" unicode="&#x433;" horiz-adv-x="422" 
d="M87 0v509h328v-65h-246v-444h-82z" />
    <glyph glyph-name="uni0434" unicode="&#x434;" horiz-adv-x="600" 
d="M9 -148v214h57q42 65 57 125.5t15 179.5v138h369v-443h72v-214h-74v148h-421v-148h-75zM153 66h272v378h-210v-92q0 -98 -12.5 -164.5t-49.5 -121.5z" />
    <glyph glyph-name="uni0435" unicode="&#x435;" horiz-adv-x="548" 
d="M497 237h-364q1 -84 50.5 -132t131.5 -48q75 0 144 37l3 -75q-68 -30 -151 -30q-124 0 -192.5 71.5t-68.5 197.5q0 119 65.5 190.5t171.5 71.5q100 0 156 -62.5t56 -185.5q0 -13 -2 -35zM135 300h284q0 78 -35.5 117.5t-98.5 39.5q-62 0 -103 -41.5t-47 -115.5z" />
    <glyph glyph-name="uni0436" unicode="&#x436;" horiz-adv-x="760" 
d="M196 102l-95 -102h-94l245 272l-226 237h98q145 -157 214 -241h2v241h80v-241h2q78 90 213 241h99l-227 -237l246 -272h-104l-129 146q-55 61 -98 117h-2v-263h-80v263h-2q-59 -71 -142 -161z" />
    <glyph glyph-name="uni0437" unicode="&#x437;" horiz-adv-x="457" 
d="M199 -12q-96 0 -168 29l6 73q62 -35 151 -35q60 0 97 25t37 66q0 49 -33 69.5t-100 20.5q-45 0 -52 -1v66q7 -1 49 -1q126 0 126 84q0 71 -110 71q-74 0 -150 -38l-5 70q83 34 168 34q181 0 181 -125q0 -45 -29 -78t-79 -44v-2q54 -8 86.5 -40t32.5 -84q0 -78 -59.5 -119
t-148.5 -41z" />
    <glyph glyph-name="uni0438" unicode="&#x438;" horiz-adv-x="620" 
d="M88 0v509h82v-255q0 -104 -6 -151h3l273 406h92v-509h-82v255q0 104 6 151h-3l-273 -406h-92z" />
    <glyph glyph-name="uni0439" unicode="&#x439;" horiz-adv-x="620" 
d="M310 583q-104 0 -144 112l44 20q32 -71 100 -71q69 0 101 71l43 -20q-40 -112 -144 -112zM88 0v509h82v-255q0 -104 -6 -151h3l273 406h92v-509h-82v255q0 104 6 151h-3l-273 -406h-92z" />
    <glyph glyph-name="uni043A" unicode="&#x43a;" horiz-adv-x="531" 
d="M414 0l-154 156q-50 50 -89 100h-2v-256h-82v509h82v-234h2q48 55 90 99l129 135h108l-247 -238l273 -271h-110z" />
    <glyph glyph-name="uni043B" unicode="&#x43b;" horiz-adv-x="598" 
d="M68 -7q-36 0 -61 7l4 67q11 -5 41 -5q60 0 81 96t21 351h356v-509h-81v444h-199q0 -79 -2 -132t-7.5 -109.5t-16.5 -91t-28.5 -63.5t-44.5 -42t-63 -13z" />
    <glyph glyph-name="uni043C" unicode="&#x43c;" horiz-adv-x="744" 
d="M88 0v509h129l156 -426l157 426h126v-509h-79v299q0 77 5 142h-2l-167 -441h-82l-167 441h-2q5 -67 5 -142v-299h-79z" />
    <glyph glyph-name="uni043D" unicode="&#x43d;" horiz-adv-x="609" 
d="M88 0v509h82v-209h269v209h82v-509h-82v235h-269v-235h-82z" />
    <glyph glyph-name="uni043E" unicode="&#x43e;" 
d="M307 520q109 0 179 -75t70 -193q0 -117 -70.5 -190t-182.5 -73q-111 0 -182 73.5t-71 189.5q0 119 71.5 193.5t185.5 74.5zM301 453q-74 0 -119.5 -55.5t-45.5 -145.5q0 -89 46 -142.5t121 -53.5t121 54t46 143q0 90 -46.5 145t-122.5 55z" />
    <glyph glyph-name="uni043F" unicode="&#x43f;" horiz-adv-x="602" 
d="M88 0v509h426v-509h-82v444h-262v-444h-82z" />
    <glyph glyph-name="uni0440" unicode="&#x440;" horiz-adv-x="609" 
d="M88 -210v567q0 98 -5 152h78q4 -44 4 -89h2q57 100 177 100q97 0 156 -71.5t59 -188.5q0 -122 -60 -196.5t-158 -74.5q-58 0 -103 28t-69 75h-2q3 -30 3 -126v-176h-82zM323 453q-67 0 -112 -57.5t-45 -143.5q0 -82 45.5 -139t112.5 -57t108 55.5t41 140.5
q0 91 -40.5 146t-109.5 55z" />
    <glyph glyph-name="uni0441" unicode="&#x441;" horiz-adv-x="455" 
d="M421 498l-6 -73q-46 20 -101 20q-79 0 -128 -52t-49 -136q0 -86 48.5 -139.5t129.5 -53.5q55 0 107 26l6 -74q-51 -22 -118 -22q-119 0 -189.5 71t-70.5 189q0 115 71.5 188.5t187.5 73.5q65 0 112 -18z" />
    <glyph glyph-name="uni0442" unicode="&#x442;" horiz-adv-x="450" 
d="M184 0v444h-174v65h430v-65h-174v-444h-82z" />
    <glyph glyph-name="uni0443" unicode="&#x443;" horiz-adv-x="486" 
d="M100 509l109 -322q15 -41 36 -122h2q20 68 38 122l109 322h82l-188 -525q-42 -116 -82 -161t-113 -45q-31 0 -56 8l6 65q24 -7 46 -7q41 0 64.5 28t49.5 109l-191 528h88z" />
    <glyph glyph-name="uni0444" unicode="&#x444;" horiz-adv-x="800" 
d="M358 -210v250q-43 -51 -116 -51q-89 0 -138.5 73.5t-49.5 190.5q0 121 47.5 193.5t141.5 72.5q69 0 115 -52v269h82v-269q46 52 115 52q95 0 142.5 -72.5t47.5 -193.5q0 -117 -49.5 -190.5t-138.5 -73.5q-74 0 -117 51v-250h-82zM265 56q60 0 93 55v287q-32 56 -93 56
q-45 0 -74.5 -31.5t-41 -74t-11.5 -94.5q0 -83 30.5 -140.5t96.5 -57.5zM534 56q66 0 96.5 57.5t30.5 140.5q0 52 -11.5 94.5t-41 74t-74.5 31.5q-60 0 -94 -56v-287q34 -55 94 -55z" />
    <glyph glyph-name="uni0445" unicode="&#x445;" horiz-adv-x="493" 
d="M250 307q38 70 54 94l67 108h90l-164 -242l180 -267h-97l-74 119q-53 87 -61 102q-38 -66 -61 -102l-74 -119h-96l183 267l-169 242h99l68 -108q46 -77 55 -94z" />
    <glyph glyph-name="uni0446" unicode="&#x446;" 
d="M510 -148v148h-422v509h82v-443h262v443h82v-443h71v-214h-75z" />
    <glyph glyph-name="uni0447" unicode="&#x447;" horiz-adv-x="547" 
d="M377 0v206q-66 -22 -143 -22q-87 0 -129 39.5t-42 122.5v163h79v-146q0 -64 27.5 -89t88.5 -25q28 0 66.5 7t52.5 13v240h82v-509h-82z" />
    <glyph glyph-name="uni0448" unicode="&#x448;" horiz-adv-x="848" 
d="M88 0v509h82v-443h213v443h82v-443h213v443h82v-509h-672z" />
    <glyph glyph-name="uni0449" unicode="&#x449;" horiz-adv-x="854" 
d="M758 -148v148h-670v509h82v-443h213v443h82v-443h213v443h82v-443h73v-214h-75z" />
    <glyph glyph-name="uni044A" unicode="&#x44a;" horiz-adv-x="581" 
d="M150 0v444h-142v65h224v-200h132q85 0 136 -36.5t51 -112.5q0 -160 -195 -160h-206zM232 65h124q110 0 110 94q0 86 -115 86h-119v-180z" />
    <glyph glyph-name="uni044B" unicode="&#x44b;" horiz-adv-x="737" 
d="M569 0v509h80v-509h-80zM88 0v509h82v-200h129q85 0 136 -36.5t51 -112.5q0 -160 -195 -160h-203zM170 65h121q111 0 111 94q0 86 -116 86h-116v-180z" />
    <glyph glyph-name="uni044C" unicode="&#x44c;" horiz-adv-x="526" 
d="M88 0v509h82v-200h139q85 0 136 -36.5t51 -112.5q0 -160 -195 -160h-213zM170 65h131q111 0 111 94q0 86 -116 86h-126v-180z" />
    <glyph glyph-name="uni044D" unicode="&#x44d;" horiz-adv-x="470" 
d="M161 -11q-78 0 -134 23l7 72q55 -26 120 -26q77 0 127 48t54 130h-227v64h224q-12 70 -58 111t-118 41q-63 0 -114 -23l-6 71q55 20 126 20q117 0 187.5 -73.5t70.5 -191.5t-70 -192t-189 -74z" />
    <glyph glyph-name="uni044E" unicode="&#x44e;" horiz-adv-x="794" 
d="M506 -12q-100 0 -166.5 68.5t-71.5 178.5h-100v-235h-81v509h81v-209h103q13 100 78 160.5t160 60.5q104 0 169.5 -75.5t65.5 -193.5q0 -117 -66.5 -190.5t-171.5 -73.5zM506 56q70 0 111.5 54t41.5 143q0 91 -42 145.5t-113 54.5q-69 0 -110 -55.5t-41 -145.5t41.5 -143
t111.5 -53z" />
    <glyph glyph-name="uni044F" unicode="&#x44f;" horiz-adv-x="550" 
d="M15 0l165 206q-123 26 -123 149q0 77 50 115.5t138 38.5h217v-509h-82v200h-114l-153 -200h-98zM256 265h124v179h-122q-61 0 -89 -21t-28 -68q0 -90 115 -90z" />
    <glyph glyph-name="uni0450" unicode="&#x450;" horiz-adv-x="548" 
d="M271 579l-124 177h88l94 -177h-58zM497 237h-364q1 -84 50.5 -132t131.5 -48q75 0 144 37l3 -75q-68 -30 -151 -30q-124 0 -192.5 71.5t-68.5 197.5q0 119 65.5 190.5t171.5 71.5q100 0 156 -62.5t56 -185.5q0 -13 -2 -35zM135 300h284q0 78 -35.5 117.5t-98.5 39.5
q-62 0 -103 -41.5t-47 -115.5z" />
    <glyph glyph-name="uni0451" unicode="&#x451;" horiz-adv-x="548" 
d="M233 700v-85h-82v85h82zM417 700v-85h-82v85h82zM497 237h-364q1 -84 50.5 -132t131.5 -48q75 0 144 37l3 -75q-68 -30 -151 -30q-124 0 -192.5 71.5t-68.5 197.5q0 119 65.5 190.5t171.5 71.5q100 0 156 -62.5t56 -185.5q0 -13 -2 -35zM135 300h284q0 78 -35.5 117.5
t-98.5 39.5q-62 0 -103 -41.5t-47 -115.5z" />
    <glyph glyph-name="uni0452" unicode="&#x452;" 
d="M373 -222q-38 0 -74 14l3 67q27 -12 55 -12q49 0 68 32t19 97v281q0 46 -4.5 78t-17.5 59.5t-38 41.5t-63 14q-78 0 -125 -75q-26 -43 -26 -128v-247h-82v588h-95v64h95v104h82v-104h190v-64h-190v-28q0 -89 -2 -143h2q59 101 170 101q100 0 142.5 -60t42.5 -169v-331
q0 -180 -152 -180z" />
    <glyph glyph-name="uni0453" unicode="&#x453;" horiz-adv-x="422" 
d="M356 756l-124 -177h-58l94 177h88zM87 0v509h328v-65h-246v-444h-82z" />
    <glyph glyph-name="uni0454" unicode="&#x454;" horiz-adv-x="470" 
d="M309 -11q-119 0 -189 74t-70 192t70.5 191.5t187.5 73.5q71 0 126 -20l-6 -71q-51 23 -114 23q-72 0 -118 -41t-58 -111h224v-64h-227q4 -82 54 -130t127 -48q65 0 120 26l7 -72q-56 -23 -134 -23z" />
    <glyph glyph-name="uni0455" unicode="&#x455;" horiz-adv-x="403" 
d="M42 14l7 74q60 -33 126 -33q44 0 73.5 21t29.5 58q0 33 -23 53t-87 49t-92 59.5t-28 80.5q0 67 48 105.5t124 38.5q65 0 117 -21l-7 -69q-51 25 -109 25q-40 0 -66.5 -19t-26.5 -54q0 -31 22.5 -50t78.5 -42q70 -28 100.5 -63t30.5 -86q0 -73 -50.5 -112.5t-129.5 -39.5
q-75 0 -138 25z" />
    <glyph glyph-name="uni0456" unicode="&#x456;" horiz-adv-x="258" 
d="M175 707v-94h-92v94h92zM170 509v-509h-82v509h82z" />
    <glyph glyph-name="uni0457" unicode="&#x457;" horiz-adv-x="258" 
d="M78 700v-85h-82v85h82zM262 700v-85h-82v85h82zM168 509v-509h-82v509h82z" />
    <glyph glyph-name="uni0458" unicode="&#x458;" horiz-adv-x="258" 
d="M175 707v-94h-92v94h92zM170 509v-547q0 -184 -147 -184q-20 0 -42 5v68q14 -3 30 -3q43 0 60 29t17 94v538h82z" />
    <glyph glyph-name="uni0459" unicode="&#x459;" horiz-adv-x="868" 
d="M68 -7q-36 0 -61 7l4 67q11 -5 41 -5q60 0 81 96t21 351h356v-201h140q85 0 136.5 -36t51.5 -112q0 -160 -196 -160h-214v444h-198q0 -79 -2 -132t-7.5 -109.5t-16.5 -91t-28.5 -63.5t-44.5 -42t-63 -13zM510 65h132q110 0 110 94q0 85 -114 85h-128v-179z" />
    <glyph glyph-name="uni045A" unicode="&#x45a;" horiz-adv-x="876" 
d="M87 0v509h82v-202h267v202h82v-202h140q188 0 188 -148q0 -159 -196 -159h-214v243h-267v-243h-82zM518 65h132q111 0 111 92q0 86 -115 86h-128v-178z" />
    <glyph glyph-name="uni045B" unicode="&#x45b;" 
d="M88 0v588h-95v64h95v104h82v-104h190v-64h-190v-31q0 -86 -2 -140h2q59 101 170 101q100 0 142.5 -60t42.5 -169v-289h-81v257q0 46 -4.5 78t-17.5 59.5t-38 41.5t-63 14q-78 0 -125 -75q-26 -43 -26 -128v-247h-82z" />
    <glyph glyph-name="uni045C" unicode="&#x45c;" horiz-adv-x="527" 
d="M409 756l-124 -177h-58l94 177h88zM414 0l-154 156q-50 50 -89 100h-2v-256h-82v509h82v-234h2q48 55 90 99l129 135h108l-247 -238l273 -271h-110z" />
    <glyph glyph-name="uni045D" unicode="&#x45d;" horiz-adv-x="620" 
d="M301 579l-124 177h88l94 -177h-58zM88 0v509h82v-255q0 -104 -6 -151h3l273 406h92v-509h-82v255q0 104 6 151h-3l-273 -406h-92z" />
    <glyph glyph-name="uni045E" unicode="&#x45e;" horiz-adv-x="486" 
d="M247 583q-104 0 -144 112l44 20q32 -71 100 -71q69 0 101 71l43 -20q-40 -112 -144 -112zM100 509l109 -322q15 -41 36 -122h2q20 68 38 122l109 322h82l-188 -525q-42 -116 -82 -161t-113 -45q-31 0 -56 8l6 65q24 -7 46 -7q41 0 64.5 28t49.5 109l-191 528h88z" />
    <glyph glyph-name="uni045F" unicode="&#x45f;" horiz-adv-x="602" 
d="M264 -148v148h-176v509h82v-443h262v443h82v-509h-175v-148h-75z" />
    <glyph glyph-name="uni0490" unicode="&#x490;" horiz-adv-x="481" 
d="M97 0v698h295v116h75v-189h-284v-625h-86z" />
    <glyph glyph-name="uni0491" unicode="&#x491;" horiz-adv-x="422" 
d="M87 0v509h256v100h72v-165h-246v-444h-82z" />
    <glyph glyph-name="Wgrave" unicode="&#x1e80;" horiz-adv-x="1015" 
d="M677 0l-143 517q-19 71 -29 117h-2q-12 -63 -27 -117l-140 -517h-109l-211 698h93l139 -492q20 -72 33 -137h2q16 80 33 137l131 492h121l134 -492q11 -39 34 -137h2q10 47 33 137l139 492h90l-215 -698h-108zM370 892h93l85 -142h-60z" />
    <glyph glyph-name="wgrave" unicode="&#x1e81;" horiz-adv-x="825" 
d="M275 0h-98l-164 509h88l94 -323q9 -30 31 -122h2q14 58 34 121l103 324h99l103 -324q18 -59 33 -121h2q16 70 32 120l97 325h81l-167 -509h-95l-109 346q-17 55 -27 103h-2q-8 -37 -28 -103zM399 579l-124 177h88l94 -177h-58z" />
    <glyph glyph-name="Wacute" unicode="&#x1e82;" horiz-adv-x="1015" 
d="M677 0l-143 517q-19 71 -29 117h-2q-12 -63 -27 -117l-140 -517h-109l-211 698h93l139 -492q20 -72 33 -137h2q16 80 33 137l131 492h121l134 -492q11 -39 34 -137h2q10 47 33 137l139 492h90l-215 -698h-108zM650 893l-119 -143h-59l85 143h93z" />
    <glyph glyph-name="wacute" unicode="&#x1e83;" horiz-adv-x="825" 
d="M275 0h-98l-164 509h88l94 -323q9 -30 31 -122h2q14 58 34 121l103 324h99l103 -324q18 -59 33 -121h2q16 70 32 120l97 325h81l-167 -509h-95l-109 346q-17 55 -27 103h-2q-8 -37 -28 -103zM574 756l-124 -177h-58l94 177h88z" />
    <glyph glyph-name="Wdieresis" unicode="&#x1e84;" horiz-adv-x="1015" 
d="M677 0l-143 517q-19 71 -29 117h-2q-12 -63 -27 -117l-140 -517h-109l-211 698h93l139 -492q20 -72 33 -137h2q16 80 33 137l131 492h121l134 -492q11 -39 34 -137h2q10 47 33 137l139 492h90l-215 -698h-108zM454 871v-91h-82v91h82zM638 871v-91h-82v91h82z" />
    <glyph glyph-name="wdieresis" unicode="&#x1e85;" horiz-adv-x="825" 
d="M275 0h-98l-164 509h88l94 -323q9 -30 31 -122h2q14 58 34 121l103 324h99l103 -324q18 -59 33 -121h2q16 70 32 120l97 325h81l-167 -509h-95l-109 346q-17 55 -27 103h-2q-8 -37 -28 -103zM363 700v-85h-82v85h82zM547 700v-85h-82v85h82z" />
    <glyph glyph-name="Ygrave" unicode="&#x1ef2;" horiz-adv-x="643" 
d="M8 698h105l99 -153q35 -53 111 -178h2q37 63 111 178l98 153h102l-270 -402v-296h-86v294zM193 892h93l85 -142h-60z" />
    <glyph glyph-name="ygrave" unicode="&#x1ef3;" horiz-adv-x="486" 
d="M100 509l109 -322q15 -41 36 -122h2q20 68 38 122l109 322h82l-188 -525q-42 -116 -82 -161t-113 -45q-31 0 -56 8l6 65q24 -7 46 -7q41 0 64.5 28t49.5 109l-191 528h88zM229 579l-124 177h88l94 -177h-58z" />
    <glyph glyph-name="uni2010" unicode="&#x2010;" horiz-adv-x="332" 
d="M294 298v-67h-255v67h255z" />
    <glyph glyph-name="endash" unicode="&#x2013;" horiz-adv-x="500" 
d="M500 293v-57h-500v57h500z" />
    <glyph glyph-name="emdash" unicode="&#x2014;" horiz-adv-x="1000" 
d="M880 293v-57h-760v57h760z" />
    <glyph glyph-name="afii00208" unicode="&#x2015;" horiz-adv-x="1000" 
d="M880 293v-57h-760v57h760z" />
    <glyph glyph-name="quoteleft" unicode="&#x2018;" horiz-adv-x="274" 
d="M63 496l81 238h66l-61 -238h-86z" />
    <glyph glyph-name="quoteright" unicode="&#x2019;" horiz-adv-x="274" 
d="M210 734l-80 -238h-67l61 238h86z" />
    <glyph glyph-name="quotesinglbase" unicode="&#x201a;" horiz-adv-x="274" 
d="M208 107l-81 -236h-67l62 236h86z" />
    <glyph glyph-name="quotedblleft" unicode="&#x201c;" horiz-adv-x="449" 
d="M63 496l81 238h66l-61 -238h-86zM238 496l81 238h66l-61 -238h-86z" />
    <glyph glyph-name="quotedblright" unicode="&#x201d;" horiz-adv-x="449" 
d="M385 734l-81 -238h-66l61 238h86zM210 734l-80 -238h-67l61 238h86z" />
    <glyph glyph-name="quotedblbase" unicode="&#x201e;" horiz-adv-x="449" 
d="M382 107l-80 -236h-67l62 236h85zM208 107l-81 -236h-67l62 236h86z" />
    <glyph glyph-name="dagger" unicode="&#x2020;" horiz-adv-x="577" 
d="M321 698v-178h171v-63h-171v-457h-69v457h-168v63h168v178h69z" />
    <glyph glyph-name="daggerdbl" unicode="&#x2021;" horiz-adv-x="577" 
d="M321 698v-178h171v-63h-171v-220h171v-62h-171v-175h-69v175h-168v62h168v220h-168v63h168v178h69z" />
    <glyph glyph-name="bullet" unicode="&#x2022;" horiz-adv-x="491" 
d="M248 510q69 0 118 -50.5t49 -119.5q0 -71 -49.5 -120.5t-119.5 -49.5q-71 0 -120.5 50t-49.5 122q0 70 50 119t122 49z" />
    <glyph glyph-name="ellipsis" unicode="&#x2026;" horiz-adv-x="1000" 
d="M216 99v-99h-98v99h98zM549 99v-99h-98v99h98zM882 99v-99h-98v99h98z" />
    <glyph glyph-name="perthousand" unicode="&#x2030;" horiz-adv-x="1298" 
d="M234 709q75 0 117.5 -48t42.5 -133t-44 -134.5t-120 -49.5t-120 48.5t-44 133.5q0 86 44.5 134.5t123.5 48.5zM230 657q-45 0 -70 -35.5t-25 -97.5q0 -59 25 -93t70 -34q44 0 69.5 34.5t25.5 96.5t-24.5 95.5t-70.5 33.5zM705 735l-430 -756h-59l430 756h59zM680 355
q75 0 117 -48t42 -133t-44 -135t-119 -50t-119 48.5t-44 133.5q0 86 44 135t123 49zM676 302q-44 0 -69 -35t-25 -97q0 -60 24.5 -94t68.5 -34q45 0 70 34t25 96q0 63 -24 96.5t-70 33.5zM1073 355q75 0 117 -48t42 -133t-44 -135t-119 -50t-119 48.5t-44 133.5q0 86 44 135
t123 49zM1069 302q-44 0 -69 -35t-25 -97q0 -60 24.5 -94t68.5 -34q45 0 70 34t25 96q0 63 -24 96.5t-70 33.5z" />
    <glyph glyph-name="guilsinglleft" unicode="&#x2039;" horiz-adv-x="306" 
d="M256 448l-129 -198l131 -201h-75l-141 201l138 198h76z" />
    <glyph glyph-name="guilsinglright" unicode="&#x203a;" horiz-adv-x="306" 
d="M50 448h76l138 -198l-140 -201h-76l132 201z" />
    <glyph glyph-name="interrobang" unicode="&#x203d;" horiz-adv-x="481" 
d="M248 509l-7 -183h2q7 22 28 48q50 62 65.5 90.5t15.5 66.5q0 53 -37.5 79t-100.5 26q-68 0 -140 -33l-7 77q76 28 157 28q96 0 155 -43t59 -126q0 -49 -23.5 -93.5t-81.5 -106.5q-43 -45 -60 -74t-17 -66v-15h-77l-13 325h82zM265 95v-95h-94v95h94z" />
    <glyph glyph-name="fraction" unicode="&#x2044;" horiz-adv-x="140" 
d="M306 742l-404 -764h-59l404 764h59z" />
    <glyph glyph-name="four.superior" unicode="&#x2074;" horiz-adv-x="380" 
d="M293 847v-277h59v-49h-59v-93h-63v93h-205v53l186 273h82zM230 570v95q0 65 3 136h-1q-21 -40 -62 -102l-87 -129h147z" />
    <glyph glyph-name="Euro" unicode="&#x20ac;" horiz-adv-x="577" 
d="M534 697l-15 -74q-42 9 -86 9q-86 0 -146 -52.5t-81 -140.5h276l-11 -50h-273q-1 -11 -1 -36q0 -21 1 -30h263l-11 -50h-245q18 -95 79.5 -149.5t152.5 -54.5q49 0 82 9l6 -77q-43 -8 -87 -8q-126 0 -213.5 72.5t-108.5 207.5h-77l8 50h64q-1 9 -1 30q0 25 1 36h-72l8 50
h71q24 121 111.5 194t204.5 73q54 0 100 -9z" />
    <glyph glyph-name="uni2116" unicode="&#x2116;" horiz-adv-x="1016" 
d="M97 0v698h111l322 -605v605h82v-698h-115l-318 594v-594h-82zM711 127v56h251v-56h-251zM837 240q-68 0 -107 43.5t-39 119.5t39 119t109 43q67 0 105 -43t38 -118q0 -76 -39 -120t-106 -44zM837 297q35 0 55.5 28t20.5 78q0 105 -76 105q-37 0 -58 -29t-21 -79
q0 -48 21 -75.5t58 -27.5z" />
    <glyph glyph-name="minus" unicode="&#x2212;" horiz-adv-x="577" 
d="M544 225h-510v67h510v-67z" />
    <glyph glyph-name="uni2215" unicode="&#x2215;" horiz-adv-x="140" 
d="M306 742l-404 -764h-59l404 764h59z" />
    </font>
</defs>
</svg>
