<svg width="15" height="15" viewBox="0 0 15 15" fill="none" xmlns="http://www.w3.org/2000/svg">
<path d="M4.84971 7.55312C6.93408 7.55312 8.62471 5.8625 8.62471 3.77813C8.62471 1.69375 6.93408 0 4.84971 0C2.76533 0 1.07471 1.69063 1.07471 3.775C1.07471 5.85938 2.76533 7.55312 4.84971 7.55312ZM3.53096 5.26875C3.56533 5.14375 3.59971 5.02187 3.63721 4.89687C3.68096 4.75312 3.72158 4.7375 3.85283 4.80625C4.07783 4.92188 4.31533 4.9875 4.56533 5.01875C4.72471 5.0375 4.88408 5.02188 5.03096 4.95625C5.30908 4.83438 5.35283 4.5125 5.11846 4.31875C5.03721 4.25312 4.94658 4.20312 4.85283 4.1625C4.60908 4.05625 4.35596 3.975 4.12471 3.8375C3.75283 3.61563 3.51533 3.30625 3.54346 2.85313C3.57471 2.34063 3.86533 2.01875 4.33408 1.85C4.52783 1.77813 4.52783 1.78125 4.53096 1.57812C4.53096 1.50937 4.53096 1.44063 4.53096 1.37188C4.53408 1.21875 4.56221 1.19375 4.71221 1.1875C4.75908 1.1875 4.80596 1.1875 4.85283 1.1875C5.17783 1.1875 5.17783 1.1875 5.17783 1.5125C5.17783 1.74063 5.17783 1.74375 5.40596 1.77813C5.58096 1.80625 5.74658 1.85625 5.90908 1.92813C5.99971 1.96875 6.03096 2.03125 6.00596 2.125C5.96533 2.26562 5.92783 2.40625 5.88096 2.54375C5.83721 2.675 5.79658 2.69375 5.67158 2.63438C5.41846 2.5125 5.15283 2.45937 4.87158 2.475C4.79658 2.47812 4.72783 2.4875 4.65908 2.51875C4.41846 2.625 4.37783 2.89062 4.58408 3.05625C4.68721 3.14062 4.80596 3.2 4.93096 3.25C5.14346 3.3375 5.35908 3.425 5.56533 3.5375C6.21221 3.89687 6.38721 4.70937 5.93096 5.2625C5.76533 5.4625 5.55283 5.59688 5.29971 5.66563C5.19033 5.69688 5.14033 5.75312 5.14658 5.86562C5.15283 5.97813 5.14658 6.0875 5.14658 6.2C5.14658 6.3 5.09658 6.35312 4.99658 6.35625C4.87783 6.35938 4.75596 6.35938 4.63721 6.35625C4.53096 6.35312 4.48096 6.29375 4.48096 6.19063C4.48096 6.10938 4.48096 6.02813 4.47783 5.94688C4.47471 5.76875 4.47158 5.75937 4.29658 5.73125C4.07471 5.69687 3.85908 5.64687 3.65596 5.54688C3.50283 5.475 3.48721 5.43438 3.53096 5.26875Z" fill="#A5A5A5"/>
<path d="M13.3186 7.86874H12.878C12.5874 6.97812 12.0186 6.18749 11.2592 5.57499C11.2592 5.54687 11.253 5.51562 11.2467 5.48749C11.0874 4.92812 11.2842 4.41874 11.5124 4.05312C11.6717 3.79687 11.4655 3.46874 11.1655 3.50624C10.4936 3.59062 10.0311 3.83749 9.71235 4.11562C9.4936 4.30624 9.33735 4.56249 9.2686 4.84687C8.78735 6.84062 6.99048 8.32499 4.84985 8.32499C3.80923 8.32499 2.85298 7.97499 2.08735 7.38749C1.82173 7.96249 1.67798 8.59062 1.67798 9.24999C1.67798 9.60624 1.72173 9.95312 1.80298 10.2875C1.80298 10.2875 1.80298 10.2937 1.8061 10.3031C1.89048 10.65 2.0186 10.9844 2.1811 11.3C2.39673 11.7656 2.70923 12.3094 3.14048 12.75C3.76235 13.3906 3.8686 14.1844 3.88423 14.5281V14.675C3.88423 14.6812 3.88423 14.6875 3.88423 14.6937C3.88423 14.6969 3.88423 14.6969 3.88423 14.6969C3.89673 14.8656 4.03735 15 4.20923 15H6.18423C6.36235 15 6.50923 14.8562 6.50923 14.675V14.1875C6.79673 14.225 7.09048 14.2469 7.38735 14.2469C7.62173 14.2469 7.84985 14.2344 8.07798 14.2094V14.675C8.07798 14.8531 8.22173 15 8.40298 15H10.3842C10.5624 15 10.7092 14.8562 10.7092 14.675V14.1875C10.7124 14.025 10.7686 13.3781 11.3811 12.825C11.403 12.8062 11.4249 12.7875 11.4467 12.7687C11.453 12.7625 11.4592 12.7594 11.4655 12.7531C12.1467 12.1469 12.6499 11.3906 12.9092 10.5469H13.3249C13.6561 10.5469 13.9249 10.2781 13.9249 9.94687V8.46874C13.9186 8.13749 13.6499 7.86874 13.3186 7.86874ZM10.8467 7.97499C10.5749 7.97499 10.3561 7.75624 10.3561 7.48437C10.3561 7.21249 10.5749 6.99374 10.8467 6.99374C11.1186 6.99374 11.3374 7.21249 11.3374 7.48437C11.3374 7.75624 11.1186 7.97499 10.8467 7.97499Z" fill="#A5A5A5"/>
<circle cx="5.00049" cy="4" r="3" fill="#A5A5A5"/>
</svg>
