<svg width="20" height="24" viewBox="0 0 20 24" fill="none" xmlns="http://www.w3.org/2000/svg">
<path fill-rule="evenodd" clip-rule="evenodd" d="M9.9312 0C6.6175 0 3.9312 2.68629 3.9312 6V7H2.00009C0.843161 7 -0.0724377 7.97867 0.00451993 9.13304L0.808954 21.1996C0.914014 22.7755 2.22292 24 3.80231 24H16.0601C17.6395 24 18.9484 22.7754 19.0535 21.1996L19.8579 9.13304C19.9348 7.97867 19.0192 7 17.8623 7H15.9312V6C15.9312 2.68629 13.2449 0 9.9312 0ZM13.9312 9V13C13.9312 13.5523 14.3789 14 14.9312 14C15.4835 14 15.9312 13.5523 15.9312 13V9H17.8623L17.0579 21.0665C17.0229 21.5918 16.5866 22 16.0601 22H3.80231C3.27585 22 2.83954 21.5918 2.80452 21.0665L2.00009 9H3.9312V13C3.9312 13.5523 4.37892 14 4.9312 14C5.48349 14 5.9312 13.5523 5.9312 13V9L13.9312 9ZM13.9312 7V6C13.9312 3.79086 12.1403 2 9.9312 2C7.72206 2 5.9312 3.79086 5.9312 6V7H13.9312Z" fill="black"/>
</svg>
