<svg width="17" height="17" viewBox="0 0 17 17" fill="none" xmlns="http://www.w3.org/2000/svg">
<g clip-path="url(#clip0)">
<path d="M14.0643 5.60435L16.6347 4.89038C16.8998 4.81677 17.0549 4.54224 16.9813 4.27718C16.9077 4.01219 16.6332 3.85696 16.3681 3.93061L13.1729 4.81813C13.1727 4.81819 13.1726 4.81823 13.1724 4.81826L8.99759 5.97788V0.498658C8.99759 0.223603 8.7746 0.000610352 8.49954 0.000610352C8.22449 0.000610352 8.00149 0.223603 8.00149 0.498658V6.2546L3.57073 7.48534C3.57056 7.48541 3.5704 7.48544 3.57026 7.48547L0.364428 8.37595C0.0994328 8.44956 -0.0557589 8.72408 0.0178194 8.98915C0.0790461 9.20958 0.279295 9.35398 0.49744 9.35398C0.541533 9.35398 0.586424 9.34807 0.630983 9.33569L2.62935 8.7806L0.0706457 13.0455C0.0242276 13.1229 -0.000309555 13.2115 -0.000309555 13.3017C-0.000309555 15.3412 1.65895 17.0004 3.69843 17.0004C5.73797 17.0004 7.3972 15.3411 7.3972 13.3017C7.3972 13.2115 7.37266 13.1229 7.32621 13.0455L4.46207 8.27152L12.2315 6.11345L9.67281 10.3783C9.62639 10.4557 9.60182 10.5442 9.60182 10.6345C9.60182 12.674 11.2611 14.3332 13.3006 14.3332C14.2885 14.3332 15.2173 13.9484 15.916 13.2498C16.6146 12.5512 16.9994 11.6224 16.9993 10.6344C16.9994 10.5442 16.9749 10.4556 16.9284 10.3782L14.0643 5.60435ZM6.01963 12.8037H1.37736L3.69846 8.93479L6.01963 12.8037ZM10.9795 10.1364L13.3006 6.26761L15.6218 10.1364H10.9795Z" fill="white"/>
</g>
<defs>
<clipPath id="clip0">
<rect width="17" height="17" fill="white"/>
</clipPath>
</defs>
</svg>
