<svg width="38" height="38" viewBox="0 0 38 38" fill="none" xmlns="http://www.w3.org/2000/svg">
<path d="M38 20.7728L35.3974 19.2969H24.8633V25.6907C25.8719 24.6119 27.3061 23.9358 28.8957 23.9358C31.941 23.9358 34.4187 26.4135 34.4187 29.4588C34.4187 29.5022 34.4163 29.5452 34.4155 29.5883H38V20.7728Z" fill="#FFCF02"/>
<path d="M24.8633 17.0703H33.3622L30.3934 9.94531H24.8633V17.0703Z" fill="#FFCF02"/>
<path d="M22.6367 5.19531H0V12.3203H17.4168V14.5469H0V16.6131H14.25V18.8397H0V29.5883H3.58453C3.58337 29.5452 3.58134 29.5022 3.58134 29.4588C3.58134 26.4135 6.05898 23.9358 9.10426 23.9358C12.1496 23.9358 14.6272 26.4135 14.6272 29.4588C14.6272 29.5022 14.6249 29.5452 14.6237 29.5883H22.6367V5.19531Z" fill="#FFCF02"/>
<path d="M12.2793 28.5789C11.7934 26.8246 9.97738 25.7962 8.22281 26.2821C6.46852 26.768 5.44018 28.5841 5.92608 30.3384C6.41198 32.093 8.22802 33.1213 9.9826 32.6354C11.7369 32.1495 12.7652 30.3334 12.2793 28.5789Z" fill="#FFCF02"/>
<path d="M31.8036 27.9028C30.9446 26.2975 28.9468 25.6927 27.3418 26.5521C25.7365 27.4111 25.1318 29.4086 25.9908 31.0139C26.8501 32.6191 28.8476 33.2239 30.4529 32.3646C32.0579 31.5056 32.6629 29.508 31.8036 27.9028Z" fill="#FFCF02"/>
</svg>
