<svg width="27" height="24" viewBox="0 0 27 24" fill="none" xmlns="http://www.w3.org/2000/svg">
<path d="M13.4662 3.13882L12.7591 3.84593C13.1496 4.23645 13.7828 4.23645 14.1733 3.84593L13.4662 3.13882ZM3.13887 3.13887L3.84597 3.84597L3.13887 3.13887ZM3.13879 13.4661L3.84686 14.1723C4.23647 13.7816 4.23604 13.1492 3.84591 12.759L3.13879 13.4661ZM3.1387 13.4662L2.43063 12.7601C2.04102 13.1508 2.04145 13.7832 2.43159 14.1733L3.1387 13.4662ZM12.0518 22.3794L11.3447 23.0865L12.0518 22.3794ZM14.8803 22.3794L14.1732 21.6723L14.1732 21.6723L14.8803 22.3794ZM23.7757 13.484L23.0709 12.7745L23.0685 12.7769L23.7757 13.484ZM23.7935 13.4662L24.5005 14.1734L24.5006 14.1733L23.7935 13.4662ZM23.7935 3.13887L23.0864 3.84597V3.84597L23.7935 3.13887ZM14.1733 2.43171C10.9309 -0.810586 5.67409 -0.810568 2.43176 2.43176L3.84597 3.84597C6.30726 1.38469 10.2978 1.38468 12.7591 3.84593L14.1733 2.43171ZM2.43176 2.43176C-0.810557 5.67407 -0.810586 10.9309 2.43167 14.1732L3.84591 12.759C1.38468 10.2977 1.3847 6.30725 3.84597 3.84597L2.43176 2.43176ZM2.43072 12.76L2.43063 12.7601L3.84677 14.1724L3.84686 14.1723L2.43072 12.76ZM2.43159 14.1733L11.3447 23.0865L12.759 21.6723L3.84581 12.7591L2.43159 14.1733ZM11.3447 23.0865C12.5163 24.2581 14.4158 24.2581 15.5874 23.0865L14.1732 21.6723C13.7826 22.0628 13.1495 22.0628 12.759 21.6723L11.3447 23.0865ZM15.5874 23.0865L24.4828 14.1911L23.0685 12.7769L14.1732 21.6723L15.5874 23.0865ZM23.0864 12.7591C23.0812 12.7643 23.076 12.7695 23.0709 12.7745L24.4804 14.1935C24.4872 14.1867 24.4939 14.18 24.5005 14.1734L23.0864 12.7591ZM23.0864 3.84597C25.5477 6.30727 25.5477 10.2978 23.0864 12.7591L24.5006 14.1733C27.7429 10.931 27.7429 5.6741 24.5006 2.43176L23.0864 3.84597ZM14.1733 3.84593C16.6346 1.38468 20.6251 1.38469 23.0864 3.84597L24.5006 2.43176C21.2583 -0.810568 16.0014 -0.810586 12.7591 2.43171L14.1733 3.84593Z" fill="#ffcf02"/>
</svg>