<svg width="20" height="20" viewBox="0 0 20 20" fill="none" xmlns="http://www.w3.org/2000/svg">
<path d="M11.9757 13.2129C11.5041 13.6854 10.8757 13.9454 10.2082 13.9454C9.54076 13.9454 8.91241 13.6854 8.44077 13.2129L4.89909 9.67133C4.42668 9.19954 4.16667 8.57134 4.16667 7.90377C4.16667 7.23621 4.42668 6.60801 4.89909 6.13636C5.37073 5.6638 5.99908 5.4038 6.66665 5.4038C7.33406 5.4038 7.96241 5.6638 8.43406 6.13636L10.2082 7.90957L15.1057 3.01216C13.5057 1.64803 11.4341 0.820557 9.16662 0.820557C4.10411 0.820557 0 4.92467 0 9.98703C0 15.0495 4.10411 19.1537 9.16662 19.1537C14.229 19.1537 18.3331 15.0495 18.3331 9.98703C18.3331 9.03963 18.1891 8.12624 17.9223 7.26627L11.9757 13.2129Z" fill="#FFCF02"/>
<path d="M10.2081 12.2787C9.9948 12.2787 9.78148 12.1971 9.61898 12.0346L6.07745 8.49291C5.75153 8.16713 5.75153 7.64041 6.07745 7.31463C6.40322 6.98871 6.9298 6.98871 7.25572 7.31463L10.2081 10.267L18.5773 1.89797C18.9031 1.5722 19.4297 1.5722 19.7556 1.89797C20.0814 2.2239 20.0814 2.75047 19.7556 3.0764L10.7973 12.0346C10.6349 12.1971 10.4214 12.2787 10.2081 12.2787Z" fill="white"/>
</svg>
