<svg width="24" height="24" viewBox="0 0 24 24" fill="none" xmlns="http://www.w3.org/2000/svg">
<path d="M12 2.77702C15.0039 2.77702 15.3597 2.7885 16.546 2.84262C17.6428 2.89264 18.2385 3.07591 18.6349 3.22998C19.16 3.43406 19.5348 3.67784 19.9285 4.07154C20.3222 4.46519 20.5659 4.83995 20.77 5.36507C20.9241 5.76149 21.1074 6.35717 21.1574 7.45404C21.2115 8.6403 21.223 8.99613 21.223 12C21.223 15.0039 21.2115 15.3597 21.1574 16.546C21.1074 17.6428 20.9241 18.2385 20.77 18.6349C20.566 19.1601 20.3222 19.5348 19.9285 19.9285C19.5349 20.3221 19.16 20.5659 18.6349 20.77C18.2385 20.9241 17.6428 21.1074 16.546 21.1574C15.3599 21.2115 15.0041 21.223 12 21.223C8.9959 21.223 8.64017 21.2115 7.45403 21.1574C6.35717 21.1074 5.76149 20.9241 5.36507 20.77C4.83995 20.566 4.46519 20.3222 4.07154 19.9285C3.67789 19.5348 3.43406 19.1601 3.22998 18.6349C3.07591 18.2385 2.89264 17.6428 2.84262 16.546C2.7885 15.3597 2.77702 15.0039 2.77702 12C2.77702 8.99613 2.7885 8.6403 2.84262 7.45404C2.89264 6.35717 3.07591 5.76149 3.22998 5.36507C3.43406 4.83995 3.67784 4.46519 4.07154 4.07154C4.46519 3.67784 4.83995 3.43406 5.36507 3.22998C5.76149 3.07591 6.35717 2.89264 7.45403 2.84262C8.6403 2.7885 8.99613 2.77702 12 2.77702ZM12 0.75C8.94468 0.75 8.56157 0.762951 7.36164 0.8177C6.16421 0.872315 5.34641 1.06251 4.63082 1.34063C3.89104 1.62809 3.26365 2.01276 2.63819 2.63819C2.01276 3.26365 1.62809 3.89104 1.34063 4.63082C1.06251 5.34641 0.872315 6.16421 0.8177 7.36164C0.762951 8.56157 0.75 8.94468 0.75 12C0.75 15.0553 0.762951 15.4384 0.8177 16.6384C0.872315 17.8358 1.06251 18.6536 1.34063 19.3691C1.62809 20.1089 2.01276 20.7363 2.63819 21.3618C3.26365 21.9872 3.89104 22.3719 4.63082 22.6594C5.34641 22.9375 6.16421 23.1276 7.36164 23.1823C8.56157 23.2371 8.94468 23.25 12 23.25C15.0553 23.25 15.4384 23.2371 16.6384 23.1823C17.8357 23.1276 18.6536 22.9375 19.3691 22.6594C20.1089 22.3719 20.7363 21.9872 21.3618 21.3618C21.9872 20.7363 22.3719 20.1089 22.6594 19.3691C22.9375 18.6536 23.1276 17.8358 23.1823 16.6384C23.2371 15.4384 23.25 15.0553 23.25 12C23.25 8.94468 23.2371 8.56157 23.1823 7.36164C23.1276 6.16421 22.9375 5.34641 22.6594 4.63082C22.3719 3.89104 21.9872 3.26365 21.3618 2.63819C20.7363 2.01276 20.1089 1.62809 19.3691 1.34063C18.6536 1.06251 17.8357 0.872315 16.6384 0.8177C15.4384 0.762951 15.0553 0.75 12 0.75Z" fill="white"/>
<path d="M11.9999 6.22308C8.80934 6.22308 6.2229 8.80953 6.2229 12.0001C6.2229 15.1907 8.80934 17.7771 11.9999 17.7771C15.1905 17.7771 17.777 15.1907 17.777 12.0001C17.777 8.80953 15.1905 6.22308 11.9999 6.22308ZM11.9999 15.7501C9.92885 15.7501 8.24992 14.0712 8.24992 12.0001C8.24992 9.92903 9.92885 8.25011 11.9999 8.25011C14.071 8.25011 15.7499 9.92903 15.7499 12.0001C15.7499 14.0712 14.071 15.7501 11.9999 15.7501Z" fill="white"/>
<path d="M19.3555 5.99492C19.3555 6.74052 18.751 7.3449 18.0055 7.3449C17.2599 7.3449 16.6555 6.74052 16.6555 5.99492C16.6555 5.24933 17.2599 4.6449 18.0055 4.6449C18.751 4.6449 19.3555 5.24933 19.3555 5.99492Z" fill="white"/>
</svg>
