<svg width="25" height="25" viewBox="0 0 25 25" fill="none" xmlns="http://www.w3.org/2000/svg">
<circle cx="12" cy="13" r="11" stroke="#ffcf02" stroke-width="2"/>
<circle cx="20" cy="5" r="4" fill="#ffcf02" stroke="white" stroke-width="2"/>
<mask id="mask0" mask-type="alpha" maskUnits="userSpaceOnUse" x="0" y="1" width="24" height="24">
<circle cx="12" cy="13" r="12" fill="#C4C4C4"/>
</mask>
<g mask="url(#mask0)">
<path fill-rule="evenodd" clip-rule="evenodd" d="M9 11C9 9.34315 10.3431 8 12 8C13.6569 8 15 9.34315 15 11C15 12.6569 13.6569 14 12 14C10.3431 14 9 12.6569 9 11ZM15.4013 14.6649C16.3847 13.7518 17 12.4478 17 11C17 8.23858 14.7614 6 12 6C9.23858 6 7 8.23858 7 11C7 12.4478 7.61532 13.7518 8.59871 14.6649C5.31433 16.0065 3 19.233 3 23C3 27.9706 7.02944 32 12 32C16.9706 32 21 27.9706 21 23C21 19.233 18.6857 16.0065 15.4013 14.6649ZM12 16C8.13401 16 5 19.134 5 23C5 26.866 8.13401 30 12 30C15.866 30 19 26.866 19 23C19 19.134 15.866 16 12 16Z" fill="#ffcf02"/>
</g>
</svg>