<svg width="36" height="36" viewBox="0 0 36 36" fill="none" xmlns="http://www.w3.org/2000/svg">
<path d="M25.6237 8.98909L9.72272 8.98909C9.0819 8.99352 8.44107 9.23661 7.95495 9.72273L1.76778 15.9099C0.791061 16.8866 0.791061 18.4687 1.76778 19.4455L7.95495 25.6326C8.4455 26.1232 9.08633 26.3663 9.72716 26.3618L25.637 26.3618C26.2734 26.3618 26.9143 26.1187 27.4004 25.6326C27.8865 25.1465 28.134 24.5012 28.134 23.8648V11.4905C28.1296 10.8497 27.8866 10.2089 27.4004 9.72273C26.9098 9.23217 26.269 8.98909 25.6237 8.98909ZM7.51303 19.0035C6.77939 19.7371 5.59502 19.7371 4.86138 19.0035C4.12775 18.2699 4.12775 17.0855 4.86138 16.3518C5.59502 15.6182 6.77939 15.6182 7.51303 16.3518C8.24667 17.0855 8.24663 18.2699 7.51303 19.0035Z" fill="#FFCF02"/>
</svg>