<svg width="11" height="11" viewBox="0 0 11 11" fill="none" xmlns="http://www.w3.org/2000/svg">
<path d="M10.104 5.14582H5.85404V0.895819C5.85404 0.700053 5.69562 0.541641 5.49986 0.541641C5.30409 0.541641 5.14568 0.700053 5.14568 0.895819V5.14582H0.895682C0.699916 5.14582 0.541504 5.30423 0.541504 5.5C0.541504 5.69576 0.699916 5.85417 0.895682 5.85417H5.14568V10.1042C5.14568 10.2999 5.30409 10.4584 5.49986 10.4584C5.69562 10.4584 5.85404 10.2999 5.85404 10.1042V5.85417H10.104C10.2998 5.85417 10.4582 5.69576 10.4582 5.5C10.4582 5.30423 10.2998 5.14582 10.104 5.14582Z" fill="black"/>
</svg>
