<svg width="18" height="16" viewBox="0 0 18 16" fill="none" xmlns="http://www.w3.org/2000/svg">
<path d="M0.00382704 11.4904C0.00382704 13.8569 1.92215 15.7752 4.28863 15.7752C6.65514 15.7752 8.57346 13.8569 8.57346 11.4904C8.57346 9.12385 6.65514 7.20556 4.28863 7.20556C3.80228 7.20556 3.33673 7.29035 2.9009 7.43975C3.86517 1.90945 8.17774 -1.65697 4.18 1.27826C-0.252899 4.53311 -0.000920577 11.3594 0.00403962 11.4845C0.00403962 11.4865 0.00382704 11.4882 0.00382704 11.4904Z" fill="#FFCF02"/>
<path d="M9.43035 11.4904C9.43035 13.8569 11.3487 15.7752 13.7152 15.7752C16.0817 15.7752 18 13.8569 18 11.4904C18 9.12385 16.0816 7.20556 13.7151 7.20556C13.2288 7.20556 12.7632 7.29035 12.3274 7.43975C13.2917 1.90945 17.6042 -1.65697 13.6065 1.27826C9.17363 4.53311 9.42557 11.3594 9.43056 11.4845C9.43056 11.4865 9.43035 11.4882 9.43035 11.4904Z" fill="#FFCF02"/>
</svg>