<svg width="31" height="31" viewBox="0 0 31 31" fill="none" xmlns="http://www.w3.org/2000/svg">
<path d="M27.125 17.19V6.45836C27.125 5.03363 25.9664 3.875 24.5416 3.875H21.8473C21.6777 3.875 21.5112 3.80628 21.3907 3.68579L19.5641 1.85928C19.1983 1.49345 18.7115 1.29165 18.1943 1.29165H12.8056C12.2884 1.29165 11.8016 1.49345 11.4357 1.85928L9.60921 3.68579C9.48872 3.80628 9.32222 3.875 9.15257 3.875H6.45823C5.03356 3.875 3.875 5.03363 3.875 6.45836V17.1916C0.710336 18.523 0 20.0685 0 21.1542C0 24.1486 5.21751 26.4714 12.4679 26.8955L11.6725 27.6911C11.4199 27.9434 11.4199 28.3527 11.6725 28.6051L12.5862 29.519C12.8388 29.7714 13.2479 29.7714 13.5004 29.519L16.4266 26.5927C16.9314 26.0878 16.9314 25.2695 16.4266 24.7648L13.7869 22.125C13.5343 21.8726 13.1252 21.8726 12.8728 22.125L11.9589 23.0389C11.7063 23.2914 11.7063 23.7006 11.9589 23.9531L12.3016 24.2958C5.84762 23.8518 2.66564 21.8207 2.58535 21.1586C2.60237 21.0195 2.99114 20.4229 4.48622 19.7323C4.96042 20.2984 5.66349 20.6666 6.45823 20.6666H24.5416C25.3366 20.6666 26.0398 20.2982 26.514 19.7318C28.0018 20.4182 28.3998 21.0253 28.4157 21.1378C28.3236 21.6263 26.0443 23.5559 19.8376 24.1985L19.1948 24.2651C18.8396 24.3019 18.5817 24.6195 18.6185 24.9747L18.7517 26.2603C18.7885 26.6154 19.1061 26.8734 19.4612 26.8366L20.1041 26.77C26.6213 26.0953 31 23.8388 31 21.1542C31 20.0658 30.2914 18.5163 27.125 17.19ZM15.5 16.7916C12.6511 16.7916 10.3334 14.4739 10.3334 11.625C10.3334 8.77615 12.6511 6.45836 15.5 6.45836C18.3489 6.45836 20.6666 8.77615 20.6666 11.625C20.6666 14.4739 18.3489 16.7916 15.5 16.7916ZM23.25 9.04165C22.538 9.04165 21.9584 8.46203 21.9584 7.75C21.9584 7.03797 22.538 6.45836 23.25 6.45836C23.962 6.45836 24.5416 7.03797 24.5416 7.75C24.5416 8.46209 23.962 9.04165 23.25 9.04165Z" fill="#787878"/>
<path d="M15.5 15.5C17.6401 15.5 19.375 13.7651 19.375 11.625C19.375 9.4849 17.6401 7.75 15.5 7.75C13.3599 7.75 11.625 9.4849 11.625 11.625C11.625 13.7651 13.3599 15.5 15.5 15.5Z" fill="#787878"/>
</svg>