<svg width="24" height="24" viewBox="0 0 24 24" fill="none" xmlns="http://www.w3.org/2000/svg">
<path fill-rule="evenodd" clip-rule="evenodd" d="M18.609 10.3045C18.609 14.8909 14.8909 18.609 10.3045 18.609C5.71805 18.609 2 14.8909 2 10.3045C2 5.71805 5.71805 2 10.3045 2C14.8909 2 18.609 5.71805 18.609 10.3045ZM20.609 10.3045C20.609 15.9955 15.9955 20.609 10.3045 20.609C4.61348 20.609 0 15.9955 0 10.3045C0 4.61348 4.61348 0 10.3045 0C15.9955 0 20.609 4.61348 20.609 10.3045Z" fill="#ffcf02"/>
<rect width="2.08085" height="9.33308" transform="matrix(0.707109 -0.707105 0.707109 0.707105 15.9291 17.4006)" fill="#ffcf02"/>
</svg>