<svg width="14" height="14" viewBox="0 0 14 14" fill="#767676" xmlns="http://www.w3.org/2000/svg">
<path d="M11.4336 3.31244L9.16795 5.57812H10.7188C11.0208 5.57812 11.2656 5.82294 11.2656 6.125C11.2656 6.42706 11.0208 6.67188 10.7188 6.67188H8.66797C7.91409 6.67188 7.30078 6.05856 7.30078 5.30469V3.25391C7.30078 2.95184 7.54559 2.70703 7.84766 2.70703C8.14972 2.70703 8.39453 2.95184 8.39453 3.25391V4.8047L10.6601 2.53912C10.8737 2.3255 11.22 2.3255 11.4335 2.53912C11.6472 2.75264 11.6472 3.09892 11.4336 3.31244ZM6.17969 11.2109C6.48175 11.2109 6.72656 10.9661 6.72656 10.6641V8.61328C6.72656 7.85941 6.11325 7.24609 5.35938 7.24609H3.30859C3.00653 7.24609 2.76172 7.49091 2.76172 7.79297C2.76172 8.09503 3.00653 8.33984 3.30859 8.33984H4.85939L2.5937 10.6055C2.38019 10.819 2.38019 11.1653 2.5937 11.3788C2.70052 11.4857 2.84055 11.5391 2.98047 11.5391C3.12039 11.5391 3.26042 11.4857 3.36723 11.3788L5.63281 9.11327V10.6641C5.63281 10.9661 5.87762 11.2109 6.17969 11.2109ZM13.4531 9.625C13.7552 9.625 14 9.38019 14 9.07812V2.1875C14 0.981277 13.0187 0 11.8125 0H2.1875C0.981277 0 0 0.981277 0 2.1875V11.8125C0 13.0187 0.981277 14 2.1875 14H11.8125C13.0187 14 14 13.0187 14 11.8125C14 11.5104 13.7552 11.2656 13.4531 11.2656C13.1511 11.2656 12.9062 11.5104 12.9062 11.8125C12.9062 12.4156 12.4156 12.9062 11.8125 12.9062H2.1875C1.58444 12.9062 1.09375 12.4156 1.09375 11.8125V2.1875C1.09375 1.58444 1.58444 1.09375 2.1875 1.09375H11.8125C12.4156 1.09375 12.9062 1.58444 12.9062 2.1875V9.07812C12.9062 9.38019 13.1511 9.625 13.4531 9.625Z" fill="#767676"/>
</svg>