<svg width="12" height="12" viewBox="0 0 12 12" fill="none" xmlns="http://www.w3.org/2000/svg">
<path d="M10.386 8.30725C10.0636 8.04764 9.71894 7.81452 9.37985 7.57662C8.703 7.10137 8.08443 7.06455 7.57951 7.82909C7.29605 8.25824 6.89922 8.27705 6.48411 8.08869C5.34022 7.57 4.457 6.77076 3.93936 5.60807C3.71075 5.09361 3.71366 4.63267 4.24905 4.26868C4.5325 4.07635 4.81834 3.84853 4.79556 3.42811C4.76589 2.88001 3.43471 1.04815 2.90886 0.854761C2.69137 0.774758 2.47493 0.779796 2.25373 0.854236C1.0211 1.26856 0.510623 2.2821 0.999649 3.48242C2.45799 7.06296 5.0247 9.55578 8.55782 11.0774C8.75942 11.1638 8.98328 11.1985 9.09666 11.2295C9.90093 11.2377 10.8432 10.4626 11.1156 9.69326C11.3778 8.95337 10.8241 8.65985 10.386 8.30725Z" fill="#F1F2F2"/>
<path d="M6.42423 1.08076C9.00738 1.47813 10.1984 2.70625 10.5277 5.30795C10.5579 5.54822 10.4686 5.90983 10.8114 5.91672C11.1699 5.9236 11.0835 5.5673 11.0864 5.32676C11.1166 2.87633 8.9801 0.604978 6.49894 0.521267C6.31165 0.548287 5.92461 0.392257 5.90024 0.811611C5.88408 1.09454 6.21045 1.04791 6.42423 1.08076Z" fill="#F1F2F2"/>
<path d="M6.92944 1.79415C6.68069 1.76422 6.35299 1.64712 6.29497 1.99203C6.23457 2.3539 6.59988 2.31709 6.83486 2.3698C8.43015 2.72637 8.98568 3.30706 9.2482 4.88964C9.28662 5.12038 9.21032 5.4796 9.60239 5.41973C9.89273 5.37549 9.78809 5.06792 9.81247 4.88805C9.82571 3.36851 8.52341 1.98568 6.92944 1.79415Z" fill="#F1F2F2"/>
<path d="M7.0762 3.03658C6.9101 3.04056 6.74771 3.05857 6.68678 3.23579C6.59512 3.5007 6.78771 3.56375 6.98375 3.59527C7.63834 3.70044 7.98246 4.08616 8.04816 4.7389C8.06591 4.91613 8.17823 5.05944 8.34936 5.03931C8.58646 5.01096 8.60792 4.80009 8.60077 4.59956C8.61216 3.86655 7.78325 3.0191 7.0762 3.03658Z" fill="#F1F2F2"/>
</svg>