<svg width="24" height="14" viewBox="0 0 24 14" fill="none" xmlns="http://www.w3.org/2000/svg">
<path fill-rule="evenodd" clip-rule="evenodd" d="M23.4241 0.96307C23.602 0.419799 23.4241 0.0246938 22.6366 0.0246938H20.0198C19.3592 0.0246938 19.0543 0.370412 18.8765 0.740825C18.8765 0.740825 17.53 3.90167 15.65 5.95129C15.0402 6.54395 14.7608 6.7415 14.4305 6.7415C14.2526 6.7415 14.024 6.54395 14.024 6.00068V0.938377C14.024 0.296329 13.8207 0 13.2618 0H9.14608C8.73959 0 8.48553 0.296328 8.48553 0.592658C8.48553 1.21001 9.42555 1.35818 9.52717 3.08677V6.84028C9.52717 7.65519 9.37474 7.80335 9.04446 7.80335C8.15526 7.80335 5.99577 4.61781 4.70007 0.987766C4.44601 0.271636 4.19196 0 3.5314 0H0.889202C0.127029 0 0 0.345717 0 0.716129C0 1.38287 0.889203 4.74128 4.14114 9.18622C6.30064 12.2236 9.37474 13.8534 12.144 13.8534C13.8207 13.8534 14.024 13.483 14.024 12.8657V10.5691C14.024 9.82827 14.1764 9.7048 14.71 9.7048C15.091 9.7048 15.777 9.90236 17.3267 11.3593C19.1052 13.0879 19.41 13.8781 20.4008 13.8781H23.0176C23.7798 13.8781 24.1355 13.5077 23.9322 12.7916C23.7036 12.0754 22.8398 11.0383 21.7219 9.80358C21.1122 9.11214 20.1976 8.34662 19.9181 7.97621C19.5371 7.48233 19.6387 7.28477 19.9181 6.84028C19.8927 6.84028 23.0939 2.44472 23.4241 0.96307Z" fill="white"/>
</svg>
