<svg width="51" height="51" viewBox="0 0 51 51" fill="none" xmlns="http://www.w3.org/2000/svg">
<path d="M32.3425 28.1929C29.513 28.1929 27.2109 30.4949 27.2109 33.3244C27.2109 36.154 29.513 38.456 32.3425 38.456H50.018V28.1929H32.3425ZM32.3425 35.6052C31.0829 35.6052 30.0619 34.5841 30.0619 33.3245C30.0619 32.0649 31.083 31.0438 32.3425 31.0438C33.6022 31.0438 34.6233 32.0649 34.6233 33.3245C34.6233 34.5841 33.6022 35.6052 32.3425 35.6052Z" fill="#FFCF02"/>
<path d="M32.342 24.7719H50.0175V15.649H0.982422V51H50.0176V41.8772H32.342C27.6261 41.8772 23.7894 38.0404 23.7894 33.3245C23.7894 28.6086 27.6261 24.7719 32.342 24.7719Z" fill="#FFCF02"/>
<path d="M30.8217 0L18.5938 12.228H43.0498L30.8217 0Z" fill="#FFCF02"/>
<path d="M13.1586 0.378784L10.29 12.228H13.7559L16.1751 9.8089L23.1792 2.80467L13.1586 0.378784Z" fill="#FFCF02"/>
</svg>
