<svg width="12" height="12" viewBox="0 0 12 12" fill="none" xmlns="http://www.w3.org/2000/svg">
<path fill-rule="evenodd" clip-rule="evenodd" d="M9.02335 6.91314C8.88657 6.83818 8.21472 6.47581 8.08888 6.42456C7.96304 6.37331 7.87094 6.34669 7.77264 6.48274C7.67489 6.61824 7.39587 6.92189 7.3118 7.0118C7.22681 7.10207 7.14529 7.11046 7.00814 7.03532C6.87191 6.96037 6.42857 6.79642 5.91446 6.30219C5.51433 5.91775 5.2519 5.45124 5.17603 5.30899C5.09962 5.16656 5.17549 5.09397 5.24771 5.02723C5.31282 4.96686 5.39324 4.86948 5.46601 4.79087C5.53823 4.71245 5.56376 4.65501 5.61373 4.564C5.6637 4.473 5.64345 4.39075 5.61117 4.31981C5.57908 4.24886 5.32631 3.55311 5.22072 3.27007C5.11494 2.98721 4.99731 3.02916 4.91615 3.02588C4.83482 3.02314 4.74254 3.008 4.64989 3.00436C4.5567 3.00089 4.4046 3.03025 4.27202 3.16466C4.13907 3.29907 3.76648 3.6226 3.74095 4.30795C3.71506 4.99294 4.1894 5.67392 4.2556 5.76912C4.32162 5.86486 5.16072 7.3501 6.55513 7.96068C7.95028 8.57163 7.95776 8.38542 8.21344 8.37175C8.46968 8.35807 9.04998 8.06536 9.17855 7.74475C9.30676 7.42396 9.31715 7.14529 9.28451 7.08602C9.2515 7.02621 9.15995 6.98791 9.02335 6.91314ZM6.46523 10.2152C5.54333 10.2152 4.684 9.9385 3.96709 9.46397L2.22179 10.0228L2.78897 8.33619C2.24532 7.58755 1.92434 6.66766 1.92434 5.67355C1.92434 3.16904 3.96162 1.13176 6.46523 1.13176C8.96974 1.13176 11.007 3.16886 11.007 5.67355C11.007 8.17752 8.96974 10.2152 6.46523 10.2152ZM6.46523 0.218079C3.45262 0.218079 1.01011 2.66059 1.01011 5.67355C1.01011 6.70432 1.29625 7.66816 1.79303 8.49065L0.808228 11.4174L3.82849 10.4506C4.61032 10.8826 5.50905 11.1292 6.46523 11.1292C9.47874 11.1292 11.9212 8.68652 11.9212 5.67355C11.9212 2.6604 9.47874 0.218079 6.46523 0.218079Z" fill="#F1F2F2"/>
</svg>
