<svg width="197" height="64" viewBox="0 0 197 64" fill="none" xmlns="http://www.w3.org/2000/svg">
<path d="M32.0011 32.5973L64.0011 40.5965V32.5973L21.3337 21.9299L32.0011 16.5968L64.0011 24.597V0H0V64L21.3337 53.3337L64.0011 64V48.5968L21.3337 37.9283L32.0011 32.5973Z" fill="#787878"/>
<path d="M98.6969 36.0138C93.4564 36.5728 88.6407 36.8528 84.2509 36.8528C82.0555 36.8528 80.4424 36.3385 79.4128 35.3079C78.3822 34.2783 77.8679 32.6663 77.8679 30.4698V19.7194C77.8679 17.3674 78.4003 15.6607 79.4639 14.596C80.5276 13.5313 82.2364 13 84.5873 13H96.6814V17.7028H85.931C84.5873 17.7028 83.9155 18.3757 83.9155 19.7194V30.4698C83.9155 30.9852 84.0667 31.394 84.3691 31.6964C84.6715 31.9977 85.0792 32.15 85.5956 32.15C88.1701 32.15 90.5221 32.0935 92.6504 31.9817V27.1107H88.283V23.0796H98.698V36.0138H98.6969Z" fill="white"/>
<path d="M106.255 36.5163H99.7041L108.606 13H115.327L124.229 36.5163H117.678L116.166 32.3171H107.767L106.255 36.5163ZM109.279 27.9507H114.654L111.966 20.0559L109.279 27.9507Z" fill="white"/>
<path d="M125.908 13H140.018C142.37 13 144.077 13.5323 145.142 14.596C146.207 15.6597 146.738 17.3674 146.738 19.7194V22.7432C146.738 24.6022 146.43 26.047 145.814 27.0766C145.197 28.1062 144.218 28.7897 142.874 29.1262L147.072 36.5163H140.522L136.658 29.4616H131.955V36.5163H125.908V13ZM140.69 19.7194C140.69 18.3757 140.018 17.7028 138.674 17.7028H131.954V24.7587H138.674C140.018 24.7587 140.69 24.0858 140.69 22.7421V19.7194Z" fill="white"/>
<path d="M165.214 13H171.262V30.1334C171.262 32.4853 170.729 34.1931 169.665 35.2568C168.602 36.3204 166.894 36.8517 164.542 36.8517H156.814C154.462 36.8517 152.756 36.3204 151.691 35.2568C150.626 34.1931 150.095 32.4843 150.095 30.1334V13H156.143V30.1334C156.143 31.4781 156.814 32.15 158.158 32.15H163.197C164.542 32.15 165.214 31.4781 165.214 30.1334V13Z" fill="white"/>
<path d="M195.785 36.5163H189.403L181.34 22.4067V36.5163H175.292V13H181.675L189.737 27.1096V13H195.785V36.5163Z" fill="white"/>
<path d="M79.499 49.7862C79.4107 49.7862 79.3351 49.7553 79.2722 49.6925C79.2084 49.6275 79.1775 49.553 79.1775 49.4646V43.6662C79.1775 43.5736 79.2094 43.4969 79.2722 43.4351C79.3351 43.3745 79.4107 43.3457 79.499 43.3457C79.6311 43.3457 79.7269 43.4 79.7876 43.5097L82.5675 49.0345H82.2875L85.0175 43.5097C85.0835 43.3989 85.1793 43.3457 85.306 43.3457C85.3944 43.3457 85.4678 43.3745 85.5285 43.4351C85.5892 43.4969 85.619 43.5736 85.619 43.6662V49.4646C85.619 49.553 85.5892 49.6275 85.5285 49.6925C85.4678 49.7553 85.3944 49.7862 85.306 49.7862C85.2123 49.7862 85.1335 49.7553 85.0707 49.6925C85.0068 49.6275 84.9759 49.553 84.9759 49.4646V44.4999L85.1165 44.5084L82.6836 49.4817C82.6229 49.5871 82.5292 49.6382 82.4036 49.6382C82.2662 49.6382 82.1672 49.5722 82.1065 49.4401L79.6566 44.5403L79.8216 44.4988V49.4636C79.8216 49.5519 79.7897 49.6265 79.7269 49.6914C79.6619 49.7553 79.5863 49.7862 79.499 49.7862Z" fill="white"/>
<path d="M88.4224 49.7862C88.3287 49.7862 88.252 49.7574 88.1913 49.6957C88.1306 49.635 88.1008 49.5583 88.1008 49.4646V43.6662C88.1008 43.5736 88.1306 43.4969 88.1913 43.4351C88.252 43.3745 88.3287 43.3457 88.4224 43.3457H92.2905C92.3789 43.3457 92.4534 43.3734 92.5173 43.4309C92.5811 43.4894 92.612 43.565 92.612 43.6577C92.612 43.7407 92.5801 43.8131 92.5173 43.8727C92.4544 43.9324 92.3789 43.9632 92.2905 43.9632H88.7439V46.2407H91.3259C91.4185 46.2407 91.4962 46.2694 91.5569 46.3312C91.6176 46.3919 91.6474 46.4653 91.6474 46.5537C91.6474 46.6421 91.6176 46.7155 91.5569 46.7762C91.4962 46.838 91.4196 46.8667 91.3259 46.8667H88.7439V49.1686H92.2905C92.3789 49.1686 92.4534 49.1974 92.5173 49.2591C92.5811 49.3198 92.612 49.3912 92.612 49.4731C92.612 49.5668 92.5801 49.6424 92.5173 49.6999C92.4544 49.7574 92.3789 49.7862 92.2905 49.7862H88.4224Z" fill="white"/>
<path d="M95.0044 49.7862C94.9001 49.7862 94.8128 49.7574 94.7446 49.6999C94.6754 49.6424 94.6414 49.5636 94.6414 49.4646V43.6662C94.6414 43.5736 94.6712 43.4969 94.7318 43.4351C94.7925 43.3745 94.8692 43.3457 94.9629 43.3457H98.4764C98.5584 43.3457 98.6287 43.3734 98.6862 43.4309C98.7437 43.4894 98.7735 43.565 98.7735 43.6577C98.7735 43.7514 98.7448 43.8259 98.6862 43.8813C98.6276 43.9366 98.5584 43.9632 98.4764 43.9632H95.2844V45.9841H97.3223C97.7067 45.9841 98.0495 46.065 98.3487 46.2279C98.6479 46.3897 98.8832 46.6122 99.0535 46.8955C99.2239 47.1787 99.3091 47.5045 99.3091 47.8729C99.3091 48.2476 99.2239 48.5777 99.0535 48.8673C98.8832 49.1559 98.6479 49.3805 98.3487 49.5434C98.0484 49.7052 97.7067 49.7872 97.3223 49.7872H95.0044V49.7862ZM95.2844 49.1686H97.3223C97.5863 49.1686 97.8195 49.1133 98.0229 49.0036C98.2262 48.8939 98.386 48.7395 98.5009 48.5404C98.6159 48.3424 98.6745 48.1124 98.6745 47.8484C98.6745 47.5843 98.617 47.3554 98.5009 47.1606C98.3849 46.9657 98.2262 46.8156 98.0229 46.7113C97.8195 46.6069 97.5853 46.5548 97.3223 46.5548H95.2844V49.1686Z" fill="white"/>
<path d="M101.742 49.7862C101.648 49.7862 101.572 49.7574 101.511 49.6957C101.449 49.635 101.42 49.5583 101.42 49.4646V43.6662C101.42 43.5736 101.449 43.4969 101.511 43.4351C101.572 43.3745 101.648 43.3457 101.742 43.3457H105.611C105.698 43.3457 105.773 43.3734 105.838 43.4309C105.901 43.4894 105.933 43.565 105.933 43.6577C105.933 43.7407 105.901 43.8131 105.838 43.8727C105.773 43.9334 105.698 43.9632 105.611 43.9632H102.064V46.2407H104.646C104.739 46.2407 104.816 46.2694 104.878 46.3312C104.938 46.3919 104.967 46.4653 104.967 46.5537C104.967 46.6421 104.938 46.7155 104.878 46.7762C104.816 46.838 104.739 46.8667 104.646 46.8667H102.064V49.1686H105.611C105.698 49.1686 105.773 49.1974 105.838 49.2591C105.901 49.3198 105.933 49.3912 105.933 49.4731C105.933 49.5668 105.901 49.6424 105.838 49.6999C105.773 49.7574 105.698 49.7862 105.611 49.7862H101.742Z" fill="white"/>
<path d="M107.615 49.7861C107.489 49.7861 107.397 49.7339 107.339 49.6306C107.281 49.5263 107.277 49.4251 107.327 49.325L109.751 43.5692C109.812 43.4191 109.913 43.3467 110.055 43.3467C110.204 43.3467 110.308 43.4191 110.368 43.5692L112.801 49.3336C112.851 49.4379 112.846 49.5391 112.784 49.6391C112.724 49.7382 112.633 49.7871 112.513 49.7871C112.447 49.7871 112.387 49.7701 112.335 49.7382C112.283 49.7051 112.243 49.6562 112.217 49.5891L109.939 44.0877H110.203L107.91 49.5891C107.883 49.6551 107.844 49.7041 107.792 49.7382C107.741 49.7701 107.68 49.7861 107.615 49.7861Z" fill="white"/>
<path d="M114.98 49.7862C114.875 49.7862 114.788 49.7574 114.72 49.6999C114.652 49.6424 114.617 49.5636 114.617 49.4646V43.6332C114.617 43.5512 114.647 43.482 114.707 43.4266C114.768 43.3723 114.845 43.3457 114.938 43.3457C115.032 43.3457 115.109 43.3723 115.169 43.4266C115.231 43.4831 115.261 43.5512 115.261 43.6332V45.9181H117.133C117.517 45.9181 117.861 46.0011 118.16 46.1651C118.459 46.3301 118.695 46.5569 118.865 46.8454C119.035 47.134 119.12 47.463 119.12 47.8313C119.12 48.2157 119.035 48.5575 118.865 48.8503C118.695 49.1441 118.459 49.3741 118.16 49.5381C117.861 49.7031 117.517 49.7851 117.133 49.7851H114.98V49.7862ZM115.26 49.2016H117.132C117.396 49.2016 117.63 49.141 117.833 49.0238C118.035 48.9057 118.196 48.7417 118.311 48.533C118.426 48.3243 118.485 48.0816 118.485 47.8058C118.485 47.5375 118.426 47.3033 118.311 47.1052C118.196 46.9072 118.035 46.756 117.833 46.6474C117.63 46.5398 117.396 46.4877 117.132 46.4877H115.26V49.2016Z" fill="white"/>
<path d="M124.126 51.1968C124.027 51.1968 123.949 51.1681 123.891 51.1106C123.834 51.052 123.805 50.9743 123.805 50.8753V49.5061C123.805 49.407 123.834 49.3283 123.891 49.2697C123.949 49.2122 124.027 49.1845 124.126 49.1845H129.966C130.064 49.1845 130.143 49.2122 130.202 49.2697C130.259 49.3283 130.287 49.407 130.287 49.5061V50.8753C130.287 50.9743 130.259 51.052 130.202 51.1106C130.143 51.1681 130.064 51.1968 129.966 51.1968C129.866 51.1968 129.789 51.1681 129.731 51.1106C129.673 51.052 129.644 50.9743 129.644 50.8753V49.7861H124.447V50.8753C124.447 50.9743 124.419 51.052 124.361 51.1106C124.304 51.1681 124.224 51.1968 124.126 51.1968ZM124.902 49.5891L124.349 49.325L126.723 43.5692C126.789 43.4191 126.89 43.3467 127.029 43.3467C127.177 43.3467 127.28 43.4191 127.342 43.5692L129.717 49.3336L129.181 49.5891L126.937 44.0877H127.118L124.902 49.5891Z" fill="white"/>
<path d="M131.805 49.7861C131.68 49.7861 131.587 49.7339 131.529 49.6306C131.472 49.5273 131.468 49.4251 131.517 49.325L133.941 43.5692C134.002 43.4191 134.103 43.3467 134.246 43.3467C134.396 43.3467 134.499 43.4191 134.56 43.5692L136.993 49.3336C137.043 49.4379 137.036 49.5391 136.976 49.6391C136.915 49.7382 136.823 49.7871 136.703 49.7871C136.637 49.7871 136.578 49.7701 136.526 49.7382C136.474 49.7051 136.435 49.6562 136.407 49.5891L134.131 44.0877H134.395L132.101 49.5891C132.075 49.6551 132.035 49.7041 131.982 49.7382C131.931 49.7701 131.871 49.7861 131.805 49.7861Z" fill="white"/>
<path d="M138.94 49.7862C138.791 49.7862 138.691 49.7372 138.639 49.6382C138.587 49.5381 138.602 49.4242 138.685 49.2911L140.203 46.9168L140.846 47.0892L139.222 49.6222C139.189 49.6776 139.15 49.718 139.106 49.7457C139.063 49.7734 139.005 49.7862 138.94 49.7862ZM142.586 49.7862C142.492 49.7862 142.415 49.7574 142.355 49.6957C142.294 49.635 142.263 49.5583 142.263 49.4646V47.2628H140.598V47.1808C140.24 47.1808 139.91 47.102 139.608 46.9412C139.306 46.7815 139.063 46.5633 138.882 46.2854C138.701 46.0075 138.609 45.6902 138.609 45.3325C138.609 44.9428 138.698 44.5989 138.877 44.3018C139.056 44.0048 139.301 43.7705 139.615 43.6002C139.929 43.4309 140.289 43.3457 140.697 43.3457H142.585C142.678 43.3457 142.755 43.3745 142.816 43.4351C142.876 43.4969 142.906 43.5736 142.906 43.6662V49.4646C142.906 49.5583 142.876 49.635 142.816 49.6957C142.756 49.7574 142.678 49.7862 142.586 49.7862ZM140.697 46.6612H142.263V43.9643H140.697C140.409 43.9643 140.158 44.0197 139.942 44.1293C139.724 44.239 139.553 44.3966 139.431 44.6031C139.306 44.8097 139.245 45.0535 139.245 45.3335C139.245 45.6029 139.306 45.8371 139.431 46.0341C139.553 46.2332 139.724 46.3865 139.942 46.4973C140.158 46.6069 140.41 46.6612 140.697 46.6612Z" fill="white"/>
<path d="M148.961 49.7862C148.867 49.7862 148.791 49.7574 148.73 49.6957C148.668 49.635 148.638 49.5583 148.638 49.4646V43.6662C148.638 43.5736 148.668 43.4969 148.73 43.4351C148.791 43.3745 148.867 43.3457 148.961 43.3457H153.349C153.442 43.3457 153.519 43.3745 153.58 43.4351C153.64 43.4969 153.67 43.5736 153.67 43.6662V49.4646C153.67 49.5583 153.64 49.635 153.58 49.6957C153.519 49.7574 153.442 49.7862 153.349 49.7862C153.255 49.7862 153.178 49.7574 153.118 49.6957C153.057 49.635 153.026 49.5583 153.026 49.4646V43.9462H149.282V49.4646C149.282 49.5583 149.252 49.635 149.191 49.6957C149.131 49.7574 149.055 49.7862 148.961 49.7862Z" fill="white"/>
<path d="M159.13 49.869C158.652 49.869 158.212 49.7859 157.811 49.622C157.409 49.4569 157.061 49.2259 156.769 48.9299C156.474 48.6329 156.246 48.2836 156.084 47.8822C155.922 47.4808 155.84 47.0411 155.84 46.563C155.84 46.0903 155.921 45.6538 156.084 45.2524C156.245 44.851 156.473 44.5018 156.769 44.2047C157.061 43.9077 157.411 43.6766 157.811 43.5126C158.211 43.3487 158.652 43.2656 159.13 43.2656C159.603 43.2656 160.04 43.3487 160.442 43.5126C160.843 43.6766 161.192 43.9077 161.488 44.2047C161.784 44.5018 162.015 44.851 162.177 45.2524C162.339 45.6538 162.421 46.0903 162.421 46.563C162.421 47.0411 162.34 47.4808 162.177 47.8822C162.014 48.2836 161.784 48.6329 161.488 48.9299C161.192 49.2259 160.843 49.4569 160.442 49.622C160.04 49.7859 159.603 49.869 159.13 49.869ZM159.13 49.2589C159.509 49.2589 159.863 49.1918 160.186 49.0566C160.511 48.9225 160.791 48.7319 161.032 48.4881C161.271 48.2442 161.456 47.9578 161.587 47.6299C161.719 47.303 161.785 46.9464 161.785 46.562C161.785 46.183 161.719 45.8295 161.587 45.5026C161.456 45.1747 161.27 44.8893 161.032 44.6434C160.791 44.3996 160.511 44.21 160.186 44.0759C159.862 43.9407 159.509 43.8736 159.13 43.8736C158.746 43.8736 158.391 43.9407 158.066 44.0759C157.742 44.21 157.461 44.4006 157.221 44.6434C156.981 44.8883 156.797 45.1747 156.664 45.5026C156.533 45.8295 156.466 46.183 156.466 46.562C156.466 46.9464 156.532 47.303 156.664 47.6299C156.797 47.9578 156.983 48.2432 157.221 48.4881C157.46 48.7329 157.742 48.9225 158.066 49.0566C158.39 49.1918 158.745 49.2589 159.13 49.2589Z" fill="white"/>
<path d="M164.903 49.7862C164.809 49.7862 164.733 49.7574 164.672 49.6957C164.61 49.635 164.582 49.5583 164.582 49.4646V43.6662C164.582 43.5736 164.61 43.4969 164.672 43.4351C164.733 43.3745 164.809 43.3457 164.903 43.3457H166.553C166.96 43.3457 167.321 43.4351 167.633 43.613C167.947 43.7918 168.192 44.0378 168.367 44.3508C168.543 44.6638 168.631 45.028 168.631 45.4389C168.631 45.8403 168.543 46.1959 168.367 46.5079C168.192 46.8177 167.946 47.0626 167.633 47.2415C167.321 47.4204 166.96 47.5087 166.553 47.5087H165.225V49.4636C165.225 49.5573 165.196 49.6339 165.134 49.6946C165.075 49.7574 164.997 49.7862 164.903 49.7862ZM165.225 46.8923H166.553C166.834 46.8923 167.084 46.8294 167.304 46.707C167.523 46.5835 167.695 46.4121 167.818 46.1917C167.942 45.9713 168.005 45.7221 168.005 45.4411C168.005 45.1504 167.942 44.8938 167.818 44.6734C167.695 44.4541 167.523 44.2805 167.304 44.1538C167.084 44.0282 166.834 43.9643 166.553 43.9643H165.225V46.8923Z" fill="white"/>
<path d="M170.594 49.7862C170.446 49.7862 170.346 49.7372 170.293 49.6382C170.24 49.5381 170.256 49.4242 170.338 49.2911L171.857 46.9168L172.5 47.0892L170.876 49.6222C170.843 49.6776 170.805 49.718 170.761 49.7457C170.714 49.7745 170.661 49.7862 170.594 49.7862ZM174.239 49.7862C174.146 49.7862 174.069 49.7574 174.008 49.6957C173.948 49.635 173.918 49.5583 173.918 49.4646V47.2628H172.252V47.1808C171.895 47.1808 171.565 47.102 171.261 46.9412C170.96 46.7815 170.717 46.5633 170.535 46.2854C170.354 46.0075 170.264 45.6902 170.264 45.3325C170.264 44.9428 170.353 44.5989 170.531 44.3018C170.71 44.0048 170.956 43.7705 171.269 43.6002C171.583 43.4309 171.943 43.3457 172.351 43.3457H174.238C174.332 43.3457 174.409 43.3745 174.469 43.4351C174.53 43.4969 174.561 43.5736 174.561 43.6662V49.4646C174.561 49.5583 174.53 49.635 174.469 49.6957C174.41 49.7574 174.333 49.7862 174.239 49.7862ZM172.352 46.6612H173.919V43.9643H172.352C172.064 43.9643 171.814 44.0197 171.597 44.1293C171.38 44.239 171.209 44.3966 171.086 44.6031C170.962 44.8097 170.9 45.0535 170.9 45.3335C170.9 45.6029 170.962 45.8371 171.086 46.0341C171.209 46.2332 171.38 46.3865 171.597 46.4973C171.814 46.608 172.064 46.6612 172.352 46.6612Z" fill="white"/>
<path d="M176.747 51.1968C176.647 51.1968 176.569 51.1681 176.512 51.1106C176.453 51.052 176.424 50.9743 176.424 50.8753V49.5061C176.424 49.407 176.453 49.3283 176.512 49.2697C176.569 49.2122 176.647 49.1845 176.747 49.1845H182.586C182.685 49.1845 182.763 49.2122 182.821 49.2697C182.88 49.3283 182.907 49.407 182.907 49.5061V50.8753C182.907 50.9743 182.88 51.052 182.821 51.1106C182.763 51.1681 182.685 51.1968 182.586 51.1968C182.486 51.1968 182.409 51.1681 182.351 51.1106C182.292 51.052 182.263 50.9743 182.263 50.8753V49.7861H177.067V50.8753C177.067 50.9743 177.04 51.052 176.981 51.1106C176.924 51.1681 176.846 51.1968 176.747 51.1968ZM177.523 49.5891L176.969 49.325L179.344 43.5692C179.41 43.4191 179.512 43.3467 179.649 43.3467C179.797 43.3467 179.902 43.4191 179.963 43.5692L182.338 49.3336L181.801 49.5891L179.558 44.0877H179.74L177.523 49.5891Z" fill="white"/>
<path d="M185.094 49.786C185.001 49.786 184.924 49.7572 184.863 49.6955C184.802 49.6348 184.772 49.5581 184.772 49.4644V43.666C184.772 43.5733 184.802 43.4967 184.863 43.4349C184.924 43.3742 185.001 43.3455 185.094 43.3455C185.188 43.3455 185.265 43.3742 185.325 43.4349C185.386 43.4967 185.416 43.5733 185.416 43.666V46.2405H186.719V46.8175H185.416V49.4644C185.416 49.5581 185.386 49.6348 185.325 49.6955C185.265 49.7572 185.188 49.786 185.094 49.786ZM189.252 49.704C189.196 49.7657 189.122 49.7934 189.03 49.7902C188.936 49.7881 188.861 49.754 188.806 49.688L186.134 46.513L188.592 43.4435C188.653 43.3774 188.726 43.3434 188.814 43.3412C188.903 43.337 188.976 43.3657 189.038 43.4264C189.104 43.4924 189.135 43.5638 189.132 43.6372C189.13 43.7107 189.101 43.782 189.046 43.847L186.909 46.479L189.285 49.2738C189.346 49.3462 189.37 49.4197 189.362 49.4932C189.353 49.5666 189.317 49.639 189.252 49.704Z" fill="white"/>
<path d="M190.917 49.7861C190.79 49.7861 190.699 49.7339 190.645 49.6306C190.589 49.5263 190.584 49.4251 190.627 49.325L193.052 43.5692C193.113 43.4191 193.217 43.3467 193.366 43.3467C193.509 43.3467 193.61 43.4191 193.67 43.5692L196.103 49.3336C196.152 49.4379 196.146 49.5391 196.083 49.6391C196.018 49.7382 195.929 49.7871 195.815 49.7871C195.749 49.7871 195.689 49.7701 195.637 49.7382C195.584 49.7051 195.542 49.6562 195.509 49.5891L193.24 44.0877H193.496L191.211 49.5891C191.183 49.6551 191.144 49.7041 191.092 49.7382C191.042 49.7701 190.983 49.7861 190.917 49.7861ZM191.461 48.2529L191.708 47.7003H195.058L195.305 48.2529H191.461Z" fill="white"/>
</svg>
