<svg width="166" height="48" viewBox="0 0 166 48" fill="none" xmlns="http://www.w3.org/2000/svg">
<path d="M24.0008 24.448L48.0008 30.4474V24.448L16.0003 16.4475L24.0008 12.4476L48.0008 18.4478V0H0V48L16.0003 40.0003L48.0008 48V36.4476L16.0003 28.4462L24.0008 24.448Z" fill="#FFCF02"/>
<path d="M77.351 27.636C72.5832 28.1446 68.2019 28.3993 64.2081 28.3993C62.2107 28.3993 60.7431 27.9315 59.8064 26.9938C58.8687 26.0571 58.4009 24.5905 58.4009 22.5922V12.8115C58.4009 10.6717 58.8852 9.11894 59.8529 8.15027C60.8206 7.1816 62.3753 6.69824 64.5142 6.69824H75.5173V10.9768H65.7366C64.5142 10.9768 63.9029 11.589 63.9029 12.8115V22.5922C63.9029 23.061 64.0405 23.433 64.3156 23.7081C64.5907 23.9822 64.9617 24.1207 65.4315 24.1207C67.7737 24.1207 69.9135 24.0694 71.8499 23.9677V19.536H67.8764V15.8686H77.3519V27.636H77.351Z" fill="black"/>
<path d="M84.2276 28.0932H78.2673L86.3664 6.69824H92.4806L100.58 28.0932H94.6194L93.2439 24.2728H85.6031L84.2276 28.0932ZM86.9786 20.3003H91.8684L89.4235 13.1176L86.9786 20.3003Z" fill="black"/>
<path d="M102.107 6.69824H114.945C117.085 6.69824 118.638 7.18257 119.606 8.15027C120.575 9.11797 121.058 10.6717 121.058 12.8115V15.5625C121.058 17.2538 120.778 18.5683 120.217 19.505C119.657 20.4417 118.765 21.0636 117.543 21.3697L121.362 28.0932H115.403L111.888 21.6748H107.609V28.0932H102.107V6.69824ZM115.556 12.8115C115.556 11.589 114.945 10.9768 113.722 10.9768H107.608V17.3962H113.722C114.945 17.3962 115.556 16.784 115.556 15.5616V12.8115Z" fill="black"/>
<path d="M137.868 6.69824H143.37V22.2861C143.37 24.4258 142.885 25.9796 141.918 26.9473C140.95 27.915 139.396 28.3984 137.256 28.3984H130.226C128.086 28.3984 126.533 27.915 125.565 26.9473C124.596 25.9796 124.113 24.4249 124.113 22.2861V6.69824H129.615V22.2861C129.615 23.5095 130.226 24.1207 131.448 24.1207H136.033C137.256 24.1207 137.868 23.5095 137.868 22.2861V6.69824Z" fill="black"/>
<path d="M165.681 28.0932H159.875L152.539 15.2564V28.0932H147.037V6.69824H152.844L160.179 19.535V6.69824H165.681V28.0932Z" fill="black"/>
<path d="M59.8848 40.1657C59.8044 40.1657 59.7356 40.1376 59.6785 40.0804C59.6204 40.0214 59.5923 39.9536 59.5923 39.8732V34.5978C59.5923 34.5135 59.6213 34.4438 59.6785 34.3876C59.7356 34.3324 59.8044 34.3062 59.8848 34.3062C60.0049 34.3062 60.0921 34.3556 60.1473 34.4554L62.6765 39.4818H62.4218L64.9054 34.4554C64.9655 34.3547 65.0527 34.3062 65.1679 34.3062C65.2483 34.3062 65.3152 34.3324 65.3704 34.3876C65.4256 34.4438 65.4527 34.5135 65.4527 34.5978V39.8732C65.4527 39.9536 65.4256 40.0214 65.3704 40.0804C65.3152 40.1376 65.2483 40.1657 65.1679 40.1657C65.0827 40.1657 65.011 40.1376 64.9539 40.0804C64.8958 40.0214 64.8677 39.9536 64.8677 39.8732V35.3563L64.9955 35.364L62.7821 39.8887C62.7269 39.9846 62.6417 40.0311 62.5274 40.0311C62.4024 40.0311 62.3123 39.971 62.2571 39.8509L60.0282 35.3931L60.1783 35.3553V39.8722C60.1783 39.9526 60.1493 40.0204 60.0921 40.0795C60.033 40.1376 59.9643 40.1657 59.8848 40.1657Z" fill="black"/>
<path d="M68.0032 40.1657C67.918 40.1657 67.8483 40.1395 67.793 40.0834C67.7378 40.0281 67.7107 39.9584 67.7107 39.8732V34.5978C67.7107 34.5135 67.7378 34.4438 67.793 34.3876C67.8483 34.3324 67.918 34.3062 68.0032 34.3062H71.5224C71.6028 34.3062 71.6706 34.3314 71.7287 34.3837C71.7868 34.437 71.8149 34.5058 71.8149 34.59C71.8149 34.6656 71.7859 34.7315 71.7287 34.7857C71.6716 34.84 71.6028 34.868 71.5224 34.868H68.2958V36.94H70.6448C70.7291 36.94 70.7998 36.9662 70.855 37.0224C70.9102 37.0776 70.9373 37.1444 70.9373 37.2248C70.9373 37.3052 70.9102 37.3721 70.855 37.4273C70.7998 37.4834 70.73 37.5096 70.6448 37.5096H68.2958V39.6039H71.5224C71.6028 39.6039 71.6706 39.63 71.7287 39.6862C71.7868 39.7414 71.8149 39.8063 71.8149 39.8809C71.8149 39.9662 71.7859 40.0349 71.7287 40.0872C71.6716 40.1395 71.6028 40.1657 71.5224 40.1657H68.0032Z" fill="black"/>
<path d="M73.9917 40.1657C73.8968 40.1657 73.8173 40.1395 73.7553 40.0872C73.6924 40.0349 73.6614 39.9632 73.6614 39.8732V34.5978C73.6614 34.5135 73.6885 34.4438 73.7437 34.3876C73.7989 34.3324 73.8687 34.3062 73.9539 34.3062H77.1505C77.2251 34.3062 77.289 34.3314 77.3413 34.3837C77.3937 34.437 77.4208 34.5058 77.4208 34.59C77.4208 34.6753 77.3946 34.7431 77.3413 34.7935C77.2881 34.8438 77.2251 34.868 77.1505 34.868H74.2464V36.7066H76.1005C76.4502 36.7066 76.7621 36.7802 77.0343 36.9284C77.3065 37.0756 77.5206 37.2781 77.6755 37.5358C77.8305 37.7934 77.908 38.0898 77.908 38.425C77.908 38.766 77.8305 39.0663 77.6755 39.3297C77.5206 39.5922 77.3065 39.7966 77.0343 39.9448C76.7611 40.0921 76.4502 40.1667 76.1005 40.1667H73.9917V40.1657ZM74.2464 39.6039H76.1005C76.3407 39.6039 76.5528 39.5535 76.7379 39.4537C76.9229 39.354 77.0682 39.2135 77.1728 39.0323C77.2774 38.8522 77.3307 38.6429 77.3307 38.4027C77.3307 38.1625 77.2784 37.9542 77.1728 37.777C77.0672 37.5997 76.9229 37.4631 76.7379 37.3682C76.5528 37.2733 76.3397 37.2258 76.1005 37.2258H74.2464V39.6039Z" fill="black"/>
<path d="M80.1212 40.1657C80.0359 40.1657 79.9662 40.1395 79.911 40.0834C79.8548 40.0281 79.8286 39.9584 79.8286 39.8732V34.5978C79.8286 34.5135 79.8548 34.4438 79.911 34.3876C79.9662 34.3324 80.0359 34.3062 80.1212 34.3062H83.6413C83.7207 34.3062 83.7885 34.3314 83.8476 34.3837C83.9048 34.437 83.9338 34.5058 83.9338 34.59C83.9338 34.6656 83.9048 34.7315 83.8476 34.7857C83.7885 34.8409 83.7207 34.868 83.6413 34.868H80.4137V36.94H82.7637C82.848 36.94 82.9177 36.9662 82.9739 37.0224C83.0291 37.0776 83.0553 37.1444 83.0553 37.2248C83.0553 37.3052 83.0291 37.3721 82.9739 37.4273C82.9177 37.4834 82.848 37.5096 82.7637 37.5096H80.4137V39.6039H83.6413C83.7207 39.6039 83.7885 39.63 83.8476 39.6862C83.9048 39.7414 83.9338 39.8063 83.9338 39.8809C83.9338 39.9662 83.9048 40.0349 83.8476 40.0872C83.7885 40.1395 83.7207 40.1657 83.6413 40.1657H80.1212Z" fill="black"/>
<path d="M85.4644 40.1658C85.3501 40.1658 85.2658 40.1183 85.2135 40.0244C85.1602 39.9294 85.1564 39.8374 85.2019 39.7463L87.4075 34.5097C87.4627 34.3732 87.5548 34.3073 87.6846 34.3073C87.8202 34.3073 87.9141 34.3732 87.9694 34.5097L90.1828 39.7541C90.2283 39.849 90.2235 39.9411 90.1673 40.0321C90.1121 40.1222 90.0297 40.1668 89.9203 40.1668C89.8602 40.1668 89.806 40.1513 89.7585 40.1222C89.711 40.0922 89.6752 40.0476 89.651 39.9866L87.579 34.9815H87.8192L85.7327 39.9866C85.7085 40.0466 85.6727 40.0912 85.6252 40.1222C85.5787 40.1513 85.5235 40.1658 85.4644 40.1658Z" fill="black"/>
<path d="M92.1648 40.1657C92.0698 40.1657 91.9904 40.1395 91.9284 40.0872C91.8664 40.0349 91.8345 39.9632 91.8345 39.8732V34.5678C91.8345 34.4932 91.8616 34.4302 91.9168 34.3798C91.972 34.3304 92.0418 34.3062 92.127 34.3062C92.2122 34.3062 92.282 34.3304 92.3372 34.3798C92.3934 34.4312 92.4205 34.4932 92.4205 34.5678V36.6465H94.1234C94.4731 36.6465 94.786 36.7221 95.0582 36.8713C95.3304 37.0214 95.5445 37.2277 95.6995 37.4902C95.8544 37.7527 95.9319 38.0521 95.9319 38.3872C95.9319 38.7369 95.8544 39.0478 95.6995 39.3142C95.5445 39.5816 95.3304 39.7908 95.0582 39.94C94.786 40.0901 94.4731 40.1647 94.1234 40.1647H92.1648V40.1657ZM92.4195 39.6339H94.1225C94.3627 39.6339 94.5758 39.5787 94.7608 39.4721C94.9449 39.3646 95.0911 39.2154 95.1957 39.0256C95.3004 38.8357 95.3536 38.6149 95.3536 38.364C95.3536 38.1199 95.3004 37.9068 95.1957 37.7266C95.0911 37.5464 94.9449 37.4089 94.7608 37.3101C94.5758 37.2122 94.3627 37.1648 94.1225 37.1648H92.4195V39.6339Z" fill="black"/>
<path d="M100.486 41.4493C100.396 41.4493 100.325 41.4231 100.272 41.3708C100.22 41.3175 100.194 41.2468 100.194 41.1567V39.911C100.194 39.8209 100.22 39.7493 100.272 39.696C100.325 39.6437 100.396 39.6185 100.486 39.6185H105.8C105.889 39.6185 105.96 39.6437 106.014 39.696C106.066 39.7493 106.091 39.8209 106.091 39.911V41.1567C106.091 41.2468 106.066 41.3175 106.014 41.3708C105.96 41.4231 105.889 41.4493 105.8 41.4493C105.708 41.4493 105.638 41.4231 105.585 41.3708C105.532 41.3175 105.506 41.2468 105.506 41.1567V40.1658H100.778V41.1567C100.778 41.2468 100.753 41.3175 100.699 41.3708C100.648 41.4231 100.576 41.4493 100.486 41.4493ZM101.192 39.9866L100.689 39.7463L102.849 34.5097C102.909 34.3732 103.001 34.3073 103.127 34.3073C103.262 34.3073 103.356 34.3732 103.412 34.5097L105.573 39.7541L105.085 39.9866L103.044 34.9815H103.208L101.192 39.9866Z" fill="black"/>
<path d="M107.472 40.1658C107.358 40.1658 107.274 40.1183 107.222 40.0244C107.169 39.9304 107.165 39.8374 107.21 39.7463L109.416 34.5097C109.471 34.3732 109.563 34.3073 109.693 34.3073C109.829 34.3073 109.923 34.3732 109.978 34.5097L112.192 39.7541C112.237 39.849 112.232 39.9411 112.176 40.0321C112.121 40.1222 112.038 40.1668 111.928 40.1668C111.868 40.1668 111.815 40.1513 111.768 40.1222C111.72 40.0922 111.684 40.0476 111.659 39.9866L109.588 34.9815H109.828L107.742 39.9866C107.718 40.0466 107.682 40.0912 107.633 40.1222C107.587 40.1513 107.533 40.1658 107.472 40.1658Z" fill="black"/>
<path d="M113.964 40.1657C113.828 40.1657 113.737 40.1211 113.689 40.0311C113.642 39.94 113.656 39.8363 113.731 39.7153L115.112 37.5551L115.698 37.7121L114.22 40.0165C114.19 40.0669 114.154 40.1037 114.115 40.1289C114.075 40.1541 114.023 40.1657 113.964 40.1657ZM117.28 40.1657C117.195 40.1657 117.125 40.1395 117.07 40.0834C117.015 40.0281 116.987 39.9584 116.987 39.8732V37.8699H115.472V37.7954C115.146 37.7954 114.846 37.7237 114.571 37.5774C114.297 37.4321 114.075 37.2335 113.91 36.9807C113.746 36.7279 113.662 36.4392 113.662 36.1137C113.662 35.7592 113.744 35.4463 113.906 35.1761C114.069 34.9058 114.292 34.6927 114.578 34.5377C114.864 34.3837 115.191 34.3062 115.562 34.3062H117.279C117.365 34.3062 117.434 34.3324 117.49 34.3876C117.545 34.4438 117.572 34.5135 117.572 34.5978V39.8732C117.572 39.9584 117.545 40.0281 117.49 40.0834C117.435 40.1395 117.365 40.1657 117.28 40.1657ZM115.562 37.3226H116.987V34.869H115.562C115.3 34.869 115.072 34.9194 114.875 35.0192C114.677 35.1189 114.522 35.2623 114.41 35.4502C114.297 35.6381 114.241 35.86 114.241 36.1147C114.241 36.3598 114.297 36.5729 114.41 36.7521C114.522 36.9333 114.677 37.0727 114.875 37.1735C115.072 37.2733 115.301 37.3226 115.562 37.3226Z" fill="black"/>
<path d="M123.081 40.1657C122.996 40.1657 122.926 40.1395 122.871 40.0834C122.814 40.0281 122.787 39.9584 122.787 39.8732V34.5978C122.787 34.5135 122.814 34.4438 122.871 34.3876C122.926 34.3324 122.996 34.3062 123.081 34.3062H127.073C127.158 34.3062 127.228 34.3324 127.283 34.3876C127.338 34.4438 127.365 34.5135 127.365 34.5978V39.8732C127.365 39.9584 127.338 40.0281 127.283 40.0834C127.228 40.1395 127.158 40.1657 127.073 40.1657C126.987 40.1657 126.918 40.1395 126.863 40.0834C126.807 40.0281 126.779 39.9584 126.779 39.8732V34.8526H123.372V39.8732C123.372 39.9584 123.345 40.0281 123.29 40.0834C123.236 40.1395 123.166 40.1657 123.081 40.1657Z" fill="black"/>
<path d="M132.332 40.2412C131.897 40.2412 131.497 40.1657 131.132 40.0165C130.767 39.8664 130.45 39.6562 130.184 39.3869C129.915 39.1166 129.708 38.7989 129.561 38.4337C129.414 38.0685 129.339 37.6685 129.339 37.2335C129.339 36.8034 129.413 36.4063 129.561 36.0411C129.707 35.6759 129.915 35.3582 130.184 35.0879C130.45 34.8177 130.768 34.6075 131.132 34.4583C131.496 34.3091 131.897 34.2336 132.332 34.2336C132.762 34.2336 133.161 34.3091 133.526 34.4583C133.891 34.6075 134.209 34.8177 134.478 35.0879C134.747 35.3582 134.957 35.6759 135.105 36.0411C135.252 36.4063 135.326 36.8034 135.326 37.2335C135.326 37.6685 135.253 38.0685 135.105 38.4337C134.956 38.7989 134.747 39.1166 134.478 39.3869C134.209 39.6562 133.891 39.8664 133.526 40.0165C133.161 40.1657 132.762 40.2412 132.332 40.2412ZM132.332 39.6862C132.677 39.6862 132.999 39.6252 133.293 39.5021C133.589 39.3801 133.843 39.2067 134.062 38.9849C134.28 38.763 134.449 38.5025 134.568 38.2041C134.688 37.9067 134.748 37.5822 134.748 37.2326C134.748 36.8877 134.688 36.5661 134.568 36.2687C134.449 35.9704 134.279 35.7108 134.062 35.487C133.843 35.2652 133.589 35.0928 133.293 34.9707C132.998 34.8477 132.677 34.7867 132.332 34.7867C131.983 34.7867 131.66 34.8477 131.365 34.9707C131.069 35.0928 130.813 35.2662 130.595 35.487C130.378 35.7098 130.21 35.9704 130.089 36.2687C129.97 36.5661 129.909 36.8877 129.909 37.2326C129.909 37.5822 129.969 37.9067 130.089 38.2041C130.21 38.5025 130.379 38.7621 130.595 38.9849C130.812 39.2077 131.069 39.3801 131.365 39.5021C131.659 39.6252 131.982 39.6862 132.332 39.6862Z" fill="black"/>
<path d="M137.585 40.1657C137.499 40.1657 137.43 40.1395 137.374 40.0834C137.318 40.0281 137.292 39.9584 137.292 39.8732V34.5978C137.292 34.5135 137.318 34.4438 137.374 34.3876C137.43 34.3324 137.499 34.3062 137.585 34.3062H139.086C139.456 34.3062 139.784 34.3876 140.068 34.5494C140.354 34.7121 140.577 34.9358 140.736 35.2206C140.896 35.5054 140.976 35.8367 140.976 36.2106C140.976 36.5758 140.896 36.8993 140.736 37.1832C140.577 37.465 140.353 37.6878 140.068 37.8506C139.784 38.0133 139.456 38.0937 139.086 38.0937H137.877V39.8722C137.877 39.9574 137.851 40.0272 137.795 40.0824C137.74 40.1395 137.67 40.1657 137.585 40.1657ZM137.877 37.5329H139.086C139.342 37.5329 139.568 37.4757 139.769 37.3643C139.968 37.2519 140.124 37.096 140.237 36.8955C140.349 36.695 140.406 36.4683 140.406 36.2126C140.406 35.9481 140.349 35.7147 140.237 35.5142C140.124 35.3146 139.968 35.1567 139.769 35.0414C139.568 34.9271 139.342 34.869 139.086 34.869H137.877V37.5329Z" fill="black"/>
<path d="M142.762 40.1657C142.628 40.1657 142.536 40.1211 142.488 40.0311C142.441 39.94 142.455 39.8363 142.53 39.7153L143.911 37.5551L144.496 37.7121L143.019 40.0165C142.989 40.0669 142.954 40.1037 142.914 40.1289C142.872 40.155 142.823 40.1657 142.762 40.1657ZM146.079 40.1657C145.994 40.1657 145.924 40.1395 145.869 40.0834C145.814 40.0281 145.786 39.9584 145.786 39.8732V37.8699H144.27V37.7954C143.946 37.7954 143.646 37.7237 143.37 37.5774C143.095 37.4321 142.875 37.2335 142.709 36.9807C142.544 36.7279 142.462 36.4392 142.462 36.1137C142.462 35.7592 142.543 35.4463 142.705 35.1761C142.868 34.9058 143.092 34.6927 143.376 34.5377C143.662 34.3837 143.989 34.3062 144.36 34.3062H146.078C146.163 34.3062 146.233 34.3324 146.288 34.3876C146.343 34.4438 146.371 34.5135 146.371 34.5978V39.8732C146.371 39.9584 146.343 40.0281 146.288 40.0834C146.234 40.1395 146.164 40.1657 146.079 40.1657ZM144.361 37.3226H145.787V34.869H144.361C144.1 34.869 143.872 34.9194 143.675 35.0192C143.477 35.1189 143.322 35.2623 143.21 35.4502C143.097 35.6381 143.041 35.86 143.041 36.1147C143.041 36.3598 143.097 36.5729 143.21 36.7521C143.322 36.9333 143.477 37.0727 143.675 37.1735C143.872 37.2742 144.1 37.3226 144.361 37.3226Z" fill="black"/>
<path d="M148.36 41.4493C148.269 41.4493 148.199 41.4231 148.146 41.3708C148.093 41.3175 148.067 41.2468 148.067 41.1567V39.911C148.067 39.8209 148.093 39.7493 148.146 39.696C148.199 39.6437 148.269 39.6185 148.36 39.6185H153.673C153.763 39.6185 153.833 39.6437 153.887 39.696C153.94 39.7493 153.965 39.8209 153.965 39.911V41.1567C153.965 41.2468 153.94 41.3175 153.887 41.3708C153.833 41.4231 153.763 41.4493 153.673 41.4493C153.582 41.4493 153.512 41.4231 153.458 41.3708C153.405 41.3175 153.379 41.2468 153.379 41.1567V40.1658H148.652V41.1567C148.652 41.2468 148.627 41.3175 148.574 41.3708C148.521 41.4231 148.45 41.4493 148.36 41.4493ZM149.067 39.9866L148.563 39.7463L150.723 34.5097C150.783 34.3732 150.876 34.3073 151.001 34.3073C151.136 34.3073 151.231 34.3732 151.287 34.5097L153.447 39.7541L152.959 39.9866L150.918 34.9815H151.083L149.067 39.9866Z" fill="black"/>
<path d="M155.954 40.1659C155.869 40.1659 155.799 40.1397 155.744 40.0835C155.688 40.0283 155.661 39.9586 155.661 39.8733V34.598C155.661 34.5137 155.688 34.4439 155.744 34.3877C155.799 34.3325 155.869 34.3064 155.954 34.3064C156.04 34.3064 156.109 34.3325 156.165 34.3877C156.22 34.4439 156.247 34.5137 156.247 34.598V36.9402H157.433V37.4652H156.247V39.8733C156.247 39.9586 156.22 40.0283 156.165 40.0835C156.109 40.1397 156.04 40.1659 155.954 40.1659ZM159.737 40.0913C159.686 40.1474 159.619 40.1726 159.535 40.1697C159.449 40.1678 159.382 40.1368 159.331 40.0767L156.9 37.1882L159.136 34.3955C159.192 34.3354 159.259 34.3044 159.339 34.3025C159.419 34.2986 159.486 34.3248 159.542 34.38C159.602 34.4401 159.63 34.505 159.628 34.5718C159.626 34.6386 159.6 34.7035 159.549 34.7626L157.605 37.1572L159.767 39.6999C159.822 39.7658 159.845 39.8326 159.837 39.8995C159.829 39.9663 159.796 40.0322 159.737 40.0913Z" fill="black"/>
<path d="M161.252 40.1658C161.137 40.1658 161.054 40.1183 161.004 40.0244C160.954 39.9294 160.949 39.8374 160.989 39.7463L163.194 34.5097C163.25 34.3732 163.344 34.3073 163.48 34.3073C163.61 34.3073 163.702 34.3732 163.757 34.5097L165.97 39.7541C166.015 39.849 166.009 39.9411 165.952 40.0321C165.893 40.1222 165.812 40.1668 165.708 40.1668C165.648 40.1668 165.594 40.1513 165.546 40.1222C165.498 40.0922 165.46 40.0476 165.43 39.9866L163.366 34.9815H163.598L161.519 39.9866C161.494 40.0466 161.458 40.0912 161.411 40.1222C161.365 40.1513 161.312 40.1658 161.252 40.1658ZM161.747 38.7709L161.972 38.2682H165.019L165.244 38.7709H161.747Z" fill="black"/>
</svg>
