<?xml version="1.0" encoding="utf-8"?>
<!-- Generator: Adobe Illustrator 16.0.0, SVG Export Plug-In . SVG Version: 6.00 Build 0)  -->
<!DOCTYPE svg PUBLIC "-//W3C//DTD SVG 1.1//EN" "http://www.w3.org/Graphics/SVG/1.1/DTD/svg11.dtd">
<svg version="1.1" id="Capa_1" xmlns="http://www.w3.org/2000/svg" xmlns:xlink="http://www.w3.org/1999/xlink" x="0px" y="0px"
	 width="612px" height="792px" viewBox="0 0 612 792" enable-background="new 0 0 612 792" xml:space="preserve">
<g>
	<g>
		<g>
			<path fill="#F0002F" d="M596.102,356.794L596.102,356.794c-21.037-20.918-55.104-20.918-76.021,0L343.891,532.146
				c-2.391,2.391-3.944,5.259-4.781,8.486l-15.777,66.34c-3.108,12.909,8.605,24.623,21.516,21.635l66.459-15.658
				c3.228-0.717,6.216-2.391,8.606-4.781l176.188-175.353C617.14,411.778,617.14,377.831,596.102,356.794z M398.158,579.241
				l-33.229,7.77l7.889-33.11l6.574-6.574c5.499,2.63,10.758,5.857,15.181,10.28c4.423,4.303,7.53,9.563,10.16,15.061
				L398.158,579.241z M570.762,407.475l-12.671,12.671l-25.341-25.341l12.671-12.67c7.052-7.052,18.407-7.052,25.341,0l0,0
				C577.814,389.067,577.814,400.423,570.762,407.475z"/>
		</g>
	</g>
</g>
<g>
	<g>
		<g>
			<path fill="#999999" d="M304.207,532.385c2.271-9.682,7.291-18.527,14.344-25.579l177.504-177.504
				c1.912-1.913,4.063-3.347,6.096-5.021v-56.897c0-14.344-5.618-27.851-15.778-38.011l-50.681-51.876
				c-10.16-10.16-23.668-15.778-38.012-15.778H89.768c-9.921,0-17.93,8.009-17.93,17.93V684.07c0,9.921,8.009,17.93,17.93,17.93
				h394.453c9.921,0,17.93-8.009,17.93-17.93V576.731l-56.777,56.777c-7.053,7.052-15.897,12.072-25.699,14.344l-66.579,15.658
				c-19.005,4.423-37.892-1.912-50.442-14.463c-13.028-13.029-18.526-32.394-14.224-50.442L304.207,532.385z M394.573,197.578h3.107
				c4.662,0,9.324,3.108,12.671,6.455l50.681,50.681c3.348,3.347,5.26,8.009,5.26,12.67v3.108h-71.719V197.578z M161.487,234.633
				h143.438c9.921,0,17.93,8.009,17.93,17.93s-8.009,17.93-17.93,17.93H161.487c-9.921,0-17.93-8.009-17.93-17.93
				S151.566,234.633,161.487,234.633z M125.627,306.352h143.438c9.921,0,17.93,8.009,17.93,17.93s-8.009,17.93-17.93,17.93H125.627
				c-9.921,0-17.93-8.009-17.93-17.93S115.706,306.352,125.627,306.352z M281.736,516.248L174.157,623.826
				c-7.053,7.053-18.408,7.053-25.341,0l-35.859-35.859c-7.053-7.052-7.053-18.407,0-25.34c7.052-6.934,18.407-7.053,25.341,0
				l23.188,23.188l94.908-94.907c7.052-7.053,18.407-7.053,25.341,0C288.787,497.96,288.787,509.196,281.736,516.248z
				 M125.627,413.93c-9.921,0-17.93-8.009-17.93-17.93s8.009-17.93,17.93-17.93h251.016c9.921,0,17.93,8.009,17.93,17.93
				s-8.009,17.93-17.93,17.93H125.627z"/>
		</g>
	</g>
</g>
<g>
	<g>
		<g>
			<path fill="#F0002F" d="M412.502,90H18.049c-9.921,0-17.93,8.009-17.93,17.93v503.227c0,9.921,8.009,17.93,17.93,17.93h17.93
				V179.648c0-29.763,24.026-53.789,53.789-53.789h340.664v-17.93C430.432,98.009,422.423,90,412.502,90z"/>
		</g>
	</g>
</g>
</svg>
