<?xml version="1.0" encoding="utf-8"?>
<!-- Generator: Adobe Illustrator 16.0.0, SVG Export Plug-In . SVG Version: 6.00 Build 0)  -->
<!DOCTYPE svg PUBLIC "-//W3C//DTD SVG 1.1//EN" "http://www.w3.org/Graphics/SVG/1.1/DTD/svg11.dtd">
<svg version="1.1" id="Слой_1" xmlns="http://www.w3.org/2000/svg" xmlns:xlink="http://www.w3.org/1999/xlink" x="0px" y="0px"
	 width="612px" height="792px" viewBox="0 0 612 792" enable-background="new 0 0 612 792" xml:space="preserve">
<path fill="#999999" d="M450.513,249.096V107.93c0-9.921-8.009-17.93-17.93-17.93H311.617v136.266
	c0,12.909-13.746,22.831-27.133,15.419l-58.57-29.644l-59.766,30.241c-12.073,6.096-25.938-2.869-25.938-16.017V90H19.125
	c-9.921,0-17.93,8.009-17.93,17.93v413.459c0,9.921,8.009,17.93,17.93,17.93h233.684c-10.997-29.047-17.571-57.854-17.571-83.553
	C235.357,338.386,332.895,244.435,450.513,249.096z"/>
<path fill="#F0002F" d="M233.923,176.063l41.836,21.157V90H176.07v107.22l41.717-21.157
	C222.687,173.552,228.663,173.433,233.923,176.063z"/>
<path fill="#F0002F" d="M442.146,284.836c-94.43,0-170.93,76.5-170.93,170.93c0,45.063,25.58,104.59,58.093,153.239
	C364.331,661.24,409.156,702,442.146,702c32.991,0,77.815-40.76,112.838-92.995c32.632-48.649,58.092-108.176,58.092-153.239
	C613.075,361.336,536.575,284.836,442.146,284.836z M442.146,521.508c-36.337,0-65.742-29.404-65.742-65.742
	s29.405-65.742,65.742-65.742c36.338,0,65.742,29.404,65.742,65.742S478.484,521.508,442.146,521.508z"/>
<path fill="#999999" d="M472.029,455.766c0,16.495-13.388,30.002-30.002,30.002c-16.495,0-29.883-13.387-29.883-30.002
	c0-16.495,13.388-29.883,29.883-29.883C458.641,425.764,472.029,439.271,472.029,455.766z"/>
</svg>
