<?xml version="1.0" encoding="utf-8"?>
<!-- Generator: Adobe Illustrator 16.0.0, SVG Export Plug-In . SVG Version: 6.00 Build 0)  -->
<!DOCTYPE svg PUBLIC "-//W3C//DTD SVG 1.1//EN" "http://www.w3.org/Graphics/SVG/1.1/DTD/svg11.dtd">
<svg version="1.1" id="Слой_1" xmlns="http://www.w3.org/2000/svg" xmlns:xlink="http://www.w3.org/1999/xlink" x="0px" y="0px"
	 width="612px" height="792px" viewBox="0 0 612 792" enable-background="new 0 0 612 792" xml:space="preserve">
<path fill="#F0002F" d="M374.969,326.672h104.352v78.891H374.969V326.672z"/>
<path fill="#F0002F" d="M132.68,326.672h104.351v78.891H132.68V326.672z"/>
<path fill="#999999" d="M96.821,347.948v-57.136H272.89v114.75h66.101v-114.75H515.18v57.136
	c13.148-19.125,35.142-31.676,60.004-31.676c1.315,0,2.511,0,3.825,0.12v-140.33H33.111v140.33c1.195-0.12,2.51-0.12,3.824-0.12
	C61.678,316.272,83.672,328.823,96.821,347.948z"/>
<path fill="#999999" d="M558.689,571.353H612V389.067c0-20.32-16.496-36.816-36.816-36.816s-36.815,16.496-36.815,36.816v52.354
	H73.751v-52.354c0-20.32-16.496-36.816-36.816-36.816S0.119,368.747,0.119,389.067v182.285h53.312v43.39H89.29v-43.39h433.539v43.39
	h35.859V571.353L558.689,571.353z"/>
</svg>
