<?xml version="1.0" encoding="utf-8"?>
<!-- Generator: Adobe Illustrator 16.0.0, SVG Export Plug-In . SVG Version: 6.00 Build 0)  -->
<!DOCTYPE svg PUBLIC "-//W3C//DTD SVG 1.1//EN" "http://www.w3.org/Graphics/SVG/1.1/DTD/svg11.dtd">
<svg version="1.1" id="Capa_1" xmlns="http://www.w3.org/2000/svg" xmlns:xlink="http://www.w3.org/1999/xlink" x="0px" y="0px"
	 width="612px" height="792px" viewBox="0 0 612 792" enable-background="new 0 0 612 792" xml:space="preserve">
<path fill="#F0002F" d="M72.914,270.492h485.297c9.921,0,17.93,8.009,17.93,17.93v197.227h17.93c9.921,0,17.93-8.009,17.93-17.93
	V234.633H72.914V270.492z"/>
<path fill="#F0002F" d="M594.071,127.055H90.844c-9.921,0-17.93,8.009-17.93,17.93v53.789H612v-53.789
	C612,135.063,603.991,127.055,594.071,127.055z"/>
<rect x="359.789" y="413.93" fill="#F0002F" width="71.719" height="35.859"/>
<path fill="#999999" d="M198.422,413.93c-9.921,0-17.93,8.009-17.93,17.93s8.009,17.93,17.93,17.93s17.93-8.009,17.93-17.93
	S208.343,413.93,198.422,413.93z"/>
<path fill="#999999" d="M126.703,413.93c-9.921,0-17.93,8.009-17.93,17.93s8.009,17.93,17.93,17.93s17.93-8.009,17.93-17.93
	S136.624,413.93,126.703,413.93z"/>
<path fill="#999999" d="M522.352,306.352H17.93c-9.921,0-17.93,8.009-17.93,17.93v322.734c0,9.921,8.009,17.93,17.93,17.93h504.422
	c9.921,0,17.93-8.009,17.93-17.93V324.281C540.281,314.36,532.273,306.352,522.352,306.352z M126.703,593.227H90.844
	c-9.921,0-17.93-8.009-17.93-17.93s8.009-17.93,17.93-17.93h35.859c9.921,0,17.93,8.009,17.93,17.93
	S136.624,593.227,126.703,593.227z M234.281,593.227h-35.859c-9.921,0-17.93-8.009-17.93-17.93s8.009-17.93,17.93-17.93h35.859
	c9.921,0,17.93,8.009,17.93,17.93S244.202,593.227,234.281,593.227z M198.422,485.648c-13.866,0-26.297-5.379-35.859-13.985
	c-9.563,8.606-21.994,13.985-35.859,13.985c-29.644,0-53.789-24.146-53.789-53.789s24.146-53.789,53.789-53.789
	c13.865,0,26.297,5.379,35.859,13.985c9.563-8.606,21.993-13.985,35.859-13.985c29.644,0,53.789,24.146,53.789,53.789
	S228.066,485.648,198.422,485.648z M341.86,593.227H306c-9.921,0-17.93-8.009-17.93-17.93s8.009-17.93,17.93-17.93h35.859
	c9.921,0,17.93,8.009,17.93,17.93S351.781,593.227,341.86,593.227z M449.438,593.227h-35.859c-9.922,0-17.93-8.009-17.93-17.93
	s8.008-17.93,17.93-17.93h35.859c9.921,0,17.93,8.009,17.93,17.93S459.359,593.227,449.438,593.227z M467.367,467.719
	c0,9.921-8.009,17.93-17.93,17.93H341.86c-9.922,0-17.93-8.009-17.93-17.93V396c0-9.921,8.008-17.93,17.93-17.93h107.578
	c9.921,0,17.93,8.009,17.93,17.93V467.719z"/>
</svg>
