<svg xmlns="http://www.w3.org/2000/svg" id="Layer_1" data-name="Layer 1" viewBox="0 0 512 512" width="512" height="512" fill="#c1a59b"><title>wifi</title><path d="M387.9,186.249a6,6,0,0,0-7.314,9.514,74.556,74.556,0,0,1-2.639,120.2,6,6,0,1,0,6.892,9.822A86.555,86.555,0,0,0,387.9,186.249Z"/><path d="M416.737,157.775a6,6,0,0,0-7.72,9.188,114.811,114.811,0,0,1-2.383,177.8,6,6,0,1,0,7.244,9.571,126.812,126.812,0,0,0,2.859-196.558Z"/><path d="M134.056,315.959a74.556,74.556,0,0,1-2.639-120.2,6,6,0,0,0-7.314-9.514,86.555,86.555,0,0,0,3.061,139.532,6,6,0,0,0,6.892-9.822Z"/><path d="M105.468,344.843a114.811,114.811,0,0,1-2.485-177.88,6,6,0,0,0-7.72-9.188,126.812,126.812,0,0,0,2.859,196.558,6,6,0,1,0,7.346-9.49Z"/><path d="M319.08,83.232H192.92a36.041,36.041,0,0,0-36,36V392.768a36.041,36.041,0,0,0,36,36H319.08a36.041,36.041,0,0,0,36-36V119.232A36.041,36.041,0,0,0,319.08,83.232Zm-126.16,12H319.08a24.028,24.028,0,0,1,24,24v10.54H323.224a6,6,0,0,0,0,12H343.08V360.92H168.92V141.772H276.426a6,6,0,0,0,0-12H168.92v-10.54A24.028,24.028,0,0,1,192.92,95.232ZM319.08,416.768H192.92a24.028,24.028,0,0,1-24-24V372.92H343.08v19.848A24.028,24.028,0,0,1,319.08,416.768Z"/><path d="M295.839,141.772h8.622a6,6,0,0,0,0-12h-8.622a6,6,0,0,0,0,12Z"/><path d="M256,377.209a17.635,17.635,0,1,0,17.635,17.635A17.655,17.655,0,0,0,256,377.209Zm0,23.27a5.635,5.635,0,1,1,5.635-5.635A5.642,5.642,0,0,1,256,400.479Z"/></svg>