<svg xmlns="http://www.w3.org/2000/svg">
<defs>
<font id="Vollkorn-Regular" horiz-adv-x="0" >
  <font-face 
    font-family="Vollkorn"
    font-weight="400"
    font-stretch="normal"
    units-per-em="1000"
    panose-1="0 0 5 0 0 0 0 0 0 0"
    ascent="750"
    descent="-250"
    x-height="461"
    cap-height="679"
    bbox="-430 -249 1127 939"
    underline-thickness="40"
    underline-position="-380"
    unicode-range="U+0020-2116"
  />
<missing-glyph horiz-adv-x="454" 
d="M51 677h352v-677h-352v677zM362 281v270h-270v-270h270zM102 541h70v-70h-70v70zM282 311h20v10h-10v10h-10v-20h-10v10h-20v20h-10v10h-10v-20h-10v10h-10v-10h-20v10h10v10h-10v10h10v20h-20v20h10v30h10v-40h10v20h10v10h-10v20h-20v10h-10v50h20v20h-20v20h10v-10h10
v10h30v-20h-10v10h-10v-20h10v-10h-10v-10h-20v-30h10v20h10v-30h10v50h10v20h10v-10h10v-10h-10v-10h-10v-50h-10v-10h10v-30h-10v-20h10v-20h20v-10h10v10h-10v50h10v10h-20v10h10v20h10v-10h10v-50h-10v-10h30v20h-10v20h10v10h20v20h10v-10h10v-10h-10v-10h-20v-40h10
v-20h10v-10h-10v-10h10v-10h20v-10h10v-10h-20v10h-20v-20h-30v10zM282 541h70v-70h-70v70zM162 481v50h-50v-50h50zM342 481v50h-50v-50h50zM122 521h30v-30h-30v30zM252 521h10v-10h-10v10zM302 521h30v-30h-30v30zM262 511h10v-10h-10v10zM282 451h-20v40h10v-30h40v-10
h-10v-10h-20v10zM242 481h10v-10h-10v10zM102 461h30v-10h20v10h20v-10h-10v-10h20v-10h-30v10h-40v-10h10v-10h-20v40zM342 441h-10v20h20v-30h-10v10zM232 441h10v-10h-10v10zM132 431h10v-10h-10v10zM132 411h20v10h30v-20h-10v10h-10v-10h-20v-10h-10v20zM342 401h-10
v10h10v10h10v-30h-10v10zM102 401h10v10h10v-20h-20v10zM162 401h10v-10h-10v10zM312 401h20v-10h-20v10zM142 391h20v-10h20v-10h-40v20zM102 381h30v-10h-30v10zM332 381h10v-10h-10v10zM182 371h10v-10h-10v10zM302 341v30h-30v-30h30zM322 371h10v-10h-10v10zM342 371
h10v-20h-10v20zM102 361h70v-70h-70v70zM282 361h10v-10h-10v10zM162 301v50h-50v-50h50zM182 351h10v-10h-10v10zM332 351h10v-10h-10v10zM122 341h30v-30h-30v30zM182 321h10v-20h10v20h10v10h10v-20h-10v-10h10v10h10v-20h-50v30zM242 321h10v-20h-10v20zM262 311h10v-20

<glyph glyph-name="uni04070407.rlig" unicode="&#x407;&#x407;" horiz-adv-x="708" 
d="M59 750.5q-16 13.5 -16 34.5q0 23 14 38.5t41 15.5q29 0 43 -14.5t14 -37.5q0 -22 -16 -36t-39 -14q-25 0 -41 13.5zM212.5 752.5q-15.5 14.5 -15.5 38.5q0 22 15.5 35t40.5 13t41 -13.5t16 -34.5q0 -23 -13 -38t-41 -15t-43.5 14.5zM413 750.5q-16 13.5 -16 34.5
q0 23 14 38.5t41 15.5q29 0 43 -14.5t14 -37.5q0 -22 -16 -36t-39 -14q-25 0 -41 13.5zM566.5 752.5q-15.5 14.5 -15.5 38.5q0 22 15.5 35t40.5 13t41 -13.5t16 -34.5q0 -23 -13 -38t-41 -15t-43.5 14.5zM114.5 616.5q-14.5 17.5 -54.5 19.5q-5 14 -5 43q56 -3 121 -3
q61 0 121 3q0 -29 -5 -43q-40 -2 -54.5 -19.5t-14.5 -67.5v-422q0 -50 14.5 -67.5t54.5 -19.5q5 -14 5 -43q-60 3 -121 3q-70 0 -121 -3q0 29 5 43q40 2 54.5 19.5t14.5 67.5v422q0 50 -14.5 67.5zM468.5 616.5q-14.5 17.5 -54.5 19.5q-5 14 -5 43q56 -3 121 -3q61 0 121 3
q0 -29 -5 -43q-40 -2 -54.5 -19.5t-14.5 -67.5v-422q0 -50 14.5 -67.5t54.5 -19.5q5 -14 5 -43q-60 3 -121 3q-70 0 -121 -3q0 29 5 43q40 2 54.5 19.5t14.5 67.5v422q0 50 -14.5 67.5z" />
    <glyph glyph-name="uni04570457.rlig" unicode="&#x457;&#x457;" horiz-adv-x="602" 
d="M27 546.5q-16 14.5 -16 36.5q0 24 14 40.5t41 16.5q29 0 43 -15t14 -40q0 -23 -16 -38t-39 -15q-25 0 -41 14.5zM180.5 548.5q-15.5 15.5 -15.5 40.5q0 24 15.5 37.5t40.5 13.5t41 -14.5t16 -36.5q0 -24 -13 -40t-41 -16t-43.5 15.5zM340 546.5q-16 14.5 -16 36.5
q0 24 14 40.5t41 16.5q29 0 43 -15t14 -40q0 -23 -16 -38t-39 -15q-25 0 -41 14.5zM493.5 548.5q-15.5 15.5 -15.5 40.5q0 24 15.5 37.5t40.5 13.5t41 -14.5t16 -36.5q0 -24 -13 -40t-41 -16t-43.5 15.5zM42 40q40 0 54.5 18.5t14.5 68.5v198q0 26 -5 41t-21 22.5t-49 7.5
q0 23 9 37q25 0 71 11t63 23q22 -7 22 -40v-300q0 -50 13 -68.5t46 -18.5q5 -17 5 -43q-52 3 -113 3q-65 0 -115 -3q0 27 5 43zM343 40q40 0 54.5 18.5t14.5 68.5v198q0 26 -5 41t-21 22.5t-49 7.5q0 23 9 37q25 0 71 11t63 23q22 -7 22 -40v-300q0 -50 13 -68.5t46 -18.5
q5 -17 5 -43q-52 3 -113 3q-65 0 -115 -3q0 27 5 43z" />
    <glyph glyph-name=".notdef" horiz-adv-x="454" 
d="M51 677h352v-677h-352v677zM362 281v270h-270v-270h270zM102 541h70v-70h-70v70zM282 311h20v10h-10v10h-10v-20h-10v10h-20v20h-10v10h-10v-20h-10v10h-10v-10h-20v10h10v10h-10v10h10v20h-20v20h10v30h10v-40h10v20h10v10h-10v20h-20v10h-10v50h20v20h-20v20h10v-10h10
v10h30v-20h-10v10h-10v-20h10v-10h-10v-10h-20v-30h10v20h10v-30h10v50h10v20h10v-10h10v-10h-10v-10h-10v-50h-10v-10h10v-30h-10v-20h10v-20h20v-10h10v10h-10v50h10v10h-20v10h10v20h10v-10h10v-50h-10v-10h30v20h-10v20h10v10h20v20h10v-10h10v-10h-10v-10h-20v-40h10
v-20h10v-10h-10v-10h10v-10h20v-10h10v-10h-20v10h-20v-20h-30v10zM282 541h70v-70h-70v70zM162 481v50h-50v-50h50zM342 481v50h-50v-50h50zM122 521h30v-30h-30v30zM252 521h10v-10h-10v10zM302 521h30v-30h-30v30zM262 511h10v-10h-10v10zM282 451h-20v40h10v-30h40v-10
h-10v-10h-20v10zM242 481h10v-10h-10v10zM102 461h30v-10h20v10h20v-10h-10v-10h20v-10h-30v10h-40v-10h10v-10h-20v40zM342 441h-10v20h20v-30h-10v10zM232 441h10v-10h-10v10zM132 431h10v-10h-10v10zM132 411h20v10h30v-20h-10v10h-10v-10h-20v-10h-10v20zM342 401h-10
v10h10v10h10v-30h-10v10zM102 401h10v10h10v-20h-20v10zM162 401h10v-10h-10v10zM312 401h20v-10h-20v10zM142 391h20v-10h20v-10h-40v20zM102 381h30v-10h-30v10zM332 381h10v-10h-10v10zM182 371h10v-10h-10v10zM302 341v30h-30v-30h30zM322 371h10v-10h-10v10zM342 371
h10v-20h-10v20zM102 361h70v-70h-70v70zM282 361h10v-10h-10v10zM162 301v50h-50v-50h50zM182 351h10v-10h-10v10zM332 351h10v-10h-10v10zM122 341h30v-30h-30v30zM182 321h10v-20h10v20h10v10h10v-20h-10v-10h10v10h10v-20h-50v30zM242 321h10v-20h-10v20zM262 311h10v-20
h-10v20zM312 301h10v-10h-10v10zM342 301h10v-10h-10v10z" />
    <glyph glyph-name=".null" 
 />
    <glyph glyph-name="nonmarkingreturn" horiz-adv-x="333" 
 />
    <glyph glyph-name="space" unicode=" " horiz-adv-x="200" 
 />
    <glyph glyph-name="B" horiz-adv-x="623" 
d="M568 197q0 -88 -59.5 -142.5t-180.5 -54.5q-197 0 -272 -3q0 29 5 43q28 2 42.5 10t21 28.5t6.5 59.5v411q0 50 -14.5 67.5t-54.5 19.5q-5 14 -5 43q40 -3 104 -3l72 1q24 1 71 1q98 0 155.5 -32.5t57.5 -113.5q0 -65 -39.5 -110t-105.5 -55q196 -11 196 -170zM370.5 603
q-44.5 31 -104.5 31q-22 0 -41 -5v-254h31q159 0 159 127q0 70 -44.5 101zM425.5 79.5q35.5 36.5 35.5 103.5q0 149 -213 149h-23v-194q0 -42 7.5 -61.5t26.5 -26.5t59 -7q72 0 107.5 36.5z" />
    <glyph glyph-name="C" horiz-adv-x="653" 
d="M188.5 35.5q-72.5 44.5 -113 124.5t-40.5 183q0 110 46.5 187t123 116t164.5 39q61 0 113 -12.5t109 -39.5q-11 -52 -11 -155q-22 -9 -53 -9q-4 100 -41 137.5t-109 37.5q-81 0 -134 -38t-78 -100t-25 -136q0 -90 30.5 -162.5t88.5 -114t136 -41.5q47 0 97 16t93 43
q6 -5 11.5 -14.5t6.5 -16.5q-61 -47 -118.5 -68t-131.5 -21q-92 0 -164.5 44.5z" />
    <glyph glyph-name="E" horiz-adv-x="601" 
d="M560 147q-19 -59 -31 -149q-78 2 -214 2q-184 0 -259 -3q0 29 5 43q28 2 42.5 10t20.5 28t6 60v411q0 50 -14.5 67.5t-54.5 19.5q-5 14 -5 43q59 -3 168 -3q182 0 281 3q10 -110 21 -158q-15 -12 -45 -12q-5 56 -40.5 91.5t-123.5 35.5h-93v-274h63q63 0 86.5 16.5
t24.5 64.5q24 7 48 7q-2 -34 -2 -109q0 -82 2 -116q-27 0 -46 5q-4 52 -27.5 70.5t-85.5 18.5h-63v-181q0 -38 7 -57.5t26.5 -27.5t57.5 -8h6q69 0 106 14t54.5 39t34.5 73q29 -9 44 -24z" />
    <glyph glyph-name="F" horiz-adv-x="561" 
d="M224 636v-294h69q63 0 86.5 16.5t24.5 64.5q24 7 48 7q-2 -34 -2 -109q0 -82 2 -116q-27 0 -46 5q-4 52 -27.5 70.5t-85.5 18.5h-69v-152q0 -43 9 -65.5t27.5 -31t52.5 -10.5q5 -14 5 -43q-46 3 -126 3q-97 0 -136 -3q0 29 5 43q40 2 54.5 19.5t14.5 67.5v422
q0 50 -14.5 67.5t-54.5 19.5q-5 14 -5 43q66 -3 167 -3q179 0 278 3q10 -110 21 -158q-15 -12 -45 -12q-5 56 -40.5 91.5t-123.5 35.5h-89z" />
    <glyph glyph-name="H" horiz-adv-x="753" 
d="M637.5 59.5q14.5 -17.5 54.5 -19.5q5 -14 5 -43q-60 3 -121 3q-70 0 -121 -3q0 29 5 43q40 2 54.5 19.5t14.5 67.5v198q-229 0 -305 -6v-192q0 -50 14.5 -67.5t54.5 -19.5q5 -14 5 -43q-60 3 -121 3q-70 0 -121 -3q0 29 5 43q40 2 54.5 19.5t14.5 67.5v422
q0 50 -14.5 67.5t-54.5 19.5q-5 14 -5 43q55 -3 121 -3q61 0 121 3q0 -29 -5 -43q-40 -2 -54.5 -19.5t-14.5 -67.5v-181h305v181q0 50 -14.5 67.5t-54.5 19.5q-5 14 -5 43q55 -3 121 -3q61 0 121 3q0 -29 -5 -43q-40 -2 -54.5 -19.5t-14.5 -67.5v-422q0 -50 14.5 -67.5z" />
    <glyph glyph-name="I" horiz-adv-x="354" 
d="M115.5 616.5q-14.5 17.5 -54.5 19.5q-5 14 -5 43q55 -3 121 -3q61 0 121 3q0 -29 -5 -43q-40 -2 -54.5 -19.5t-14.5 -67.5v-422q0 -50 14.5 -67.5t54.5 -19.5q5 -14 5 -43q-60 3 -121 3q-70 0 -121 -3q0 29 5 43q40 2 54.5 19.5t14.5 67.5v422q0 50 -14.5 67.5z" />
    <glyph glyph-name="J" horiz-adv-x="329" 
d="M200.5 -40q-13.5 -63 -55 -113t-125.5 -96q-14 8 -17 26q60 51 88.5 108.5t28.5 148.5v515q0 50 -14.5 67.5t-54.5 19.5q-5 14 -5 43q44 -3 121 -3q85 0 121 3q0 -29 -5 -43q-39 -2 -54 -20t-15 -67v-424q0 -102 -13.5 -165z" />
    <glyph glyph-name="M" horiz-adv-x="931" 
d="M896 -3q-46 3 -120 3q-71 0 -122 -3q0 24 6 43q38 4 51 17t13 48q0 20 -3 50l-36 343l-207 -500q-17 -7 -41 -7l-233 506l-32 -321q-3 -30 -3 -52q0 -46 15.5 -63.5t52.5 -20.5q5 -17 5 -43q-48 3 -107 3t-100 -3q0 26 5 43q28 3 43 14t23.5 40.5t14.5 90.5l32 356
q1 9 1 24q0 39 -16 55t-52 16q-5 16 -5 43q30 -3 76 -3q37 0 76 3l250 -553l218 553q34 -3 78 -3q36 0 76 3q0 -24 -5 -43q-34 0 -51.5 -17t-17.5 -59q0 -16 1 -25l36 -367q5 -50 13 -76.5t22 -37.5t38 -13q5 -17 5 -44z" />
    <glyph glyph-name="P" horiz-adv-x="581" 
d="M491 623.5q55 -54.5 55 -139.5q0 -60 -26 -112.5t-77.5 -85.5t-123.5 -33q-42 0 -70 11q-2 12 -2 19q0 12 3 22q25 -6 53 -6q141 0 141 156q0 84 -41 131.5t-128 47.5q-22 0 -51 -6v-481q0 -43 9 -65.5t27.5 -31t52.5 -10.5q5 -14 5 -43q-46 3 -126 3q-97 0 -136 -3
q0 29 5 43q40 2 54.5 19.5t14.5 67.5v422q0 50 -14.5 67.5t-54.5 19.5q-5 14 -5 43q52 -3 136 -3l127 2q117 0 172 -54.5z" />
    <glyph glyph-name="Q" horiz-adv-x="731" 
d="M536.5 -10.5q24.5 -13.5 54.5 -32.5q44 -28 76 -42t74 -14q16 0 25 1q0 -21 -6 -40q-69 -21 -124 -46q-40 10 -65.5 30.5t-55.5 55.5q-35 40 -66 61.5t-84 27.5q-97 0 -172 45.5t-116.5 125t-41.5 178.5q0 100 43.5 178.5t119 122.5t167.5 44q95 0 170.5 -43.5t118 -122
t42.5 -179.5q0 -115 -58 -203.5t-155 -124.5q29 -9 53.5 -22.5zM167.5 206q29.5 -75 85.5 -120.5t132 -45.5q63 0 110.5 36t72.5 98.5t25 139.5q0 89 -32.5 163t-89.5 117t-127 43q-59 0 -106 -34t-73.5 -95t-26.5 -141q0 -86 29.5 -161z" />
    <glyph glyph-name="S" horiz-adv-x="552" 
d="M167 6.5q-46 15.5 -99 48.5q9 56 9 142q23 6 54 6q4 -80 40.5 -122t113.5 -42q65 0 96.5 28.5t31.5 75.5q0 39 -20 66t-49 44.5t-81 41.5q-60 29 -96 52t-61.5 61.5t-25.5 96.5q0 84 54 132t147 48q49 0 94 -12.5t73 -31.5q0 -89 6 -132q-22 -9 -56 -9q-14 82 -42 111.5
t-76 29.5q-53 0 -83 -26t-30 -73q0 -39 20.5 -67t50 -46t81.5 -44q59 -28 94.5 -51t60.5 -60t25 -91q0 -52 -24.5 -95.5t-76 -70t-127.5 -26.5q-58 0 -104 15.5z" />
    <glyph glyph-name="T" horiz-adv-x="585" 
d="M552 643q0 -40 7 -124q-21 -10 -50 -9q-2 60 -29 91t-84 31h-53v-505q0 -35 6 -52.5t22.5 -25t49.5 -9.5q5 -14 5 -43q-64 3 -131 3q-75 0 -131 -3q0 29 5 43q33 2 50 9.5t23.5 25.5t6.5 52v505h-51q-46 0 -71 -14.5t-35.5 -39t-18.5 -68.5q-33 0 -48 9q16 90 16 160
q56 -3 255 -3q202 0 257 3z" />
    <glyph glyph-name="W" horiz-adv-x="1003" 
d="M978 679q0 -23 -7 -43q-18 -4 -30 -17t-24 -41.5t-30 -86.5l-156 -494q-16 -6 -40 -6q-100 284 -195 531l-176 -525q-16 -6 -43 -6q-89 291 -168 530q-19 56 -29.5 78t-20 28.5t-29.5 8.5q-5 16 -5 43q48 -3 113 -3q66 0 121 3q0 -23 -5 -43q-36 -2 -50 -8.5t-14 -25.5
q0 -20 17 -69q74 -230 117 -373l176 519q13 5 44 5q90 -235 191 -526l106 336q16 54 16 80q0 29 -15.5 43.5t-48.5 18.5q-7 18 -7 43q42 -3 97 -3t95 3z" />
    <glyph glyph-name="X" horiz-adv-x="667" 
d="M627 -3q-43 3 -122 3q-61 0 -121 -2q0 23 4 42q24 3 35.5 8.5t11.5 20.5q0 24 -31 75q-34 58 -52 87l-32 53l-88 -129q-36 -53 -36 -77q0 -29 53 -38q5 -17 5 -43q-51 3 -110 3q-63 0 -104 -3q0 28 6 45q55 14 119 102l128 183q-80 126 -122 189q-37 57 -53.5 79
t-27 29.5t-28.5 10.5q-6 19 -6 44q53 -3 122 -3q59 0 121 2q0 -22 -4 -42q-25 -5 -36.5 -13t-11.5 -22q0 -24 32 -72q28 -42 82 -126l73 115q36 59 36 83q0 15 -12.5 23.5t-38.5 11.5q-5 19 -5 43q50 -3 102 -3q62 0 99 3q0 -28 -4 -43q-26 -7 -49.5 -29t-65.5 -86
l-107 -163q63 -101 123 -201q41 -68 62.5 -90.5t46.5 -26.5q6 -18 6 -43z" />
    <glyph glyph-name="Y" horiz-adv-x="630" 
d="M605 678q0 -20 -4 -39q-28 -8 -52 -33t-49 -75l-135 -271v-97q0 -55 5 -78t20 -31.5t52 -13.5q6 -18 6 -43l-47 1q-56 2 -80 2q-80 0 -136 -2q0 24 6 42q38 3 53.5 11t21 29t5.5 70v109l-166 319q-16 32 -31.5 45t-42.5 14q-6 18 -6 41q56 -2 104 -2q103 0 134 2
q0 -21 -5 -39q-46 -4 -46 -30q0 -17 18 -52q60 -115 117 -243q55 121 108 228q21 42 21 61q0 15 -11.5 22.5t-36.5 11.5q-7 25 -7 41q24 -2 98 -2q40 0 86 2z" />
    <glyph glyph-name="c" horiz-adv-x="447" 
d="M147.5 18q-47.5 27 -77.5 80.5t-30 128.5q0 62 24.5 117t71.5 89t112 34q94 0 151 -45q-7 -45 -7 -114q-15 -8 -46 -8q-6 57 -34 88.5t-72 31.5q-50 0 -78.5 -46.5t-28.5 -131.5q0 -51 17 -95.5t49 -71.5t77 -27q32 0 60.5 15t50.5 43q8 -4 15 -11.5t10 -16.5
q-55 -87 -164 -87q-53 0 -100.5 27z" />
    <glyph glyph-name="e" horiz-adv-x="474" 
d="M421.5 91q7.5 -9 8.5 -17q-34 -44 -77.5 -63.5t-100.5 -19.5q-69 0 -116.5 31.5t-71.5 85.5t-24 121q0 65 25.5 119t72.5 86.5t109 32.5q91 0 135.5 -56.5t51.5 -150.5q-4 -20 -15 -34q-176 0 -280 -5q5 -77 38.5 -125.5t106.5 -48.5q34 0 66 15t56 43q8 -5 15.5 -14z
M170 385q-28 -34 -32 -114h192q0 67 -24.5 107.5t-67.5 40.5q-40 0 -68 -34z" />
    <glyph glyph-name="h" horiz-adv-x="596" 
d="M560 -3q-43 3 -109 3q-41 0 -99 -2q-7 -1 -20 -1q0 29 5 43q37 0 53 19t16 68v152q0 66 -24.5 94t-68.5 28q-28 0 -54 -17t-42.5 -55t-16.5 -95v-107q0 -50 15 -68.5t54 -18.5q5 -15 5 -43q-84 3 -119 3q-75 0 -119 -3q0 29 5 43q39 0 54 18.5t15 68.5v448q0 26 -5 41
t-21 22.5t-49 7.5q0 23 9 37q25 0 71 11t63 23q22 -7 22 -40v-254q0 -32 -7 -59q2 3 5.5 10.5t9.5 15.5q20 28 58.5 50t86.5 22q63 0 103 -39t40 -124v-172q0 -50 14 -68.5t45 -18.5q5 -15 5 -43z" />
    <glyph glyph-name="i" horiz-adv-x="301" 
d="M106 597q-17 17 -17 41q0 26 17.5 43.5t41.5 17.5q27 0 43.5 -17t16.5 -44q0 -23 -17.5 -40.5t-42.5 -17.5t-42 17zM42 40q40 0 54.5 18.5t14.5 68.5v198q0 26 -5 41t-21 22.5t-49 7.5q0 23 9 37q25 0 71 11t63 23q22 -7 22 -40v-300q0 -50 13 -68.5t46 -18.5
q5 -17 5 -43q-52 3 -113 3q-65 0 -115 -3q0 27 5 43z" />
    <glyph glyph-name="j" horiz-adv-x="283" 
d="M106 597q-17 17 -17 41q0 26 17.5 43.5t41.5 17.5q27 0 43.5 -17t16.5 -44q0 -23 -17.5 -40.5t-42.5 -17.5t-42 17zM13 -221q57 65 77.5 115.5t20.5 124.5v306q0 26 -5 41t-21 22.5t-49 7.5q0 23 9 37q25 0 71 11t63 23q22 -7 22 -40v-394q0 -99 -48 -170.5t-118 -111.5
q-19 10 -22 28z" />
    <glyph glyph-name="k" horiz-adv-x="545" 
d="M470.5 58q19.5 -12 54.5 -15q0 -29 -5 -43q-71 0 -128 -9q-31 47 -86 114.5t-106 119.5v-98q0 -50 13 -68.5t46 -18.5q5 -17 5 -43q-52 3 -113 3q-65 0 -115 -3q0 27 5 43q40 0 54.5 18.5t14.5 68.5v448q0 26 -5 41t-21 22.5t-49 7.5q0 23 9 37q25 0 71 11t63 23
q22 -7 22 -40v-421l74 67q64 57 64 80q0 16 -29 16q-6 20 -6 41q43 -2 104 -2q58 0 94 2q0 -25 -7 -42q-30 -1 -57.5 -14.5t-64.5 -46.5l-95 -86q59 -62 144 -165q30 -36 49.5 -48z" />
    <glyph glyph-name="l" horiz-adv-x="299" 
d="M41 40q40 0 54.5 18.5t14.5 68.5v448q0 26 -5 41t-21 22.5t-49 7.5q0 23 9 37q25 0 71 11t63 23q22 -7 22 -40v-550q0 -50 13 -68.5t46 -18.5q5 -17 5 -43q-52 3 -113 3q-65 0 -115 -3q0 27 5 43z" />
    <glyph glyph-name="m" horiz-adv-x="885" 
d="M849 -3q-45 3 -109 3q-69 0 -119 -3q0 29 5 43q40 2 54.5 19.5t14.5 67.5v152q0 67 -24 94.5t-68 27.5q-28 0 -53 -17t-41.5 -55t-16.5 -95v-107q0 -50 15 -67.5t55 -19.5q5 -15 5 -43q-51 3 -119 3q-65 0 -119 -3q0 29 5 43q40 2 54.5 19.5t14.5 67.5v157q0 67 -24 94.5
t-68 27.5q-28 0 -53 -17t-41.5 -55t-16.5 -95v-112q0 -49 15 -67t55 -20q5 -15 5 -43q-51 3 -119 3q-71 0 -119 -3q0 29 5 43q40 2 54.5 19.5t14.5 67.5v198q0 26 -5.5 40.5t-21.5 22t-48 8.5q0 23 9 37q26 2 68 12.5t61 21.5q22 -7 22 -40q0 -24 -4 -64q12 28 16 32
q19 28 57 50t86 22q45 0 79 -20.5t49 -63.5q4 -14 4 -25q7 19 17 32q20 28 57.5 50t85.5 22q62 0 101.5 -39t39.5 -124v-172q0 -49 13.5 -67t46.5 -20q5 -15 5 -43z" />
    <glyph glyph-name="n" horiz-adv-x="597" 
d="M561 -3q-43 3 -109 3q-41 0 -99 -2q-7 -1 -20 -1q0 29 5 43q37 0 53 19t16 68v152q0 66 -24.5 94t-68.5 28q-28 0 -54 -17t-42.5 -55t-16.5 -95v-107q0 -50 15 -68.5t54 -18.5q5 -15 5 -43q-84 3 -119 3q-76 0 -119 -3q0 29 5 43q39 0 54 18.5t15 68.5v198
q0 26 -5.5 40.5t-21.5 22t-48 8.5q0 23 9 37q31 2 71 12t63 22q22 -7 22 -44q0 -32 -7 -59q2 3 5.5 10.5t9.5 15.5q20 28 58.5 50t86.5 22q63 0 103 -39t40 -124v-172q0 -50 14 -68.5t45 -18.5q5 -15 5 -43z" />
    <glyph glyph-name="p" horiz-adv-x="573" 
d="M201 5v-100q0 -43 9 -65.5t27.5 -31t52.5 -10.5q5 -14 5 -43q-46 3 -126 3q-93 0 -132 -3q0 29 5 43q40 2 54.5 19.5t14.5 67.5v440q0 26 -5.5 40.5t-21.5 22t-48 8.5q0 23 9 37q31 2 71 12t63 22q22 -7 22 -44q0 -16 -3.5 -30.5t-11.5 -41.5q9 19 23 42q16 27 53.5 50.5
t83.5 23.5q90 0 138.5 -53t48.5 -160q0 -74 -31 -134t-88 -94.5t-130 -34.5q-41 0 -83 14zM236.5 357q-35.5 -47 -35.5 -144v-141q19 -17 39.5 -26t48.5 -9q33 0 66 17t56 60.5t23 117.5q0 78 -31.5 125t-80.5 47q-50 0 -85.5 -47z" />
    <glyph glyph-name="q" horiz-adv-x="546" 
d="M536 -245q-38 3 -124 3q-73 0 -124 -3q0 29 5 43q32 2 49 9.5t23.5 25.5t6.5 52v135q0 43 15 103q-15 -42 -29 -60q-21 -27 -58 -45.5t-76 -18.5q-50 0 -92 24.5t-67 73t-25 117.5q0 68 31 126t86.5 92.5t126.5 34.5q129 0 198 -67q-10 -16 -15 -41t-5 -68v-406
q0 -50 14.5 -67.5t54.5 -19.5q5 -15 5 -43zM312.5 77.5q25.5 17.5 42.5 56t17 99.5v153q-12 13 -36.5 24t-47.5 11q-67 0 -108 -51t-41 -143q0 -86 36 -126.5t86 -40.5q26 0 51.5 17.5z" />
    <glyph glyph-name="s" horiz-adv-x="428" 
d="M307 316q-3 44 -34 77t-78 33q-31 0 -49.5 -15t-18.5 -40q0 -19 8 -31.5t33 -26.5t78 -35q55 -21 85.5 -41t43.5 -44.5t13 -60.5q0 -63 -52 -102t-131 -39q-57 0 -92.5 9t-72.5 28q3 26 3 67q0 27 -2 57q15 11 52 11q7 -62 38.5 -93.5t83.5 -31.5q40 0 63 18t23 46
q0 18 -8.5 31t-31.5 26t-68 31q-58 23 -89 42t-45 44.5t-14 65.5t26 68t65 42.5t75 14.5q44 0 78 -8.5t66 -26.5q-2 -30 -2 -47q0 -32 4 -57q-19 -12 -50 -12z" />
    <glyph glyph-name="w" horiz-adv-x="774" 
d="M759 461q0 -25 -8 -44q-16 -4 -26 -15t-20.5 -35t-27.5 -76l-101 -291q-15 -9 -46 -9q-69 176 -140 337l-131 -328q-8 -5 -17.5 -7t-26.5 -2q-70 199 -138 367q-11 28 -22.5 40t-33.5 19q-6 16 -6 43q52 -2 98 -2q59 0 110 3q0 -31 -5 -44q-28 -3 -39.5 -10t-11.5 -20
q0 -11 8 -30q32 -80 87 -238l131 339q13 4 40 4q56 -128 141 -344l57 170q14 43 14 72q0 28 -13.5 41t-40.5 16q-9 21 -9 44q38 -3 89 -3q54 0 88 3z" />
    <glyph glyph-name="x" horiz-adv-x="521" 
d="M492 -2q-41 2 -105 2q-76 0 -115 -2q0 30 4 42q22 1 33 6t11 16q0 13 -18 40l-57 85l-42 -61q-26 -39 -26 -60q0 -26 35 -26q6 -15 6 -42q-37 2 -105 2q-42 0 -83 -2q0 29 6 42q28 2 52 20t60 69l70 97q-38 55 -76 105q-31 41 -45.5 58t-25.5 23t-27 8q-7 15 -7 40
q58 -2 105 -2q81 0 115 2q0 -12 -5 -40q-21 -1 -31.5 -5.5t-10.5 -15.5q0 -15 27 -53q13 -16 45 -61l40 61q24 36 24 53q0 10 -8.5 15t-26.5 6q-6 14 -6 40q50 -2 89 -2q42 0 84 2q0 -18 -6 -40q-24 -2 -40.5 -14.5t-46.5 -54.5l-74 -104l90 -125q33 -48 50 -64.5t36 -17.5
q5 -13 5 -42z" />
    <glyph glyph-name="dieresis" horiz-adv-x="300" 
d="M12 546.5q-16 14.5 -16 36.5q0 24 14 40.5t41 16.5q29 0 43 -15t14 -40q0 -23 -16 -38t-39 -15q-25 0 -41 14.5zM205.5 547.5q-15.5 15.5 -15.5 41.5q0 24 15.5 37.5t40.5 13.5t41 -14.5t16 -36.5q0 -24 -13 -40.5t-41 -16.5t-43.5 15.5z" />
    <glyph glyph-name="AE" horiz-adv-x="911" 
d="M839 -2q-142 2 -251 2q-86 0 -198 -2q0 29 7 42q27 4 40 12t18.5 27t5.5 59v160q-128 -2 -184 -4q-62 -109 -78 -139q-28 -52 -28 -79q0 -17 11 -25.5t34 -12.5q7 -17 7 -41q-46 3 -105 3q-63 0 -93 -3q0 25 7 42q26 3 48 24.5t60 88.5l234 404q16 26 16 44q0 15 -14 23
t-46 12q-6 14 -6 43l159 -2h34q176 0 298 2q10 -108 21 -157q-15 -12 -45 -12q-5 56 -40.5 91.5t-123.5 35.5h-72v-295h51q57 0 79 19.5t22 60.5q28 7 49 7q-2 -40 -2 -111q0 -70 2 -114q-32 0 -46 5q-3 31 -11.5 49.5t-32 29.5t-68.5 11h-43v-160q0 -41 8 -61t22.5 -26
t39.5 -6h26q60 0 93 14t49 39t33 73q29 -9 44 -24q-19 -59 -31 -149zM461 341v199q0 55 4 89q-11 -27 -43 -83l-118 -205h157z" />
    <glyph glyph-name="ae" horiz-adv-x="701" 
d="M651 94q8 -9 10 -16q-62 -84 -170 -84q-58 0 -99 29.5t-65 78.5q-11 -49 -51.5 -78.5t-103.5 -29.5q-58 0 -90 27.5t-32 78.5q0 83 73.5 119t177.5 49v53q0 48 -24.5 74.5t-59.5 26.5q-42 0 -60.5 -32.5t-25.5 -83.5q-13 0 -29.5 2t-22.5 5q1 10 1 34q0 44 -6 75
q47 22 87.5 33.5t87.5 11.5q74 0 113 -63q26 33 61 48t74 15q50 0 85.5 -27t54.5 -69.5t22 -87.5q-4 -24 -16 -38q-142 -3 -249 -13v-2q0 -71 29.5 -127t89.5 -56q78 0 123 61q7 -5 15 -14zM413.5 386q-19.5 -36 -19.5 -99v-10q64 8 168 11q0 51 -21.5 92.5t-68.5 41.5
q-39 0 -58.5 -36zM276 89q25 42 25 129v5q-81 -8 -119.5 -32t-38.5 -74q0 -38 20 -54t46 -16q42 0 67 42z" />
    <glyph glyph-name="gravecomb" 
d="M-217 704q22 11 57 11q19 0 39 -3q28 -95 71 -175q-8 -4 -20 -4q-8 0 -20 2q-67 104 -127 169z" />
    <glyph glyph-name="acutecomb" 
d="M-218 537q45 92 65 172q35 12 67 12q22 0 36 -7q-58 -67 -132 -183q-21 -2 -36 6z" />
    <glyph glyph-name="uni0304" 
d="M-411.5 608.5q2.5 14.5 6.5 22.5h355q0 -20 -9 -43q-184 0 -355 -3q0 9 2.5 23.5z" />
    <glyph glyph-name="uni0308" 
d="M-341 546.5q-16 14.5 -16 36.5q0 24 14 40.5t41 16.5q29 0 43 -15t14 -40q0 -23 -16 -38t-39 -15q-25 0 -41 14.5zM-147.5 547.5q-15.5 15.5 -15.5 41.5q0 24 15.5 37.5t40.5 13.5t41 -14.5t16 -36.5q0 -24 -13 -40.5t-41 -16.5t-43.5 15.5z" />
    <glyph glyph-name="uni030B" 
d="M-378 537q45 92 65 172q35 12 67 12q22 0 36 -7q-58 -67 -132 -183q-21 -2 -36 6zM-218 537q45 92 65 172q35 12 67 12q22 0 36 -7q-58 -67 -132 -183q-21 -2 -36 6z" />
    <glyph glyph-name="uni0400" unicode="&#x400;" horiz-adv-x="601" 
d="M560 147q-19 -59 -31 -149q-78 2 -214 2q-184 0 -259 -3q0 29 5 43q28 2 42.5 10t20.5 28t6 60v411q0 50 -14.5 67.5t-54.5 19.5q-5 14 -5 43q59 -3 168 -3q182 0 281 3q10 -110 21 -158q-15 -12 -45 -12q-5 56 -40.5 91.5t-123.5 35.5h-93v-274h63q63 0 86.5 16.5
t24.5 64.5q24 7 48 7q-2 -34 -2 -109q0 -82 2 -116q-27 0 -46 5q-4 52 -27.5 70.5t-85.5 18.5h-63v-181q0 -38 7 -57.5t26.5 -27.5t57.5 -8h6q69 0 106 14t54.5 39t34.5 73q29 -9 44 -24zM183 860q26 13 67 13q15 0 23 -1q34 -85 61 -135q-8 -3 -18 -4t-22 -1
q-58 75 -111 128z" />
    <glyph glyph-name="uni0401" unicode="&#x401;" horiz-adv-x="601" 
d="M560 147q-19 -59 -31 -149q-78 2 -214 2q-184 0 -259 -3q0 29 5 43q28 2 42.5 10t20.5 28t6 60v411q0 50 -14.5 67.5t-54.5 19.5q-5 14 -5 43q59 -3 168 -3q182 0 281 3q10 -110 21 -158q-15 -12 -45 -12q-5 56 -40.5 91.5t-123.5 35.5h-93v-274h63q63 0 86.5 16.5
t24.5 64.5q24 7 48 7q-2 -34 -2 -109q0 -82 2 -116q-27 0 -46 5q-4 52 -27.5 70.5t-85.5 18.5h-63v-181q0 -38 7 -57.5t26.5 -27.5t57.5 -8h6q69 0 106 14t54.5 39t34.5 73q29 -9 44 -24zM150 764.5q-16 14.5 -16 36.5q0 24 14 40.5t41 16.5q29 0 43 -15t14 -40
q0 -23 -16 -38t-39 -15q-25 0 -41 14.5zM343.5 765.5q-15.5 15.5 -15.5 41.5q0 24 15.5 37.5t40.5 13.5t41 -14.5t16 -36.5q0 -24 -13 -40.5t-41 -16.5t-43.5 15.5z" />
    <glyph glyph-name="uni0402" unicode="&#x402;" horiz-adv-x="737" 
d="M630 330.5q52 -50.5 52 -145.5q0 -91 -45.5 -142.5t-123.5 -51.5q-32 0 -59 13q0 29 5 43q25 -7 45 -7q41 0 62.5 33.5t21.5 95.5q0 81 -38 120t-116 39q-24 0 -59 -5l-32 -4v-192q0 -50 10 -67.5t39 -19.5q5 -14 5 -43q-46 3 -103 3q-59 0 -119 -3q0 29 5 43
q40 2 54.5 19.5t14.5 67.5v510h-51q-46 0 -71 -15t-35.5 -40.5t-18.5 -71.5q-33 0 -48 9q16 90 16 160q56 -3 255 -3q202 0 257 3l-1 -36q0 -40 7 -124q-21 -10 -50 -9q-2 63 -29 95t-84 32h-53v-274q64 18 134 18q101 0 153 -50.5z" />
    <glyph glyph-name="uni0403" unicode="&#x403;" horiz-adv-x="561" 
d="M522 521q-15 -12 -45 -12q-5 56 -40.5 91.5t-123.5 35.5h-89v-489q0 -43 9 -65.5t27.5 -31t52.5 -10.5q5 -14 5 -43q-46 3 -126 3q-97 0 -136 -3q0 29 5 43q40 2 54.5 19.5t14.5 67.5v422q0 50 -14.5 67.5t-54.5 19.5q-5 14 -5 43q66 -3 167 -3q179 0 278 3
q10 -110 21 -158zM243 755q45 92 65 172q35 12 67 12q22 0 36 -7q-58 -67 -132 -183q-21 -2 -36 6z" />
    <glyph glyph-name="uni0404" unicode="&#x404;" horiz-adv-x="620" 
d="M560 43q-49 -27 -97 -39.5t-103 -12.5q-154 0 -239.5 91t-85.5 257q0 164 84 255t238 91q107 0 197 -52q-3 -42 -3 -88q0 -44 1 -67q-19 -9 -53 -9q-3 96 -41 135.5t-108 39.5q-99 0 -152.5 -72.5t-56.5 -207.5h309q0 -14 -3 -30.5t-8 -25.5q-138 3 -297 3
q7 -133 65.5 -206t160.5 -73q69 0 105 40.5t45 139.5q33 -2 52 -14q-13 -82 -10 -155z" />
    <glyph glyph-name="uni0405" unicode="&#x405;" horiz-adv-x="552" 
d="M167 6.5q-46 15.5 -99 48.5q9 56 9 142q23 6 54 6q4 -80 40.5 -122t113.5 -42q65 0 96.5 28.5t31.5 75.5q0 39 -20 66t-49 44.5t-81 41.5q-60 29 -96 52t-61.5 61.5t-25.5 96.5q0 84 54 132t147 48q49 0 94 -12.5t73 -31.5q0 -89 6 -132q-22 -9 -56 -9q-14 82 -42 111.5
t-76 29.5q-53 0 -83 -26t-30 -73q0 -39 20.5 -67t50 -46t81.5 -44q59 -28 94.5 -51t60.5 -60t25 -91q0 -52 -24.5 -95.5t-76 -70t-127.5 -26.5q-58 0 -104 15.5z" />
    <glyph glyph-name="uni0406" unicode="&#x406;" horiz-adv-x="354" 
d="M115.5 616.5q-14.5 17.5 -54.5 19.5q-5 14 -5 43q55 -3 121 -3q61 0 121 3q0 -29 -5 -43q-40 -2 -54.5 -19.5t-14.5 -67.5v-422q0 -50 14.5 -67.5t54.5 -19.5q5 -14 5 -43q-60 3 -121 3q-70 0 -121 -3q0 29 5 43q40 2 54.5 19.5t14.5 67.5v422q0 50 -14.5 67.5z" />
    <glyph glyph-name="uni0407" unicode="&#x407;" horiz-adv-x="354" 
d="M59 750.5q-16 13.5 -16 34.5q0 23 14 38.5t41 15.5q29 0 43 -14.5t14 -37.5q0 -22 -16 -36t-39 -14q-25 0 -41 13.5zM212.5 752.5q-15.5 14.5 -15.5 38.5q0 22 15.5 35t40.5 13t41 -13.5t16 -34.5q0 -23 -13 -38t-41 -15t-43.5 14.5zM115.5 616.5q-14.5 17.5 -54.5 19.5
q-5 14 -5 43q55 -3 121 -3q61 0 121 3q0 -29 -5 -43q-40 -2 -54.5 -19.5t-14.5 -67.5v-422q0 -50 14.5 -67.5t54.5 -19.5q5 -14 5 -43q-60 3 -121 3q-70 0 -121 -3q0 29 5 43q40 2 54.5 19.5t14.5 67.5v422q0 50 -14.5 67.5z" />
    <glyph glyph-name="uni0408" unicode="&#x408;" horiz-adv-x="329" 
d="M200.5 -40q-13.5 -63 -55 -113t-125.5 -96q-14 8 -17 26q60 51 88.5 108.5t28.5 148.5v515q0 50 -14.5 67.5t-54.5 19.5q-5 14 -5 43q44 -3 121 -3q85 0 121 3q0 -29 -5 -43q-39 -2 -54 -20t-15 -67v-424q0 -102 -13.5 -165z" />
    <glyph glyph-name="uni0409" unicode="&#x409;" horiz-adv-x="891" 
d="M836 203q0 -91 -58.5 -147t-167.5 -56q-193 0 -253 -3q0 29 5 43q28 2 42.5 10t21 28.5t6.5 59.5v411q0 37 -6 55t-22 25t-50 7q-36 0 -51.5 -7.5t-20.5 -24t-7 -55.5q-13 -220 -33 -339t-53.5 -169t-89.5 -50q-24 0 -43 7t-30 16q-4 15 -4 41q0 25 5 52q37 -6 63 -6
q29 0 50 17t37 62q39 105 51 367l1 29q0 22 -5.5 33.5t-21 17.5t-47.5 9q-5 14 -5 43q62 -3 224 -3q155 0 238 3q0 -29 -5 -43q-45 -2 -63 -18t-18 -63v-181q45 5 78 5q232 0 232 -176zM695 79q32 36 32 102q0 84 -44.5 118.5t-100.5 34.5q-25 0 -56 -3v-193q0 -55 15.5 -75
t57.5 -20q64 0 96 36z" />
    <glyph glyph-name="uni040A" unicode="&#x40a;" horiz-adv-x="954" 
d="M899 203q0 -91 -58.5 -147t-167.5 -56q-193 0 -253 -3q0 29 5 43q28 2 42.5 10t21 28.5t6.5 59.5v187q-199 0 -271 -5v-193q0 -50 14.5 -67.5t54.5 -19.5q5 -14 5 -43q-60 3 -121 3q-70 0 -121 -3q0 29 5 43q40 2 54.5 19.5t14.5 67.5v422q0 50 -14.5 67.5t-54.5 19.5
q-5 14 -5 43q55 -3 121 -3q61 0 121 3q0 -29 -5 -43q-40 -2 -54.5 -19.5t-14.5 -67.5v-181h271v181q0 50 -14.5 67.5t-54.5 19.5q-5 14 -5 43q39 -3 136 -3q79 0 126 3q0 -29 -5 -43q-34 -2 -52.5 -9t-27.5 -26t-9 -56v-171q45 5 78 5q232 0 232 -176zM758 79q32 36 32 102
q0 84 -44.5 118.5t-100.5 34.5q-25 0 -56 -3v-193q0 -55 15.5 -75t57.5 -20q64 0 96 36z" />
    <glyph glyph-name="uni040B" unicode="&#x40b;" horiz-adv-x="797" 
d="M756 -3q-55 3 -121 3q-61 0 -121 -3q0 29 5 43q30 2 44.5 10t19.5 28t5 61q0 72 -13 112.5t-43 58.5t-83 18q-51 0 -106 -9v-192q0 -50 14.5 -67.5t54.5 -19.5q5 -14 5 -43q-55 3 -121 3q-61 0 -121 -3q0 29 5 43q40 2 54.5 19.5t14.5 67.5v510h-51q-46 0 -71 -15
t-35.5 -40.5t-18.5 -71.5q-33 0 -48 9q16 90 16 160q56 -3 255 -3q202 0 257 3l-1 -36q0 -40 7 -124q-21 -10 -50 -9q-2 63 -29 95t-84 32h-53v-274q62 18 139 18q92 0 133.5 -31t51.5 -77.5t15 -145.5q2 -35 6 -51.5t18 -25t45 -10.5q5 -14 5 -43z" />
    <glyph glyph-name="uni040C" unicode="&#x40c;" horiz-adv-x="678" 
d="M562.5 103q22.5 -34 41.5 -45t52 -14q0 -26 -5 -44q-42 0 -65.5 -1.5t-58.5 -7.5q-23 18 -42 49t-46 86q-33 66 -58.5 106.5t-64.5 69t-92 28.5v-203q0 -50 14.5 -67.5t54.5 -19.5q5 -14 5 -43q-60 3 -121 3q-70 0 -121 -3q0 29 5 43q40 2 54.5 19.5t14.5 67.5v422
q0 50 -14.5 67.5t-54.5 19.5q-5 14 -5 43q55 -3 121 -3q61 0 121 3q0 -29 -5 -43q-40 -2 -54.5 -19.5t-14.5 -67.5v-173q37 0 62.5 13.5t46.5 40.5t56 84q2 3 4.5 7.5t6.5 9.5q43 70 63.5 98t42.5 40.5t58 12.5q35 0 57 -6q-2 -34 -2 -53q0 -41 5 -93q-10 -4 -24 -6.5
t-24 -2.5q-7 40 -18 57t-27 17q-17 0 -30 -11t-24 -28t-38 -62q-35 -59 -57 -86.5t-43 -40.5q49 -7 83 -38t75 -109q43 -83 65.5 -117zM309 755q45 92 65 172q35 12 67 12q22 0 36 -7q-58 -67 -132 -183q-21 -2 -36 6z" />
    <glyph glyph-name="uni040D" unicode="&#x40d;" horiz-adv-x="753" 
d="M637.5 59.5q14.5 -17.5 54.5 -19.5q5 -14 5 -43q-60 3 -121 3q-70 0 -121 -3q0 29 5 43q40 2 54.5 19.5t14.5 67.5v358l-305 -368q1 -43 16 -59t53 -18q5 -14 5 -43q-60 3 -121 3q-70 0 -121 -3q0 29 5 43q40 2 54.5 19.5t14.5 67.5v422q0 50 -14.5 67.5t-54.5 19.5
q-5 14 -5 43q55 -3 121 -3q61 0 121 3q0 -29 -5 -43q-40 -2 -54.5 -19.5t-14.5 -67.5v-358l305 369q-1 43 -16 58.5t-53 17.5q-5 14 -5 43q55 -3 121 -3q61 0 121 3q0 -29 -5 -43q-40 -2 -54.5 -19.5t-14.5 -67.5v-422q0 -50 14.5 -67.5zM259 860q26 13 67 13q15 0 23 -1
q34 -85 61 -135q-8 -3 -18 -4t-22 -1q-58 75 -111 128z" />
    <glyph glyph-name="uni040E" unicode="&#x40e;" horiz-adv-x="649" 
d="M625 636q-27 -7 -45 -33.5t-44 -83.5l-167 -373q-28 -62 -54 -96t-53 -46.5t-61 -12.5q-28 0 -45 6.5t-32 16.5q-4 15 -4 40q0 21 3 33q35 -6 64 -6q38 0 62 10t42 30.5t42 60.5q-93 166 -198 341q-31 51 -46 73t-27.5 30t-31.5 10q-5 20 -5 43q39 -3 121 -3q62 0 119 3
q0 -20 -5 -43q-31 -2 -44 -7.5t-13 -19.5q0 -17 26 -64q25 -46 68 -118q49 -84 83 -148l106 250q19 44 19 66q0 18 -13 27.5t-44 13.5q-6 23 -6 43q43 -3 85 -3q58 0 102 3q1 -22 -4 -43zM213.5 765q-49.5 35 -49.5 101q36 14 83 11q9 -56 34 -82t73 -26t70 25.5t27 82.5
q7 1 22 1q37 0 61 -9q0 -67 -53 -103t-137 -36q-81 0 -130.5 35z" />
    <glyph glyph-name="uni040F" unicode="&#x40f;" horiz-adv-x="742" 
d="M686 -3q-51 3 -222 3q-26 0 -37 -10t-16.5 -43.5t-8.5 -114.5q-12 -4 -31 -4q-17 0 -32 4q-3 81 -8 114.5t-16 43.5t-38 10q-165 0 -221 -3q0 29 5 43q40 0 54.5 17.5t14.5 69.5v422q0 50 -14.5 67.5t-54.5 19.5q-5 14 -5 43q60 -3 121 -3q70 0 121 3q0 -29 -5 -43
q-40 -2 -54.5 -19.5t-14.5 -67.5v-419q0 -30 5.5 -49.5t19.5 -27.5q12 -7 36.5 -9t85.5 -2t85.5 2t36.5 9q14 8 19.5 27.5t5.5 49.5v419q0 50 -14.5 67.5t-54.5 19.5q-5 14 -5 43q60 -3 121 -3q70 0 121 3q0 -29 -5 -43q-40 -2 -54.5 -19.5t-14.5 -67.5v-422
q0 -52 14.5 -69.5t54.5 -17.5q5 -14 5 -43z" />
    <glyph glyph-name="uni0410" unicode="&#x410;" horiz-adv-x="704" 
d="M679 -3q-60 3 -114 3q-53 0 -113 -3q0 29 7 43q28 3 39.5 9t11.5 20q0 12 -15 49l-44 102q-159 0 -264 -4l-27 -69q-16 -42 -16 -66q0 -20 12.5 -29.5t39.5 -11.5q7 -17 7 -43q-34 3 -95 3q-26 0 -83 -3q0 25 7 42q26 5 41 26t39 82l207 531q17 4 39 4l238 -546
q25 -56 39.5 -74t37.5 -22q6 -20 6 -43zM432 265l-76 178q-30 69 -44 109q-11 -34 -38 -108l-69 -179h227z" />
    <glyph glyph-name="uni0411" unicode="&#x411;" horiz-adv-x="616" 
d="M495.5 337.5q65.5 -41.5 65.5 -138.5q0 -90 -57.5 -144.5t-175.5 -54.5q-197 0 -272 -3q0 29 5 43q28 2 42.5 10t21 28.5t6.5 59.5v411q0 50 -14.5 67.5t-54.5 19.5q-5 14 -5 43q40 -3 166 -3q175 0 280 3q10 -110 21 -158q-15 -12 -45 -12q-5 56 -40.5 91.5t-123.5 35.5
h-90v-261q35 4 80 4q125 0 190.5 -41.5zM420 79.5q34 36.5 34 100.5q0 59 -26.5 93t-63.5 47.5t-73 13.5q-30 0 -66 -3v-193q0 -42 7.5 -61.5t26.5 -26.5t59 -7q68 0 102 36.5z" />
    <glyph glyph-name="uni0412" unicode="&#x412;" horiz-adv-x="623" 
d="M568 197q0 -88 -59.5 -142.5t-180.5 -54.5q-197 0 -272 -3q0 29 5 43q28 2 42.5 10t21 28.5t6.5 59.5v411q0 50 -14.5 67.5t-54.5 19.5q-5 14 -5 43q40 -3 104 -3l72 1q24 1 71 1q98 0 155.5 -32.5t57.5 -113.5q0 -65 -39.5 -110t-105.5 -55q196 -11 196 -170zM370.5 603
q-44.5 31 -104.5 31q-22 0 -41 -5v-254h31q159 0 159 127q0 70 -44.5 101zM425.5 79.5q35.5 36.5 35.5 103.5q0 149 -213 149h-23v-194q0 -42 7.5 -61.5t26.5 -26.5t59 -7q72 0 107.5 36.5z" />
    <glyph glyph-name="uni0413" unicode="&#x413;" horiz-adv-x="561" 
d="M522 521q-15 -12 -45 -12q-5 56 -40.5 91.5t-123.5 35.5h-89v-489q0 -43 9 -65.5t27.5 -31t52.5 -10.5q5 -14 5 -43q-46 3 -126 3q-97 0 -136 -3q0 29 5 43q40 2 54.5 19.5t14.5 67.5v422q0 50 -14.5 67.5t-54.5 19.5q-5 14 -5 43q66 -3 167 -3q179 0 278 3
q10 -110 21 -158z" />
    <glyph glyph-name="uni0414" unicode="&#x414;" horiz-adv-x="725" 
d="M676 4q-14 -61 -14 -172q-12 -4 -31 -4q-20 0 -33 4q1 86 -14 168h-470q-15 -82 -14 -168q-13 -4 -33 -4q-19 0 -31 4q0 111 -14 172q0 22 15 36h13q84 0 128 151t55 356q1 10 1 27q0 25 -5.5 37t-20 17t-45.5 8q-5 14 -5 43q63 -3 253 -3q156 0 215 3q0 -29 -5 -43
q-40 -2 -54.5 -19.5t-14.5 -67.5v-422q0 -52 14.5 -69.5t54.5 -17.5h40q15 -13 15 -36zM458 549q0 33 -4.5 48.5t-17.5 23.5q-20 12 -63 12q-53 0 -70 -13q-11 -8 -14.5 -23.5t-5.5 -47.5q-14 -209 -38 -332t-71 -174h197q36 0 54 6.5t25.5 25t7.5 55.5v419z" />
    <glyph glyph-name="uni0415" unicode="&#x415;" horiz-adv-x="601" 
d="M560 147q-19 -59 -31 -149q-78 2 -214 2q-184 0 -259 -3q0 29 5 43q28 2 42.5 10t20.5 28t6 60v411q0 50 -14.5 67.5t-54.5 19.5q-5 14 -5 43q59 -3 168 -3q182 0 281 3q10 -110 21 -158q-15 -12 -45 -12q-5 56 -40.5 91.5t-123.5 35.5h-93v-274h63q63 0 86.5 16.5
t24.5 64.5q24 7 48 7q-2 -34 -2 -109q0 -82 2 -116q-27 0 -46 5q-4 52 -27.5 70.5t-85.5 18.5h-63v-181q0 -38 7 -57.5t26.5 -27.5t57.5 -8h6q69 0 106 14t54.5 39t34.5 73q29 -9 44 -24z" />
    <glyph glyph-name="uni0416" unicode="&#x416;" horiz-adv-x="972" 
d="M862 99q19 -31 36 -42t52 -14q0 -25 -5 -43q-41 0 -65 -1.5t-58 -7.5q-23 19 -41 49.5t-45 87.5q-30 65 -54.5 105t-61.5 68.5t-87 28.5v-203q0 -49 14 -67t52 -20q5 -14 5 -43q-57 3 -118 3q-70 0 -118 -3q0 29 5 43q38 2 52 20t14 67v203q-50 0 -87 -28.5t-61.5 -68.5
t-54.5 -105q-27 -57 -45 -87.5t-41 -49.5q-34 6 -58 7.5t-65 1.5q-5 18 -5 43q35 3 52 14t36 42t65 121q28 55 50 84.5t45 43.5t56 18q-15 10 -32 34t-56 92q-34 60 -52 81.5t-40 21.5q-17 0 -27.5 -16t-19.5 -58q-9 0 -23.5 2.5t-24.5 6.5q6 53 6 103q0 29 -1 43q22 6 58 6
t58 -13.5t42 -43.5t67 -112q33 -57 53.5 -84.5t44.5 -40t60 -12.5v173q0 49 -14 67t-52 20q-5 14 -5 43q53 -3 118 -3q61 0 118 3q0 -29 -5 -43q-38 -2 -52 -20t-14 -67v-173q36 0 60 12.5t44.5 40t53.5 84.5q47 82 67 112t42 43.5t58 13.5t58 -6q-1 -14 -1 -43
q0 -50 6 -103q-10 -4 -24.5 -6.5t-23.5 -2.5q-9 42 -19.5 58t-27.5 16q-22 0 -40 -21.5t-52 -81.5q-39 -68 -56 -92t-32 -34q33 -4 56 -18t45 -43.5t50 -84.5q46 -90 65 -121z" />
    <glyph glyph-name="uni0417" unicode="&#x417;" horiz-adv-x="570" 
d="M468 315.5q47 -43.5 47 -124.5q0 -96 -65 -148t-180 -52q-64 0 -116 16.5t-86 47.5q9 53 9 103l-1 30q23 10 55 8q7 -81 42.5 -119t102.5 -38t101.5 36t34.5 102q0 161 -201 161q-2 14 -2 21q0 17 5 27q170 0 170 129q0 57 -30 89.5t-83 32.5q-51 0 -87 -33t-47 -102
l-15 -1q-19 0 -41 8q6 41 6 83q0 14 -2 46q95 47 196 47q100 0 153.5 -42t53.5 -114q0 -63 -40.5 -106t-109.5 -55q83 -9 130 -52.5z" />
    <glyph glyph-name="uni0418" unicode="&#x418;" horiz-adv-x="753" 
d="M637.5 59.5q14.5 -17.5 54.5 -19.5q5 -14 5 -43q-60 3 -121 3q-70 0 -121 -3q0 29 5 43q40 2 54.5 19.5t14.5 67.5v358l-305 -368q1 -43 16 -59t53 -18q5 -14 5 -43q-60 3 -121 3q-70 0 -121 -3q0 29 5 43q40 2 54.5 19.5t14.5 67.5v422q0 50 -14.5 67.5t-54.5 19.5
q-5 14 -5 43q55 -3 121 -3q61 0 121 3q0 -29 -5 -43q-40 -2 -54.5 -19.5t-14.5 -67.5v-358l305 369q-1 43 -16 58.5t-53 17.5q-5 14 -5 43q55 -3 121 -3q61 0 121 3q0 -29 -5 -43q-40 -2 -54.5 -19.5t-14.5 -67.5v-422q0 -50 14.5 -67.5z" />
    <glyph glyph-name="uni0419" unicode="&#x419;" horiz-adv-x="753" 
d="M637.5 59.5q14.5 -17.5 54.5 -19.5q5 -14 5 -43q-60 3 -121 3q-70 0 -121 -3q0 29 5 43q40 2 54.5 19.5t14.5 67.5v358l-305 -368q1 -43 16 -59t53 -18q5 -14 5 -43q-60 3 -121 3q-70 0 -121 -3q0 29 5 43q40 2 54.5 19.5t14.5 67.5v422q0 50 -14.5 67.5t-54.5 19.5
q-5 14 -5 43q55 -3 121 -3q61 0 121 3q0 -29 -5 -43q-40 -2 -54.5 -19.5t-14.5 -67.5v-358l305 369q-1 43 -16 58.5t-53 17.5q-5 14 -5 43q55 -3 121 -3q61 0 121 3q0 -29 -5 -43q-40 -2 -54.5 -19.5t-14.5 -67.5v-422q0 -50 14.5 -67.5zM241.5 765q-49.5 35 -49.5 101
q36 14 83 11q9 -56 34 -82t73 -26t70 25.5t27 82.5q7 1 22 1q37 0 61 -9q0 -67 -53 -103t-137 -36q-81 0 -130.5 35z" />
    <glyph glyph-name="uni041A" unicode="&#x41a;" horiz-adv-x="678" 
d="M562.5 103q22.5 -34 41.5 -45t52 -14q0 -26 -5 -44q-42 0 -65.5 -1.5t-58.5 -7.5q-23 18 -42 49t-46 86q-33 66 -58.5 106.5t-64.5 69t-92 28.5v-203q0 -50 14.5 -67.5t54.5 -19.5q5 -14 5 -43q-60 3 -121 3q-70 0 -121 -3q0 29 5 43q40 2 54.5 19.5t14.5 67.5v422
q0 50 -14.5 67.5t-54.5 19.5q-5 14 -5 43q55 -3 121 -3q61 0 121 3q0 -29 -5 -43q-40 -2 -54.5 -19.5t-14.5 -67.5v-173q37 0 62.5 13.5t46.5 40.5t56 84q2 3 4.5 7.5t6.5 9.5q43 70 63.5 98t42.5 40.5t58 12.5q35 0 57 -6q-2 -34 -2 -53q0 -41 5 -93q-10 -4 -24 -6.5
t-24 -2.5q-7 40 -18 57t-27 17q-17 0 -30 -11t-24 -28t-38 -62q-35 -59 -57 -86.5t-43 -40.5q49 -7 83 -38t75 -109q43 -83 65.5 -117z" />
    <glyph glyph-name="uni041B" unicode="&#x41b;" horiz-adv-x="676" 
d="M56 -2q-19 7 -30 16q-4 15 -4 41q0 25 5 52q37 -6 63 -6q29 0 50 17t37 62q39 105 51 367l1 29q0 22 -5.5 33.5t-21 17.5t-47.5 9q-5 14 -5 43q65 -3 250 -3q160 0 220 3q0 -29 -5 -43q-40 -2 -54.5 -19.5t-14.5 -67.5v-422q0 -50 14.5 -67.5t54.5 -19.5q5 -14 5 -43
q-60 3 -121 3q-70 0 -121 -3q0 29 5 43q40 2 54.5 19.5t14.5 67.5v422q0 37 -5 54t-19 24q-23 12 -68 12q-37 0 -60 -12q-15 -8 -18.5 -22.5t-6.5 -55.5q-13 -220 -33 -339t-53.5 -169t-89.5 -50q-24 0 -43 7z" />
    <glyph glyph-name="uni041C" unicode="&#x41c;" horiz-adv-x="931" 
d="M896 -3q-46 3 -120 3q-71 0 -122 -3q0 24 6 43q38 4 51 17t13 48q0 20 -3 50l-36 343l-207 -500q-17 -7 -41 -7l-233 506l-32 -321q-3 -30 -3 -52q0 -46 15.5 -63.5t52.5 -20.5q5 -17 5 -43q-48 3 -107 3t-100 -3q0 26 5 43q28 3 43 14t23.5 40.5t14.5 90.5l32 356
q1 9 1 24q0 39 -16 55t-52 16q-5 16 -5 43q30 -3 76 -3q37 0 76 3l250 -553l218 553q34 -3 78 -3q36 0 76 3q0 -24 -5 -43q-34 0 -51.5 -17t-17.5 -59q0 -16 1 -25l36 -367q5 -50 13 -76.5t22 -37.5t38 -13q5 -17 5 -44z" />
    <glyph glyph-name="uni041D" unicode="&#x41d;" horiz-adv-x="753" 
d="M637.5 59.5q14.5 -17.5 54.5 -19.5q5 -14 5 -43q-60 3 -121 3q-70 0 -121 -3q0 29 5 43q40 2 54.5 19.5t14.5 67.5v198q-229 0 -305 -6v-192q0 -50 14.5 -67.5t54.5 -19.5q5 -14 5 -43q-60 3 -121 3q-70 0 -121 -3q0 29 5 43q40 2 54.5 19.5t14.5 67.5v422
q0 50 -14.5 67.5t-54.5 19.5q-5 14 -5 43q55 -3 121 -3q61 0 121 3q0 -29 -5 -43q-40 -2 -54.5 -19.5t-14.5 -67.5v-181h305v181q0 50 -14.5 67.5t-54.5 19.5q-5 14 -5 43q55 -3 121 -3q61 0 121 3q0 -29 -5 -43q-40 -2 -54.5 -19.5t-14.5 -67.5v-422q0 -50 14.5 -67.5z" />
    <glyph glyph-name="uni041E" unicode="&#x41e;" horiz-adv-x="731" 
d="M193 36.5q-75 45.5 -116.5 125t-41.5 178.5q0 100 43.5 178.5t119 122.5t167.5 44q95 0 170.5 -43.5t118 -122t42.5 -179.5q0 -98 -42.5 -177.5t-118 -125.5t-170.5 -46q-97 0 -172 45.5zM495.5 76q47.5 36 72.5 98.5t25 139.5q0 89 -32.5 163t-89.5 117t-127 43
q-59 0 -106 -34t-73.5 -95t-26.5 -141q0 -86 29.5 -161t85.5 -120.5t132 -45.5q63 0 110.5 36z" />
    <glyph glyph-name="uni041F" unicode="&#x41f;" horiz-adv-x="742" 
d="M61 40q40 2 54.5 19.5t14.5 67.5v422q0 52 -14.5 69.5t-54.5 17.5q-5 14 -5 43q55 -3 261 -3h108q201 0 261 3q0 -29 -5 -43q-40 0 -54.5 -17.5t-14.5 -69.5v-422q0 -50 14.5 -67.5t54.5 -19.5q5 -14 5 -43q-60 3 -121 3q-70 0 -121 -3q0 29 5 43q40 2 54.5 19.5
t14.5 67.5v419q0 30 -5.5 49.5t-19.5 27.5q-12 7 -36.5 9t-85.5 2t-85.5 -2t-36.5 -9q-14 -8 -19.5 -27.5t-5.5 -49.5v-419q0 -50 14.5 -67.5t54.5 -19.5q5 -14 5 -43q-60 3 -121 3q-70 0 -121 -3q0 29 5 43z" />
    <glyph glyph-name="uni0420" unicode="&#x420;" horiz-adv-x="581" 
d="M491 623.5q55 -54.5 55 -139.5q0 -60 -26 -112.5t-77.5 -85.5t-123.5 -33q-42 0 -70 11q-2 12 -2 19q0 12 3 22q25 -6 53 -6q141 0 141 156q0 84 -41 131.5t-128 47.5q-22 0 -51 -6v-481q0 -43 9 -65.5t27.5 -31t52.5 -10.5q5 -14 5 -43q-46 3 -126 3q-97 0 -136 -3
q0 29 5 43q40 2 54.5 19.5t14.5 67.5v422q0 50 -14.5 67.5t-54.5 19.5q-5 14 -5 43q52 -3 136 -3l127 2q117 0 172 -54.5z" />
    <glyph glyph-name="uni0421" unicode="&#x421;" horiz-adv-x="653" 
d="M188.5 35.5q-72.5 44.5 -113 124.5t-40.5 183q0 110 46.5 187t123 116t164.5 39q61 0 113 -12.5t109 -39.5q-11 -52 -11 -155q-22 -9 -53 -9q-4 100 -41 137.5t-109 37.5q-81 0 -134 -38t-78 -100t-25 -136q0 -90 30.5 -162.5t88.5 -114t136 -41.5q47 0 97 16t93 43
q6 -5 11.5 -14.5t6.5 -16.5q-61 -47 -118.5 -68t-131.5 -21q-92 0 -164.5 44.5z" />
    <glyph glyph-name="uni0422" unicode="&#x422;" horiz-adv-x="585" 
d="M552 643q0 -40 7 -124q-21 -10 -50 -9q-2 60 -29 91t-84 31h-53v-505q0 -35 6 -52.5t22.5 -25t49.5 -9.5q5 -14 5 -43q-64 3 -131 3q-75 0 -131 -3q0 29 5 43q33 2 50 9.5t23.5 25.5t6.5 52v505h-51q-46 0 -71 -14.5t-35.5 -39t-18.5 -68.5q-33 0 -48 9q16 90 16 160
q56 -3 255 -3q202 0 257 3z" />
    <glyph glyph-name="uni0423" unicode="&#x423;" horiz-adv-x="649" 
d="M625 636q-27 -7 -45 -33.5t-44 -83.5l-167 -373q-28 -62 -54 -96t-53 -46.5t-61 -12.5q-28 0 -45 6.5t-32 16.5q-4 15 -4 40q0 21 3 33q35 -6 64 -6q38 0 62 10t42 30.5t42 60.5q-93 166 -198 341q-31 51 -46 73t-27.5 30t-31.5 10q-5 20 -5 43q39 -3 121 -3q62 0 119 3
q0 -20 -5 -43q-31 -2 -44 -7.5t-13 -19.5q0 -17 26 -64q25 -46 68 -118q49 -84 83 -148l106 250q19 44 19 66q0 18 -13 27.5t-44 13.5q-6 23 -6 43q43 -3 85 -3q58 0 102 3q1 -22 -4 -43z" />
    <glyph glyph-name="uni0424" unicode="&#x424;" horiz-adv-x="805" 
d="M731.5 248q-38.5 -53 -111 -84t-170.5 -34v-9q0 -32 6.5 -48.5t23.5 -23.5t53 -9q5 -14 5 -43q-72 3 -136 3q-76 0 -133 -3q0 32 5 43q34 2 51.5 9t24.5 23.5t7 48.5v8q-98 0 -171 28t-112 79.5t-39 121.5q0 67 39.5 118.5t112.5 81t170 32.5q0 33 -6.5 50t-24.5 24.5
t-53 9.5q-4 11 -4 43q71 -3 135 -3q76 0 133 3q0 -32 -4 -43q-34 -2 -51.5 -9t-24.5 -24.5t-7 -50.5q98 0 170.5 -26.5t111 -75.5t38.5 -116q0 -71 -38.5 -124zM197 235q60 -52 163 -57v364q-103 -1 -163 -46.5t-60 -124.5q0 -84 60 -136zM609 486.5q-59 49.5 -162 54.5
v-364q102 1 161.5 49t59.5 131q0 80 -59 129.5z" />
    <glyph glyph-name="uni0425" unicode="&#x425;" horiz-adv-x="667" 
d="M627 -3q-43 3 -122 3q-61 0 -121 -2q0 23 4 42q24 3 35.5 8.5t11.5 20.5q0 24 -31 75q-34 58 -52 87l-32 53l-88 -129q-36 -53 -36 -77q0 -29 53 -38q5 -17 5 -43q-51 3 -110 3q-63 0 -104 -3q0 28 6 45q55 14 119 102l128 183q-80 126 -122 189q-37 57 -53.5 79
t-27 29.5t-28.5 10.5q-6 19 -6 44q53 -3 122 -3q59 0 121 2q0 -22 -4 -42q-25 -5 -36.5 -13t-11.5 -22q0 -24 32 -72q28 -42 82 -126l73 115q36 59 36 83q0 15 -12.5 23.5t-38.5 11.5q-5 19 -5 43q50 -3 102 -3q62 0 99 3q0 -28 -4 -43q-26 -7 -49.5 -29t-65.5 -86
l-107 -163q63 -101 123 -201q41 -68 62.5 -90.5t46.5 -26.5q6 -18 6 -43z" />
    <glyph glyph-name="uni0426" unicode="&#x426;" horiz-adv-x="789" 
d="M740 4q-14 -61 -14 -172q-12 -4 -31 -4q-20 0 -33 4q1 85 -14 167q-36 1 -223 1h-108q-201 0 -261 -3q0 29 5 43q40 0 54.5 17.5t14.5 69.5v422q0 50 -14.5 67.5t-54.5 19.5q-5 14 -5 43q60 -3 121 -3q70 0 121 3q0 -29 -5 -43q-40 -2 -54.5 -19.5t-14.5 -67.5v-419
q0 -30 5.5 -49.5t19.5 -27.5q12 -7 36.5 -9t85.5 -2t85.5 2t36.5 9q14 8 19.5 27.5t5.5 49.5v419q0 50 -14.5 67.5t-54.5 19.5q-5 14 -5 43q60 -3 121 -3q70 0 121 3q0 -29 -5 -43q-40 -2 -54.5 -19.5t-14.5 -67.5v-422q0 -52 14.5 -69.5t54.5 -17.5h44q15 -13 15 -36z" />
    <glyph glyph-name="uni0427" unicode="&#x427;" horiz-adv-x="699" 
d="M585 59.5q14 -17.5 53 -19.5q5 -14 5 -43q-39 3 -134 3q-79 0 -126 -3q0 29 5 43q34 2 52.5 10.5t27 31t8.5 65.5v146q-70 -18 -153 -18q-93 0 -136.5 32t-55.5 85t-17 157q-2 36 -6 52t-17.5 24.5t-43.5 10.5q-5 14 -5 43q54 -3 120 -3q61 0 119 3q0 -29 -5 -43
q-29 -2 -43 -10t-19 -28t-5 -61q0 -80 13.5 -125t45 -64.5t87.5 -19.5q57 0 121 9v212q0 50 -14 67.5t-53 19.5q-5 14 -5 43q54 -3 119 -3q62 0 120 3q0 -29 -5 -43q-39 -2 -53 -19.5t-14 -67.5v-422q0 -50 14 -67.5z" />
    <glyph glyph-name="uni0428" unicode="&#x428;" horiz-adv-x="1010" 
d="M61 40q43 2 58.5 20t15.5 67v422q0 49 -15.5 67t-58.5 20q-5 14 -5 43q64 -3 126 -3q71 0 124 3q0 -29 -5 -43q-43 -2 -58.5 -19.5t-15.5 -67.5v-422q0 -62 27 -77q12 -7 33.5 -9t55.5 -2t55 2t34 9q15 8 21 27.5t6 49.5v422q0 49 -15.5 67t-58.5 20q-5 11 -5 43
q64 -3 126 -3q72 0 124 3q0 -32 -5 -43q-43 -2 -58.5 -20t-15.5 -67v-422q0 -62 27 -77q12 -7 33.5 -9t55.5 -2t55.5 2t34.5 9q15 8 20.5 27.5t5.5 49.5v422q0 50 -15.5 67.5t-58.5 19.5q-5 14 -5 43q65 -3 126 -3q72 0 124 3q0 -29 -5 -43q-43 -2 -58.5 -20t-15.5 -67v-422
q0 -49 15.5 -67t58.5 -20q5 -14 5 -43q-60 3 -231 3h-436q-168 0 -231 -3q0 29 5 43z" />
    <glyph glyph-name="uni0429" unicode="&#x429;" horiz-adv-x="1057" 
d="M1008 4q-14 -61 -14 -172q-12 -4 -31 -4q-20 0 -33 4q1 85 -14 167q-35 1 -193 1h-436q-168 0 -231 -3q0 29 5 43q43 2 58.5 20t15.5 67v422q0 49 -15.5 67t-58.5 20q-5 14 -5 43q64 -3 126 -3q71 0 124 3q0 -29 -5 -43q-43 -2 -58.5 -19.5t-15.5 -67.5v-422
q0 -62 27 -77q12 -7 33.5 -9t55.5 -2t55 2t34 9q15 8 21 27.5t6 49.5v422q0 49 -15.5 67t-58.5 20q-5 11 -5 43q64 -3 126 -3q72 0 124 3q0 -32 -5 -43q-43 -2 -58.5 -20t-15.5 -67v-422q0 -62 27 -77q12 -7 33.5 -9t55.5 -2t55.5 2t34.5 9q15 8 20.5 27.5t5.5 49.5v422
q0 50 -15.5 67.5t-58.5 19.5q-5 14 -5 43q65 -3 126 -3q72 0 124 3q0 -29 -5 -43q-43 -2 -58.5 -20t-15.5 -67v-422q0 -49 15.5 -67t58.5 -20h44q15 -13 15 -36z" />
    <glyph glyph-name="uni042A" unicode="&#x42a;" horiz-adv-x="708" 
d="M591 337.5q62 -41.5 62 -138.5q0 -90 -53.5 -144.5t-163.5 -54.5q-197 0 -272 -3q0 29 5 43q28 2 42.5 10t21 28.5t6.5 59.5v499h-41q-46 0 -71 -15t-35.5 -40.5t-18.5 -71.5q-33 0 -48 9q16 90 16 160q48 -3 214 -3q128 0 172 3q0 -29 -5 -43q-34 -2 -52.5 -10.5
t-27.5 -31t-9 -65.5v-155q43 5 78 5q118 0 180 -41.5zM514 77q32 34 32 100q0 90 -46.5 123.5t-109.5 33.5q-27 0 -57 -3v-193q0 -55 16.5 -75t63.5 -20q69 0 101 34z" />
    <glyph glyph-name="uni042B" unicode="&#x42b;" horiz-adv-x="851" 
d="M535 203q0 -91 -58.5 -147t-167.5 -56q-184 0 -253 -3q0 29 5 43q28 2 42.5 10t21 28.5t6.5 59.5v411q0 50 -14.5 67.5t-54.5 19.5q-5 14 -5 43q39 -3 136 -3q80 0 126 3q0 -29 -5 -43q-34 -2 -52.5 -10.5t-27.5 -31t-9 -65.5v-155q45 5 78 5q232 0 232 -176zM735.5 59.5
q14.5 -17.5 54.5 -19.5q5 -14 5 -43q-60 3 -121 3q-70 0 -121 -3q0 29 5 43q40 2 54.5 19.5t14.5 67.5v422q0 50 -14.5 67.5t-54.5 19.5q-5 14 -5 43q55 -3 121 -3q61 0 121 3q0 -29 -5 -43q-40 -2 -54.5 -19.5t-14.5 -67.5v-422q0 -50 14.5 -67.5zM394 79q32 36 32 102
q0 84 -44.5 118.5t-100.5 34.5q-24 0 -56 -3v-193q0 -55 15.5 -75t57.5 -20q64 0 96 36z" />
    <glyph glyph-name="uni042C" unicode="&#x42c;" horiz-adv-x="622" 
d="M500.5 337.5q66.5 -41.5 66.5 -138.5q0 -90 -58.5 -144.5t-178.5 -54.5q-199 0 -274 -3q0 29 5 43q28 2 42.5 10t21 28.5t6.5 59.5v411q0 50 -14.5 67.5t-54.5 19.5q-5 14 -5 43q39 -3 136 -3q80 0 126 3q0 -29 -5 -43q-34 -2 -52.5 -10.5t-27.5 -31t-9 -65.5v-155
q43 5 81 5q128 0 194.5 -41.5zM458 179q0 86 -51.5 120.5t-122.5 34.5q-27 0 -59 -3v-193q0 -39 7 -59t24.5 -28t50.5 -8q151 0 151 136z" />
    <glyph glyph-name="uni042D" unicode="&#x42d;" horiz-adv-x="614" 
d="M502 598q77 -87 77 -249q0 -170 -82 -264t-233 -94q-107 0 -212 52q3 30 3 62q0 36 -5 73q21 13 52 14q10 -81 46 -120.5t110 -39.5q101 0 156 72.5t60 208.5q-155 0 -289 -5q0 14 3 30.5t8 25.5h277q-5 135 -60 207.5t-154 72.5q-68 0 -103 -38.5t-39 -125.5
q-31 0 -53 9q5 48 5 86q0 34 -3 65q48 22 102.5 33.5t108.5 11.5q148 0 225 -87z" />
    <glyph glyph-name="uni042E" unicode="&#x42e;" horiz-adv-x="1014" 
d="M818 641.5q75 -43.5 118 -122t43 -178.5q0 -99 -42.5 -178.5t-118 -125.5t-170.5 -46q-92 0 -163.5 43.5t-112.5 119.5t-44 171q-64 0 -104 -4v-194q0 -50 14.5 -67.5t54.5 -19.5q5 -14 5 -43q-60 3 -121 3q-70 0 -121 -3q0 29 5 43q40 2 54.5 19.5t14.5 67.5v422
q0 50 -14.5 67.5t-54.5 19.5q-5 14 -5 43q55 -3 121 -3q61 0 121 3q0 -29 -5 -43q-40 -2 -54.5 -19.5t-14.5 -67.5v-181h105q6 93 49 165t114.5 112t158.5 40q92 0 167 -43.5zM778.5 76q47.5 36 72.5 98.5t25 139.5q0 89 -32.5 163t-89 117t-123.5 43q-59 0 -104.5 -34
t-70.5 -95.5t-25 -141.5q0 -86 28 -160.5t81.5 -120t126.5 -45.5q64 0 111.5 36z" />
    <glyph glyph-name="uni042F" unicode="&#x42f;" horiz-adv-x="644" 
d="M528 59.5q14 -17.5 55 -19.5q5 -16 5 -43q-45 3 -120 3q-76 0 -119 -3q0 28 5 43q39 2 52.5 19.5t13.5 67.5v179q-80 0 -122.5 -24t-58.5 -60.5t-26 -92.5q-9 -53 -20 -84.5t-36 -53.5q-35 6 -59 7.5t-71 1.5q-5 16 -5 40q35 3 55 20.5t29.5 41t19.5 62.5q11 46 23.5 75
t39 53t73.5 33q-84 16 -126.5 61t-42.5 111q0 79 60.5 130t189.5 51q28 0 47 -1l85 -1q73 0 113 2q0 -26 -5 -42q-40 0 -54.5 -18.5t-14.5 -68.5v-422q0 -50 14 -67.5zM420 353v274q-45 8 -80 8q-79 0 -114 -35t-35 -95q0 -81 50.5 -118.5t134.5 -37.5q23 0 44 4z" />
    <glyph glyph-name="uni0430" unicode="&#x430;" horiz-adv-x="498" 
d="M400.5 99.5q4.5 -15.5 17.5 -22.5t40 -9q0 -29 -6 -46q-25 -2 -55.5 -10.5t-53.5 -20.5q-12 5 -18 18.5t-6 40.5q0 17 1 26q-12 -29 -35 -49q-39 -34 -106 -34q-62 0 -95.5 28t-33.5 78q0 59 43 94.5t96 50.5t117 24q0 61 -4 84.5t-17 39.5q-24 30 -62 30
q-45 0 -65.5 -37t-22.5 -79q-13 0 -29 2t-23 5q1 10 1 34q0 44 -6 75q40 21 86 33t84 12q68 0 106 -38q24 -24 33 -63.5t9 -109.5v-110q0 -31 4.5 -46.5zM306 227q-48 -6 -80 -14.5t-55.5 -31t-23.5 -62.5q0 -35 17 -53t43 -18q24 0 46.5 15t37.5 47t15 79v38z" />
    <glyph glyph-name="uni0431" unicode="&#x431;" horiz-adv-x="529" 
d="M95 66q-55 75 -55 238q0 197 70.5 274t177.5 87q49 5 70.5 8.5t34.5 12.5t21 27q25 3 43 -9q-14 -53 -34.5 -78t-45 -32.5t-68.5 -11.5q-70 -6 -113 -26.5t-68 -78t-25 -167.5q25 69 71.5 99.5t116.5 30.5q91 0 144.5 -56t53.5 -159q0 -111 -62 -172.5t-167 -61.5
q-110 0 -165 75zM365 83.5q27 44.5 27 126.5q0 182 -122 182q-56 0 -92.5 -44t-36.5 -128q0 -90 37 -135.5t99 -45.5q61 0 88 44.5z" />
    <glyph glyph-name="uni0432" unicode="&#x432;" horiz-adv-x="507" 
d="M422 215.5q45 -27.5 45 -85.5q0 -59 -43.5 -94.5t-142.5 -35.5q-173 0 -245 -3q0 28 5 43q31 0 45 18.5t14 68.5v204q0 50 -14 68.5t-45 18.5q-5 15 -5 43q43 -3 96 -3l68 1q21 1 56 1q86 0 131 -23.5t45 -77.5q0 -43 -35.5 -74t-87.5 -38q68 -4 113 -31.5zM305 399.5
q-30 18.5 -75 18.5q-21 0 -40 -4v-155h54q91 0 91 77q0 45 -30 63.5zM339.5 60q25.5 20 25.5 60q0 97 -128 97h-47v-110q0 -41 15 -54t60 -13q49 0 74.5 20z" />
    <glyph glyph-name="uni0433" unicode="&#x433;" horiz-adv-x="437" 
d="M422 322q-19 -12 -50 -12q-3 36 -13 58.5t-35.5 34.5t-73.5 12h-60v-299q0 -43 16.5 -58.5t57.5 -17.5q5 -14 5 -43q-58 3 -124 3q-65 0 -109 -3q0 28 5 43q31 0 45 18.5t14 68.5v204q0 50 -14 68.5t-45 18.5q-5 15 -5 43q65 -3 153 -3q156 0 216 2q7 -80 17 -138z" />
    <glyph glyph-name="uni0434" unicode="&#x434;" horiz-adv-x="566" 
d="M547 4q-13 -63 -13 -172q-12 -4 -30 -4t-31 4q2 91 -13 168h-358q-15 -77 -13 -168q-13 -4 -31 -4t-30 4q0 109 -13 172q0 23 15 36h11q61 0 90 78.5t36 224.5l1 23q0 31 -10.5 40.5t-44.5 11.5q-5 15 -5 43q54 -3 211 -3q141 0 197 3q0 -28 -5 -43q-31 0 -45 -18.5
t-14 -68.5v-204q0 -50 14 -68.5t45 -18.5h21q15 -14 15 -36zM362 352q0 28 -4.5 41t-16.5 18q-16 7 -51 7q-32 0 -50 -7q-13 -5 -16 -16t-5 -47q-7 -131 -20.5 -201.5t-41.5 -103.5h139q40 0 53 13t13 52v244z" />
    <glyph glyph-name="uni0435" unicode="&#x435;" horiz-adv-x="474" 
d="M421.5 91q7.5 -9 8.5 -17q-34 -44 -77.5 -63.5t-100.5 -19.5q-69 0 -116.5 31.5t-71.5 85.5t-24 121q0 65 25.5 119t72.5 86.5t109 32.5q91 0 135.5 -56.5t51.5 -150.5q-4 -20 -15 -34q-176 0 -280 -5q5 -77 38.5 -125.5t106.5 -48.5q34 0 66 15t56 43q8 -5 15.5 -14z
M170 385q-28 -34 -32 -114h192q0 67 -24.5 107.5t-67.5 40.5q-40 0 -68 -34z" />
    <glyph glyph-name="uni0436" unicode="&#x436;" horiz-adv-x="795" 
d="M714 64q18 -19 52 -22q0 -29 -6 -42q-31 0 -53.5 -1.5t-55.5 -7.5q-20 11 -34 34t-31 61q-20 44 -36 70.5t-42 45t-65 18.5v-93q0 -50 14 -68.5t45 -18.5q5 -15 5 -43q-43 3 -109 3q-65 0 -109 -3q0 28 5 43q31 0 45 18.5t14 68.5v93q-39 0 -65 -18.5t-42 -45t-36 -70.5
q-17 -38 -31 -61t-34 -34q-33 6 -55.5 7.5t-53.5 1.5q-6 13 -6 42q34 3 52 22t43 65t40 68t37 36t58 19q-24 14 -37.5 29.5t-31.5 47.5q-21 36 -34 51.5t-30 15.5q-11 0 -18 -10.5t-13 -42.5q-10 -1 -25.5 1t-25.5 5q6 38 6 78q0 21 -1 31q20 5 45 5q32 0 55.5 -15t41 -39.5
t43.5 -68.5q18 -30 31 -46t33.5 -25.5t53.5 -9.5v72q0 50 -14 68.5t-45 18.5q-5 15 -5 43q43 -3 109 -3q65 0 109 3q0 -28 -5 -43q-31 0 -45 -18.5t-14 -68.5v-72q33 0 53.5 9.5t33.5 25.5t31 46q26 44 43.5 68.5t41 39.5t55.5 15q25 0 45 -5q-1 -10 -1 -31q0 -40 6 -78
q-10 -3 -25.5 -5t-25.5 -1q-6 32 -13 42.5t-18 10.5q-17 0 -30 -15.5t-34 -51.5q-18 -32 -31.5 -47.5t-37.5 -29.5q36 -5 58 -19t37 -36t40 -68t43 -65z" />
    <glyph glyph-name="uni0437" unicode="&#x437;" horiz-adv-x="433" 
d="M360 211.5q33 -29.5 33 -81.5q0 -64 -49 -101.5t-140 -37.5q-45 0 -88.5 9.5t-75.5 25.5q4 44 4 67q0 14 -2 44q18 9 41 9l13 -1q8 -56 32 -81t72 -25q93 0 93 85q0 47 -33.5 69.5t-113.5 22.5q-2 6 -2 20q0 18 4 27q76 0 105.5 20.5t29.5 59.5q0 37 -22 56.5t-64 19.5
t-62 -23.5t-27 -82.5l-14 -1q-16 0 -41 7q3 27 3 56q0 30 -3 58q28 16 68 25t85 9q84 0 130.5 -30t46.5 -83q0 -43 -31 -71t-86 -35q61 -7 94 -36.5z" />
    <glyph glyph-name="uni0438" unicode="&#x438;" horiz-adv-x="609" 
d="M523 58.5q14 -18.5 45 -18.5q5 -15 5 -43q-43 3 -109 3q-65 0 -109 -3q0 28 5 43q31 0 45 18.5t14 68.5v179l-227 -211q4 -31 17.5 -43t39.5 -12q5 -15 5 -43q-43 3 -109 3q-65 0 -109 -3q0 28 5 43q31 0 45 18.5t14 68.5v204q0 50 -14 68.5t-45 18.5q-5 15 -5 43
q43 -3 109 -3t109 3q0 -28 -5 -43q-31 0 -45 -18.5t-14 -68.5v-177l227 209q-4 31 -17.5 43t-39.5 12q-5 15 -5 43q43 -3 109 -3t109 3q0 -28 -5 -43q-31 0 -45 -18.5t-14 -68.5v-204q0 -50 14 -68.5z" />
    <glyph glyph-name="uni0439" unicode="&#x439;" horiz-adv-x="609" 
d="M523 58.5q14 -18.5 45 -18.5q5 -15 5 -43q-43 3 -109 3q-65 0 -109 -3q0 28 5 43q31 0 45 18.5t14 68.5v179l-227 -211q4 -31 17.5 -43t39.5 -12q5 -15 5 -43q-43 3 -109 3q-65 0 -109 -3q0 28 5 43q31 0 45 18.5t14 68.5v204q0 50 -14 68.5t-45 18.5q-5 15 -5 43
q43 -3 109 -3t109 3q0 -28 -5 -43q-31 0 -45 -18.5t-14 -68.5v-177l227 209q-4 31 -17.5 43t-39.5 12q-5 15 -5 43q43 -3 109 -3t109 3q0 -28 -5 -43q-31 0 -45 -18.5t-14 -68.5v-204q0 -50 14 -68.5zM166.5 566q-51.5 39 -51.5 110q42 17 90 14q8 -63 33.5 -93.5
t71.5 -30.5q45 0 68 30.5t27 93.5q8 1 25 1q39 0 65 -10q0 -73 -55.5 -113.5t-139.5 -40.5q-82 0 -133.5 39z" />
    <glyph glyph-name="uni043A" unicode="&#x43a;" horiz-adv-x="533" 
d="M461 64q18 -19 52 -22q0 -29 -6 -42q-31 0 -53.5 -1.5t-55.5 -7.5q-20 11 -34 34t-31 61q-20 44 -36 70.5t-42 45t-65 18.5v-93q0 -50 14 -68.5t45 -18.5q5 -15 5 -43q-43 3 -109 3q-65 0 -109 -3q0 28 5 43q31 0 45 18.5t14 68.5v204q0 50 -14 68.5t-45 18.5
q-5 15 -5 43q43 -3 109 -3t109 3q0 -28 -5 -43q-31 0 -45 -18.5t-14 -68.5v-72q33 0 53.5 9.5t33.5 25.5t31 46q26 44 43.5 68.5t41 39.5t55.5 15q25 0 45 -5q-1 -10 -1 -31q0 -40 6 -78q-10 -3 -25.5 -5t-25.5 -1q-6 32 -13 42.5t-18 10.5q-17 0 -30 -15.5t-34 -51.5
q-18 -32 -31.5 -47.5t-37.5 -29.5q36 -5 58 -19t37 -36t40 -68t43 -65z" />
    <glyph glyph-name="uni043B" unicode="&#x43b;" horiz-adv-x="546" 
d="M39 -1.5q-17 6.5 -27 15.5q-4 11 -4 29q0 28 8 50q19 -5 41 -5q56 0 81.5 66.5t37.5 202.5q1 10 1 25q0 21 -11 27.5t-48 8.5q-5 15 -5 42q68 -2 203 -2q142 0 194 3q0 -28 -5 -43q-31 0 -45 -18.5t-14 -68.5v-204q0 -50 14 -68.5t45 -18.5q5 -15 5 -43q-44 3 -109 3
t-109 -3q0 28 5 43q31 0 45 18.5t14 68.5v225q0 28 -5.5 41t-19.5 18t-43 5t-41 -4.5t-16.5 -16.5t-7.5 -43q-14 -126 -28 -199.5t-42.5 -117t-76.5 -43.5q-20 0 -37 6.5z" />
    <glyph glyph-name="uni043C" unicode="&#x43c;" horiz-adv-x="685" 
d="M664 -3q-36 3 -105 3q-62 0 -100 -3q0 27 5 43q28 2 38.5 10t10.5 34q0 8 -2 32l-25 219l-148 -313q-12 -5 -37 -5l-148 317l-21 -197q-3 -24 -3 -40q0 -32 12 -43.5t41 -13.5q5 -17 5 -43q-36 3 -85 3q-51 0 -81 -3q0 27 5 43q21 1 33 9t19 29t11 62l21 213q1 7 1 19
q0 28 -11.5 37t-41.5 9q-5 15 -5 43q42 -3 71 -3q30 0 68 2l154 -323l149 323q40 -2 71 -2q34 0 69 3q0 -28 -5 -43q-28 0 -40.5 -10t-12.5 -39q0 -12 1 -19l24 -225q4 -36 10 -53.5t16.5 -23.5t30.5 -8q5 -15 5 -43z" />
    <glyph glyph-name="uni043D" unicode="&#x43d;" horiz-adv-x="609" 
d="M519 58.5q15 -18.5 49 -18.5q5 -15 5 -43q-45 3 -114 3t-114 -3q0 28 5 43q34 0 49 18.5t15 68.5v85q-148 0 -219 -5v-80q0 -50 15 -68.5t49 -18.5q5 -15 5 -43q-45 3 -114 3t-114 -3q0 28 5 43q34 0 49 18.5t15 68.5v204q0 50 -15 68.5t-49 18.5q-5 15 -5 43
q45 -3 114 -3t114 3q0 -28 -5 -43q-34 0 -49 -18.5t-15 -68.5v-77h219v77q0 50 -15 68.5t-49 18.5q-5 15 -5 43q45 -3 114 -3t114 3q0 -28 -5 -43q-34 0 -49 -18.5t-15 -68.5v-204q0 -50 15 -68.5z" />
    <glyph glyph-name="uni043E" unicode="&#x43e;" horiz-adv-x="532" 
d="M147 20.5q-51 29.5 -79 83.5t-28 125q0 67 29 121.5t80.5 85.5t116.5 31q105 0 165.5 -65t60.5 -173q0 -68 -28.5 -122t-80 -85t-117.5 -31q-68 0 -119 29.5zM362 87q30 48 30 130q0 60 -18.5 106t-49.5 71t-68 25q-56 0 -85.5 -46t-29.5 -123q0 -100 35.5 -155.5
t97.5 -55.5q58 0 88 48z" />
    <glyph glyph-name="uni043F" unicode="&#x43f;" horiz-adv-x="582" 
d="M41 40q31 0 45 18.5t14 68.5v204q0 50 -14 68.5t-45 18.5q-5 15 -5 43q43 -3 209 -3h92q165 0 209 3q0 -28 -5 -43q-31 0 -45 -18.5t-14 -68.5v-204q0 -50 14 -68.5t45 -18.5q5 -15 5 -43q-43 3 -109 3q-65 0 -109 -3q0 28 5 43q31 0 45 18.5t14 68.5v204q0 48 -14 66.5
t-45 18.5h-84q-31 0 -45 -18.5t-14 -66.5v-204q0 -50 14 -68.5t45 -18.5q5 -15 5 -43q-43 3 -109 3q-65 0 -109 -3q0 28 5 43z" />
    <glyph glyph-name="uni0440" unicode="&#x440;" horiz-adv-x="573" 
d="M201 5v-100q0 -43 9 -65.5t27.5 -31t52.5 -10.5q5 -14 5 -43q-46 3 -126 3q-93 0 -132 -3q0 29 5 43q40 2 54.5 19.5t14.5 67.5v440q0 26 -5.5 40.5t-21.5 22t-48 8.5q0 23 9 37q31 2 71 12t63 22q22 -7 22 -44q0 -16 -3.5 -30.5t-11.5 -41.5q9 19 23 42q16 27 53.5 50.5
t83.5 23.5q90 0 138.5 -53t48.5 -160q0 -74 -31 -134t-88 -94.5t-130 -34.5q-41 0 -83 14zM236.5 357q-35.5 -47 -35.5 -144v-141q19 -17 39.5 -26t48.5 -9q33 0 66 17t56 60.5t23 117.5q0 78 -31.5 125t-80.5 47q-50 0 -85.5 -47z" />
    <glyph glyph-name="uni0441" unicode="&#x441;" horiz-adv-x="447" 
d="M147.5 18q-47.5 27 -77.5 80.5t-30 128.5q0 62 24.5 117t71.5 89t112 34q94 0 151 -45q-7 -45 -7 -114q-15 -8 -46 -8q-6 57 -34 88.5t-72 31.5q-50 0 -78.5 -46.5t-28.5 -131.5q0 -51 17 -95.5t49 -71.5t77 -27q32 0 60.5 15t50.5 43q8 -4 15 -11.5t10 -16.5
q-55 -87 -164 -87q-53 0 -100.5 27z" />
    <glyph glyph-name="uni0442" unicode="&#x442;" horiz-adv-x="506" 
d="M491 334q-20 -12 -50 -12q-4 50 -23.5 71.5t-64.5 21.5h-55v-310q0 -27 5 -40t19 -18.5t42 -6.5q4 -15 4 -43q-49 3 -113 3q-74 0 -119 -3q0 28 5 43q41 2 54 14t13 51v310h-47q-36 0 -54.5 -9.5t-27 -28t-15.5 -55.5q-15 0 -25.5 2.5t-23.5 9.5q14 75 14 126
q52 -2 227 -2q126 0 228 2q-2 -42 7 -126z" />
    <glyph glyph-name="uni0443" unicode="&#x443;" horiz-adv-x="541" 
d="M526 460q0 -29 -6 -43q-27 -7 -41.5 -26t-39.5 -78l-147 -350q-38 -90 -65 -135t-51.5 -61t-57.5 -16q-45 0 -75 23q-3 12 -3 31q0 22 4 42q34 -6 64 -6q64 0 101 59q17 25 46 93q-54 122 -136 301q-24 50 -39 75t-28 34.5t-31 13.5q-6 18 -6 43q76 -2 113 -2q51 0 133 2
q0 -26 -7 -43q-34 -5 -49 -15.5t-15 -29.5q0 -21 21 -65q34 -69 90 -206l9 23l69 174q17 43 17 66q0 24 -15 35.5t-47 17.5q-7 20 -7 43q31 -2 99 -2q70 0 100 2z" />
    <glyph glyph-name="uni0444" unicode="&#x444;" horiz-adv-x="700" 
d="M395 15v-130q0 -49 17 -67t62 -20q5 -14 5 -43q-48 3 -129 3t-129 -3q0 29 5 43q45 2 62 20t17 67v130q-37 -10 -70 -10q-91 0 -143 60t-52 167q0 104 52 162.5t143 58.5q33 0 70 -10v136q0 24 -5 38t-21 21.5t-49 7.5q0 23 9 37q25 0 71 11t63 23q22 -7 22 -40v-234
q37 10 70 10q91 0 143 -58.5t52 -162.5q0 -107 -52 -167t-143 -60q-33 0 -70 10zM166.5 97q26.5 -44 82.5 -44q27 0 58 9v334q-31 9 -58 9q-56 0 -82.5 -42.5t-26.5 -130.5q0 -91 26.5 -135zM533.5 362.5q-26.5 42.5 -82.5 42.5q-26 0 -58 -9v-334q32 -9 58 -9q56 0 82.5 44
t26.5 135q0 88 -26.5 130.5z" />
    <glyph glyph-name="uni0445" unicode="&#x445;" horiz-adv-x="521" 
d="M492 -2q-41 2 -105 2q-76 0 -115 -2q0 30 4 42q22 1 33 6t11 16q0 13 -18 40l-57 85l-42 -61q-26 -39 -26 -60q0 -26 35 -26q6 -15 6 -42q-37 2 -105 2q-42 0 -83 -2q0 29 6 42q28 2 52 20t60 69l70 97q-38 55 -76 105q-31 41 -45.5 58t-25.5 23t-27 8q-7 15 -7 40
q58 -2 105 -2q81 0 115 2q0 -12 -5 -40q-21 -1 -31.5 -5.5t-10.5 -15.5q0 -15 27 -53q13 -16 45 -61l40 61q24 36 24 53q0 10 -8.5 15t-26.5 6q-6 14 -6 40q50 -2 89 -2q42 0 84 2q0 -18 -6 -40q-24 -2 -40.5 -14.5t-46.5 -54.5l-74 -104l90 -125q33 -48 50 -64.5t36 -17.5
q5 -13 5 -42z" />
    <glyph glyph-name="uni0446" unicode="&#x446;" horiz-adv-x="620" 
d="M601 4q-13 -63 -13 -172q-12 -4 -30 -4t-31 4q1 86 -12 167q-31 1 -178 1h-92q-165 0 -209 -3q0 28 5 43q31 0 45 18.5t14 68.5v204q0 50 -14 68.5t-45 18.5q-5 15 -5 43q43 -3 109 -3t109 3q0 -28 -5 -43q-31 0 -45 -18.5t-14 -68.5v-204q0 -48 14 -66.5t45 -18.5h84
q31 0 45 18.5t14 66.5v204q0 50 -14 68.5t-45 18.5q-5 15 -5 43q44 -3 109 -3t109 3q0 -28 -5 -43q-31 0 -45 -18.5t-14 -68.5v-204q0 -50 14 -68.5t45 -18.5h45q15 -13 15 -36z" />
    <glyph glyph-name="uni0447" unicode="&#x447;" horiz-adv-x="547" 
d="M463.5 58.5q12.5 -18.5 42.5 -18.5q5 -15 5 -43q-43 3 -107 3q-83 0 -121 -3q0 27 5 43q40 0 56 14.5t16 55.5v76q-53 -21 -120 -21q-69 0 -105 22.5t-48 60.5t-12 97q0 40 -13 56.5t-42 16.5q-5 15 -5 43q42 -3 106 -3q65 0 105 3q0 -28 -5 -43q-29 0 -42 -16.5
t-13 -58.5q0 -68 24.5 -100.5t83.5 -32.5q17 0 41.5 4t44.5 12v105q0 50 -13 68.5t-42 18.5q-5 15 -5 43q41 -3 105 -3t106 3q0 -28 -5 -43q-30 0 -42.5 -18.5t-12.5 -68.5v-204q0 -50 12.5 -68.5z" />
    <glyph glyph-name="uni0448" unicode="&#x448;" horiz-adv-x="831" 
d="M41 40q36 0 52 18.5t16 68.5v204q0 50 -16 68.5t-52 18.5q-5 15 -5 43q50 -3 118 -3q69 0 107 3q0 -28 -5 -43q-33 0 -45.5 -18t-12.5 -69v-224q0 -26 4.5 -39.5t16.5 -19.5q15 -7 67 -7q51 0 66 7q12 6 16 19.5t4 39.5v224q0 51 -13 69t-46 18q-5 15 -5 43q39 -3 108 -3
q67 0 108 3q0 -28 -5 -43q-33 0 -46 -18t-13 -69v-224q0 -26 4.5 -39.5t16.5 -19.5q15 -7 66 -7t66 7q12 6 16.5 19.5t4.5 39.5v224q0 51 -12.5 69t-45.5 18q-5 15 -5 43q38 -3 107 -3t117 3q0 -27 -4 -43q-36 0 -52 -18.5t-16 -68.5v-204q0 -50 16 -68.5t52 -18.5
q4 -16 4 -43q-54 3 -200 3h-359q-140 0 -200 -3q0 28 5 43z" />
    <glyph glyph-name="uni0449" unicode="&#x449;" horiz-adv-x="869" 
d="M851 4q-13 -63 -13 -172q-12 -4 -30 -4t-31 4q1 87 -12 166q-66 2 -170 2h-359q-140 0 -200 -3q0 28 5 43q36 0 52 18.5t16 68.5v204q0 50 -16 68.5t-52 18.5q-5 15 -5 43q50 -3 118 -3q69 0 107 3q0 -28 -5 -43q-33 0 -45.5 -18t-12.5 -69v-224q0 -26 4.5 -39.5
t16.5 -19.5q15 -7 67 -7q51 0 66 7q12 6 16 19.5t4 39.5v224q0 51 -13 69t-46 18q-5 15 -5 43q39 -3 108 -3q67 0 108 3q0 -28 -5 -43q-33 0 -46 -18t-13 -69v-224q0 -26 4.5 -39.5t16.5 -19.5q15 -7 66 -7t66 7q12 6 16.5 19.5t4.5 39.5v224q0 51 -12.5 69t-45.5 18
q-5 15 -5 43q38 -3 107 -3t117 3q0 -27 -4 -43q-36 0 -52 -18.5t-16 -68.5v-204q0 -50 16 -68.5t52 -18.5h45q15 -13 15 -36z" />
    <glyph glyph-name="uni044A" unicode="&#x44a;" horiz-adv-x="540" 
d="M453.5 248.5q46.5 -32.5 46.5 -105.5q0 -66 -38 -104.5t-118 -38.5q-166 0 -228 -3q0 28 5 43q31 0 45 18.5t14 68.5v288h-14q-54 0 -73.5 -27t-24.5 -77q-32 0 -53 12q9 43 17 137q54 -2 192 -2h11q77 0 117 3q0 -29 -5 -43q-44 -2 -60.5 -16t-16.5 -56v-68q23 3 46 3
q91 0 137.5 -32.5zM380 61.5q17 21.5 17 65.5q0 114 -104 114q-15 0 -23 -1v-133q0 -39 11 -53t41 -14q41 0 58 21.5z" />
    <glyph glyph-name="uni044B" unicode="&#x44b;" horiz-adv-x="706" 
d="M392 253.5q49 -32.5 49 -107.5q0 -68 -43.5 -107t-130.5 -39q-169 0 -231 -3q0 28 5 43q31 0 45 18.5t14 68.5v204q0 50 -14 68.5t-45 18.5q-5 15 -5 43q43 -3 117 -3q79 0 119 3q0 -29 -5 -43q-44 -2 -60.5 -16t-16.5 -56v-63q30 3 57 3q96 0 145 -32.5zM620 58.5
q14 -18.5 45 -18.5q5 -15 5 -43q-43 3 -109 3t-109 -3q0 28 5 43q31 0 45 18.5t14 68.5v204q0 50 -14 68.5t-45 18.5q-5 15 -5 43q43 -3 109 -3q65 0 109 3q0 -28 -5 -43q-31 0 -45 -18.5t-14 -68.5v-204q0 -50 14 -68.5zM317 62q20 22 20 69q0 63 -30 89t-67 26
q-32 0 -50 -2v-137q0 -38 13.5 -52.5t47.5 -14.5q46 0 66 22z" />
    <glyph glyph-name="uni044C" unicode="&#x44c;" horiz-adv-x="505" 
d="M411 248.5q54 -32.5 54 -104.5q0 -66 -46.5 -105t-143.5 -39q-167 0 -239 -3q0 28 5 43q31 0 45 18.5t14 68.5v204q0 50 -14 68.5t-45 18.5q-5 15 -5 43q43 -3 117 -3q79 0 119 3q0 -29 -5 -43q-44 -2 -60.5 -16t-16.5 -56v-68q33 3 62 3q105 0 159 -32.5zM335.5 62.5
q25.5 22.5 25.5 67.5q0 60 -36 85.5t-80 25.5q-35 0 -55 -2v-132q0 -39 13.5 -53t51.5 -14q55 0 80.5 22.5z" />
    <glyph glyph-name="uni044D" unicode="&#x44d;" horiz-adv-x="456" 
d="M361 405q55 -59 55 -169q0 -114 -59.5 -178t-167.5 -64q-77 0 -153 35q2 30 2 49q0 31 -3 59q22 12 53 10q7 -56 28.5 -81t66.5 -25q62 0 95.5 42.5t37.5 123.5q-113 0 -193 -5q0 29 7 50h185q-5 79 -38 122.5t-91 43.5q-46 0 -67 -26.5t-27 -85.5q-36 0 -54 7q7 39 7 84
q0 22 -1 32q75 35 159 35q103 0 158 -59z" />
    <glyph glyph-name="uni044E" unicode="&#x44e;" horiz-adv-x="756" 
d="M660 402.5q56 -64.5 56 -173.5q0 -69 -26 -123t-75 -84.5t-115 -30.5q-94 0 -154.5 60t-66.5 160q-57 0 -89 -4v-80q0 -50 14 -68.5t45 -18.5q5 -15 5 -43q-43 3 -109 3q-65 0 -109 -3q0 28 5 43q31 0 45 18.5t14 68.5v204q0 50 -14 68.5t-45 18.5q-5 15 -5 43
q43 -3 109 -3t109 3q0 -28 -5 -43q-31 0 -45 -18.5t-14 -68.5v-77h90q5 61 35 109.5t78 76t107 27.5q104 0 160 -64.5zM616 217q0 92 -35 147t-91 55q-52 0 -81 -46.5t-29 -122.5q0 -99 35 -155t93 -56q108 0 108 178z" />
    <glyph glyph-name="uni044F" unicode="&#x44f;" horiz-adv-x="521" 
d="M436 54.5q11 -12.5 45 -14.5q4 -15 4 -42l-94 2q-75 0 -109 -2q0 31 5 42q20 1 30.5 6t15 20t4.5 45v72q-56 0 -85.5 -13t-41.5 -33.5t-20 -54.5q-10 -40 -17.5 -56.5t-25.5 -31.5q-50 6 -121 6q-6 13 -6 40q39 3 55 19.5t22.5 33.5t8.5 22q12 31 40 55t73 30
q-66 10 -106 43t-40 83q0 56 50 95t158 39q25 0 40 -1l64 -1q60 0 100 2q0 -26 -4 -41q-34 -2 -45 -15t-11 -52v-244q0 -41 11 -53.5zM337 229v182q-31 6 -58 6q-106 0 -106 -88q0 -50 34 -76.5t95 -26.5q14 0 35 3z" />
    <glyph glyph-name="uni0450" unicode="&#x450;" horiz-adv-x="474" 
d="M421.5 91q7.5 -9 8.5 -17q-34 -44 -77.5 -63.5t-100.5 -19.5q-69 0 -116.5 31.5t-71.5 85.5t-24 121q0 65 25.5 119t72.5 86.5t109 32.5q91 0 135.5 -56.5t51.5 -150.5q-4 -20 -15 -34q-176 0 -280 -5q5 -77 38.5 -125.5t106.5 -48.5q34 0 66 15t56 43q8 -5 15.5 -14z
M170 385q-28 -34 -32 -114h192q0 67 -24.5 107.5t-67.5 40.5q-40 0 -68 -34zM103 704q22 11 57 11q19 0 39 -3q28 -95 71 -175q-8 -4 -20 -4q-8 0 -20 2q-67 104 -127 169z" />
    <glyph glyph-name="uni0451" unicode="&#x451;" horiz-adv-x="474" 
d="M421.5 91q7.5 -9 8.5 -17q-34 -44 -77.5 -63.5t-100.5 -19.5q-69 0 -116.5 31.5t-71.5 85.5t-24 121q0 65 25.5 119t72.5 86.5t109 32.5q91 0 135.5 -56.5t51.5 -150.5q-4 -20 -15 -34q-176 0 -280 -5q5 -77 38.5 -125.5t106.5 -48.5q34 0 66 15t56 43q8 -5 15.5 -14z
M170 385q-28 -34 -32 -114h192q0 67 -24.5 107.5t-67.5 40.5q-40 0 -68 -34zM105 546.5q-16 14.5 -16 36.5q0 24 14 40.5t41 16.5q29 0 43 -15t14 -40q0 -23 -16 -38t-39 -15q-25 0 -41 14.5zM298.5 547.5q-15.5 15.5 -15.5 41.5q0 24 15.5 37.5t40.5 13.5t41 -14.5
t16 -36.5q0 -24 -13 -40.5t-41 -16.5t-43.5 15.5z" />
    <glyph glyph-name="uni0452" unicode="&#x452;" horiz-adv-x="575" 
d="M462.5 394q43.5 -67 43.5 -211q0 -161 -57.5 -280.5t-181.5 -151.5q-19 10 -22 28q98 53 134.5 145t36.5 235q0 135 -25.5 188t-77.5 53q-50 0 -83 -40.5t-33 -126.5v-106q0 -50 15 -68.5t54 -18.5q5 -15 5 -43q-84 3 -125 3q-69 0 -113 -3q0 29 5 43q39 0 54 18.5
t15 68.5v390q-37 -1 -89 -1q0 23 10 43h79v16q0 26 -5 41t-21 22.5t-49 7.5q0 23 9 37q25 0 71 11t63 23q22 -7 22 -40v-118h157q0 -19 -9 -42h-148v-45q0 -39 -1.5 -62t-5.5 -45h1q12 22 14 24q22 31 56.5 51.5t80.5 20.5q77 0 120.5 -67z" />
    <glyph glyph-name="uni0453" unicode="&#x453;" horiz-adv-x="437" 
d="M422 322q-19 -12 -50 -12q-3 36 -13 58.5t-35.5 34.5t-73.5 12h-60v-299q0 -43 16.5 -58.5t57.5 -17.5q5 -14 5 -43q-58 3 -124 3q-65 0 -109 -3q0 28 5 43q31 0 45 18.5t14 68.5v204q0 50 -14 68.5t-45 18.5q-5 15 -5 43q65 -3 153 -3q156 0 216 2q7 -80 17 -138z
M189 537q45 92 65 172q35 12 67 12q22 0 36 -7q-58 -67 -132 -183q-21 -2 -36 6z" />
    <glyph glyph-name="uni0454" unicode="&#x454;" horiz-adv-x="456" 
d="M418 77q0 -18 2 -48q-76 -35 -155 -35q-107 0 -166 62.5t-59 175.5q0 111 57 171.5t163 60.5q83 0 153 -35q-7 -40 -7 -116q-17 -7 -49 -7q-3 112 -99 112q-56 0 -86.5 -43t-33.5 -122h192q0 -12 -2.5 -27t-6.5 -23q-75 5 -182 5q5 -80 38.5 -123.5t93.5 -43.5
q47 0 71.5 24t30.5 79q28 2 48 -10q-3 -28 -3 -57z" />
    <glyph glyph-name="uni0455" unicode="&#x455;" horiz-adv-x="428" 
d="M307 316q-3 44 -34 77t-78 33q-31 0 -49.5 -15t-18.5 -40q0 -19 8 -31.5t33 -26.5t78 -35q55 -21 85.5 -41t43.5 -44.5t13 -60.5q0 -63 -52 -102t-131 -39q-57 0 -92.5 9t-72.5 28q3 26 3 67q0 27 -2 57q15 11 52 11q7 -62 38.5 -93.5t83.5 -31.5q40 0 63 18t23 46
q0 18 -8.5 31t-31.5 26t-68 31q-58 23 -89 42t-45 44.5t-14 65.5t26 68t65 42.5t75 14.5q44 0 78 -8.5t66 -26.5q-2 -30 -2 -47q0 -32 4 -57q-19 -12 -50 -12z" />
    <glyph glyph-name="uni0456" unicode="&#x456;" horiz-adv-x="301" 
d="M106 597q-17 17 -17 41q0 26 17.5 43.5t41.5 17.5q27 0 43.5 -17t16.5 -44q0 -23 -17.5 -40.5t-42.5 -17.5t-42 17zM42 40q40 0 54.5 18.5t14.5 68.5v198q0 26 -5 41t-21 22.5t-49 7.5q0 23 9 37q25 0 71 11t63 23q22 -7 22 -40v-300q0 -50 13 -68.5t46 -18.5
q5 -17 5 -43q-52 3 -113 3q-65 0 -115 -3q0 27 5 43z" />
    <glyph glyph-name="uni0457" unicode="&#x457;" horiz-adv-x="301" 
d="M31 546.5q-16 14.5 -16 36.5q0 24 14 40.5t41 16.5q29 0 43 -15t14 -40q0 -23 -16 -38t-39 -15q-25 0 -41 14.5zM184.5 548.5q-15.5 15.5 -15.5 40.5q0 24 15.5 37.5t40.5 13.5t41 -14.5t16 -36.5q0 -24 -13 -40t-41 -16t-43.5 15.5zM42 40q40 0 54.5 18.5t14.5 68.5v198
q0 26 -5 41t-21 22.5t-49 7.5q0 23 9 37q25 0 71 11t63 23q22 -7 22 -40v-300q0 -50 13 -68.5t46 -18.5q5 -17 5 -43q-52 3 -113 3q-65 0 -115 -3q0 27 5 43z" />
    <glyph glyph-name="uni0458" unicode="&#x458;" horiz-adv-x="283" 
d="M106 597q-17 17 -17 41q0 26 17.5 43.5t41.5 17.5q27 0 43.5 -17t16.5 -44q0 -23 -17.5 -40.5t-42.5 -17.5t-42 17zM13 -221q57 65 77.5 115.5t20.5 124.5v306q0 26 -5 41t-21 22.5t-49 7.5q0 23 9 37q25 0 71 11t63 23q22 -7 22 -40v-394q0 -99 -48 -170.5t-118 -111.5
q-19 10 -22 28z" />
    <glyph glyph-name="uni0459" unicode="&#x459;" horiz-adv-x="728" 
d="M639.5 248.5q48.5 -32.5 48.5 -104.5q0 -66 -42.5 -105t-130.5 -39q-167 0 -228 -3q0 28 5 43q31 0 45 18.5t14 68.5v225q0 27 -4.5 39.5t-16.5 17.5q-14 7 -41 7q-26 0 -42 -6q-12 -5 -15.5 -17.5t-5.5 -40.5q-13 -181 -44.5 -270.5t-99.5 -89.5q-19 0 -36 6.5t-27 15.5
q-4 11 -4 29q0 28 8 50q19 -5 41 -5q58 0 83 69t32 200l1 21q0 16 -4.5 24t-17 11t-39.5 5q-5 15 -5 42q68 -2 201 -2q136 0 190 3q0 -28 -5 -43q-31 0 -45 -18.5t-14 -68.5v-53q29 3 56 3q94 0 142.5 -32.5zM563.5 62q20.5 22 20.5 67q0 61 -30 86.5t-67 25.5q-29 0 -46 -2
v-132q0 -39 12 -53t45 -14q45 0 65.5 22z" />
    <glyph glyph-name="uni045A" unicode="&#x45a;" horiz-adv-x="766" 
d="M673.5 226q52.5 -29 52.5 -96q0 -57 -39.5 -93.5t-122.5 -36.5q-172 0 -236 -3q0 28 5 43q30 0 43 18.5t13 68.5v85q-134 0 -199 -5v-80q0 -50 13 -68.5t43 -18.5q5 -15 5 -43q-42 3 -106 3q-65 0 -109 -3q0 28 5 43q31 0 45 18.5t14 68.5v204q0 50 -14 68.5t-45 18.5
q-5 15 -5 43q43 -3 109 -3q64 0 106 3q0 -28 -5 -43q-30 0 -43 -18.5t-13 -68.5v-77h199v77q0 50 -13 68.5t-43 18.5q-5 15 -5 43q42 -3 114 -3q78 0 119 3q0 -29 -5 -43q-44 -2 -60.5 -16t-16.5 -56v-91h38q104 0 156.5 -29zM602.5 59q19.5 19 19.5 55q0 55 -36 76.5
t-82 21.5h-25v-105q0 -38 13 -52.5t48 -14.5q43 0 62.5 19z" />
    <glyph glyph-name="uni045B" unicode="&#x45b;" horiz-adv-x="596" 
d="M560 -3q-43 3 -109 3q-41 0 -99 -2q-7 -1 -20 -1q0 29 5 43q37 0 53 19t16 68v140q0 66 -24.5 94t-68.5 28q-28 0 -54 -17t-42.5 -55t-16.5 -95v-95q0 -50 15 -68.5t54 -18.5q5 -15 5 -43q-84 3 -119 3q-75 0 -119 -3q0 29 5 43q39 0 54 18.5t15 68.5v390q-37 -1 -89 -1
q0 23 10 43h79v16q0 26 -5 41t-21 22.5t-49 7.5q0 23 9 37q25 0 71 11t63 23q22 -7 22 -40v-118h157q0 -19 -9 -42h-148v-106q0 -32 -7 -59q2 3 5.5 10.5t9.5 15.5q20 28 58.5 50t86.5 22q63 0 103 -39t40 -124v-160q0 -50 14 -68.5t45 -18.5q5 -15 5 -43z" />
    <glyph glyph-name="uni045C" unicode="&#x45c;" horiz-adv-x="533" 
d="M461 64q18 -19 52 -22q0 -29 -6 -42q-31 0 -53.5 -1.5t-55.5 -7.5q-20 11 -34 34t-31 61q-20 44 -36 70.5t-42 45t-65 18.5v-93q0 -50 14 -68.5t45 -18.5q5 -15 5 -43q-43 3 -109 3q-65 0 -109 -3q0 28 5 43q31 0 45 18.5t14 68.5v204q0 50 -14 68.5t-45 18.5
q-5 15 -5 43q43 -3 109 -3t109 3q0 -28 -5 -43q-31 0 -45 -18.5t-14 -68.5v-72q33 0 53.5 9.5t33.5 25.5t31 46q26 44 43.5 68.5t41 39.5t55.5 15q25 0 45 -5q-1 -10 -1 -31q0 -40 6 -78q-10 -3 -25.5 -5t-25.5 -1q-6 32 -13 42.5t-18 10.5q-17 0 -30 -15.5t-34 -51.5
q-18 -32 -31.5 -47.5t-37.5 -29.5q36 -5 58 -19t37 -36t40 -68t43 -65zM268 537q45 92 65 172q35 12 67 12q22 0 36 -7q-58 -67 -132 -183q-21 -2 -36 6z" />
    <glyph glyph-name="uni045D" unicode="&#x45d;" horiz-adv-x="609" 
d="M523 58.5q14 -18.5 45 -18.5q5 -15 5 -43q-43 3 -109 3q-65 0 -109 -3q0 28 5 43q31 0 45 18.5t14 68.5v179l-227 -211q4 -31 17.5 -43t39.5 -12q5 -15 5 -43q-43 3 -109 3q-65 0 -109 -3q0 28 5 43q31 0 45 18.5t14 68.5v204q0 50 -14 68.5t-45 18.5q-5 15 -5 43
q43 -3 109 -3t109 3q0 -28 -5 -43q-31 0 -45 -18.5t-14 -68.5v-177l227 209q-4 31 -17.5 43t-39.5 12q-5 15 -5 43q43 -3 109 -3t109 3q0 -28 -5 -43q-31 0 -45 -18.5t-14 -68.5v-204q0 -50 14 -68.5zM171 704q22 11 57 11q19 0 39 -3q28 -95 71 -175q-8 -4 -20 -4
q-8 0 -20 2q-67 104 -127 169z" />
    <glyph glyph-name="uni045E" unicode="&#x45e;" horiz-adv-x="541" 
d="M526 460q0 -29 -6 -43q-27 -7 -41.5 -26t-39.5 -78l-147 -350q-38 -90 -65 -135t-51.5 -61t-57.5 -16q-45 0 -75 23q-3 12 -3 31q0 22 4 42q34 -6 64 -6q64 0 101 59q17 25 46 93q-54 122 -136 301q-24 50 -39 75t-28 34.5t-31 13.5q-6 18 -6 43q76 -2 113 -2q51 0 133 2
q0 -26 -7 -43q-34 -5 -49 -15.5t-15 -29.5q0 -21 21 -65q34 -69 90 -206l9 23l69 174q17 43 17 66q0 24 -15 35.5t-47 17.5q-7 20 -7 43q31 -2 99 -2q70 0 100 2zM155.5 566q-51.5 39 -51.5 110q42 17 90 14q8 -63 33.5 -93.5t71.5 -30.5q45 0 68 30.5t27 93.5q8 1 25 1
q39 0 65 -10q0 -73 -55.5 -113.5t-139.5 -40.5q-82 0 -133.5 39z" />
    <glyph glyph-name="uni045F" unicode="&#x45f;" horiz-adv-x="582" 
d="M546 -3q-39 3 -164 3q-25 -1 -36 -11t-16 -43t-8 -114q-12 -4 -31 -4q-17 0 -32 4q-3 81 -7.5 114t-15.5 43t-37 11q-124 0 -163 -3q0 28 5 43q31 0 45 18.5t14 68.5v204q0 50 -14 68.5t-45 18.5q-5 15 -5 43q43 -3 109 -3t109 3q0 -28 -5 -43q-31 0 -45 -18.5t-14 -68.5
v-204q0 -48 14 -66.5t45 -18.5h84q31 0 45 18.5t14 66.5v204q0 50 -14 68.5t-45 18.5q-5 15 -5 43q44 -3 109 -3t109 3q0 -28 -5 -43q-31 0 -45 -18.5t-14 -68.5v-204q0 -50 14 -68.5t45 -18.5q5 -15 5 -43z" />
    <glyph glyph-name="uni0462" unicode="&#x462;" horiz-adv-x="687" 
d="M568 313q64 -40 64 -133q0 -80 -55 -129.5t-173 -50.5q-199 0 -274 -3q0 29 5 43q28 2 42.5 10t21 28.5t6.5 59.5v387h-28q-38 0 -58.5 -13.5t-29 -35.5t-15.5 -63q-35 0 -49 9q15 87 15 150q59 -3 165 -3v28q0 44 -14.5 59.5t-54.5 17.5q-5 14 -5 43q39 -3 134 -3
q69 0 108 3q0 -29 -5 -43q-39 -2 -54 -17t-15 -60v-28q150 0 202 3l-1 -34q0 -37 7 -116q-21 -10 -50 -9q-2 56 -28.5 84t-82.5 28h-47v-177q45 5 83 5q122 0 186 -40zM489.5 74q33.5 31 33.5 87q0 83 -49 115t-116 32q-29 0 -59 -3v-167q0 -40 7 -60t24.5 -27.5t50.5 -7.5
q75 0 108.5 31z" />
    <glyph glyph-name="uni0463" unicode="&#x463;" horiz-adv-x="565" 
d="M472.5 241q52.5 -30 52.5 -99q0 -64 -45.5 -103t-140.5 -39q-174 0 -239 -3q0 28 5 43q31 0 45 18.5t14 68.5v288h-29q-25 0 -38.5 -9.5t-19.5 -28.5t-11 -55q-27 0 -51 12q14 75 14 126q76 -2 135 -2v117q0 26 -5 41t-21 22.5t-49 7.5q0 23 9 37q25 0 71 11t63 23
q22 -7 22 -40v-219q86 0 180 2q-2 -42 7 -126q-20 -12 -49 -12q-3 51 -20.5 72t-57.5 21h-60v-147q33 3 63 3q103 0 155.5 -30zM421 128q0 56 -34.5 79.5t-77.5 23.5q-35 0 -55 -2v-122q0 -39 13.5 -53t50.5 -14q103 0 103 88z" />
    <glyph glyph-name="uni046A" unicode="&#x46a;" horiz-adv-x="914" 
d="M782.5 99q16.5 -26 41 -41t65.5 -18q0 -23 -4 -40q-44 0 -71.5 -1.5t-58.5 -7.5q-40 33 -57.5 59t-43.5 82q-32 70 -49 99t-39.5 43.5t-61.5 15.5v-163q0 -50 14.5 -67.5t54.5 -19.5q5 -14 5 -43q-60 3 -121 3q-70 0 -121 -3q0 29 5 43q40 2 54.5 19.5t14.5 67.5v163
q-39 -1 -61.5 -15.5t-39.5 -43.5t-49 -99q-26 -56 -43.5 -82t-57.5 -59q-31 6 -58.5 7.5t-71.5 1.5q-4 17 -4 40q41 3 65.5 18t41 41t43.5 81q37 77 58.5 106t54 39t104.5 11l-229 282q-9 11 -19.5 14.5t-26.5 3.5q-5 18 -5 43q52 -3 113 -3h449q60 0 113 3q0 -25 -5 -43
q-16 0 -26.5 -4t-20.5 -16l-214 -280q73 -1 106 -11t54 -39t58 -106q27 -55 43.5 -81zM274 631l134 -164q46 -56 76 -106q24 36 81 110l121 160h-412z" />
    <glyph glyph-name="uni046B" unicode="&#x46b;" horiz-adv-x="730" 
d="M645.5 70q10.5 -15 24 -21t40.5 -9q0 -26 -5 -40q-61 0 -101 -6q-33 23 -45.5 41t-35.5 64q-28 57 -49.5 76t-58.5 20v-87q0 -40 11 -53t43 -15q5 -17 5 -42q-60 2 -105 2q-52 0 -112 -2q0 28 5 42q32 2 43 15t11 53v87q-27 -1 -43.5 -9.5t-30 -27.5t-33.5 -60
q-23 -45 -36.5 -63.5t-45.5 -40.5q-41 6 -102 6q-5 14 -5 40q27 2 41.5 9t25 22.5t30.5 53.5q27 52 43.5 72.5t42.5 29t79 9.5l-162 169q-13 13 -41 13q-5 18 -5 43q53 -3 113 -3h347q61 0 113 3q0 -25 -5 -43q-28 0 -41 -13l-154 -168q54 -2 79.5 -10t42.5 -29t45 -73
q21 -40 31.5 -55zM266 390q100 -109 130 -146q21 27 133 152l19 21h-307z" />
    <glyph glyph-name="uni0472" unicode="&#x472;" horiz-adv-x="731" 
d="M535.5 641.5q75.5 -43.5 118 -122t42.5 -179.5q0 -98 -42.5 -177.5t-118 -125.5t-170.5 -46q-97 0 -172 45.5t-116.5 125t-41.5 178.5q0 100 43.5 178.5t119 122.5t167.5 44q95 0 170.5 -43.5zM238 603q-47 -34 -73.5 -95t-26.5 -141q0 -16 1 -24q65 64 136 64
q26 0 50 -7t56 -21q30 -12 50.5 -18.5t42.5 -6.5q23 0 52.5 7.5t60.5 24.5q-12 72 -46.5 129t-85.5 89.5t-111 32.5q-59 0 -106 -34zM495.5 76q47.5 36 72.5 98.5t25 139.5q0 16 -1 24q-35 -34 -67.5 -48t-66.5 -14q-27 0 -50 7t-53 21q-32 13 -51 19t-41 6q-60 0 -119 -34
q17 -111 80 -183t161 -72q63 0 110.5 36z" />
    <glyph glyph-name="uni0473" unicode="&#x473;" horiz-adv-x="532" 
d="M431.5 402q60.5 -65 60.5 -173q0 -68 -28.5 -122t-80 -85t-117.5 -31q-68 0 -119 29.5t-79 83.5t-28 125q0 67 29 121.5t80.5 85.5t116.5 31q105 0 165.5 -65zM170.5 373q-29.5 -46 -29.5 -123v-12q31 39 79 39q16 0 27.5 -3.5t27.5 -11.5q13 -7 23 -10t23 -3q28 0 66 24
q-11 67 -47.5 106.5t-83.5 39.5q-56 0 -85.5 -46zM362 87q30 48 30 130v8q-33 -42 -77 -42q-21 0 -34 4t-28 12q-12 6 -21.5 9t-22.5 3q-29 0 -64 -23q10 -72 44 -110.5t85 -38.5q58 0 88 48z" />
    <glyph glyph-name="uni0474" unicode="&#x474;" horiz-adv-x="728" 
d="M703 639q0 -19 -3 -37.5t-8 -29.5q-26 6 -56 6q-28 0 -46 -10t-36 -46q-14 -29 -59 -156t-129 -368q-17 -4 -43 -4q-52 139 -110 285.5t-99 242.5q-23 54 -36 77t-22 29t-26 8q-5 20 -5 43q39 -3 122 -3q59 0 117 3q0 -20 -5 -43q-29 -2 -42 -9t-13 -26q0 -23 21 -74
q44 -110 75.5 -191t71.5 -192q59 170 111 334q26 80 40 113.5t31 54.5q33 39 79 39q38 0 68 -23q2 -14 2 -23z" />
    <glyph glyph-name="uni0475" unicode="&#x475;" horiz-adv-x="506" 
d="M491 416q0 -28 -8 -50q-19 5 -41 5q-29 0 -44.5 -17t-29.5 -54q-30 -79 -105 -301q-16 -4 -43 -4q-35 91 -76.5 194t-64.5 154q-16 35 -26 51.5t-17 21t-17 5.5q-4 15 -4 39q20 -2 100 -2q53 0 87 2q0 -19 -4 -39q-18 -2 -26.5 -7.5t-8.5 -17.5q0 -16 13 -46l16 -39
q5 -13 24.5 -61t44.5 -123q29 93 38 125q25 90 39 130t35 62.5t56 22.5q38 0 58 -22q4 -11 4 -29z" />
    <glyph glyph-name="uni048A" unicode="&#x48a;" horiz-adv-x="793" 
d="M241.5 765q-49.5 35 -49.5 101q36 14 83 11q9 -56 34 -82t73 -26t70 25.5t27 82.5q7 1 22 1q37 0 61 -9q0 -67 -53 -103t-137 -36q-81 0 -130.5 35zM738 0q-14 -39 -40.5 -79.5t-74.5 -94.5q-15 2 -29.5 11t-21.5 21q70 93 70 120q0 20 -34 22h-32q-70 0 -121 -3
q0 29 5 43q40 2 54.5 19.5t14.5 67.5v358l-305 -368q1 -43 16 -59t53 -18q5 -14 5 -43q-60 3 -121 3q-70 0 -121 -3q0 29 5 43q40 2 54.5 19.5t14.5 67.5v422q0 50 -14.5 67.5t-54.5 19.5q-5 14 -5 43q55 -3 121 -3q61 0 121 3q0 -29 -5 -43q-40 -2 -54.5 -19.5t-14.5 -67.5
v-358l305 369q-1 43 -16 58.5t-53 17.5q-5 14 -5 43q55 -3 121 -3q61 0 121 3q0 -29 -5 -43q-40 -2 -54.5 -19.5t-14.5 -67.5v-422q0 -50 14.5 -67.5t54.5 -19.5h32q14 -16 14 -40z" />
    <glyph glyph-name="uni048B" unicode="&#x48b;" horiz-adv-x="644" 
d="M166.5 566q-51.5 39 -51.5 110q42 17 90 14q8 -63 33.5 -93.5t71.5 -30.5q45 0 68 30.5t27 93.5q8 1 25 1q39 0 65 -10q0 -73 -55.5 -113.5t-139.5 -40.5q-82 0 -133.5 39zM612 0q-14 -38 -41 -78.5t-76 -95.5q-14 2 -27.5 10.5t-19.5 19.5q34 49 49.5 78t15.5 44
q0 12 -8.5 17t-26.5 5h-14q-65 0 -109 -3q0 28 5 43q31 0 45 18.5t14 68.5v179l-227 -211q4 -31 17.5 -43t39.5 -12q5 -15 5 -43q-43 3 -109 3q-65 0 -109 -3q0 28 5 43q31 0 45 18.5t14 68.5v204q0 50 -14 68.5t-45 18.5q-5 15 -5 43q43 -3 109 -3t109 3q0 -28 -5 -43
q-31 0 -45 -18.5t-14 -68.5v-177l227 209q-4 31 -17.5 43t-39.5 12q-5 15 -5 43q43 -3 109 -3t109 3q0 -28 -5 -43q-31 0 -45 -18.5t-14 -68.5v-204q0 -50 14 -68.5t45 -18.5h29q15 -15 15 -40z" />
    <glyph glyph-name="uni048C" unicode="&#x48c;" horiz-adv-x="622" 
d="M500.5 337.5q66.5 -41.5 66.5 -138.5q0 -90 -58.5 -144.5t-178.5 -54.5q-199 0 -274 -3q0 29 5 43q28 2 42.5 10t21 28.5t6.5 59.5v341q-75 0 -136 -2q0 12 3.5 28.5t7.5 22.5h125v21q0 50 -14.5 67.5t-54.5 19.5q-5 14 -5 43q39 -3 136 -3q80 0 126 3q0 -29 -5 -43
q-34 -2 -52.5 -10.5t-27.5 -31t-9 -65.5v-1h136q0 -33 -11 -50q-48 1 -125 1v-105q43 5 81 5q128 0 194.5 -41.5zM458 179q0 86 -51.5 120.5t-122.5 34.5q-27 0 -59 -3v-193q0 -39 7 -59t24.5 -28t50.5 -8q151 0 151 136z" />
    <glyph glyph-name="uni048D" unicode="&#x48d;" horiz-adv-x="511" 
d="M414.5 256.5q56.5 -34.5 56.5 -109.5q0 -68 -47 -107.5t-149 -39.5q-167 0 -239 -3q0 28 5 43q31 0 45 18.5t14 68.5v289q-33 -1 -79 -1q0 23 10 43h69v117q0 26 -5 41t-21 22.5t-49 7.5q0 23 9 37q25 0 71 11t63 23q22 -7 22 -40v-219h167q0 -19 -9 -42h-158v-128
q33 3 62 3q106 0 162.5 -34.5zM340.5 64q26.5 22 26.5 68q0 63 -38 91t-84 28q-35 0 -55 -2v-142q0 -39 14 -52t52 -13q58 0 84.5 22z" />
    <glyph glyph-name="uni048E" unicode="&#x48e;" horiz-adv-x="581" 
d="M525.5 383.5q-20.5 -48.5 -59.5 -80.5l68 -72q-14 -21 -42 -30l-68 75q-46 -23 -105 -23q-42 0 -70 11q-2 12 -2 19q0 12 3 22q25 -6 53 -6q48 0 81 19l-71 70q17 21 44 31l63 -67q24 38 24 103q0 84 -41 131.5t-128 47.5q-22 0 -51 -6v-481q0 -43 9 -65.5t27.5 -31
t52.5 -10.5q5 -14 5 -43q-46 3 -126 3q-97 0 -136 -3q0 29 5 43q40 2 54.5 19.5t14.5 67.5v422q0 50 -14.5 67.5t-54.5 19.5q-5 14 -5 43q52 -3 136 -3l127 2q117 0 172 -54.5t55 -139.5q0 -52 -20.5 -100.5z" />
    <glyph glyph-name="uni048F" unicode="&#x48f;" horiz-adv-x="573" 
d="M509.5 136q-23.5 -54 -66.5 -90l62 -62q-11 -21 -38 -26l-61 63q-55 -30 -122 -30q-41 0 -83 14v-100q0 -43 9 -65.5t27.5 -31t52.5 -10.5q5 -14 5 -43q-46 3 -126 3q-93 0 -132 -3q0 29 5 43q40 2 54.5 19.5t14.5 67.5v440q0 26 -5.5 40.5t-21.5 22t-48 8.5q0 23 9 37
q31 2 71 12t63 22q22 -7 22 -44q0 -16 -3.5 -30.5t-11.5 -41.5q9 19 23 42q16 27 53.5 50.5t83.5 23.5q90 0 138.5 -53t48.5 -160q0 -64 -23.5 -118zM240.5 46q20.5 -9 48.5 -9q42 0 77 24q-22 22 -68 64q15 22 40 27l59 -60q37 50 37 140q0 78 -31.5 125t-80.5 47
q-50 0 -85.5 -47t-35.5 -144v-141q19 -17 39.5 -26z" />
    <glyph glyph-name="uni0490" unicode="&#x490;" horiz-adv-x="526" 
d="M487 672q0 -22 -15 -36h-248v-489q0 -43 9 -65.5t27.5 -31t52.5 -10.5q5 -14 5 -43q-46 3 -126 3q-97 0 -136 -3q0 29 5 43q40 2 54.5 19.5t14.5 67.5v422q0 50 -14.5 67.5t-54.5 19.5q-5 14 -5 43q66 -3 167 -3q134 0 180 3q13 79 12 165q13 4 30 4q18 0 29 -4
q0 -109 13 -172z" />
    <glyph glyph-name="uni0491" unicode="&#x491;" horiz-adv-x="418" 
d="M403 458q0 -22 -15 -36h-198v-310q0 -43 16.5 -58.5t57.5 -17.5q5 -12 5 -39q-58 3 -124 3q-65 0 -109 -3q0 28 5 43q31 0 45 18.5t14 68.5v204q0 50 -14 68.5t-45 18.5q-5 15 -5 43q65 -3 154 -3q91 0 128 1q15 79 13 171q13 4 30 4q18 0 29 -4q0 -109 13 -172z" />
    <glyph glyph-name="uni0492" unicode="&#x492;" horiz-adv-x="561" 
d="M522 521q-15 -12 -45 -12q-5 56 -40.5 91.5t-123.5 35.5h-89v-275h173q0 -33 -11 -50q-62 1 -162 1v-165q0 -43 9 -65.5t27.5 -31t52.5 -10.5q5 -14 5 -43q-46 3 -126 3q-97 0 -136 -3q0 29 5 43q40 2 54.5 19.5t14.5 67.5v185q-66 0 -119 -2q0 12 3.5 28.5t7.5 22.5h108
v188q0 50 -14.5 67.5t-54.5 19.5q-5 14 -5 43q66 -3 167 -3q179 0 278 3q10 -110 21 -158z" />
    <glyph glyph-name="uni0493" unicode="&#x493;" horiz-adv-x="437" 
d="M422 322q-19 -12 -50 -12q-3 36 -13 58.5t-35.5 34.5t-73.5 12h-60v-170h123q0 -19 -9 -42h-114v-87q0 -43 16.5 -58.5t57.5 -17.5q5 -14 5 -43q-58 3 -124 3q-65 0 -109 -3q0 28 5 43q31 0 45 18.5t14 68.5v76q-30 -1 -83 -1q0 23 10 43h73v86q0 50 -14 68.5t-45 18.5
q-5 15 -5 43q65 -3 153 -3q156 0 216 2q7 -80 17 -138z" />
    <glyph glyph-name="uni0494" unicode="&#x494;" horiz-adv-x="617" 
d="M562 127q0 -132 -60 -226t-146 -150q-19 10 -22 28q46 59 72 104.5t39.5 96.5t13.5 117q0 115 -38.5 170.5t-115.5 55.5q-38 0 -81 -11v-165q0 -43 7 -65.5t21.5 -31t40.5 -10.5q5 -14 5 -43q-39 3 -108 3q-95 0 -134 -3q0 29 5 43q40 2 54.5 19.5t14.5 67.5v422
q0 50 -14.5 67.5t-54.5 19.5q-5 14 -5 43q66 -3 167 -3q177 0 282 3q10 -110 21 -158q-15 -12 -45 -12q-5 56 -40.5 91.5t-123.5 35.5h-93v-278q60 12 111 12q227 0 227 -243z" />
    <glyph glyph-name="uni0495" unicode="&#x495;" horiz-adv-x="507" 
d="M415 200.5q52 -54.5 52 -157.5q0 -110 -52.5 -181.5t-123.5 -110.5q-19 10 -22 28q58 67 80 116.5t22 127.5q0 189 -118 189q-27 0 -58 -7v-87q0 -43 12 -59.5t43 -18.5q4 -12 4 -42q-42 2 -96 2q-72 0 -122 -2q0 28 5 42q33 2 44.5 15t11.5 53v243q0 27 -5 41
t-16.5 19.5t-34.5 7.5q-5 13 -5 41q80 -2 158 -2q161 0 229 2q4 -84 17 -134q-20 -10 -48 -10q-5 46 -33 71.5t-97 25.5h-67v-164q39 6 72 6q96 0 148 -54.5z" />
    <glyph glyph-name="uni0496" unicode="&#x496;" horiz-adv-x="1012" 
d="M988 7q-11 -61 -11 -172q-12 -4 -31 -4q-18 0 -33 4q1 86 -10 165q-41 -2 -81 -9q-23 19 -41 49.5t-45 87.5q-30 65 -54.5 105t-61.5 68.5t-87 28.5v-203q0 -49 14 -67t52 -20q5 -14 5 -43q-57 3 -118 3q-70 0 -118 -3q0 29 5 43q38 2 52 20t14 67v203q-50 0 -87 -28.5
t-61.5 -68.5t-54.5 -105q-27 -57 -45 -87.5t-41 -49.5q-34 6 -58 7.5t-65 1.5q-5 18 -5 43q35 3 52 14t36 42t65 121q28 55 50 84.5t45 43.5t56 18q-15 10 -32 34t-56 92q-34 60 -52 81.5t-40 21.5q-17 0 -27.5 -16t-19.5 -58q-9 0 -23.5 2.5t-24.5 6.5q6 53 6 103
q0 29 -1 43q22 6 58 6t58 -13.5t42 -43.5t67 -112q33 -57 53.5 -84.5t44.5 -40t60 -12.5v173q0 49 -14 67t-52 20q-5 14 -5 43q53 -3 118 -3q61 0 118 3q0 -29 -5 -43q-38 -2 -52 -20t-14 -67v-173q36 0 60 12.5t44.5 40t53.5 84.5q47 82 67 112t42 43.5t58 13.5t58 -6
q-1 -14 -1 -43q0 -50 6 -103q-10 -4 -24.5 -6.5t-23.5 -2.5q-9 42 -19.5 58t-27.5 16q-22 0 -40 -21.5t-52 -81.5q-39 -68 -56 -92t-32 -34q33 -4 56 -18t45 -43.5t50 -84.5q46 -90 65 -121t36 -42t52 -14h23q15 -13 15 -36z" />
    <glyph glyph-name="uni0497" unicode="&#x497;" horiz-adv-x="795" 
d="M804 6q-13 -63 -13 -172q-11 -4 -29 -4q-17 0 -30 4q1 86 -12 165q-32 -2 -69 -8q-20 11 -34 34t-31 61q-20 44 -36 70.5t-42 45t-65 18.5v-93q0 -50 14 -68.5t45 -18.5q5 -15 5 -43q-43 3 -109 3q-65 0 -109 -3q0 28 5 43q31 0 45 18.5t14 68.5v93q-39 0 -65 -18.5
t-42 -45t-36 -70.5q-17 -38 -31 -61t-34 -34q-33 6 -55.5 7.5t-53.5 1.5q-6 13 -6 42q34 3 52 22t43 65t40 68t37 36t58 19q-24 14 -37.5 29.5t-31.5 47.5q-21 36 -34 51.5t-30 15.5q-11 0 -18 -10.5t-13 -42.5q-10 -1 -25.5 1t-25.5 5q6 38 6 78q0 21 -1 31q20 5 45 5
q32 0 55.5 -15t41 -39.5t43.5 -68.5q18 -30 31 -46t33.5 -25.5t53.5 -9.5v72q0 50 -14 68.5t-45 18.5q-5 15 -5 43q43 -3 109 -3q65 0 109 3q0 -28 -5 -43q-31 0 -45 -18.5t-14 -68.5v-72q33 0 53.5 9.5t33.5 25.5t31 46q26 44 43.5 68.5t41 39.5t55.5 15q25 0 45 -5
q-1 -10 -1 -31q0 -40 6 -78q-10 -3 -25.5 -5t-25.5 -1q-6 32 -13 42.5t-18 10.5q-17 0 -30 -15.5t-34 -51.5q-18 -32 -31.5 -47.5t-37.5 -29.5q36 -5 58 -19t37 -36t40 -68t43 -65t52 -22h23q15 -13 15 -36z" />
    <glyph glyph-name="uni0498" unicode="&#x498;" horiz-adv-x="570" 
d="M463 55q-52 -51 -145 -61q-11 -59 -11 -162q-11 -4 -29 -4q-17 0 -30 4q1 84 -11 160q-108 8 -169 63q9 53 9 103l-1 30q23 10 55 8q7 -81 42.5 -119t102.5 -38t101.5 36t34.5 102q0 161 -201 161q-2 14 -2 21q0 17 5 27q170 0 170 129q0 57 -30 89.5t-83 32.5
q-51 0 -87 -33t-47 -102l-15 -1q-19 0 -41 8q6 41 6 83q0 14 -2 46q95 47 196 47q100 0 153.5 -42t53.5 -114q0 -63 -40.5 -106t-109.5 -55q83 -9 130 -52.5t47 -124.5q0 -85 -52 -136z" />
    <glyph glyph-name="uni0499" unicode="&#x499;" horiz-adv-x="433" 
d="M355 38q-38 -36 -109 -45q-11 -59 -11 -161q-11 -4 -28 -4t-29 4q1 85 -11 161q-74 6 -127 33q4 44 4 67q0 14 -2 44q18 9 41 9l13 -1q8 -56 32 -81t72 -25q93 0 93 85q0 47 -33.5 69.5t-113.5 22.5q-2 6 -2 20q0 18 4 27q76 0 105.5 20.5t29.5 59.5q0 37 -22 56.5
t-64 19.5t-62 -23.5t-27 -82.5l-14 -1q-16 0 -41 7q3 27 3 56q0 30 -3 58q28 16 68 25t85 9q84 0 130.5 -30t46.5 -83q0 -43 -31 -71t-86 -35q61 -7 94 -36.5t33 -81.5q0 -56 -38 -92z" />
    <glyph glyph-name="uni049A" unicode="&#x49a;" horiz-adv-x="718" 
d="M694 8q-11 -61 -11 -172q-12 -4 -31 -4q-18 0 -33 4q1 85 -10 164q-40 -1 -82 -9q-23 18 -42 49t-46 86q-33 66 -58.5 106.5t-64.5 69t-92 28.5v-203q0 -50 14.5 -67.5t54.5 -19.5q5 -14 5 -43q-60 3 -121 3q-70 0 -121 -3q0 29 5 43q40 2 54.5 19.5t14.5 67.5v422
q0 50 -14.5 67.5t-54.5 19.5q-5 14 -5 43q55 -3 121 -3q61 0 121 3q0 -29 -5 -43q-40 -2 -54.5 -19.5t-14.5 -67.5v-173q37 0 62.5 13.5t46.5 40.5t56 84q2 3 4.5 7.5t6.5 9.5q43 70 63.5 98t42.5 40.5t58 12.5q35 0 57 -6q-2 -34 -2 -53q0 -41 5 -93q-10 -4 -24 -6.5
t-24 -2.5q-7 40 -18 57t-27 17q-17 0 -30 -11t-24 -28t-38 -62q-35 -59 -57 -86.5t-43 -40.5q49 -7 83 -38t75 -109q43 -83 65.5 -117t41.5 -45t52 -14h23q15 -13 15 -36z" />
    <glyph glyph-name="uni049B" unicode="&#x49b;" horiz-adv-x="533" 
d="M551 6q-13 -63 -13 -172q-11 -4 -29 -4q-17 0 -30 4q1 86 -12 165q-32 -2 -69 -8q-20 11 -34 34t-31 61q-20 44 -36 70.5t-42 45t-65 18.5v-93q0 -50 14 -68.5t45 -18.5q5 -15 5 -43q-43 3 -109 3q-65 0 -109 -3q0 28 5 43q31 0 45 18.5t14 68.5v204q0 50 -14 68.5
t-45 18.5q-5 15 -5 43q43 -3 109 -3t109 3q0 -28 -5 -43q-31 0 -45 -18.5t-14 -68.5v-72q33 0 53.5 9.5t33.5 25.5t31 46q26 44 43.5 68.5t41 39.5t55.5 15q25 0 45 -5q-1 -10 -1 -31q0 -40 6 -78q-10 -3 -25.5 -5t-25.5 -1q-6 32 -13 42.5t-18 10.5q-17 0 -30 -15.5
t-34 -51.5q-18 -32 -31.5 -47.5t-37.5 -29.5q36 -5 58 -19t37 -36t40 -68t43 -65t52 -22h23q15 -13 15 -36z" />
    <glyph glyph-name="uni049C" unicode="&#x49c;" horiz-adv-x="678" 
d="M538 123.5q22 -39.5 48.5 -59.5t69.5 -24q0 -24 -5 -40q-44 0 -73 -1.5t-60 -7.5q-40 37 -66 81.5t-63 139.5q-26 68 -40 92t-36 26q0 -75 2 -149q-26 -3 -48 8v141h-43v-203q0 -50 14.5 -67.5t54.5 -19.5q5 -14 5 -43q-60 3 -121 3q-70 0 -121 -3q0 29 5 43
q40 2 54.5 19.5t14.5 67.5v422q0 50 -14.5 67.5t-54.5 19.5q-5 14 -5 43q55 -3 121 -3q61 0 121 3q0 -29 -5 -43q-40 -2 -54.5 -19.5t-14.5 -67.5v-173h43v155q5 1 15 1q22 0 34 -9q-3 -54 -3 -147q16 3 32.5 27.5t59.5 102.5q46 84 67.5 117t41 46t51.5 13t51 -6
q-1 -12 -1 -36q0 -54 6 -110q-10 -4 -24 -6.5t-25 -2.5q-7 47 -17 64.5t-25 17.5q-12 0 -22.5 -10t-23 -32t-41.5 -76q-36 -67 -52.5 -89.5t-33.5 -27.5q34 -3 52 -12.5t30.5 -29.5t33.5 -67q43 -96 65 -135.5z" />
    <glyph glyph-name="uni049D" unicode="&#x49d;" horiz-adv-x="575" 
d="M550 0q-70 0 -116 -6q-31 24 -48.5 50t-50.5 91q-4 9 -16 34t-22 36.5t-21 13.5q0 -36 2 -100l-12 -1q-21 0 -35 8v93h-36v-111q0 -41 11 -53.5t45 -14.5q5 -17 5 -42q-62 2 -107 2q-53 0 -113 -2q0 24 5 42q34 2 45 14.5t11 53.5v243q0 27 -5 41t-16.5 19.5t-34.5 7.5
q-5 13 -5 41q60 -2 111 -2q43 0 109 2q0 -25 -5 -41q-34 -2 -45 -15t-11 -53v-91h36v102q31 2 48 -8q-3 -46 -3 -94q13 2 28 19t46 65l14 22q29 46 43 63.5t29 25.5t41 8q28 0 46 -5q-1 -10 -1 -34q0 -38 5 -76q-19 -7 -39 -7l-12 1q-6 29 -13 39t-19 10q-10 0 -18.5 -9
t-21 -27.5t-18.5 -27.5q-30 -42 -41.5 -54.5t-24.5 -15.5q38 -3 56 -16.5t39 -52.5q33 -62 52.5 -90.5t39 -41.5t48.5 -16q2 -22 -5 -40z" />
    <glyph glyph-name="uni049E" unicode="&#x49e;" horiz-adv-x="678" 
d="M562.5 103q22.5 -34 41.5 -45t52 -14q0 -26 -5 -44q-42 0 -65.5 -1.5t-58.5 -7.5q-23 18 -42 49t-46 86q-33 66 -58.5 106.5t-64.5 69t-92 28.5v-203q0 -50 14.5 -67.5t54.5 -19.5q5 -14 5 -43q-60 3 -121 3q-70 0 -121 -3q0 29 5 43q40 2 54.5 19.5t14.5 67.5v363
q-65 0 -118 -2q0 12 3 28.5t7 22.5h108v10q0 50 -14.5 67.5t-54.5 19.5q-5 14 -5 43q55 -3 121 -3q61 0 121 3q0 -29 -5 -43q-40 -2 -54.5 -19.5t-14.5 -67.5v-10h117q0 -17 -2 -28.5t-8 -21.5q-41 1 -107 1v-114q37 0 62.5 13.5t46.5 40.5t56 84q2 3 4.5 7.5t6.5 9.5
q43 70 63.5 98t42.5 40.5t58 12.5q35 0 57 -6q-2 -34 -2 -53q0 -41 5 -93q-10 -4 -24 -6.5t-24 -2.5q-7 40 -18 57t-27 17q-17 0 -30 -11t-24 -28t-38 -62q-35 -59 -57 -86.5t-43 -40.5q49 -7 83 -38t75 -109q43 -83 65.5 -117z" />
    <glyph glyph-name="uni049F" unicode="&#x49f;" horiz-adv-x="559" 
d="M426 135q30 -47 52 -68t61 -25q0 -29 -6 -42q-56 0 -104 -9q-22 11 -39.5 34.5t-42.5 65.5q-24 42 -42.5 67.5t-44.5 43.5t-60 18v-93q0 -50 13 -68.5t46 -18.5q5 -17 5 -43q-52 3 -113 3q-65 0 -115 -3q0 27 5 43q40 0 54.5 18.5t14.5 68.5v388q-34 -1 -82 -1
q0 23 10 43h72v18q0 26 -5 41t-21 22.5t-49 7.5q0 23 9 37q25 0 71 11t63 23q22 -7 22 -40v-120h164q0 -19 -9 -42h-155v-256q34 0 55 17t59 67l16 21q32 43 48 62t34 28t44 9t46 -5q-1 -10 -1 -31q0 -40 6 -78q-10 -3 -25.5 -5t-27.5 -1q-4 32 -10.5 42.5t-18.5 10.5
q-15 0 -28 -12.5t-48 -56.5q-32 -40 -47.5 -54t-30.5 -18q50 -4 74 -19t53 -58q10 -13 28 -43z" />
    <glyph glyph-name="uni04A0" unicode="&#x4a0;" horiz-adv-x="784" 
d="M671.5 102q21.5 -34 39.5 -44.5t51 -13.5q0 -26 -5 -44q-42 0 -65.5 -1.5t-58.5 -7.5q-24 19 -43.5 52t-44.5 89q-30 64 -53 103.5t-58.5 67t-83.5 27.5v-203q0 -50 13.5 -67.5t52.5 -19.5q4 -15 4 -43q-37 3 -133 3q-78 0 -123 -3q0 29 5 43q33 2 51 10.5t26.5 31
t8.5 65.5v489h-39q-47 0 -73.5 -10.5t-42.5 -37.5t-29 -79q-31 0 -46 12q10 41 20 158q84 -3 211 -3q101 0 164 3q0 -29 -5 -43q-38 -2 -51.5 -19.5t-13.5 -67.5v-173q33 0 55 13t41 39.5t52 84.5q46 80 67 110.5t44.5 44.5t60.5 14q35 0 57 -6q-2 -34 -2 -53q0 -41 5 -93
q-10 -4 -24 -6.5t-24 -2.5q-7 40 -18 57t-27 17t-28.5 -11t-27.5 -35.5t-31 -54.5q-35 -62 -55 -89t-41 -39q50 -7 81.5 -37.5t71.5 -108.5q43 -84 64.5 -118z" />
    <glyph glyph-name="uni04A1" unicode="&#x4a1;" horiz-adv-x="616" 
d="M544 64q18 -19 52 -22q0 -29 -6 -42q-31 0 -53.5 -1.5t-55.5 -7.5q-20 11 -34.5 35t-31.5 65q-19 43 -33 68t-38 43t-58 18v-93q0 -50 12.5 -68.5t41.5 -18.5q5 -15 5 -43q-40 3 -105 3q-66 0 -121 -3q0 27 5 39q40 2 55 17.5t15 58.5v302h-26q-57 0 -78 -25t-25 -72
q-31 0 -50 12q6 25 10 63t6 68q50 -2 164 -2q90 0 150 3q0 -28 -5 -43q-29 0 -41.5 -18.5t-12.5 -68.5v-72q27 0 44.5 9.5t30 25.5t30.5 46q26 44 43.5 68.5t41 39.5t55.5 15q25 0 45 -5q-1 -10 -1 -31q0 -40 6 -78q-10 -3 -25.5 -5t-25.5 -1q-6 32 -13 42.5t-18 10.5
q-17 0 -30 -15.5t-34 -51.5q-18 -32 -31.5 -47.5t-37.5 -29.5q36 -5 58 -19t37 -36t40 -68t43 -65z" />
    <glyph glyph-name="uni04A2" unicode="&#x4a2;" horiz-adv-x="800" 
d="M751 4q-14 -61 -14 -172q-12 -4 -31 -4q-20 0 -33 4q1 85 -14 167q-28 1 -83 1q-70 0 -121 -3q0 29 5 43q40 2 54.5 19.5t14.5 67.5v198q-229 0 -305 -6v-192q0 -50 14.5 -67.5t54.5 -19.5q5 -14 5 -43q-60 3 -121 3q-70 0 -121 -3q0 29 5 43q40 2 54.5 19.5t14.5 67.5
v422q0 50 -14.5 67.5t-54.5 19.5q-5 14 -5 43q55 -3 121 -3q61 0 121 3q0 -29 -5 -43q-40 -2 -54.5 -19.5t-14.5 -67.5v-181h305v181q0 50 -14.5 67.5t-54.5 19.5q-5 14 -5 43q55 -3 121 -3q61 0 121 3q0 -29 -5 -43q-40 -2 -54.5 -19.5t-14.5 -67.5v-422q0 -50 14.5 -67.5
t54.5 -19.5h44q15 -13 15 -36z" />
    <glyph glyph-name="uni04A3" unicode="&#x4a3;" horiz-adv-x="647" 
d="M628 4q-13 -63 -13 -172q-12 -4 -30 -4t-31 4q1 86 -12 167q-25 1 -83 1q-69 0 -114 -3q0 28 5 43q34 0 49 18.5t15 68.5v85q-148 0 -219 -5v-80q0 -50 15 -68.5t49 -18.5q5 -15 5 -43q-45 3 -114 3t-114 -3q0 28 5 43q34 0 49 18.5t15 68.5v204q0 50 -15 68.5t-49 18.5
q-5 15 -5 43q45 -3 114 -3t114 3q0 -28 -5 -43q-34 0 -49 -18.5t-15 -68.5v-77h219v77q0 50 -15 68.5t-49 18.5q-5 15 -5 43q45 -3 114 -3t114 3q0 -28 -5 -43q-34 0 -49 -18.5t-15 -68.5v-204q0 -50 15 -68.5t49 -18.5h45q15 -13 15 -36z" />
    <glyph glyph-name="uni04A4" unicode="&#x4a4;" horiz-adv-x="853" 
d="M827 521q-15 -12 -45 -12q-5 56 -38.5 91.5t-117.5 35.5h-53v-489q0 -43 9 -65.5t27.5 -31t52.5 -10.5q5 -14 5 -43q-46 3 -126 3q-97 0 -136 -3q0 29 5 43q40 2 54.5 19.5t14.5 67.5v198q-191 0 -255 -6v-192q0 -50 14.5 -67.5t54.5 -19.5q5 -14 5 -43q-60 3 -121 3
q-70 0 -121 -3q0 29 5 43q40 2 54.5 19.5t14.5 67.5v422q0 50 -14.5 67.5t-54.5 19.5q-5 14 -5 43q55 -3 121 -3q61 0 121 3q0 -29 -5 -43q-40 -2 -54.5 -19.5t-14.5 -67.5v-181h255v181q0 50 -14.5 67.5t-54.5 19.5q-5 14 -5 43q66 -3 167 -3q147 0 234 3q10 -110 21 -158z
" />
    <glyph glyph-name="uni04A5" unicode="&#x4a5;" horiz-adv-x="711" 
d="M696 342q-19 -12 -50 -12q-5 41 -27.5 63t-84.5 22h-45v-303q0 -43 16.5 -58.5t57.5 -17.5q5 -12 5 -39q-58 3 -124 3q-65 0 -109 -3q0 28 5 43q31 0 45 18.5t14 68.5v85q-141 0 -209 -5v-80q0 -50 14 -68.5t45 -18.5q5 -15 5 -43q-43 3 -109 3q-65 0 -109 -3q0 28 5 43
q31 0 45 18.5t14 68.5v204q0 50 -14 68.5t-45 18.5q-5 15 -5 43q43 -3 109 -3t109 3q0 -28 -5 -43q-31 0 -45 -18.5t-14 -68.5v-77h209v77q0 50 -14 68.5t-45 18.5q-5 15 -5 43q64 -3 153 -3q137 0 191 2q8 -82 17 -118z" />
    <glyph glyph-name="uni04A8" unicode="&#x4a8;" horiz-adv-x="840" 
d="M630 0q-58 0 -111 18q-69 -27 -152 -27q-103 0 -178 43t-114.5 121.5t-39.5 182.5q0 97 34 171t96 118t143 55q12 -13 12 -43q-84 -13 -133 -87t-49 -194q0 -94 30.5 -166.5t87 -113t132.5 -40.5q35 0 68 9q-75 45 -119 125t-44 184q0 84 29 147.5t81 98.5t120 35
q66 0 117 -33.5t78.5 -95.5t27.5 -144q0 -99 -40.5 -178.5t-112.5 -129.5q24 -6 49 -6q74 0 144 56q19 -11 29 -34q-73 -72 -185 -72zM433 199.5q37 -76.5 98 -115.5q53 39 82.5 108.5t29.5 162.5q0 69 -16.5 123t-46 84.5t-67.5 30.5q-53 0 -85 -59.5t-32 -154.5
q0 -103 37 -179.5z" />
    <glyph glyph-name="uni04A9" unicode="&#x4a9;" horiz-adv-x="706" 
d="M512 -3q-46 0 -87 12q-55 -18 -118 -18q-81 0 -141 30t-93 84t-33 126q0 94 53.5 157.5t138.5 76.5q16 -13 18 -40q-47 -11 -75.5 -60.5t-28.5 -119.5q0 -92 50 -150t139 -58q15 0 23 1q-54 33 -85.5 86t-31.5 121q0 89 52.5 142t139.5 53q84 0 133.5 -49.5t49.5 -134.5
q0 -68 -32 -123.5t-89 -90.5q7 -1 20 -1q65 0 123 42q18 -11 28 -32q-62 -54 -154 -54zM367.5 137q23.5 -50 64.5 -74q38 24 58 70t20 114q0 73 -23 112.5t-63 39.5q-38 0 -59 -36.5t-21 -103.5q0 -72 23.5 -122z" />
    <glyph glyph-name="uni04AA" unicode="&#x4aa;" horiz-adv-x="653" 
d="M503 20q-48 -21 -105 -27q-11 -59 -11 -161q-11 -4 -29 -4q-17 0 -30 4q1 85 -11 161q-83 8 -147 54.5t-99.5 123t-35.5 172.5q0 110 46.5 187t123 116t164.5 39q61 0 113 -12.5t109 -39.5q-11 -52 -11 -155q-22 -9 -53 -9q-4 100 -41 137.5t-109 37.5q-81 0 -134 -38
t-78 -100t-25 -136q0 -90 30.5 -162.5t88.5 -114t136 -41.5q47 0 97 16t93 43q6 -5 11.5 -14.5t6.5 -16.5q-52 -39 -100 -60z" />
    <glyph glyph-name="uni04AB" unicode="&#x4ab;" horiz-adv-x="447" 
d="M300 -4q-12 -65 -12 -164q-11 -4 -28 -4t-29 4q1 85 -11 161q-48 7 -89 35.5t-66 79.5t-25 119q0 62 24.5 117t71.5 89t112 34q94 0 151 -45q-7 -45 -7 -114q-15 -8 -46 -8q-6 57 -34 88.5t-72 31.5q-50 0 -78.5 -46.5t-28.5 -131.5q0 -51 17 -95.5t49 -71.5t77 -27
q32 0 60.5 15t50.5 43q8 -4 15 -11.5t10 -16.5q-42 -66 -112 -82z" />
    <glyph glyph-name="uni04AC" unicode="&#x4ac;" horiz-adv-x="585" 
d="M552 643q0 -40 7 -124q-21 -10 -50 -9q-2 60 -29 91t-84 31h-53v-505q0 -35 6 -52.5t22.5 -25t49.5 -9.5h23q15 -13 15 -36q-11 -61 -11 -172q-12 -4 -31 -4q-18 0 -33 4q1 88 -10 167q-27 1 -79 1q-75 0 -131 -3q0 29 5 43q33 2 50 9.5t23.5 25.5t6.5 52v505h-51
q-46 0 -71 -14.5t-35.5 -39t-18.5 -68.5q-33 0 -48 9q16 90 16 160q56 -3 255 -3q202 0 257 3z" />
    <glyph glyph-name="uni04AD" unicode="&#x4ad;" horiz-adv-x="506" 
d="M491 334q-20 -12 -50 -12q-4 50 -23.5 71.5t-64.5 21.5h-55v-310q0 -27 5 -40t19 -18.5t42 -6.5h23q15 -13 15 -36q-13 -63 -13 -172q-11 -4 -29 -4q-17 0 -30 4q1 86 -12 167q-21 1 -63 1q-74 0 -119 -3q0 28 5 43q41 2 54 14t13 51v310h-47q-36 0 -54.5 -9.5t-27 -28
t-15.5 -55.5q-15 0 -25.5 2.5t-23.5 9.5q14 75 14 126q52 -2 227 -2q126 0 228 2q-2 -42 7 -126z" />
    <glyph glyph-name="uni04AE" unicode="&#x4ae;" horiz-adv-x="630" 
d="M605 678q0 -20 -4 -39q-28 -8 -52 -33t-49 -75l-135 -271v-97q0 -55 5 -78t20 -31.5t52 -13.5q6 -18 6 -43l-47 1q-56 2 -80 2q-80 0 -136 -2q0 24 6 42q38 3 53.5 11t21 29t5.5 70v109l-166 319q-16 32 -31.5 45t-42.5 14q-6 18 -6 41q56 -2 104 -2q103 0 134 2
q0 -21 -5 -39q-46 -4 -46 -30q0 -17 18 -52q60 -115 117 -243q55 121 108 228q21 42 21 61q0 15 -11.5 22.5t-36.5 11.5q-7 25 -7 41q24 -2 98 -2q40 0 86 2z" />
    <glyph glyph-name="uni04AF" unicode="&#x4af;" horiz-adv-x="528" 
d="M513 461q0 -25 -9 -43q-24 -5 -39 -26.5t-41 -82.5l-110 -261v-163q0 -50 14.5 -68.5t54.5 -18.5q5 -18 5 -43q-68 3 -123 3q-65 0 -115 -3q0 27 5 43q40 0 54.5 18.5t14.5 68.5v162q-38 86 -78 172.5t-63 135.5q-19 39 -30 50t-32 13q-3 11 -4.5 21t-1.5 22
q42 -3 105 -3q75 0 123 3q0 -20 -7 -41q-34 -2 -48 -8t-14 -20q0 -15 13 -41q19 -43 51.5 -117.5t56.5 -133.5l46 120q13 36 30 80q18 47 18 73q0 22 -12.5 33t-38.5 13q-11 20 -11 42q39 -3 93 -3q57 0 93 3z" />
    <glyph glyph-name="uni04B0" unicode="&#x4b0;" horiz-adv-x="630" 
d="M605 678q0 -20 -4 -39q-28 -8 -52 -33t-49 -75l-135 -270h136q0 -33 -11 -50q-48 1 -125 1v-49q0 -55 5 -78t20 -31.5t52 -13.5q6 -18 6 -43l-47 1q-56 2 -80 2q-80 0 -136 -2q0 24 6 42q38 3 53.5 11t21 29t5.5 70v62q-75 0 -136 -2q0 12 3.5 28.5t7.5 22.5h124
l-165 317q-16 32 -31.5 45t-42.5 14q-6 18 -6 41q56 -2 104 -2q103 0 134 2q0 -21 -5 -39q-46 -4 -46 -30q0 -17 18 -52q60 -115 117 -243q55 121 108 228q21 42 21 61q0 15 -11.5 22.5t-36.5 11.5q-7 25 -7 41q24 -2 98 -2q40 0 86 2z" />
    <glyph glyph-name="uni04B1" unicode="&#x4b1;" horiz-adv-x="528" 
d="M513 461q0 -25 -9 -43q-24 -5 -39 -26.5t-41 -82.5l-110 -261v-1h123q0 -19 -9 -42h-114v-120q0 -50 14.5 -68.5t54.5 -18.5q5 -18 5 -43q-68 3 -123 3q-65 0 -115 -3q0 27 5 43q40 0 54.5 18.5t14.5 68.5v120l-123 -1q0 23 10 43h113q-38 86 -78 172.5t-63 135.5
q-19 39 -30 50t-32 13q-3 11 -4.5 21t-1.5 22q42 -3 105 -3q75 0 123 3q0 -20 -7 -41q-34 -2 -48 -8t-14 -20q0 -15 13 -41q19 -43 51.5 -117.5t56.5 -133.5l46 120q13 36 30 80q18 47 18 73q0 22 -12.5 33t-38.5 13q-11 20 -11 42q39 -3 93 -3q57 0 93 3z" />
    <glyph glyph-name="uni04B2" unicode="&#x4b2;" horiz-adv-x="707" 
d="M659 4q-11 -61 -11 -172q-12 -4 -31 -4q-18 0 -33 4q1 88 -10 167q-23 1 -69 1q-61 0 -121 -2q0 23 4 42q24 3 35.5 8.5t11.5 20.5q0 24 -31 75q-34 58 -52 87l-32 53l-88 -129q-36 -53 -36 -77q0 -29 53 -38q5 -17 5 -43q-51 3 -110 3q-63 0 -104 -3q0 28 6 45
q55 14 119 102l128 183q-80 126 -122 189q-37 57 -53.5 79t-27 29.5t-28.5 10.5q-6 19 -6 44q53 -3 122 -3q59 0 121 2q0 -22 -4 -42q-25 -5 -36.5 -13t-11.5 -22q0 -24 32 -72q28 -42 82 -126l73 115q36 59 36 83q0 15 -12.5 23.5t-38.5 11.5q-5 19 -5 43q50 -3 102 -3
q62 0 99 3q0 -28 -4 -43q-26 -7 -49.5 -29t-65.5 -86l-107 -163q63 -101 123 -201q41 -68 62.5 -90.5t46.5 -26.5h23q15 -13 15 -36z" />
    <glyph glyph-name="uni04B3" unicode="&#x4b3;" horiz-adv-x="521" 
d="M525 4q-13 -63 -13 -172q-11 -4 -29 -4q-17 0 -30 4q2 91 -13 168h-53q-76 0 -115 -2q0 30 4 42q22 1 33 6t11 16q0 13 -18 40l-57 85l-42 -61q-26 -39 -26 -60q0 -26 35 -26q6 -15 6 -42q-37 2 -105 2q-42 0 -83 -2q0 29 6 42q28 2 52 20t60 69l70 97q-38 55 -76 105
q-31 41 -45.5 58t-25.5 23t-27 8q-7 15 -7 40q58 -2 105 -2q81 0 115 2q0 -12 -5 -40q-21 -1 -31.5 -5.5t-10.5 -15.5q0 -15 27 -53q13 -16 45 -61l40 61q24 36 24 53q0 10 -8.5 15t-26.5 6q-6 14 -6 40q50 -2 89 -2q42 0 84 2q0 -18 -6 -40q-24 -2 -40.5 -14.5t-46.5 -54.5
l-74 -104l90 -125q33 -48 50 -64.5t36 -17.5h23q15 -13 15 -36z" />
    <glyph glyph-name="uni04B4" unicode="&#x4b4;" horiz-adv-x="931" 
d="M882 4q-14 -61 -14 -172q-12 -4 -31 -4q-20 0 -33 4q1 85 -14 166q-74 2 -246 2h-108q-201 0 -261 -3q0 29 5 43q40 2 54.5 19.5t14.5 67.5v505h-51q-46 0 -71 -14.5t-35.5 -39t-18.5 -68.5q-33 0 -48 9q16 90 16 160q56 -3 255 -3q178 0 227 3l-1 -36q0 -40 7 -124
q-21 -10 -50 -9q-2 60 -29 91t-84 31h-23v-505q0 -30 5.5 -49t19.5 -27q13 -8 39.5 -10t92.5 -2t92.5 2t39.5 10q14 8 19.5 27t5.5 49v422q0 50 -14.5 67.5t-54.5 19.5q-5 14 -5 43q60 -3 121 -3q70 0 121 3q0 -29 -5 -43q-40 -2 -54.5 -19.5t-14.5 -67.5v-422
q0 -52 14.5 -69.5t54.5 -17.5h47q15 -13 15 -36z" />
    </font>
</defs>
</svg>
