<svg width="32" height="26" viewBox="0 0 32 26" fill="none" xmlns="http://www.w3.org/2000/svg">
<path d="M19 19L31 19" stroke="black" stroke-linecap="round" stroke-linejoin="round"/>
<rect width="12" height="12" transform="matrix(-1 0 0 1 31 13)" stroke="black" stroke-linecap="round" stroke-linejoin="round"/>
<path d="M16 5L12 9" stroke="black" stroke-linecap="round" stroke-linejoin="round"/>
<path d="M16 8L12 12" stroke="black" stroke-linecap="round" stroke-linejoin="round"/>
<rect width="10" height="15" transform="matrix(-1 0 0 1 19 1)" stroke="black" stroke-linecap="round" stroke-linejoin="round"/>
<rect width="10" height="9" transform="matrix(-1 0 0 1 19 16)" stroke="black" stroke-linecap="round" stroke-linejoin="round"/>
<rect width="8" height="24" transform="matrix(-1 0 0 1 9 1)" stroke="black" stroke-linecap="round" stroke-linejoin="round"/>
<path d="M27 22L23 22" stroke="black" stroke-linecap="round" stroke-linejoin="round"/>
<path d="M27 16L23 16" stroke="black" stroke-linecap="round" stroke-linejoin="round"/>
<path d="M15 19L13 19" stroke="black" stroke-linecap="round" stroke-linejoin="round"/>
<path d="M4 4L6 4" stroke="black" stroke-linecap="round" stroke-linejoin="round"/>
<path d="M5 4L5 6" stroke="black" stroke-linecap="round" stroke-linejoin="round"/>
</svg>