<svg width="32" height="20" viewBox="0 0 32 20" fill="none" xmlns="http://www.w3.org/2000/svg">
<path d="M1 11H20" stroke="black" stroke-linecap="round" stroke-linejoin="round"/>
<path d="M1 6H20" stroke="black" stroke-linecap="round" stroke-linejoin="round"/>
<rect width="19" height="15" transform="matrix(-1 0 0 1 20 1)" stroke="black" stroke-linecap="round" stroke-linejoin="round"/>
<path d="M12 13L9 13" stroke="black" stroke-linecap="round" stroke-linejoin="round"/>
<path d="M12 8L9 8" stroke="black" stroke-linecap="round" stroke-linejoin="round"/>
<path d="M12 3L9 3" stroke="black" stroke-linecap="round" stroke-linejoin="round"/>
<rect width="8" height="10" transform="matrix(-1 0 0 1 31 6)" stroke="black" stroke-linecap="round" stroke-linejoin="round"/>
<path d="M28 8L26 8" stroke="black" stroke-linecap="round" stroke-linejoin="round"/>
<path d="M28 13L26 13" stroke="black" stroke-linecap="round" stroke-linejoin="round"/>
<path d="M31 11L23 11" stroke="black" stroke-linecap="round" stroke-linejoin="round"/>
<rect width="6" height="3" transform="matrix(-1 0 0 1 20 16)" stroke="black" stroke-linecap="round" stroke-linejoin="round"/>
<rect width="8" height="3" transform="matrix(-1 0 0 1 31 16)" stroke="black" stroke-linecap="round" stroke-linejoin="round"/>
<rect width="6" height="3" transform="matrix(-1 0 0 1 7 16)" stroke="black" stroke-linecap="round" stroke-linejoin="round"/>
</svg>