<svg width="32" height="22" viewBox="0 0 32 22" fill="none" xmlns="http://www.w3.org/2000/svg">
<rect x="1" y="13" width="30" height="4" stroke="black" stroke-linecap="round" stroke-linejoin="round"/>
<path d="M31 13V11C31 9.89543 30.1046 9 29 9H3C1.89543 9 1 9.89543 1 11V13" stroke="black" stroke-linecap="round" stroke-linejoin="round"/>
<path d="M29 9V3C29 1.89543 28.1046 1 27 1H5C3.89543 1 3 1.89543 3 3V9" stroke="black" stroke-linecap="round" stroke-linejoin="round"/>
<path d="M15 9V7C15 5.89543 14.1046 5 13 5H7C5.89543 5 5 5.89543 5 7V9" stroke="black" stroke-linecap="round" stroke-linejoin="round"/>
<path d="M27 9V7C27 5.89543 26.1046 5 25 5H19C17.8954 5 17 5.89543 17 7V9" stroke="black" stroke-linecap="round" stroke-linejoin="round"/>
<rect x="1" y="17" width="3" height="4" stroke="black" stroke-linecap="round" stroke-linejoin="round"/>
<rect x="28" y="17" width="3" height="4" stroke="black" stroke-linecap="round" stroke-linejoin="round"/>
</svg>