<svg version="1.1" id="Layer_1" xmlns="http://www.w3.org/2000/svg" xmlns:xlink="http://www.w3.org/1999/xlink" x="0px" y="0px"
	 width="512px" height="512px" viewBox="0 0 512 512" enable-background="new 0 0 512 512" xml:space="preserve">
<path fill="#E00000" d="M456.828,0H338.356c-26.008,0-60.789,14.406-79.176,32.797L16.11,275.863C5.719,286.25,0,300.102,0,314.871
	s5.723,28.621,16.109,39.008l142.008,142.012C168.504,506.277,182.356,512,197.125,512c14.766,0,28.621-5.723,39.012-16.109
	l243.066-243.07C497.594,234.434,512,199.652,512,173.645V55.164C511.996,24.746,487.246,0,456.828,0z M482,173.645
	c0,18.09-11.219,45.176-24.008,57.965l-243.07,243.066c-4.723,4.723-11.043,7.324-17.797,7.324s-13.07-2.602-17.793-7.32
	L37.324,332.664C32.602,327.941,30,321.621,30,314.871c0-6.754,2.598-13.074,7.32-17.793l243.07-243.07
	C293.18,41.219,320.266,30,338.356,30h118.473c13.879,0,25.168,11.289,25.172,25.164V173.645z"/>
<path fill="#E00000" d="M139.309,331.492c-5.453-5.449-4.09-13.402,4.086-21.586c9.547-9.543,16.477-7.84,20-11.359
	c4.09-4.09,0.68-11.137-1.934-13.746c-7.5-7.5-23.973,5.793-30.676,12.496c-13.066,13.066-21.813,33.402-4.887,50.332
	c26.926,26.926,58.172-14.77,75.215,2.273c6.816,6.816,3.977,15.789-2.84,22.609c-11.59,11.586-23.406,5.906-28.063,10.563
	c-3.523,3.523-1.703,11.25,1.477,14.434c6.59,6.59,25.449,2.727,40.332-12.16c15.68-15.676,18.633-35.449,2.387-51.695
	C184.981,304.23,153.395,345.586,139.309,331.492z"/>
<path fill="#E00000" d="M298.137,282.645l-93.395-49.535c-4.43-2.387-10.227,0.227-14.543,4.547
	c-4.203,4.199-6.816,9.996-4.43,14.43l49.535,93.391c0.34,0.566,0.684,1.133,0.91,1.363c3.637,3.633,11.477,0.793,15.449-3.184
	c2.5-2.496,3.641-5.227,2.047-7.953l-10.793-19.426l26.02-26.02l19.426,10.797c2.73,1.586,5.453,0.453,7.953-2.047
	c3.977-3.977,6.703-11.934,3.18-15.453C299.16,283.215,298.703,282.984,298.137,282.645z M234.399,301.621l-24.996-44.77l44.766,25
	L234.399,301.621z"/>
<path fill="#E00000" d="M343.008,226.41l-27.723,27.723l-65.555-65.559c-3.184-3.18-8.293-0.793-11.93,2.84
	c-3.746,3.75-6.023,8.75-2.84,11.934l73.848,73.852c3.07,3.066,7.84,1.477,11.137-1.82l36.016-36.016
	c2.953-2.953,1.137-7.727-2.047-10.906C350.621,225.16,345.965,223.453,343.008,226.41z"/>
<path fill="#E00000" d="M402.426,166.992l-32.152,32.152l-22.836-22.836l17.27-17.27c3.18-3.18,1.59-7.727-1.023-10.34
	c-3.066-3.066-7.613-4.199-10.566-1.246l-17.27,17.266l-22.723-22.723l32.152-32.148c2.953-2.957,1.59-7.727-1.93-11.25
	c-3.07-3.066-7.84-4.887-11.023-1.707l-40.445,40.449c-3.293,3.293-4.887,8.066-1.816,11.133l73.738,73.734
	c3.066,3.07,7.836,1.48,11.133-1.816l40.445-40.445c3.184-3.18,1.363-7.953-1.703-11.02
	C410.153,165.402,405.379,164.039,402.426,166.992z"/>
<path fill="#E00000" d="M417.469,80.398c-3.949,0-7.82,1.602-10.609,4.391s-4.391,6.66-4.391,10.609
	c0,3.953,1.602,7.813,4.391,10.602c2.789,2.801,6.66,4.398,10.609,4.398s7.809-1.598,10.602-4.398
	c2.797-2.789,4.398-6.66,4.398-10.602c0-3.949-1.602-7.82-4.398-10.609C425.278,82,421.418,80.398,417.469,80.398z"/>
</svg>