<svg width="57" height="63" viewBox="0 0 57 63" fill="none" xmlns="http://www.w3.org/2000/svg">
<path d="M11.4016 42.3648L17.1343 30.6321L4.37368 19.3547C-5.08623 33.9083 1.66 54.4072 17.4151 60.7422L15.7887 48.1125L11.4016 42.3648Z" fill="white"/>
<path d="M30.9488 34.9686L35.6154 27.1418C30.8426 21.9623 26.3941 14.8706 26.6299 10.6239C26.6298 9.01927 26.8725 7.47341 27.3401 6.02271C19.1166 6.35672 11.7915 10.1767 6.80176 16.0431L22.1759 29.6285L16.1841 41.8902L19.7042 46.5036L21.7219 62.1709C31.4073 64.6892 42.4658 61.3019 48.9909 54.3086L39.5063 51.4729L30.9488 34.9686Z" fill="white"/>
<path d="M53.1517 20.1699C52.2083 21.63 51.0795 23.1651 49.768 24.7725C45.0266 30.3878 43.8898 31.1438 41.6808 33.2564C40.3221 31.9858 40.3555 32.082 38.5261 30.2448L35.6277 35.1078L42.3393 48.0511L51.8239 50.8868C58.1179 42.4134 58.7232 29.221 53.1517 20.1699Z" fill="white"/>
<path d="M41.6808 13.2525C42.9144 13.2623 43.978 12.2308 43.9711 10.9621C43.8448 7.92382 39.5157 7.92436 39.3904 10.9621C39.3835 12.1956 40.4062 13.2572 41.6808 13.2525Z" fill="white"/>
<path d="M41.6809 27.6163C45.3765 23.8796 52.4776 16.0422 52.6419 10.624C52.6419 3.97508 47.0687 0.00101567 41.6809 0.00101567C36.0318 -0.073285 30.579 4.49409 30.72 10.6241C30.456 14.9134 37.6453 23.7641 41.6809 27.6163ZM35.4628 9.53195C37.3218 2.22622 47.8566 3.35 48.0612 10.9622C48.0617 14.4794 45.1995 17.3424 41.6809 17.3425C37.6412 17.395 34.5124 13.4485 35.4628 9.53195Z" fill="white"/>
</svg>
