<svg version="1.1" xmlns="http://www.w3.org/2000/svg" xmlns:xlink="http://www.w3.org/1999/xlink" x="0px" y="0px"
	 viewBox="0 0 512 512" style="enable-background:new 0 0 512 512;" xml:space="preserve" fill="#fff">
<g>
	<g>
		<path d="M376.5,187.043l-38.758-12.597l8.243-13.918c24.355-41.123,17.762-93.447-16.034-127.243
			c-40.775-40.774-107.125-40.775-147.9,0c-33.795,33.795-40.389,86.119-16.034,127.243l8.243,13.918l-38.76,12.597L0,143.006
			v322.251l135.5,44.038L256,470.132l120.5,39.163L512,465.257V143.006L376.5,187.043z M120.5,472.876L30,443.462V184.301
			l90.5,29.413V472.876z M241,443.462l-90.5,29.413V213.713l39.425-12.813L241,287.138V443.462z M191.828,145.242
			c-17.368-29.327-12.666-66.641,11.435-90.742c14.54-14.54,33.639-21.809,52.737-21.809c19.098,0,38.197,7.27,52.737,21.809
			c24.101,24.102,28.803,61.416,11.435,90.742L256,253.594L191.828,145.242z M361.5,472.875L271,443.462V287.138l51.075-86.238
			l39.425,12.813V472.875z M482,443.462l-90.5,29.413V213.713L482,184.3V443.462z"/>
	</g>
</g>
<g>
	<g>
		<path d="M256,62.656c-24.583,0-44.583,20-44.583,44.583s20,44.583,44.583,44.583s44.583-20,44.583-44.583
			S280.583,62.656,256,62.656z M256,121.821c-8.041,0-14.583-6.542-14.583-14.583c0-8.041,6.542-14.583,14.583-14.583
			s14.583,6.542,14.583,14.583C270.583,115.28,264.041,121.821,256,121.821z"/>
	</g>
</g>
<g>
</g>
<g>
</g>
<g>
</g>
<g>
</g>
<g>
</g>
<g>
</g>
<g>
</g>
<g>
</g>
<g>
</g>
<g>
</g>
<g>
</g>
<g>
</g>
<g>
</g>
<g>
</g>
<g>
</g>
</svg>