<svg enable-background="new 0 0 512 512" height="512" viewBox="0 0 512 512" width="512" xmlns="http://www.w3.org/2000/svg" fill="#fff"><g><path d="m409.726 64h-61.476v-64h-246.25v64h-51.107v448h358.833c28.332 0 51.382-23.049 51.382-51.381v-345.238c-.001-28.332-23.05-51.381-51.382-51.381zm-277.726-34h186.25v34h-186.25zm-51.107 452v-388h267.083c11.79 0 21.382 9.592 21.382 21.381v345.237c0 11.79-9.592 21.381-21.382 21.381h-267.083zm350.214-21.381c0 11.79-9.592 21.381-21.382 21.381h-15.047c2.995-6.515 4.678-13.753 4.678-21.381v-345.238c0-7.628-1.683-14.866-4.678-21.381h15.047c11.79 0 21.382 9.592 21.382 21.381z"/><path d="m225.125 137.748c-63.274 0-114.752 51.478-114.752 114.752s51.478 114.752 114.752 114.752 114.752-51.478 114.752-114.752-51.478-114.752-114.752-114.752zm83.396 99.752h-34.2c-1.123-22.628-4.771-43.669-10.56-60.395 23.084 11.879 40.03 34.036 44.76 60.395zm-83.396 99.411c-5.584-4.098-16.902-27.662-19.165-69.411h38.33c-2.263 41.75-13.581 65.313-19.165 69.411zm-19.165-99.411c2.263-41.75 13.581-65.313 19.165-69.411 5.584 4.098 16.902 27.662 19.165 69.411zm-19.47-60.395c-5.789 16.726-9.438 37.767-10.56 60.395h-34.2c4.729-26.359 21.675-48.516 44.76-60.395zm-44.761 90.395h34.2c1.123 22.628 4.771 43.669 10.56 60.395-23.084-11.879-40.03-34.036-44.76-60.395zm122.031 60.395c5.789-16.726 9.438-37.767 10.56-60.395h34.2c-4.729 26.359-21.675 48.516-44.76 60.395z"/><path d="m148.25 400.5h153.75v30h-153.75z"/></g></svg>