<svg version="1.1" xmlns="http://www.w3.org/2000/svg" xmlns:xlink="http://www.w3.org/1999/xlink" x="0px" y="0px"
	 viewBox="0 0 512 512" style="enable-background:new 0 0 512 512;" xml:space="preserve" fill="#fff">
<g>
	<g>
		<path d="M391,241V60H270.834V0h-30v60H121v181H0v271h512V241H391z M121,482H30V271h91V482z M271,482h-30v-30h30V482z M224.38,422
			c5.627-11.815,17.686-20,31.62-20c13.934,0,25.993,8.185,31.62,20H224.38z M361,482h-60v-30h20v-15c0-35.841-29.159-65-65-65
			s-65,29.159-65,65v15h20v30h-60V90h210V482z M482,482h-91V271h91V482z"/>
	</g>
</g>
<g>
	<g>
		<rect x="241" y="282" width="30" height="40"/>
	</g>
</g>
<g>
	<g>
		<rect x="301" y="282" width="30" height="40"/>
	</g>
</g>
<g>
	<g>
		<rect x="181" y="282" width="30" height="40"/>
	</g>
</g>
<g>
	<g>
		<rect x="241" y="212" width="30" height="40"/>
	</g>
</g>
<g>
	<g>
		<rect x="301" y="212" width="30" height="40"/>
	</g>
</g>
<g>
	<g>
		<rect x="181" y="212" width="30" height="40"/>
	</g>
</g>
<g>
	<g>
		<rect x="241" y="142" width="30" height="40"/>
	</g>
</g>
<g>
	<g>
		<rect x="301" y="142" width="30" height="40"/>
	</g>
</g>
<g>
	<g>
		<rect x="181" y="142" width="30" height="40"/>
	</g>
</g>
<g>
</g>
<g>
</g>
<g>
</g>
<g>
</g>
<g>
</g>
<g>
</g>
<g>
</g>
<g>
</g>
<g>
</g>
<g>
</g>
<g>
</g>
<g>
</g>
<g>
</g>
<g>
</g>
<g>
</g>
</svg>