<svg width="32" height="32" viewBox="0 0 32 32" fill="none" xmlns="http://www.w3.org/2000/svg">
<g clip-path="url(#clip0_939_7)">
<path d="M15.1875 0H16.8125C16.9233 0.0192082 17.0342 0.0425923 17.1458 0.0576248C17.8775 0.155336 18.6175 0.20962 19.34 0.355769C22.6322 1.02388 25.4217 2.59505 27.7083 5.06929C29.8333 7.36843 31.2267 10.0275 31.7625 13.1217C31.8592 13.6829 31.9217 14.2508 32 14.8154V16.7537C31.9167 17.37 31.8592 17.9906 31.75 18.6019C31.0217 22.5813 29.1525 25.921 26.0117 28.4807C22.2725 31.5265 17.9558 32.5136 13.2383 31.757C6.30667 30.6496 1.37167 25.0542 0.25 18.6019C0.146667 18.0106 0.0833333 17.4118 0 16.8163V14.812C0.0183333 14.7218 0.0408332 14.6316 0.0558332 14.5398C0.198333 13.6787 0.285 12.8043 0.49 11.9592C1.785 6.62849 6.57333 1.08484 13.74 0.167863C14.22 0.109403 14.7042 0.0567894 15.1875 0ZM15.9908 29.3969C23.185 29.3752 29.3358 24.3543 29.4758 15.9369C29.5992 8.54931 23.4558 2.51043 16.0242 2.49122C8.5925 2.47201 2.42083 8.51841 2.52417 15.9219C2.64083 24.2315 8.69333 29.3576 15.9908 29.3969Z" fill="#EF672C"/>
<path d="M7.68728 19.6148C7.68728 19.021 7.68228 18.4272 7.68728 17.8335C7.69478 17.0952 8.22728 16.5565 8.93728 16.5574C9.64728 16.5582 10.1789 17.0977 10.1873 17.841C10.1939 18.9342 10.1873 20.0282 10.1873 21.1222C10.1873 21.9707 10.6964 22.4902 11.5431 22.4952C12.6264 22.5019 13.7098 22.4952 14.7931 22.4952C15.5648 22.4952 16.1173 23.0088 16.1264 23.7237C16.1356 24.4386 15.5814 24.9914 14.8239 24.9906C13.5231 24.9906 12.2164 25.039 10.9231 24.9296C9.14561 24.7801 7.72561 23.1491 7.69228 21.3619C7.68145 20.7773 7.69228 20.1927 7.69228 19.6123L7.68728 19.6148Z" fill="#EF672C"/>
<path d="M19.5409 7.7408C20.2992 7.7408 21.0742 7.64142 21.8134 7.76001C23.6042 8.0473 24.8634 9.60316 24.8742 11.4112C24.8809 12.5362 24.8867 13.6611 24.8742 14.786C24.8617 15.7381 23.9434 16.3193 23.0917 15.9252C22.5917 15.6938 22.3817 15.2721 22.38 14.7393C22.375 13.677 22.38 12.6147 22.38 11.5524C22.38 10.6788 21.88 10.1811 21.0042 10.1786C19.9209 10.1786 18.8375 10.1861 17.7542 10.1786C16.8267 10.166 16.2225 9.35345 16.5059 8.51831C16.5845 8.27896 16.7353 8.07001 16.9376 7.92039C17.1399 7.77077 17.3837 7.68787 17.635 7.68317C18.27 7.67148 18.9059 7.68317 19.5409 7.68317V7.7408Z" fill="#EF672C"/>
<path d="M20.1275 13.7631C20.1374 13.9501 20.107 14.1371 20.0384 14.3113C19.9698 14.4855 19.8646 14.6429 19.73 14.7728C18.0767 16.4325 16.4192 18.0891 14.7575 19.7427C14.6418 19.8583 14.5045 19.95 14.3534 20.0125C14.2023 20.0749 14.0405 20.107 13.877 20.1067C13.7136 20.1065 13.5518 20.074 13.4009 20.0111C13.25 19.9482 13.1129 19.8562 12.9975 19.7402C12.8821 19.6242 12.7907 19.4866 12.7283 19.3352C12.666 19.1838 12.634 19.0216 12.6343 18.8578C12.6345 18.694 12.6669 18.5318 12.7297 18.3806C12.7924 18.2294 12.8843 18.092 13 17.9764C14.6511 16.3128 16.3075 14.6553 17.9692 13.004C18.3592 12.6156 18.83 12.4904 19.3442 12.71C19.8334 12.9196 20.0959 13.3146 20.1275 13.7631Z" fill="#EF672C"/>
</g>
<defs>
<clipPath id="clip0_939_7">
<rect width="32" height="32" fill="white"/>
</clipPath>
</defs>
</svg>
