<svg width="32" height="32" viewBox="0 0 32 32" fill="none" xmlns="http://www.w3.org/2000/svg">
<g clip-path="url(#clip0_1243_2786)">
<path d="M29.8137 31.9993H2.18797C1.80026 31.8296 1.38455 31.7142 1.03078 31.4902C0.424189 31.1135 0.160344 30.4849 0 29.8121V2.19231C0.0110289 2.17534 0.0296933 2.15923 0.0322385 2.14056C0.244333 0.84339 1.33704 -0.0372269 2.72923 0.00095013C3.59288 0.0247047 4.45823 0.00095013 5.32273 0.00095013C13.3009 0.00095013 21.2793 0.00490918 29.258 0.0128274C29.7141 0.00880292 30.1658 0.10072 30.5841 0.282612C31.5817 0.746675 32.0017 1.60439 32.0017 2.68607C32.0017 6.62255 32.0017 10.5587 32.0017 14.4947C32.0017 19.4305 32.0017 24.3664 32.0017 29.3023C32.0017 29.9928 31.8269 30.6139 31.368 31.1466C30.9548 31.6268 30.4067 31.8516 29.8137 31.9993ZM16.0344 2.13377H2.78183C2.2219 2.13377 2.12943 2.2271 2.12943 2.78618V29.2183C2.12943 29.7782 2.2219 29.8707 2.78183 29.8707H29.2199C29.7798 29.8707 29.8723 29.7782 29.8723 29.2183V2.78618C29.8723 2.2271 29.7798 2.13377 29.2199 2.13377H16.0344Z" fill="#EF672C"/>
<path d="M8.7774 24.7158L10.8135 26.7519C10.8873 26.8249 10.9908 26.8868 11.0273 26.9759C11.0926 27.1371 11.197 27.3466 11.1401 27.4773C11.0833 27.6079 10.8593 27.7411 10.7075 27.742C8.71801 27.759 6.72857 27.7556 4.73912 27.7505C4.39977 27.7505 4.23942 27.5901 4.23857 27.2499C4.23857 25.2613 4.23179 23.2719 4.2496 21.2833C4.2496 21.1306 4.38704 20.8905 4.5109 20.8506C4.60255 20.8335 4.69686 20.837 4.78697 20.8609C4.87708 20.8848 4.96073 20.9286 5.03181 20.9889C5.70457 21.6252 6.35189 22.2895 7.00599 22.9469C7.09082 23.0275 7.15445 23.1166 7.24947 23.232L23.1812 7.22225L21.0687 5.11233C20.9834 5.03547 20.9061 4.9502 20.838 4.85782C20.7957 4.79771 20.7698 4.72766 20.7628 4.65453C20.7558 4.58141 20.7679 4.50772 20.7979 4.44067C20.8279 4.37362 20.8748 4.31552 20.9341 4.27205C20.9933 4.22858 21.0628 4.20123 21.1357 4.19269C21.2081 4.1842 21.281 4.18165 21.3538 4.18505C23.2711 4.18505 25.1879 4.18505 27.1041 4.18505C27.5817 4.18505 27.7276 4.32164 27.7285 4.79165C27.7285 6.70728 27.7285 8.62321 27.7285 10.5394C27.7285 10.7795 27.7022 11.0111 27.4417 11.1095C27.2025 11.1995 27.0286 11.073 26.8648 10.9068C26.2201 10.2544 25.5702 9.60874 24.9212 8.96143C24.8491 8.88931 24.7727 8.82144 24.6667 8.72558L8.7774 24.7158Z" fill="#EF672C"/>
</g>
<defs>
<clipPath id="clip0_1243_2786">
<rect width="32.0025" height="32" fill="white"/>
</clipPath>
</defs>
</svg>
