<svg width="32" height="32" viewBox="0 0 32 32" fill="none" xmlns="http://www.w3.org/2000/svg">
<g clip-path="url(#clip0_941_15)">
<path d="M15.0625 0H16.9375C17.0166 0.0228073 17.0972 0.0399347 17.1787 0.0512505C19.4225 0.203125 21.5475 0.79375 23.5131 1.87875C28.0212 4.3675 30.7787 8.14937 31.75 13.2156C31.8669 13.825 31.9194 14.4462 32 15.0625V16.9375C31.9765 17.0261 31.9588 17.116 31.9469 17.2069C31.7913 19.4375 31.2019 21.5544 30.125 23.51C27.635 28.0187 23.8531 30.7769 18.7875 31.75C18.1775 31.8675 17.5544 31.92 16.9375 32H15.0625C14.9834 31.9772 14.9028 31.9601 14.8212 31.9487C12.5775 31.7969 10.4525 31.2062 8.48688 30.1213C3.97875 27.6325 1.22125 23.8506 0.25 18.7844C0.133125 18.175 0.080625 17.5537 0 16.9375V15.0625C0.0234646 14.9739 0.0412094 14.884 0.0531249 14.7931C0.20875 12.5625 0.798125 10.4456 1.875 8.49C4.365 3.98125 8.14687 1.22312 13.2125 0.25C13.8225 0.135 14.4456 0.0825 15.0625 0ZM29.5 16C29.5 8.5525 23.4644 2.5125 16.0144 2.5C8.56437 2.4875 2.5 8.54625 2.5 16C2.5 23.4538 8.53563 29.4875 15.9856 29.5C23.4356 29.5125 29.5 23.4538 29.5 16Z" fill="#EF672C"/>
<path d="M13.8749 18.4925C13.9499 18.3675 13.9949 18.2387 14.0818 18.1525C16.4405 15.7858 18.802 13.4225 21.1661 11.0625C21.4474 10.7806 21.7549 10.5625 22.1705 10.5625C22.6705 10.5625 23.0536 10.79 23.2886 11.2306C23.5236 11.6712 23.4861 12.115 23.1999 12.5262C23.106 12.6514 23.0015 12.768 22.8874 12.875C20.217 15.5483 17.5461 18.221 14.8749 20.8931C14.1386 21.6294 13.4786 21.6319 12.7499 20.9012C11.5057 19.6575 10.2611 18.4135 9.01614 17.1694C8.67677 16.8319 8.49364 16.4394 8.59364 15.9594C8.6339 15.7459 8.72984 15.5468 8.87174 15.3824C9.01365 15.2179 9.1965 15.0938 9.40177 15.0227C9.60704 14.9516 9.82745 14.936 10.0407 14.9774C10.2539 15.0189 10.4525 15.1159 10.6161 15.2587C11.0368 15.625 11.4174 16.0413 11.8161 16.4375C12.4711 17.09 13.1249 17.745 13.8749 18.4925Z" fill="#EF672C"/>
</g>
<defs>
<clipPath id="clip0_941_15">
<rect width="32" height="32" fill="white"/>
</clipPath>
</defs>
</svg>
