<svg width="30" height="32" viewBox="0 0 30 32" fill="none" xmlns="http://www.w3.org/2000/svg">
<g clip-path="url(#clip0_943_18)">
<path d="M18.0036 0C18.3951 0.0968205 18.7957 0.166932 19.178 0.2938C20.6203 0.774564 21.6895 1.70354 22.3981 3.04233C22.4309 3.12098 22.484 3.18945 22.5521 3.24066C22.6202 3.29188 22.7008 3.32397 22.7854 3.33363C25.6541 3.82691 27.6264 6.21487 27.4962 9.12199C27.467 9.76468 27.6164 10.192 28.0162 10.682C29.8049 12.8721 29.6163 16.0505 27.6289 18.0862C27.4996 18.2189 27.4178 18.3316 27.4511 18.5411C27.6696 19.8974 27.3822 21.2866 26.6436 22.4448C25.905 23.6031 24.7666 24.4496 23.4448 24.8236C23.3942 24.8435 23.3451 24.8669 23.2979 24.8937L26.7383 31.9942H26.382C23.8037 31.9942 21.2263 31.9942 18.648 32C18.416 32 18.3016 31.9324 18.2031 31.7229C17.6923 30.6378 17.159 29.5703 16.6465 28.4894C16.5555 28.2966 16.4328 28.2282 16.2342 28.1706C15.7657 28.0342 15.3051 27.872 14.8545 27.6848C14.7817 27.6508 14.7023 27.6332 14.622 27.6332C14.5417 27.6332 14.4623 27.6508 14.3896 27.6848C13.9263 27.8676 13.4472 28.0078 12.9823 28.1856C12.8352 28.2358 12.7089 28.3336 12.6234 28.4635C12.0734 29.5611 11.5384 30.6679 11.0092 31.7738C10.9408 31.9182 10.8706 31.995 10.6887 31.9942C8.02779 31.9866 5.3669 31.9891 2.70517 31.9883C2.65593 31.9883 2.60752 31.9808 2.51404 31.9733C3.6642 29.6012 4.801 27.2558 5.94949 24.8854C5.83681 24.8445 5.74333 24.8077 5.64818 24.776C3.01233 23.9255 1.41395 21.4057 1.7787 18.6638C1.80203 18.5505 1.79553 18.4331 1.75982 18.3231C1.72412 18.213 1.66045 18.1142 1.57504 18.0361C0.562598 16.9925 -0.00266431 15.595 -0.000481986 14.1409C0.00170034 12.6869 0.571155 11.2911 1.58673 10.2504C1.66812 10.1757 1.72874 10.0811 1.76268 9.97592C1.79662 9.87074 1.80271 9.75856 1.78037 9.65033C1.40978 6.82417 3.08244 4.23423 5.82262 3.49305C6.44445 3.32612 6.83006 3.06654 7.17811 2.51566C8.0712 1.10509 9.40665 0.30465 11.0668 0.055922C11.1261 0.0419717 11.1841 0.0232707 11.2404 0H12.4298C13.1618 0.147735 13.8871 0.314667 14.5482 0.682751C14.5765 0.693877 14.6069 0.698742 14.6373 0.697013C14.6677 0.695284 14.6974 0.687003 14.7243 0.672735C15.3753 0.307155 16.0923 0.148569 16.8109 0H18.0036ZM14.5331 2.93717C14.4371 2.86789 14.2694 2.74603 14.0999 2.62584C11.9298 1.08172 9.07279 2.01821 8.2423 4.54555C8.052 5.12982 8.052 5.12982 7.45438 5.12982C4.75593 5.13733 2.97894 7.58121 3.80943 10.1378C3.99389 10.7045 3.99389 10.7045 3.49977 11.0634C1.32965 12.6426 1.32965 15.654 3.49977 17.2349C3.99389 17.5938 3.99389 17.5938 3.80943 18.1605C2.97894 20.7196 4.75676 23.1635 7.45438 23.1685C8.052 23.1685 8.052 23.1685 8.24314 23.7527C9.06945 26.2659 11.9106 27.2099 14.0766 25.6891C14.2619 25.5589 14.4447 25.4262 14.6258 25.2969C14.8261 25.4421 15.0022 25.5723 15.1808 25.6992C17.2675 27.1832 20.1003 26.2901 20.9517 23.8829C21.2021 23.1835 21.2021 23.1835 21.9315 23.1685C22.5145 23.1617 23.088 23.0193 23.6064 22.7525C24.1248 22.4858 24.574 22.102 24.9184 21.6315C25.2629 21.1611 25.493 20.617 25.5907 20.0422C25.6884 19.4674 25.651 18.8777 25.4814 18.3199C25.4104 18.0821 25.2376 17.81 25.3002 17.6138C25.3628 17.4177 25.6616 17.2975 25.8595 17.1472C26.3216 16.8007 26.6975 16.3522 26.9578 15.8365C27.2181 15.3209 27.3558 14.7521 27.3601 14.1745C27.3645 13.5969 27.2354 13.0261 26.9829 12.5066C26.7304 11.9871 26.3614 11.5329 25.9045 11.1794C25.6992 11.02 25.3754 10.9023 25.3128 10.7003C25.246 10.4858 25.4204 10.1945 25.4947 9.93745C25.6568 9.3854 25.6898 8.8035 25.5914 8.23664C25.4929 7.66979 25.2655 7.13313 24.9268 6.66808C24.588 6.20303 24.147 5.82201 23.6376 5.55444C23.1283 5.28686 22.5643 5.13987 21.9891 5.12481C21.7296 5.11813 21.4049 5.2016 21.2288 5.0764C21.0527 4.9512 21.0301 4.61817 20.9425 4.37528C20.2747 2.51316 18.3125 1.45815 16.4161 2.01821C15.7809 2.21101 15.21 2.6033 14.5331 2.93717ZM5.533 30.0552C5.56388 30.0928 5.56972 30.1062 5.57557 30.1062C6.91102 30.1112 8.24647 30.117 9.58193 30.1145C9.62023 30.1121 9.65746 30.1009 9.69075 30.0818C9.72404 30.0627 9.75249 30.0362 9.7739 30.0043C10.071 29.4117 10.3582 28.8133 10.6603 28.1848C9.38363 27.8949 8.24153 27.184 7.41766 26.1666C6.7733 27.497 6.14981 28.7841 5.533 30.0552ZM23.7419 30.1195C23.0926 28.7796 22.4657 27.4873 21.8614 26.2425C21.349 26.6598 20.8924 27.1122 20.359 27.4428C19.8257 27.7733 19.2081 27.9878 18.6179 28.2574C18.8867 28.8141 19.1605 29.3984 19.4526 29.9701C19.4935 30.0494 19.6454 30.112 19.7464 30.1128C20.748 30.1237 21.7496 30.1195 22.7512 30.1195H23.7419Z" fill="#EF672C"/>
<path d="M14.6366 4.71497C19.8783 4.74084 24.1033 8.98509 24.0775 14.1975C24.0516 19.3866 19.794 23.6066 14.6057 23.5849C9.35324 23.5624 5.12986 19.3065 5.16575 14.0698C5.20248 8.90579 9.47009 4.68826 14.6366 4.71497ZM14.6366 6.58961C10.4917 6.57209 7.07128 9.95329 7.04708 14.0915C7.04136 15.0888 7.23265 16.0774 7.60996 17.0006C7.98727 17.9238 8.54318 18.7634 9.24579 19.4712C9.94839 20.179 10.7839 20.7411 11.7042 21.1252C12.6246 21.5093 13.6118 21.7078 14.6091 21.7095C18.7765 21.7212 22.1861 18.3383 22.1986 14.1792C22.212 10.0025 18.8283 6.60714 14.6341 6.59379L14.6366 6.58961Z" fill="#EF672C"/>
<path d="M13.1235 18.1955L9.9126 14.9887L11.1921 13.7125L13.0926 15.618L17.72 10.999L19.0321 12.3036L13.1235 18.1955Z" fill="#EF672C"/>
</g>
<defs>
<clipPath id="clip0_943_18">
<rect width="29.2473" height="32" fill="white"/>
</clipPath>
</defs>
</svg>
