<svg width="22" height="28" viewBox="0 0 22 28" fill="none" xmlns="http://www.w3.org/2000/svg">
<path opacity="0.5" fill-rule="evenodd" clip-rule="evenodd" d="M11 0C4.92487 0 0 4.92487 0 11V16.5C0 22.5751 4.92487 27.5 11 27.5C17.0751 27.5 22 22.5751 22 16.5V11C22 4.92487 17.0751 0 11 0ZM12.4559 9.62329L11.3333 5L10.2108 9.62329L6.85185 7.85185L8.62329 11.2108L4 12.3333L8.62329 13.4559L6.85185 16.8148L10.2108 15.0434L11.3333 19.6667L12.4559 15.0434L15.8148 16.8148L14.0434 13.4559L18.6667 12.3333L14.0434 11.2108L15.8148 7.85185L12.4559 9.62329Z" fill="white"/>
</svg>
