<svg xmlns="http://www.w3.org/2000/svg" width="18" height="18" viewBox="0 0 18 18">
  <metadata><?xpacket begin="﻿" id="W5M0MpCehiHzreSzNTczkc9d"?>
<x:xmpmeta xmlns:x="adobe:ns:meta/" x:xmptk="Adobe XMP Core 5.6-c138 79.159824, 2016/09/14-01:09:01        ">
   <rdf:RDF xmlns:rdf="http://www.w3.org/1999/02/22-rdf-syntax-ns#">
      <rdf:Description rdf:about=""/>
   </rdf:RDF>
</x:xmpmeta>
                                                                                                    
                                                                                                    
                                                                                                    
                                                                                                    
                                                                                                    
                                                                                                    
                                                                                                    
                                                                                                    
                                                                                                    
                                                                                                    
                                                                                                    
                                                                                                    
                                                                                                    
                                                                                                    
                                                                                                    
                                                                                                    
                                                                                                    
                                                                                                    
                                                                                                    
                                                                                                    
                           
<?xpacket end="w"?></metadata>
<defs>
    <style>
      .cls-1 {
        fill-rule: evenodd;
      }
    </style>
  </defs>
  <path id="bell-black" class="cls-1" d="M407,2892.48a4.359,4.359,0,0,0,.626,2.25l0.746-.45a3.493,3.493,0,0,1,1.195-4.8l-0.448-.75A4.376,4.376,0,0,0,407,2892.48Zm3.333-1.73-0.436-.73a2.865,2.865,0,0,0-1.305,1.77,2.834,2.834,0,0,0,.325,2.16l0.727-.43A2.02,2.02,0,0,1,410.333,2890.75Zm12.547-2.02-0.448.75a3.492,3.492,0,0,1,1.2,4.8l0.746,0.45A4.37,4.37,0,0,0,422.88,2888.73Zm-0.3,3.26a2.015,2.015,0,0,1-.228,1.53l0.728,0.43a2.83,2.83,0,0,0,.324-2.16,2.864,2.864,0,0,0-1.3-1.77l-0.436.73A2.017,2.017,0,0,1,422.583,2891.99Zm-11.422,5.76a10.983,10.983,0,0,0,1.474-4.36c0.335-1.79.651-3.49,1.765-4.13a3.136,3.136,0,0,1,3.2,0c1.114,0.64,1.43,2.34,1.765,4.13a10.983,10.983,0,0,0,1.474,4.36h-9.678Zm4.839-12a0.75,0.75,0,1,1-.75.75A0.753,0.753,0,0,1,416,2885.75Zm2.353,2.21a1.575,1.575,0,0,1-.781-1.37h0a1.573,1.573,0,1,0-3.145,0h0a1.574,1.574,0,0,1-.78,1.37c-3.5,2.03-1.489,8.79-5.147,9.98v1.31h15v-1.31C419.842,2896.75,421.855,2889.99,418.353,2887.96Zm-0.1,12.79a2.3,2.3,0,0,1-2.229,2.25,2.337,2.337,0,0,1-2.271-2.25h4.5Z" transform="translate(-407 -2885)"/>
</svg>
