<svg xmlns="http://www.w3.org/2000/svg" width="15" height="12.19" viewBox="0 0 15 12.19">
  <metadata><?xpacket begin="﻿" id="W5M0MpCehiHzreSzNTczkc9d"?>
<x:xmpmeta xmlns:x="adobe:ns:meta/" x:xmptk="Adobe XMP Core 5.6-c138 79.159824, 2016/09/14-01:09:01        ">
   <rdf:RDF xmlns:rdf="http://www.w3.org/1999/02/22-rdf-syntax-ns#">
      <rdf:Description rdf:about=""/>
   </rdf:RDF>
</x:xmpmeta>
                                                                                                    
                                                                                                    
                                                                                                    
                                                                                                    
                                                                                                    
                                                                                                    
                                                                                                    
                                                                                                    
                                                                                                    
                                                                                                    
                                                                                                    
                                                                                                    
                                                                                                    
                                                                                                    
                                                                                                    
                                                                                                    
                                                                                                    
                                                                                                    
                                                                                                    
                                                                                                    
                           
<?xpacket end="w"?></metadata>
<defs>
    <style>
      .cls-1 {
        fill: #f7941e;
        fill-rule: evenodd;
      }
    </style>
  </defs>
  <path id="twitter-orange" class="cls-1" d="M698,3068.97a6.194,6.194,0,0,1-1.77.49,3.088,3.088,0,0,0,1.355-1.71,6.047,6.047,0,0,1-1.956.75,3.083,3.083,0,0,0-5.249,2.81,8.766,8.766,0,0,1-6.349-3.22,3.08,3.08,0,0,0,.953,4.11,3.121,3.121,0,0,1-1.395-.38,3.082,3.082,0,0,0,2.47,3.05,2.949,2.949,0,0,1-1.39.05,3.068,3.068,0,0,0,2.877,2.14,6.185,6.185,0,0,1-4.56,1.28,8.765,8.765,0,0,0,13.477-7.78A6.15,6.15,0,0,0,698,3068.97Z" transform="translate(-683 -3067.53)"/>
</svg>
