<svg xmlns="http://www.w3.org/2000/svg" width="18.438" height="11.03" viewBox="0 0 18.438 11.03">
  <metadata><?xpacket begin="﻿" id="W5M0MpCehiHzreSzNTczkc9d"?>
<x:xmpmeta xmlns:x="adobe:ns:meta/" x:xmptk="Adobe XMP Core 5.6-c138 79.159824, 2016/09/14-01:09:01        ">
   <rdf:RDF xmlns:rdf="http://www.w3.org/1999/02/22-rdf-syntax-ns#">
      <rdf:Description rdf:about=""/>
   </rdf:RDF>
</x:xmpmeta>
                                                                                                    
                                                                                                    
                                                                                                    
                                                                                                    
                                                                                                    
                                                                                                    
                                                                                                    
                                                                                                    
                                                                                                    
                                                                                                    
                                                                                                    
                                                                                                    
                                                                                                    
                                                                                                    
                                                                                                    
                                                                                                    
                                                                                                    
                                                                                                    
                                                                                                    
                                                                                                    
                           
<?xpacket end="w"?></metadata>
<defs>
    <style>
      .cls-1 {
        fill-rule: evenodd;
      }
    </style>
  </defs>
  <path id="vk-black" class="cls-1" d="M418.43,3075.99c-1.3-1.23-1.357-1.26-.24-2.75,1.385-1.85,3.2-4.21,1.594-4.21h-3.06c-0.594,0-.638.34-0.848,0.85-0.765,1.86-2.219,4.26-2.77,3.89-0.579-.38-0.315-1.9-0.27-4.15a0.961,0.961,0,0,0-.878-1.22,6.287,6.287,0,0,0-1.39-.16c-1.748,0-2.952.75-2.268,0.88,1.208,0.23,1.093,2.92.811,4.08-0.491,2.01-2.334-1.6-3.1-3.4a0.848,0.848,0,0,0-.9-0.77h-2.5c-0.378,0-.6.13-0.6,0.41a27.578,27.578,0,0,0,4.448,7.71c2.118,2.35,4.212,2.14,5.669,2.14a0.628,0.628,0,0,0,.654-0.73c-0.024-1.51.549-2.32,1.584-1.26,1.144,1.17,1.379,1.99,2.769,1.99h2.46c0.62,0,.865-0.21.865-0.53C420.448,3078.08,419.356,3076.88,418.43,3075.99Z" transform="translate(-402 -3068.25)"/>
</svg>
