<svg version="1.1" id="Capa_1" xmlns="http://www.w3.org/2000/svg" xmlns:xlink="http://www.w3.org/1999/xlink" x="0px" y="0px"
	 viewBox="0 0 502.172 502.172" style="enable-background:new 0 0 502.172 502.172;" xml:space="preserve" fill="#3660a6">
<g>
	<g>
		<g>
			<path d="M423.422,91.484c-6.484-9.567-13.752-18.58-21.728-26.944l-23.152,22.08c6.757,7.09,12.917,14.727,18.416,22.832
				L423.422,91.484z"/>
			<path d="M421.166,162.54l30.912-8.24c-2.983-11.174-6.89-22.081-11.68-32.608l-29.12,13.28
				C415.333,143.871,418.641,153.093,421.166,162.54z"/>
			<path d="M458.174,188.396l-31.872,2.976c0.528,5.552,0.784,11.104,0.8,16.64c0.125,46.706-18.444,91.52-51.568,124.448
				L251.086,456.924L126.638,332.46c-68.731-68.734-68.728-180.171,0.006-248.902c33.005-33.003,77.768-51.545,124.442-51.546
				c38.1-0.117,75.19,12.247,105.6,35.2l19.2-25.6c-91.9-68.925-222.275-50.3-291.2,41.6c-27.003,36.004-41.6,79.795-41.6,124.8
				c-0.141,55.196,21.804,108.154,60.944,147.072l147.056,147.088l147.072-147.088c39.142-38.916,61.082-91.877,60.928-147.072
				C459.086,201.452,458.782,194.914,458.174,188.396z"/>
			<path d="M267.086,336.012v-33.44c40.2-6.87,71.69-38.36,78.56-78.56h33.44v-32h-33.44c-6.87-40.2-38.36-71.69-78.56-78.56v-33.44
				h-32v33.44c-40.2,6.87-71.69,38.36-78.56,78.56h-33.44v32h33.44c6.87,40.2,38.36,71.69,78.56,78.56v33.44H267.086z
				 M187.086,208.012c0-35.346,28.654-64,64-64c35.346,0,64,28.654,64,64c0,35.346-28.654,64-64,64
				C215.74,272.012,187.086,243.358,187.086,208.012z"/>
		</g>
	</g>
</g>
<g>
</g>
<g>
</g>
<g>
</g>
<g>
</g>
<g>
</g>
<g>
</g>
<g>
</g>
<g>
</g>
<g>
</g>
<g>
</g>
<g>
</g>
<g>
</g>
<g>
</g>
<g>
</g>
<g>
</g>
</svg>