<svg version="1.1" id="Capa_1" xmlns="http://www.w3.org/2000/svg" xmlns:xlink="http://www.w3.org/1999/xlink" x="0px" y="0px"
	 viewBox="0 0 490 490" style="enable-background:new 0 0 490 490;" xml:space="preserve" fill="#d1719b">
<g>
	<path d="M245,0C155.031,0,81.841,75.852,81.841,169.096c0,2.348,0.045,4.696,0.135,7.029l-0.135,7.657
		c0,90.253,150.642,289.738,157.057,298.187L245,490l6.102-8.046c6.416-8.465,157.057-208.398,157.057-298.172l-0.314-3.918
		c0.209-3.559,0.314-7.148,0.314-10.768C408.159,75.852,334.969,0,245,0z M392.471,191.439
		C385.128,269.474,272.652,426.83,245,464.487c-27.682-37.612-140.158-194.684-147.471-273.048h0.942l-0.718-8.315
		c-0.404-4.621-0.598-9.302-0.598-14.028C97.155,84.301,163.48,15.314,245,15.314s147.845,68.987,147.845,153.782
		c0,4.726-0.194,9.407-0.598,14.028l-0.09,8.315H392.471z"/>
	<path d="M245,88.055c-38.524,0-69.855,29.775-69.855,66.37c0,36.595,31.331,66.37,69.855,66.37s69.855-29.775,69.855-66.37
		C314.855,117.83,283.524,88.055,245,88.055z M245,205.482c-30.074,0-54.541-22.911-54.541-51.056
		c0-28.145,24.466-51.056,54.541-51.056s54.541,22.911,54.541,51.056C299.541,182.57,275.074,205.482,245,205.482z"/>
</g>
<g>
</g>
<g>
</g>
<g>
</g>
<g>
</g>
<g>
</g>
<g>
</g>
<g>
</g>
<g>
</g>
<g>
</g>
<g>
</g>
<g>
</g>
<g>
</g>
<g>
</g>
<g>
</g>
<g>
</g>
</svg>