<svg version="1.1" id="Layer_1" focusable="false" xmlns="http://www.w3.org/2000/svg" xmlns:xlink="http://www.w3.org/1999/xlink"
	 x="0px" y="0px" width="612px" height="592.875px" viewBox="0 0 612 592.875" enable-background="new 0 0 612 592.875"
	 xml:space="preserve" fill="#a8a8a8">
<path fill="#a8a8a8" d="M296.438,0C132.68,0,0,132.68,0,296.438s132.68,296.438,296.438,296.438s296.438-132.68,296.438-296.438
	S460.196,0,296.438,0z M364.69,418.479l-105.427-76.619c-3.705-2.749-5.856-7.053-5.856-11.595V129.094
	c0-7.889,6.454-14.344,14.344-14.344h57.375c7.889,0,14.344,6.455,14.344,14.344v164.595l75.902,55.224
	c6.454,4.661,7.77,13.626,3.107,20.081l-33.709,46.378C380.11,421.706,371.143,423.141,364.69,418.479L364.69,418.479z"/>
</svg>