<svg version="1.1" id="Layer_1" focusable="false" xmlns="http://www.w3.org/2000/svg" xmlns:xlink="http://www.w3.org/1999/xlink"
	 x="0px" y="0px" width="612px" height="792px" viewBox="0 0 612 792" enable-background="new 0 0 612 792" xml:space="preserve" fill="#E20F0F">
<path d="M589.767,119.405L465.454,90.717c-13.507-3.108-27.372,3.944-32.871,16.615l-57.375,133.875
	c-5.021,11.714-1.673,25.46,8.248,33.469l72.436,59.288c-43.031,91.68-118.216,167.941-211.809,211.809l-59.288-72.436
	c-8.128-9.921-21.755-13.269-33.469-8.248L17.451,522.464c-12.79,5.618-19.842,19.483-16.734,32.991l28.688,124.313
	C32.393,692.677,43.868,702,57.375,702C363.494,702,612,453.973,612,147.375C612,133.987,602.796,122.393,589.767,119.405z"/>
</svg>