<svg version="1.1" id="Layer_1" focusable="false" xmlns="http://www.w3.org/2000/svg" xmlns:xlink="http://www.w3.org/1999/xlink"
	 x="0px" y="0px" width="612px" height="792px" viewBox="0 0 612 792" enable-background="new 0 0 612 792" xml:space="preserve">
<path fill="#E00000" d="M366.107,614.571h32.786c9.054,0,16.393-7.339,16.393-16.393V303.107c0-9.053-7.339-16.393-16.393-16.393
	h-32.786c-9.054,0-16.393,7.339-16.393,16.393v295.072C349.714,607.232,357.053,614.571,366.107,614.571z M590.143,155.571H477.565
	l-46.446-77.456c-11.856-19.757-33.214-31.84-56.255-31.83H237.136c-23.031-0.001-44.375,12.081-56.228,31.83l-46.474,77.456H21.857
	C9.785,155.571,0,165.357,0,177.429v21.857c0,12.071,9.785,21.857,21.856,21.857h21.857v459c0,36.215,29.357,65.571,65.571,65.571
	l0,0h393.429c36.214,0,65.571-29.356,65.571-65.571l0,0v-459h21.857c12.071,0,21.857-9.786,21.857-21.857v-21.857
	C612,165.357,602.214,155.571,590.143,155.571z M234.745,115.833c1.486-2.474,4.164-3.983,7.049-3.976h128.411
	c2.881-0.003,5.552,1.506,7.035,3.976l23.852,39.739H210.907L234.745,115.833z M502.714,680.143H109.285v-459h393.429V680.143z
	 M213.107,614.571h32.786c9.054,0,16.393-7.339,16.393-16.393V303.107c0-9.053-7.339-16.393-16.393-16.393h-32.786
	c-9.053,0-16.393,7.339-16.393,16.393v295.072C196.714,607.232,204.054,614.571,213.107,614.571z"/>
</svg>